; NON-PLATED HOLES START AT T1
; THROUGH (PLATED) HOLES START AT T100
M48
INCH
T100C0.040000
T101C0.038000
T102C0.035000
T103C0.036111
%
T100
X011637Y016688
X012371Y001383
X014986Y003329
X000564Y008530
X005325Y016395
X001328Y005374
T101
X009358Y005494
X008358Y005494
X007358Y005494
X010358Y005494
T102
X011533Y007494
X007533Y007494
T103
X013358Y005729
X004358Y007729
X004358Y012729
X013358Y012729
X004358Y011729
X013358Y006729
X004358Y008729
X013358Y008729
X004358Y010729
X004358Y009729
X004358Y006729
X004358Y005729
X013358Y011729
X013358Y009729
X013358Y007729
X013358Y010729
T00
M30
