G04 MADE WITH FRITZING*
G04 WWW.FRITZING.ORG*
G04 DOUBLE SIDED*
G04 HOLES PLATED*
G04 CONTOUR ON CENTER OF CONTOUR VECTOR*
%ASAXBY*%
%FSLAX23Y23*%
%MOIN*%
%OFA0B0*%
%SFA1.0B1.0*%
%ADD10C,0.008*%
%LNCONTOUR*%
G90*
G70*
G54D10*
X857Y1772D02*
X858Y1772D01*
X859Y1772D01*
X860Y1772D01*
X861Y1772D01*
X862Y1772D01*
X863Y1772D01*
X864Y1772D01*
X865Y1772D01*
X866Y1772D01*
X867Y1772D01*
X868Y1772D01*
X869Y1772D01*
X870Y1772D01*
X871Y1772D01*
X872Y1772D01*
X873Y1772D01*
X874Y1772D01*
X875Y1772D01*
X876Y1772D01*
X877Y1772D01*
X878Y1772D01*
X879Y1772D01*
X880Y1772D01*
X881Y1772D01*
X882Y1772D01*
X883Y1772D01*
X884Y1772D01*
X885Y1772D01*
X886Y1772D01*
X887Y1772D01*
X888Y1772D01*
X889Y1772D01*
X890Y1772D01*
X891Y1772D01*
X892Y1772D01*
X893Y1772D01*
X894Y1772D01*
X895Y1772D01*
X896Y1772D01*
X897Y1772D01*
X898Y1772D01*
X899Y1772D01*
X900Y1772D01*
X901Y1772D01*
X902Y1772D01*
X903Y1772D01*
X904Y1772D01*
X905Y1772D01*
X906Y1772D01*
X907Y1772D01*
X908Y1772D01*
X909Y1772D01*
X910Y1772D01*
X911Y1772D01*
X912Y1772D01*
X913Y1772D01*
X914Y1771D01*
X915Y1771D01*
X916Y1771D01*
X917Y1771D01*
X918Y1771D01*
X919Y1771D01*
X920Y1771D01*
X921Y1771D01*
X922Y1771D01*
X923Y1771D01*
X924Y1771D01*
X925Y1771D01*
X926Y1771D01*
X927Y1771D01*
X928Y1771D01*
X929Y1771D01*
X930Y1771D01*
X931Y1771D01*
X932Y1771D01*
X933Y1771D01*
X934Y1771D01*
X935Y1771D01*
X936Y1770D01*
X937Y1770D01*
X938Y1770D01*
X939Y1770D01*
X940Y1770D01*
X941Y1770D01*
X942Y1770D01*
X943Y1770D01*
X944Y1770D01*
X945Y1770D01*
X946Y1770D01*
X947Y1770D01*
X948Y1770D01*
X949Y1770D01*
X950Y1770D01*
X951Y1770D01*
X952Y1769D01*
X953Y1769D01*
X954Y1769D01*
X955Y1769D01*
X956Y1769D01*
X957Y1769D01*
X958Y1769D01*
X959Y1769D01*
X960Y1769D01*
X961Y1769D01*
X962Y1769D01*
X963Y1769D01*
X964Y1768D01*
X965Y1768D01*
X966Y1768D01*
X967Y1768D01*
X968Y1768D01*
X969Y1768D01*
X970Y1768D01*
X971Y1768D01*
X972Y1768D01*
X973Y1768D01*
X974Y1768D01*
X975Y1767D01*
X976Y1767D01*
X977Y1767D01*
X978Y1767D01*
X979Y1767D01*
X980Y1767D01*
X981Y1767D01*
X982Y1767D01*
X983Y1767D01*
X984Y1766D01*
X985Y1766D01*
X986Y1766D01*
X987Y1766D01*
X988Y1766D01*
X989Y1766D01*
X990Y1766D01*
X991Y1766D01*
X992Y1766D01*
X993Y1765D01*
X994Y1765D01*
X995Y1765D01*
X996Y1765D01*
X997Y1765D01*
X998Y1765D01*
X999Y1765D01*
X1000Y1765D01*
X1001Y1764D01*
X1002Y1764D01*
X1003Y1764D01*
X1004Y1764D01*
X1005Y1764D01*
X1006Y1764D01*
X1007Y1764D01*
X1008Y1763D01*
X1009Y1763D01*
X1010Y1763D01*
X1011Y1763D01*
X1012Y1763D01*
X1013Y1763D01*
X1014Y1763D01*
X1015Y1762D01*
X1016Y1762D01*
X1017Y1762D01*
X1018Y1762D01*
X1019Y1762D01*
X1020Y1762D01*
X1021Y1762D01*
X1022Y1761D01*
X1023Y1761D01*
X1024Y1761D01*
X1025Y1761D01*
X1026Y1761D01*
X1027Y1761D01*
X1028Y1760D01*
X1029Y1760D01*
X1030Y1760D01*
X1031Y1760D01*
X1032Y1760D01*
X1033Y1760D01*
X1034Y1759D01*
X1035Y1759D01*
X1036Y1759D01*
X1037Y1759D01*
X1038Y1759D01*
X1039Y1759D01*
X1040Y1758D01*
X1041Y1758D01*
X1042Y1758D01*
X1043Y1758D01*
X1044Y1758D01*
X1045Y1758D01*
X1046Y1757D01*
X1047Y1757D01*
X1048Y1757D01*
X1049Y1757D01*
X1050Y1757D01*
X1051Y1756D01*
X1052Y1756D01*
X1053Y1756D01*
X1054Y1756D01*
X1055Y1756D01*
X1056Y1755D01*
X1057Y1755D01*
X1058Y1755D01*
X1059Y1755D01*
X1060Y1755D01*
X1061Y1754D01*
X1062Y1754D01*
X1063Y1754D01*
X1064Y1754D01*
X1065Y1754D01*
X1066Y1753D01*
X1067Y1753D01*
X1068Y1753D01*
X1069Y1753D01*
X1070Y1753D01*
X1071Y1752D01*
X1072Y1752D01*
X1073Y1752D01*
X1074Y1752D01*
X1075Y1751D01*
X1076Y1751D01*
X1077Y1751D01*
X1078Y1751D01*
X1079Y1751D01*
X1080Y1750D01*
X1081Y1750D01*
X1082Y1750D01*
X1083Y1750D01*
X1084Y1749D01*
X1085Y1749D01*
X1086Y1749D01*
X1087Y1749D01*
X1088Y1749D01*
X1089Y1748D01*
X1090Y1748D01*
X1091Y1748D01*
X1092Y1748D01*
X1093Y1747D01*
X1094Y1747D01*
X1095Y1747D01*
X1096Y1747D01*
X1097Y1746D01*
X1098Y1746D01*
X1099Y1746D01*
X1100Y1746D01*
X1101Y1745D01*
X1102Y1745D01*
X1103Y1745D01*
X1104Y1745D01*
X1105Y1744D01*
X1106Y1744D01*
X1107Y1744D01*
X1108Y1744D01*
X1109Y1743D01*
X1110Y1743D01*
X1111Y1743D01*
X1112Y1743D01*
X1113Y1742D01*
X1114Y1742D01*
X1115Y1742D01*
X1116Y1741D01*
X1117Y1741D01*
X1118Y1741D01*
X1119Y1741D01*
X1120Y1740D01*
X1121Y1740D01*
X1122Y1740D01*
X1123Y1740D01*
X1124Y1739D01*
X1125Y1739D01*
X1126Y1739D01*
X1127Y1738D01*
X1128Y1738D01*
X1129Y1738D01*
X1130Y1738D01*
X1131Y1737D01*
X1132Y1737D01*
X1133Y1737D01*
X1134Y1736D01*
X1135Y1736D01*
X1136Y1736D01*
X1137Y1735D01*
X1138Y1735D01*
X1139Y1735D01*
X1140Y1735D01*
X1141Y1734D01*
X1142Y1734D01*
X1143Y1734D01*
X1144Y1733D01*
X1145Y1733D01*
X1146Y1733D01*
X1147Y1733D01*
X1148Y1732D01*
X1149Y1732D01*
X1150Y1732D01*
X1151Y1731D01*
X1152Y1731D01*
X1153Y1731D01*
X1154Y1730D01*
X1155Y1730D01*
X1156Y1730D01*
X1157Y1729D01*
X1158Y1729D01*
X1159Y1729D01*
X1160Y1728D01*
X1161Y1728D01*
X1162Y1728D01*
X1163Y1727D01*
X1164Y1727D01*
X1165Y1727D01*
X1166Y1726D01*
X1167Y1726D01*
X1168Y1726D01*
X1169Y1725D01*
X1170Y1725D01*
X1171Y1725D01*
X1172Y1724D01*
X1173Y1724D01*
X1174Y1724D01*
X1175Y1723D01*
X1176Y1723D01*
X1177Y1723D01*
X1178Y1722D01*
X1179Y1722D01*
X1180Y1722D01*
X1181Y1721D01*
X1182Y1721D01*
X1183Y1720D01*
X1184Y1720D01*
X1185Y1720D01*
X1186Y1719D01*
X1187Y1719D01*
X1188Y1719D01*
X1189Y1718D01*
X1190Y1718D01*
X1191Y1718D01*
X1192Y1717D01*
X1193Y1717D01*
X1194Y1716D01*
X1195Y1716D01*
X1196Y1716D01*
X1197Y1715D01*
X1198Y1715D01*
X1199Y1715D01*
X1200Y1714D01*
X1201Y1714D01*
X1202Y1713D01*
X1203Y1713D01*
X1204Y1713D01*
X1205Y1712D01*
X1206Y1712D01*
X1207Y1712D01*
X1208Y1711D01*
X1209Y1711D01*
X1210Y1710D01*
X1211Y1710D01*
X1212Y1710D01*
X1213Y1709D01*
X1214Y1709D01*
X1215Y1708D01*
X1216Y1708D01*
X1217Y1708D01*
X1218Y1707D01*
X1219Y1707D01*
X1220Y1706D01*
X1221Y1706D01*
X1222Y1705D01*
X1223Y1705D01*
X1224Y1705D01*
X1225Y1704D01*
X1226Y1704D01*
X1227Y1703D01*
X1228Y1703D01*
X1229Y1703D01*
X1230Y1702D01*
X1231Y1702D01*
X1232Y1701D01*
X1233Y1701D01*
X1234Y1700D01*
X1235Y1700D01*
X1236Y1700D01*
X1237Y1699D01*
X1238Y1699D01*
X1239Y1698D01*
X1240Y1698D01*
X1241Y1697D01*
X1242Y1697D01*
X1243Y1697D01*
X1244Y1696D01*
X1245Y1696D01*
X1246Y1695D01*
X1247Y1695D01*
X1248Y1694D01*
X1249Y1694D01*
X1250Y1693D01*
X1251Y1693D01*
X1252Y1692D01*
X1253Y1692D01*
X1254Y1692D01*
X1255Y1691D01*
X1256Y1691D01*
X1257Y1690D01*
X1258Y1690D01*
X1259Y1689D01*
X1260Y1689D01*
X1261Y1688D01*
X1262Y1688D01*
X1263Y1687D01*
X1264Y1687D01*
X1265Y1686D01*
X1266Y1686D01*
X1267Y1685D01*
X1268Y1685D01*
X1269Y1685D01*
X1270Y1684D01*
X1271Y1684D01*
X1272Y1683D01*
X1273Y1683D01*
X1274Y1682D01*
X1275Y1682D01*
X1276Y1681D01*
X1277Y1681D01*
X1278Y1680D01*
X1279Y1680D01*
X1280Y1679D01*
X1281Y1679D01*
X1282Y1678D01*
X1283Y1678D01*
X1284Y1677D01*
X1285Y1677D01*
X1286Y1676D01*
X1287Y1676D01*
X1288Y1675D01*
X1289Y1675D01*
X1290Y1674D01*
X1291Y1674D01*
X1292Y1673D01*
X1293Y1672D01*
X1294Y1672D01*
X1295Y1671D01*
X1296Y1671D01*
X1297Y1670D01*
X1298Y1670D01*
X1299Y1669D01*
X1300Y1669D01*
X1301Y1668D01*
X1302Y1668D01*
X1303Y1667D01*
X1304Y1667D01*
X1305Y1666D01*
X1306Y1666D01*
X1307Y1665D01*
X1308Y1665D01*
X1309Y1664D01*
X1310Y1663D01*
X1311Y1663D01*
X1312Y1662D01*
X1313Y1662D01*
X1314Y1661D01*
X1315Y1661D01*
X1316Y1660D01*
X1317Y1660D01*
X1318Y1659D01*
X1319Y1658D01*
X1320Y1658D01*
X1321Y1657D01*
X1322Y1657D01*
X1323Y1656D01*
X1324Y1656D01*
X1325Y1655D01*
X1326Y1654D01*
X1327Y1654D01*
X1328Y1653D01*
X1329Y1653D01*
X1330Y1652D01*
X1331Y1652D01*
X1332Y1651D01*
X1333Y1650D01*
X1334Y1650D01*
X1335Y1649D01*
X1336Y1649D01*
X1337Y1648D01*
X1338Y1647D01*
X1339Y1647D01*
X1340Y1646D01*
X1341Y1646D01*
X1342Y1645D01*
X1343Y1644D01*
X1344Y1644D01*
X1345Y1643D01*
X1346Y1643D01*
X1347Y1642D01*
X1348Y1641D01*
X1349Y1641D01*
X1350Y1640D01*
X1351Y1639D01*
X1352Y1639D01*
X1353Y1638D01*
X1354Y1638D01*
X1355Y1637D01*
X1356Y1636D01*
X1357Y1636D01*
X1358Y1635D01*
X1359Y1634D01*
X1360Y1634D01*
X1361Y1633D01*
X1362Y1633D01*
X1363Y1632D01*
X1364Y1631D01*
X1365Y1631D01*
X1366Y1630D01*
X1367Y1629D01*
X1368Y1629D01*
X1369Y1628D01*
X1370Y1627D01*
X1371Y1627D01*
X1372Y1626D01*
X1373Y1625D01*
X1374Y1625D01*
X1375Y1624D01*
X1376Y1623D01*
X1377Y1623D01*
X1378Y1622D01*
X1379Y1621D01*
X1380Y1621D01*
X1381Y1620D01*
X1382Y1619D01*
X1383Y1619D01*
X1384Y1618D01*
X1385Y1617D01*
X1386Y1617D01*
X1387Y1616D01*
X1388Y1615D01*
X1389Y1615D01*
X1390Y1614D01*
X1391Y1613D01*
X1392Y1612D01*
X1393Y1612D01*
X1394Y1611D01*
X1395Y1610D01*
X1396Y1610D01*
X1397Y1609D01*
X1398Y1608D01*
X1399Y1608D01*
X1400Y1607D01*
X1401Y1606D01*
X1402Y1605D01*
X1403Y1605D01*
X1404Y1604D01*
X1405Y1603D01*
X1406Y1602D01*
X1407Y1602D01*
X1408Y1601D01*
X1409Y1600D01*
X1410Y1600D01*
X1411Y1599D01*
X1412Y1598D01*
X1413Y1597D01*
X1414Y1597D01*
X1415Y1596D01*
X1416Y1595D01*
X1417Y1594D01*
X1418Y1594D01*
X1419Y1593D01*
X1420Y1592D01*
X1421Y1591D01*
X1422Y1591D01*
X1423Y1590D01*
X1424Y1589D01*
X1425Y1588D01*
X1426Y1587D01*
X1427Y1587D01*
X1428Y1586D01*
X1429Y1585D01*
X1430Y1584D01*
X1431Y1584D01*
X1432Y1583D01*
X1433Y1582D01*
X1434Y1581D01*
X1435Y1580D01*
X1436Y1580D01*
X1437Y1579D01*
X1438Y1578D01*
X1439Y1577D01*
X1440Y1576D01*
X1441Y1576D01*
X1442Y1575D01*
X1443Y1574D01*
X1444Y1573D01*
X1445Y1572D01*
X1446Y1572D01*
X1447Y1571D01*
X1448Y1570D01*
X1449Y1569D01*
X1450Y1568D01*
X1451Y1567D01*
X1452Y1567D01*
X1453Y1566D01*
X1454Y1565D01*
X1455Y1564D01*
X1456Y1563D01*
X1457Y1562D01*
X1458Y1562D01*
X1459Y1561D01*
X1460Y1560D01*
X1461Y1559D01*
X1462Y1558D01*
X1463Y1557D01*
X1464Y1556D01*
X1465Y1556D01*
X1466Y1555D01*
X1467Y1554D01*
X1468Y1553D01*
X1469Y1552D01*
X1470Y1551D01*
X1471Y1550D01*
X1472Y1549D01*
X1473Y1549D01*
X1474Y1548D01*
X1475Y1547D01*
X1476Y1546D01*
X1477Y1545D01*
X1478Y1544D01*
X1479Y1543D01*
X1480Y1542D01*
X1481Y1541D01*
X1482Y1540D01*
X1483Y1540D01*
X1484Y1539D01*
X1485Y1538D01*
X1486Y1537D01*
X1487Y1536D01*
X1488Y1535D01*
X1489Y1534D01*
X1490Y1533D01*
X1491Y1532D01*
X1492Y1531D01*
X1493Y1530D01*
X1494Y1529D01*
X1495Y1528D01*
X1496Y1527D01*
X1497Y1526D01*
X1498Y1525D01*
X1499Y1525D01*
X1500Y1524D01*
X1501Y1523D01*
X1502Y1522D01*
X1503Y1521D01*
X1504Y1520D01*
X1505Y1519D01*
X1506Y1518D01*
X1507Y1517D01*
X1508Y1516D01*
X1509Y1515D01*
X1510Y1514D01*
X1511Y1513D01*
X1512Y1512D01*
X1513Y1511D01*
X1514Y1510D01*
X1515Y1509D01*
X1516Y1508D01*
X1517Y1507D01*
X1518Y1506D01*
X1519Y1505D01*
X1520Y1504D01*
X1521Y1503D01*
X1522Y1502D01*
X1522Y1501D01*
X1523Y1500D01*
X1524Y1499D01*
X1525Y1498D01*
X1526Y1497D01*
X1527Y1496D01*
X1528Y1495D01*
X1529Y1494D01*
X1530Y1493D01*
X1531Y1492D01*
X1532Y1491D01*
X1533Y1490D01*
X1534Y1489D01*
X1535Y1488D01*
X1536Y1487D01*
X1537Y1486D01*
X1538Y1485D01*
X1538Y1484D01*
X1539Y1483D01*
X1540Y1482D01*
X1541Y1481D01*
X1542Y1480D01*
X1543Y1479D01*
X1544Y1478D01*
X1545Y1477D01*
X1546Y1476D01*
X1547Y1475D01*
X1547Y1474D01*
X1548Y1473D01*
X1549Y1472D01*
X1550Y1471D01*
X1551Y1470D01*
X1552Y1469D01*
X1553Y1468D01*
X1554Y1467D01*
X1554Y1466D01*
X1555Y1465D01*
X1556Y1464D01*
X1557Y1463D01*
X1558Y1462D01*
X1559Y1461D01*
X1560Y1460D01*
X1560Y1459D01*
X1561Y1458D01*
X1562Y1457D01*
X1563Y1456D01*
X1564Y1455D01*
X1565Y1454D01*
X1565Y1453D01*
X1566Y1452D01*
X1567Y1451D01*
X1568Y1450D01*
X1569Y1449D01*
X1570Y1448D01*
X1570Y1447D01*
X1571Y1446D01*
X1572Y1445D01*
X1573Y1444D01*
X1574Y1443D01*
X1574Y1442D01*
X1575Y1441D01*
X1576Y1440D01*
X1577Y1439D01*
X1578Y1438D01*
X1578Y1437D01*
X1579Y1436D01*
X1580Y1435D01*
X1581Y1434D01*
X1582Y1433D01*
X1582Y1432D01*
X1583Y1431D01*
X1584Y1430D01*
X1585Y1429D01*
X1585Y1428D01*
X1586Y1427D01*
X1587Y1426D01*
X1588Y1425D01*
X1589Y1424D01*
X1589Y1423D01*
X1590Y1422D01*
X1591Y1421D01*
X1592Y1420D01*
X1592Y1419D01*
X1593Y1418D01*
X1594Y1417D01*
X1595Y1416D01*
X1595Y1415D01*
X1596Y1414D01*
X1597Y1413D01*
X1598Y1412D01*
X1598Y1411D01*
X1599Y1410D01*
X1600Y1409D01*
X1600Y1408D01*
X1601Y1407D01*
X1602Y1406D01*
X1603Y1405D01*
X1603Y1404D01*
X1604Y1403D01*
X1605Y1402D01*
X1606Y1401D01*
X1606Y1400D01*
X1607Y1399D01*
X1608Y1398D01*
X1608Y1397D01*
X1609Y1396D01*
X1610Y1395D01*
X1610Y1394D01*
X1611Y1393D01*
X1612Y1392D01*
X1613Y1391D01*
X1613Y1390D01*
X1614Y1389D01*
X1615Y1388D01*
X1615Y1387D01*
X1616Y1386D01*
X1617Y1385D01*
X1617Y1384D01*
X1618Y1383D01*
X1619Y1382D01*
X1619Y1381D01*
X1620Y1380D01*
X1621Y1379D01*
X1621Y1378D01*
X1622Y1377D01*
X1623Y1376D01*
X1623Y1375D01*
X1624Y1374D01*
X1625Y1373D01*
X1625Y1372D01*
X1626Y1371D01*
X1627Y1370D01*
X1627Y1369D01*
X1628Y1368D01*
X1629Y1367D01*
X1629Y1366D01*
X1630Y1365D01*
X1631Y1364D01*
X1631Y1363D01*
X1632Y1362D01*
X1632Y1361D01*
X1633Y1360D01*
X1634Y1359D01*
X1634Y1358D01*
X1635Y1357D01*
X1636Y1356D01*
X1636Y1355D01*
X1637Y1354D01*
X1637Y1353D01*
X1638Y1352D01*
X1639Y1351D01*
X1639Y1350D01*
X1640Y1349D01*
X1641Y1348D01*
X1641Y1347D01*
X1642Y1346D01*
X1642Y1345D01*
X1643Y1344D01*
X1644Y1343D01*
X1644Y1342D01*
X1645Y1341D01*
X1645Y1340D01*
X1646Y1339D01*
X1647Y1338D01*
X1647Y1337D01*
X1648Y1336D01*
X1648Y1335D01*
X1649Y1334D01*
X1650Y1333D01*
X1650Y1332D01*
X1651Y1331D01*
X1651Y1330D01*
X1652Y1329D01*
X1652Y1328D01*
X1653Y1327D01*
X1654Y1326D01*
X1654Y1325D01*
X1655Y1324D01*
X1655Y1323D01*
X1656Y1322D01*
X1656Y1321D01*
X1657Y1320D01*
X1658Y1319D01*
X1658Y1318D01*
X1659Y1317D01*
X1659Y1316D01*
X1660Y1315D01*
X1660Y1314D01*
X1661Y1313D01*
X1661Y1312D01*
X1662Y1311D01*
X1663Y1310D01*
X1663Y1309D01*
X1664Y1308D01*
X1664Y1307D01*
X1665Y1306D01*
X1665Y1305D01*
X1666Y1304D01*
X1666Y1303D01*
X1667Y1302D01*
X1667Y1301D01*
X1668Y1300D01*
X1668Y1299D01*
X1669Y1298D01*
X1669Y1297D01*
X1670Y1296D01*
X1670Y1295D01*
X1671Y1294D01*
X1672Y1293D01*
X1672Y1292D01*
X1673Y1291D01*
X1673Y1290D01*
X1674Y1289D01*
X1674Y1288D01*
X1675Y1287D01*
X1675Y1286D01*
X1676Y1285D01*
X1676Y1284D01*
X1677Y1283D01*
X1677Y1282D01*
X1678Y1281D01*
X1678Y1280D01*
X1679Y1279D01*
X1679Y1278D01*
X1680Y1277D01*
X1680Y1276D01*
X1681Y1275D01*
X1681Y1274D01*
X1682Y1273D01*
X1682Y1272D01*
X1683Y1271D01*
X1683Y1269D01*
X1684Y1268D01*
X1684Y1267D01*
X1685Y1266D01*
X1685Y1265D01*
X1686Y1264D01*
X1686Y1263D01*
X1687Y1262D01*
X1687Y1261D01*
X1688Y1260D01*
X1688Y1259D01*
X1689Y1258D01*
X1689Y1257D01*
X1690Y1256D01*
X1690Y1254D01*
X1691Y1253D01*
X1691Y1252D01*
X1692Y1251D01*
X1692Y1250D01*
X1693Y1249D01*
X1693Y1248D01*
X1694Y1247D01*
X1694Y1246D01*
X1695Y1245D01*
X1695Y1243D01*
X1696Y1242D01*
X1696Y1241D01*
X1697Y1240D01*
X1697Y1239D01*
X1698Y1238D01*
X1698Y1236D01*
X1699Y1235D01*
X1699Y1234D01*
X1700Y1233D01*
X1700Y1232D01*
X1701Y1231D01*
X1701Y1229D01*
X1702Y1228D01*
X1702Y1227D01*
X1703Y1226D01*
X1703Y1224D01*
X1704Y1223D01*
X1704Y1222D01*
X1705Y1221D01*
X1705Y1220D01*
X1706Y1219D01*
X1706Y1217D01*
X1707Y1216D01*
X1707Y1215D01*
X1708Y1214D01*
X1708Y1212D01*
X1709Y1211D01*
X1709Y1210D01*
X1710Y1209D01*
X1710Y1207D01*
X1711Y1206D01*
X1711Y1204D01*
X1712Y1203D01*
X1712Y1202D01*
X1713Y1201D01*
X1713Y1199D01*
X1714Y1198D01*
X1714Y1196D01*
X1715Y1195D01*
X1715Y1194D01*
X1716Y1193D01*
X1716Y1191D01*
X1717Y1190D01*
X1717Y1188D01*
X1718Y1187D01*
X1718Y1185D01*
X1719Y1184D01*
X1719Y1183D01*
X1720Y1182D01*
X1720Y1180D01*
X1721Y1179D01*
X1721Y1177D01*
X1722Y1176D01*
X1722Y1174D01*
X1723Y1173D01*
X1723Y1171D01*
X1724Y1170D01*
X1724Y1168D01*
X1725Y1167D01*
X1725Y1165D01*
X1726Y1164D01*
X1726Y1162D01*
X1727Y1161D01*
X1727Y1159D01*
X1728Y1158D01*
X1728Y1156D01*
X1729Y1155D01*
X1729Y1153D01*
X1730Y1152D01*
X1730Y1150D01*
X1731Y1149D01*
X1731Y1146D01*
X1732Y1145D01*
X1732Y1143D01*
X1733Y1142D01*
X1733Y1139D01*
X1734Y1138D01*
X1734Y1136D01*
X1735Y1135D01*
X1735Y1133D01*
X1736Y1132D01*
X1736Y1129D01*
X1737Y1128D01*
X1737Y1126D01*
X1738Y1125D01*
X1738Y1122D01*
X1739Y1121D01*
X1739Y1118D01*
X1740Y1117D01*
X1740Y1115D01*
X1741Y1114D01*
X1741Y1111D01*
X1742Y1110D01*
X1742Y1107D01*
X1743Y1106D01*
X1743Y1103D01*
X1744Y1102D01*
X1744Y1099D01*
X1745Y1098D01*
X1745Y1095D01*
X1746Y1094D01*
X1746Y1091D01*
X1747Y1090D01*
X1747Y1086D01*
X1748Y1085D01*
X1748Y1082D01*
X1749Y1081D01*
X1749Y1077D01*
X1750Y1076D01*
X1750Y1073D01*
X1751Y1072D01*
X1751Y1068D01*
X1752Y1067D01*
X1752Y1063D01*
X1753Y1062D01*
X1753Y1058D01*
X1754Y1057D01*
X1754Y1053D01*
X1755Y1052D01*
X1755Y1048D01*
X1756Y1047D01*
X1756Y1042D01*
X1757Y1041D01*
X1757Y1036D01*
X1758Y1035D01*
X1758Y1030D01*
X1759Y1029D01*
X1759Y1024D01*
X1760Y1023D01*
X1760Y1017D01*
X1761Y1016D01*
X1761Y1010D01*
X1762Y1009D01*
X1762Y1003D01*
X1763Y1002D01*
X1763Y995D01*
X1764Y994D01*
X1764Y986D01*
X1765Y985D01*
X1765Y977D01*
X1766Y976D01*
X1766Y966D01*
X1767Y965D01*
X1767Y954D01*
X1768Y953D01*
X1768Y938D01*
X1769Y937D01*
X1769Y916D01*
X1770Y915D01*
X1770Y859D01*
X1769Y858D01*
X1769Y837D01*
X1768Y836D01*
X1768Y821D01*
X1767Y820D01*
X1767Y809D01*
X1766Y808D01*
X1766Y798D01*
X1765Y797D01*
X1765Y789D01*
X1764Y788D01*
X1764Y780D01*
X1763Y779D01*
X1763Y772D01*
X1762Y771D01*
X1762Y765D01*
X1761Y764D01*
X1761Y758D01*
X1760Y757D01*
X1760Y751D01*
X1759Y750D01*
X1759Y745D01*
X1758Y744D01*
X1758Y739D01*
X1757Y738D01*
X1757Y733D01*
X1756Y732D01*
X1756Y727D01*
X1755Y726D01*
X1755Y722D01*
X1754Y721D01*
X1754Y717D01*
X1753Y716D01*
X1753Y712D01*
X1752Y711D01*
X1752Y707D01*
X1751Y706D01*
X1751Y702D01*
X1750Y701D01*
X1750Y698D01*
X1749Y697D01*
X1749Y693D01*
X1748Y692D01*
X1748Y689D01*
X1747Y688D01*
X1747Y684D01*
X1746Y683D01*
X1746Y680D01*
X1745Y679D01*
X1745Y676D01*
X1744Y675D01*
X1744Y672D01*
X1743Y671D01*
X1743Y668D01*
X1742Y667D01*
X1742Y664D01*
X1741Y663D01*
X1741Y660D01*
X1740Y659D01*
X1740Y657D01*
X1739Y656D01*
X1739Y653D01*
X1738Y652D01*
X1738Y649D01*
X1737Y648D01*
X1737Y646D01*
X1736Y645D01*
X1736Y642D01*
X1735Y641D01*
X1735Y639D01*
X1734Y638D01*
X1734Y636D01*
X1733Y635D01*
X1733Y632D01*
X1732Y631D01*
X1732Y629D01*
X1731Y628D01*
X1731Y625D01*
X1730Y624D01*
X1730Y622D01*
X1729Y621D01*
X1729Y619D01*
X1728Y618D01*
X1728Y616D01*
X1727Y615D01*
X1727Y613D01*
X1726Y612D01*
X1726Y610D01*
X1725Y609D01*
X1725Y607D01*
X1724Y606D01*
X1724Y604D01*
X1723Y603D01*
X1723Y601D01*
X1722Y600D01*
X1722Y598D01*
X1721Y597D01*
X1721Y595D01*
X1720Y594D01*
X1720Y592D01*
X1719Y591D01*
X1719Y590D01*
X1718Y589D01*
X1718Y587D01*
X1717Y586D01*
X1717Y584D01*
X1716Y583D01*
X1716Y581D01*
X1715Y580D01*
X1715Y579D01*
X1714Y578D01*
X1714Y576D01*
X1713Y575D01*
X1713Y573D01*
X1712Y572D01*
X1712Y571D01*
X1711Y570D01*
X1711Y568D01*
X1710Y567D01*
X1710Y565D01*
X1709Y564D01*
X1709Y563D01*
X1708Y562D01*
X1708Y560D01*
X1707Y559D01*
X1707Y558D01*
X1706Y557D01*
X1706Y555D01*
X1705Y554D01*
X1705Y553D01*
X1704Y552D01*
X1704Y551D01*
X1703Y550D01*
X1703Y548D01*
X1702Y547D01*
X1702Y546D01*
X1701Y545D01*
X1701Y543D01*
X1700Y542D01*
X1700Y541D01*
X1699Y540D01*
X1699Y539D01*
X1698Y538D01*
X1698Y536D01*
X1697Y535D01*
X1697Y534D01*
X1696Y533D01*
X1696Y532D01*
X1695Y531D01*
X1695Y529D01*
X1694Y528D01*
X1694Y527D01*
X1693Y526D01*
X1693Y525D01*
X1692Y524D01*
X1692Y523D01*
X1691Y522D01*
X1691Y521D01*
X1690Y520D01*
X1690Y518D01*
X1689Y517D01*
X1689Y516D01*
X1688Y515D01*
X1688Y514D01*
X1687Y513D01*
X1687Y512D01*
X1686Y511D01*
X1686Y510D01*
X1685Y509D01*
X1685Y508D01*
X1684Y507D01*
X1684Y506D01*
X1683Y505D01*
X1683Y503D01*
X1682Y502D01*
X1682Y501D01*
X1681Y500D01*
X1681Y499D01*
X1680Y498D01*
X1680Y497D01*
X1679Y496D01*
X1679Y495D01*
X1678Y494D01*
X1678Y493D01*
X1677Y492D01*
X1677Y491D01*
X1676Y490D01*
X1676Y489D01*
X1675Y488D01*
X1675Y487D01*
X1674Y486D01*
X1674Y485D01*
X1673Y484D01*
X1673Y483D01*
X1672Y482D01*
X1672Y481D01*
X1671Y480D01*
X1670Y479D01*
X1670Y478D01*
X1669Y477D01*
X1669Y476D01*
X1668Y475D01*
X1668Y474D01*
X1667Y473D01*
X1667Y472D01*
X1666Y471D01*
X1666Y470D01*
X1665Y469D01*
X1665Y468D01*
X1664Y467D01*
X1664Y466D01*
X1663Y465D01*
X1663Y464D01*
X1662Y463D01*
X1661Y462D01*
X1661Y461D01*
X1660Y460D01*
X1660Y459D01*
X1659Y458D01*
X1659Y457D01*
X1658Y456D01*
X1658Y455D01*
X1657Y454D01*
X1656Y453D01*
X1656Y452D01*
X1655Y451D01*
X1655Y450D01*
X1654Y449D01*
X1654Y448D01*
X1653Y447D01*
X1652Y446D01*
X1652Y445D01*
X1651Y444D01*
X1651Y443D01*
X1650Y442D01*
X1650Y441D01*
X1649Y440D01*
X1648Y439D01*
X1648Y438D01*
X1647Y437D01*
X1647Y436D01*
X1646Y435D01*
X1645Y434D01*
X1645Y433D01*
X1644Y432D01*
X1644Y431D01*
X1643Y430D01*
X1642Y429D01*
X1642Y428D01*
X1641Y427D01*
X1641Y426D01*
X1640Y425D01*
X1639Y424D01*
X1639Y423D01*
X1638Y422D01*
X1637Y421D01*
X1637Y420D01*
X1636Y419D01*
X1636Y418D01*
X1635Y417D01*
X1634Y416D01*
X1634Y415D01*
X1633Y414D01*
X1632Y413D01*
X1632Y412D01*
X1631Y411D01*
X1631Y410D01*
X1630Y409D01*
X1629Y408D01*
X1629Y407D01*
X1628Y406D01*
X1627Y405D01*
X1627Y404D01*
X1626Y403D01*
X1625Y402D01*
X1625Y401D01*
X1624Y400D01*
X1623Y399D01*
X1623Y398D01*
X1622Y397D01*
X1621Y396D01*
X1621Y395D01*
X1620Y394D01*
X1619Y393D01*
X1619Y392D01*
X1618Y391D01*
X1617Y390D01*
X1617Y389D01*
X1616Y388D01*
X1615Y387D01*
X1615Y386D01*
X1614Y385D01*
X1613Y384D01*
X1613Y383D01*
X1612Y382D01*
X1611Y381D01*
X1610Y380D01*
X1610Y379D01*
X1609Y378D01*
X1608Y377D01*
X1608Y376D01*
X1607Y375D01*
X1606Y374D01*
X1606Y373D01*
X1605Y372D01*
X1604Y371D01*
X1603Y370D01*
X1603Y369D01*
X1602Y368D01*
X1601Y367D01*
X1600Y366D01*
X1600Y365D01*
X1599Y364D01*
X1598Y363D01*
X1598Y362D01*
X1597Y361D01*
X1596Y360D01*
X1595Y359D01*
X1595Y358D01*
X1594Y357D01*
X1593Y356D01*
X1592Y355D01*
X1592Y354D01*
X1591Y353D01*
X1590Y352D01*
X1589Y351D01*
X1589Y350D01*
X1588Y349D01*
X1587Y348D01*
X1586Y347D01*
X1585Y346D01*
X1585Y345D01*
X1584Y344D01*
X1583Y343D01*
X1582Y342D01*
X1582Y341D01*
X1581Y340D01*
X1580Y339D01*
X1579Y338D01*
X1578Y337D01*
X1578Y336D01*
X1577Y335D01*
X1576Y334D01*
X1575Y333D01*
X1574Y332D01*
X1574Y331D01*
X1573Y330D01*
X1572Y329D01*
X1571Y328D01*
X1570Y327D01*
X1570Y326D01*
X1569Y325D01*
X1568Y324D01*
X1567Y323D01*
X1566Y322D01*
X1565Y321D01*
X1565Y320D01*
X1564Y319D01*
X1563Y318D01*
X1562Y317D01*
X1561Y316D01*
X1560Y315D01*
X1560Y314D01*
X1559Y313D01*
X1558Y312D01*
X1557Y311D01*
X1556Y310D01*
X1555Y309D01*
X1554Y308D01*
X1554Y307D01*
X1553Y306D01*
X1552Y305D01*
X1551Y304D01*
X1550Y303D01*
X1549Y302D01*
X1548Y301D01*
X1547Y300D01*
X1547Y299D01*
X1546Y298D01*
X1545Y297D01*
X1544Y296D01*
X1543Y295D01*
X1542Y294D01*
X1541Y293D01*
X1540Y292D01*
X1539Y291D01*
X1538Y290D01*
X1538Y289D01*
X1537Y288D01*
X1536Y287D01*
X1535Y286D01*
X1534Y285D01*
X1533Y284D01*
X1532Y283D01*
X1531Y282D01*
X1530Y281D01*
X1529Y280D01*
X1528Y279D01*
X1527Y278D01*
X1526Y277D01*
X1525Y276D01*
X1524Y275D01*
X1523Y274D01*
X1523Y273D01*
X1522Y272D01*
X1521Y271D01*
X1520Y270D01*
X1519Y269D01*
X1518Y268D01*
X1517Y267D01*
X1516Y266D01*
X1515Y265D01*
X1514Y264D01*
X1513Y263D01*
X1512Y262D01*
X1511Y261D01*
X1510Y260D01*
X1509Y259D01*
X1508Y258D01*
X1507Y257D01*
X1506Y256D01*
X1505Y255D01*
X1504Y254D01*
X1503Y253D01*
X1502Y252D01*
X1501Y251D01*
X1500Y250D01*
X1499Y249D01*
X1498Y249D01*
X1497Y248D01*
X1496Y247D01*
X1495Y246D01*
X1494Y245D01*
X1493Y244D01*
X1492Y243D01*
X1491Y242D01*
X1490Y241D01*
X1489Y240D01*
X1488Y239D01*
X1487Y238D01*
X1486Y237D01*
X1485Y236D01*
X1484Y235D01*
X1483Y234D01*
X1482Y234D01*
X1481Y233D01*
X1480Y232D01*
X1479Y231D01*
X1478Y230D01*
X1477Y229D01*
X1476Y228D01*
X1475Y227D01*
X1474Y226D01*
X1473Y225D01*
X1472Y225D01*
X1471Y224D01*
X1470Y223D01*
X1469Y222D01*
X1468Y221D01*
X1467Y220D01*
X1466Y219D01*
X1465Y218D01*
X1464Y218D01*
X1463Y217D01*
X1462Y216D01*
X1461Y215D01*
X1460Y214D01*
X1459Y213D01*
X1458Y212D01*
X1457Y212D01*
X1456Y211D01*
X1455Y210D01*
X1454Y209D01*
X1453Y208D01*
X1452Y207D01*
X1451Y207D01*
X1450Y206D01*
X1449Y205D01*
X1448Y204D01*
X1447Y203D01*
X1446Y202D01*
X1445Y202D01*
X1444Y201D01*
X1443Y200D01*
X1442Y199D01*
X1441Y198D01*
X1440Y198D01*
X1439Y197D01*
X1438Y196D01*
X1437Y195D01*
X1436Y194D01*
X1435Y194D01*
X1434Y193D01*
X1433Y192D01*
X1432Y191D01*
X1431Y190D01*
X1430Y190D01*
X1429Y189D01*
X1428Y188D01*
X1427Y187D01*
X1426Y187D01*
X1425Y186D01*
X1424Y185D01*
X1423Y184D01*
X1422Y183D01*
X1421Y183D01*
X1420Y182D01*
X1419Y181D01*
X1418Y180D01*
X1417Y180D01*
X1416Y179D01*
X1415Y178D01*
X1414Y177D01*
X1413Y177D01*
X1412Y176D01*
X1411Y175D01*
X1410Y174D01*
X1409Y174D01*
X1408Y173D01*
X1407Y172D01*
X1406Y172D01*
X1405Y171D01*
X1404Y170D01*
X1403Y169D01*
X1402Y169D01*
X1401Y168D01*
X1400Y167D01*
X1399Y166D01*
X1398Y166D01*
X1397Y165D01*
X1396Y164D01*
X1395Y164D01*
X1394Y163D01*
X1393Y162D01*
X1392Y162D01*
X1391Y161D01*
X1390Y160D01*
X1389Y159D01*
X1388Y159D01*
X1387Y158D01*
X1386Y157D01*
X1385Y157D01*
X1384Y156D01*
X1383Y155D01*
X1382Y155D01*
X1381Y154D01*
X1380Y153D01*
X1379Y153D01*
X1378Y152D01*
X1377Y151D01*
X1376Y151D01*
X1375Y150D01*
X1374Y149D01*
X1373Y149D01*
X1372Y148D01*
X1371Y147D01*
X1370Y147D01*
X1369Y146D01*
X1368Y145D01*
X1367Y145D01*
X1366Y144D01*
X1365Y143D01*
X1364Y143D01*
X1363Y142D01*
X1362Y141D01*
X1361Y141D01*
X1360Y140D01*
X1359Y140D01*
X1358Y139D01*
X1357Y138D01*
X1356Y138D01*
X1355Y137D01*
X1354Y136D01*
X1353Y136D01*
X1352Y135D01*
X1351Y135D01*
X1350Y134D01*
X1349Y133D01*
X1348Y133D01*
X1347Y132D01*
X1346Y131D01*
X1345Y131D01*
X1344Y130D01*
X1343Y130D01*
X1342Y129D01*
X1341Y128D01*
X1340Y128D01*
X1339Y127D01*
X1338Y127D01*
X1337Y126D01*
X1336Y125D01*
X1335Y125D01*
X1334Y124D01*
X1333Y124D01*
X1332Y123D01*
X1331Y122D01*
X1330Y122D01*
X1329Y121D01*
X1328Y121D01*
X1327Y120D01*
X1326Y120D01*
X1325Y119D01*
X1324Y118D01*
X1323Y118D01*
X1322Y117D01*
X1321Y117D01*
X1320Y116D01*
X1319Y116D01*
X1318Y115D01*
X1317Y114D01*
X1316Y114D01*
X1315Y113D01*
X1314Y113D01*
X1313Y112D01*
X1312Y112D01*
X1311Y111D01*
X1310Y111D01*
X1309Y110D01*
X1308Y109D01*
X1307Y109D01*
X1306Y108D01*
X1305Y108D01*
X1304Y107D01*
X1303Y107D01*
X1302Y106D01*
X1301Y106D01*
X1300Y105D01*
X1299Y105D01*
X1298Y104D01*
X1297Y104D01*
X1296Y103D01*
X1295Y103D01*
X1294Y102D01*
X1293Y102D01*
X1292Y101D01*
X1291Y100D01*
X1290Y100D01*
X1289Y99D01*
X1288Y99D01*
X1287Y98D01*
X1286Y98D01*
X1285Y97D01*
X1284Y97D01*
X1283Y96D01*
X1282Y96D01*
X1281Y95D01*
X1280Y95D01*
X1279Y94D01*
X1278Y94D01*
X1277Y93D01*
X1276Y93D01*
X1275Y92D01*
X1274Y92D01*
X1273Y91D01*
X1272Y91D01*
X1271Y90D01*
X1270Y90D01*
X1269Y89D01*
X1268Y89D01*
X1267Y89D01*
X1266Y88D01*
X1265Y88D01*
X1264Y87D01*
X1263Y87D01*
X1262Y86D01*
X1261Y86D01*
X1260Y85D01*
X1259Y85D01*
X1258Y84D01*
X1257Y84D01*
X1256Y83D01*
X1255Y83D01*
X1254Y82D01*
X1253Y82D01*
X1252Y82D01*
X1251Y81D01*
X1250Y81D01*
X1249Y80D01*
X1248Y80D01*
X1247Y79D01*
X1246Y79D01*
X1245Y78D01*
X1244Y78D01*
X1243Y77D01*
X1242Y77D01*
X1241Y77D01*
X1240Y76D01*
X1239Y76D01*
X1238Y75D01*
X1237Y75D01*
X1236Y74D01*
X1235Y74D01*
X1234Y74D01*
X1233Y73D01*
X1232Y73D01*
X1231Y72D01*
X1230Y72D01*
X1229Y71D01*
X1228Y71D01*
X1227Y71D01*
X1226Y70D01*
X1225Y70D01*
X1224Y69D01*
X1223Y69D01*
X1222Y69D01*
X1221Y68D01*
X1220Y68D01*
X1219Y67D01*
X1218Y67D01*
X1217Y66D01*
X1216Y66D01*
X1215Y66D01*
X1214Y65D01*
X1213Y65D01*
X1212Y64D01*
X1211Y64D01*
X1210Y64D01*
X1209Y63D01*
X1208Y63D01*
X1207Y62D01*
X1206Y62D01*
X1205Y62D01*
X1204Y61D01*
X1203Y61D01*
X1202Y61D01*
X1201Y60D01*
X1200Y60D01*
X1199Y59D01*
X1198Y59D01*
X1197Y59D01*
X1196Y58D01*
X1195Y58D01*
X1194Y58D01*
X1193Y57D01*
X1192Y57D01*
X1191Y56D01*
X1190Y56D01*
X1189Y56D01*
X1188Y55D01*
X1187Y55D01*
X1186Y55D01*
X1185Y54D01*
X1184Y54D01*
X1183Y54D01*
X1182Y53D01*
X1181Y53D01*
X1180Y52D01*
X1179Y52D01*
X1178Y52D01*
X1177Y51D01*
X1176Y51D01*
X1175Y51D01*
X1174Y50D01*
X1173Y50D01*
X1172Y50D01*
X1171Y49D01*
X1170Y49D01*
X1169Y49D01*
X1168Y48D01*
X1167Y48D01*
X1166Y48D01*
X1165Y47D01*
X1164Y47D01*
X1163Y47D01*
X1162Y46D01*
X1161Y46D01*
X1160Y46D01*
X1159Y45D01*
X1158Y45D01*
X1157Y45D01*
X1156Y44D01*
X1155Y44D01*
X1154Y44D01*
X1153Y43D01*
X1152Y43D01*
X1151Y43D01*
X1150Y42D01*
X1149Y42D01*
X1148Y42D01*
X1147Y41D01*
X1146Y41D01*
X1145Y41D01*
X1144Y41D01*
X1143Y40D01*
X1142Y40D01*
X1141Y40D01*
X1140Y39D01*
X1139Y39D01*
X1138Y39D01*
X1137Y39D01*
X1136Y38D01*
X1135Y38D01*
X1134Y38D01*
X1133Y37D01*
X1132Y37D01*
X1131Y37D01*
X1130Y36D01*
X1129Y36D01*
X1128Y36D01*
X1127Y36D01*
X1126Y35D01*
X1125Y35D01*
X1124Y35D01*
X1123Y34D01*
X1122Y34D01*
X1121Y34D01*
X1120Y34D01*
X1119Y33D01*
X1118Y33D01*
X1117Y33D01*
X1116Y33D01*
X1115Y32D01*
X1114Y32D01*
X1113Y32D01*
X1112Y31D01*
X1111Y31D01*
X1110Y31D01*
X1109Y31D01*
X1108Y30D01*
X1107Y30D01*
X1106Y30D01*
X1105Y30D01*
X1104Y29D01*
X1103Y29D01*
X1102Y29D01*
X1101Y29D01*
X1100Y28D01*
X1099Y28D01*
X1098Y28D01*
X1097Y28D01*
X1096Y27D01*
X1095Y27D01*
X1094Y27D01*
X1093Y27D01*
X1092Y26D01*
X1091Y26D01*
X1090Y26D01*
X1089Y26D01*
X1088Y25D01*
X1087Y25D01*
X1086Y25D01*
X1085Y25D01*
X1084Y25D01*
X1083Y24D01*
X1082Y24D01*
X1081Y24D01*
X1080Y24D01*
X1079Y23D01*
X1078Y23D01*
X1077Y23D01*
X1076Y23D01*
X1075Y23D01*
X1074Y22D01*
X1073Y22D01*
X1072Y22D01*
X1071Y22D01*
X1070Y21D01*
X1069Y21D01*
X1068Y21D01*
X1067Y21D01*
X1066Y21D01*
X1065Y20D01*
X1064Y20D01*
X1063Y20D01*
X1062Y20D01*
X1061Y20D01*
X1060Y19D01*
X1059Y19D01*
X1058Y19D01*
X1057Y19D01*
X1056Y19D01*
X1055Y18D01*
X1054Y18D01*
X1053Y18D01*
X1052Y18D01*
X1051Y18D01*
X1050Y17D01*
X1049Y17D01*
X1048Y17D01*
X1047Y17D01*
X1046Y17D01*
X1045Y16D01*
X1044Y16D01*
X1043Y16D01*
X1042Y16D01*
X1041Y16D01*
X1040Y16D01*
X1039Y15D01*
X1038Y15D01*
X1037Y15D01*
X1036Y15D01*
X1035Y15D01*
X1034Y15D01*
X1033Y14D01*
X1032Y14D01*
X1031Y14D01*
X1030Y14D01*
X1029Y14D01*
X1028Y14D01*
X1027Y13D01*
X1026Y13D01*
X1025Y13D01*
X1024Y13D01*
X1023Y13D01*
X1022Y13D01*
X1021Y12D01*
X1020Y12D01*
X1019Y12D01*
X1018Y12D01*
X1017Y12D01*
X1016Y12D01*
X1015Y12D01*
X1014Y11D01*
X1013Y11D01*
X1012Y11D01*
X1011Y11D01*
X1010Y11D01*
X1009Y11D01*
X1008Y11D01*
X1007Y10D01*
X1006Y10D01*
X1005Y10D01*
X1004Y10D01*
X1003Y10D01*
X1002Y10D01*
X1001Y10D01*
X1000Y9D01*
X999Y9D01*
X998Y9D01*
X997Y9D01*
X996Y9D01*
X995Y9D01*
X994Y9D01*
X993Y9D01*
X992Y8D01*
X991Y8D01*
X990Y8D01*
X989Y8D01*
X988Y8D01*
X987Y8D01*
X986Y8D01*
X985Y8D01*
X984Y8D01*
X983Y7D01*
X982Y7D01*
X981Y7D01*
X980Y7D01*
X979Y7D01*
X978Y7D01*
X977Y7D01*
X976Y7D01*
X975Y7D01*
X974Y6D01*
X973Y6D01*
X972Y6D01*
X971Y6D01*
X970Y6D01*
X969Y6D01*
X968Y6D01*
X967Y6D01*
X966Y6D01*
X965Y6D01*
X964Y6D01*
X963Y5D01*
X962Y5D01*
X961Y5D01*
X960Y5D01*
X959Y5D01*
X958Y5D01*
X957Y5D01*
X956Y5D01*
X955Y5D01*
X954Y5D01*
X953Y5D01*
X952Y5D01*
X951Y4D01*
X950Y4D01*
X949Y4D01*
X948Y4D01*
X947Y4D01*
X946Y4D01*
X945Y4D01*
X944Y4D01*
X943Y4D01*
X942Y4D01*
X941Y4D01*
X940Y4D01*
X939Y4D01*
X938Y4D01*
X937Y4D01*
X936Y4D01*
X935Y3D01*
X934Y3D01*
X933Y3D01*
X932Y3D01*
X931Y3D01*
X930Y3D01*
X929Y3D01*
X928Y3D01*
X927Y3D01*
X926Y3D01*
X925Y3D01*
X924Y3D01*
X923Y3D01*
X922Y3D01*
X921Y3D01*
X920Y3D01*
X919Y3D01*
X918Y3D01*
X917Y3D01*
X916Y3D01*
X915Y3D01*
X914Y3D01*
X913Y2D01*
X912Y2D01*
X911Y2D01*
X910Y2D01*
X909Y2D01*
X908Y2D01*
X907Y2D01*
X906Y2D01*
X905Y2D01*
X904Y2D01*
X903Y2D01*
X902Y2D01*
X901Y2D01*
X900Y2D01*
X899Y2D01*
X898Y2D01*
X897Y2D01*
X896Y2D01*
X895Y2D01*
X894Y2D01*
X893Y2D01*
X892Y2D01*
X891Y2D01*
X890Y2D01*
X889Y2D01*
X888Y2D01*
X887Y2D01*
X886Y2D01*
X885Y2D01*
X884Y2D01*
X883Y2D01*
X882Y2D01*
X881Y2D01*
X880Y2D01*
X879Y2D01*
X878Y2D01*
X877Y2D01*
X876Y2D01*
X875Y2D01*
X874Y2D01*
X873Y2D01*
X872Y2D01*
X871Y2D01*
X870Y2D01*
X869Y2D01*
X868Y2D01*
X867Y2D01*
X866Y2D01*
X865Y2D01*
X864Y2D01*
X863Y2D01*
X862Y2D01*
X861Y2D01*
X860Y2D01*
X859Y2D01*
X858Y2D01*
X857Y2D01*
X856Y3D01*
X855Y3D01*
X854Y3D01*
X853Y3D01*
X852Y3D01*
X851Y3D01*
X850Y3D01*
X849Y3D01*
X848Y3D01*
X847Y3D01*
X846Y3D01*
X845Y3D01*
X844Y3D01*
X843Y3D01*
X842Y3D01*
X841Y3D01*
X840Y3D01*
X839Y3D01*
X838Y3D01*
X837Y3D01*
X836Y3D01*
X835Y3D01*
X834Y4D01*
X833Y4D01*
X832Y4D01*
X831Y4D01*
X830Y4D01*
X829Y4D01*
X828Y4D01*
X827Y4D01*
X826Y4D01*
X825Y4D01*
X824Y4D01*
X823Y4D01*
X822Y4D01*
X821Y4D01*
X820Y4D01*
X819Y4D01*
X818Y5D01*
X817Y5D01*
X816Y5D01*
X815Y5D01*
X814Y5D01*
X813Y5D01*
X812Y5D01*
X811Y5D01*
X810Y5D01*
X809Y5D01*
X808Y5D01*
X807Y5D01*
X806Y6D01*
X805Y6D01*
X804Y6D01*
X803Y6D01*
X802Y6D01*
X801Y6D01*
X800Y6D01*
X799Y6D01*
X798Y6D01*
X797Y6D01*
X796Y6D01*
X795Y7D01*
X794Y7D01*
X793Y7D01*
X792Y7D01*
X791Y7D01*
X790Y7D01*
X789Y7D01*
X788Y7D01*
X787Y7D01*
X786Y8D01*
X785Y8D01*
X784Y8D01*
X783Y8D01*
X782Y8D01*
X781Y8D01*
X780Y8D01*
X779Y8D01*
X778Y8D01*
X777Y9D01*
X776Y9D01*
X775Y9D01*
X774Y9D01*
X773Y9D01*
X772Y9D01*
X771Y9D01*
X770Y9D01*
X769Y10D01*
X768Y10D01*
X767Y10D01*
X766Y10D01*
X765Y10D01*
X764Y10D01*
X763Y10D01*
X762Y11D01*
X761Y11D01*
X760Y11D01*
X759Y11D01*
X758Y11D01*
X757Y11D01*
X756Y11D01*
X755Y12D01*
X754Y12D01*
X753Y12D01*
X752Y12D01*
X751Y12D01*
X750Y12D01*
X749Y12D01*
X748Y13D01*
X747Y13D01*
X746Y13D01*
X745Y13D01*
X744Y13D01*
X743Y13D01*
X742Y14D01*
X741Y14D01*
X740Y14D01*
X739Y14D01*
X738Y14D01*
X737Y14D01*
X736Y15D01*
X735Y15D01*
X734Y15D01*
X733Y15D01*
X732Y15D01*
X731Y15D01*
X730Y16D01*
X729Y16D01*
X728Y16D01*
X727Y16D01*
X726Y16D01*
X725Y16D01*
X724Y17D01*
X723Y17D01*
X722Y17D01*
X721Y17D01*
X720Y17D01*
X719Y18D01*
X718Y18D01*
X717Y18D01*
X716Y18D01*
X715Y18D01*
X714Y19D01*
X713Y19D01*
X712Y19D01*
X711Y19D01*
X710Y19D01*
X709Y20D01*
X708Y20D01*
X707Y20D01*
X706Y20D01*
X705Y20D01*
X704Y21D01*
X703Y21D01*
X702Y21D01*
X701Y21D01*
X700Y21D01*
X699Y22D01*
X698Y22D01*
X697Y22D01*
X696Y22D01*
X695Y23D01*
X694Y23D01*
X693Y23D01*
X692Y23D01*
X691Y23D01*
X690Y24D01*
X689Y24D01*
X688Y24D01*
X687Y24D01*
X686Y25D01*
X685Y25D01*
X684Y25D01*
X683Y25D01*
X682Y25D01*
X681Y26D01*
X680Y26D01*
X679Y26D01*
X678Y26D01*
X677Y27D01*
X676Y27D01*
X675Y27D01*
X674Y27D01*
X673Y28D01*
X672Y28D01*
X671Y28D01*
X670Y28D01*
X669Y29D01*
X668Y29D01*
X667Y29D01*
X666Y29D01*
X665Y30D01*
X664Y30D01*
X663Y30D01*
X662Y30D01*
X661Y31D01*
X660Y31D01*
X659Y31D01*
X658Y31D01*
X657Y32D01*
X656Y32D01*
X655Y32D01*
X654Y33D01*
X653Y33D01*
X652Y33D01*
X651Y33D01*
X650Y34D01*
X649Y34D01*
X648Y34D01*
X647Y34D01*
X646Y35D01*
X645Y35D01*
X644Y35D01*
X643Y36D01*
X642Y36D01*
X641Y36D01*
X640Y36D01*
X639Y37D01*
X638Y37D01*
X637Y37D01*
X636Y38D01*
X635Y38D01*
X634Y38D01*
X633Y39D01*
X632Y39D01*
X631Y39D01*
X630Y39D01*
X629Y40D01*
X628Y40D01*
X627Y40D01*
X626Y41D01*
X625Y41D01*
X624Y41D01*
X623Y41D01*
X622Y42D01*
X621Y42D01*
X620Y42D01*
X619Y43D01*
X618Y43D01*
X617Y43D01*
X616Y44D01*
X615Y44D01*
X614Y44D01*
X613Y45D01*
X612Y45D01*
X611Y45D01*
X610Y46D01*
X609Y46D01*
X608Y46D01*
X607Y47D01*
X606Y47D01*
X605Y47D01*
X604Y48D01*
X603Y48D01*
X602Y48D01*
X601Y49D01*
X600Y49D01*
X599Y49D01*
X598Y50D01*
X597Y50D01*
X596Y50D01*
X595Y51D01*
X594Y51D01*
X593Y51D01*
X592Y52D01*
X591Y52D01*
X590Y52D01*
X589Y53D01*
X588Y53D01*
X587Y54D01*
X586Y54D01*
X585Y54D01*
X584Y55D01*
X583Y55D01*
X582Y55D01*
X581Y56D01*
X580Y56D01*
X579Y56D01*
X578Y57D01*
X577Y57D01*
X576Y58D01*
X575Y58D01*
X574Y58D01*
X573Y59D01*
X572Y59D01*
X571Y59D01*
X570Y60D01*
X569Y60D01*
X568Y61D01*
X567Y61D01*
X566Y61D01*
X565Y62D01*
X564Y62D01*
X563Y62D01*
X562Y63D01*
X561Y63D01*
X560Y64D01*
X559Y64D01*
X558Y64D01*
X557Y65D01*
X556Y65D01*
X555Y66D01*
X554Y66D01*
X553Y66D01*
X552Y67D01*
X551Y67D01*
X550Y68D01*
X549Y68D01*
X548Y69D01*
X547Y69D01*
X546Y69D01*
X545Y70D01*
X544Y70D01*
X543Y71D01*
X542Y71D01*
X541Y71D01*
X540Y72D01*
X539Y72D01*
X538Y73D01*
X537Y73D01*
X536Y74D01*
X535Y74D01*
X534Y74D01*
X533Y75D01*
X532Y75D01*
X531Y76D01*
X530Y76D01*
X529Y77D01*
X528Y77D01*
X527Y77D01*
X526Y78D01*
X525Y78D01*
X524Y79D01*
X523Y79D01*
X522Y80D01*
X521Y80D01*
X520Y81D01*
X519Y81D01*
X518Y82D01*
X517Y82D01*
X516Y82D01*
X515Y83D01*
X514Y83D01*
X513Y84D01*
X512Y84D01*
X511Y85D01*
X510Y85D01*
X509Y86D01*
X508Y86D01*
X507Y87D01*
X506Y87D01*
X505Y88D01*
X504Y88D01*
X503Y89D01*
X502Y89D01*
X501Y89D01*
X500Y90D01*
X499Y90D01*
X498Y91D01*
X497Y91D01*
X496Y92D01*
X495Y92D01*
X494Y93D01*
X493Y93D01*
X492Y94D01*
X491Y94D01*
X490Y95D01*
X489Y95D01*
X488Y96D01*
X487Y96D01*
X486Y97D01*
X485Y97D01*
X484Y98D01*
X483Y98D01*
X482Y99D01*
X481Y99D01*
X480Y100D01*
X479Y100D01*
X478Y101D01*
X477Y102D01*
X476Y102D01*
X475Y103D01*
X474Y103D01*
X473Y104D01*
X472Y104D01*
X471Y105D01*
X470Y105D01*
X469Y106D01*
X468Y106D01*
X467Y107D01*
X466Y107D01*
X465Y108D01*
X464Y108D01*
X463Y109D01*
X462Y109D01*
X461Y110D01*
X460Y111D01*
X459Y111D01*
X458Y112D01*
X457Y112D01*
X456Y113D01*
X455Y113D01*
X454Y114D01*
X453Y114D01*
X452Y115D01*
X451Y116D01*
X450Y116D01*
X449Y117D01*
X448Y117D01*
X447Y118D01*
X446Y118D01*
X445Y119D01*
X444Y120D01*
X443Y120D01*
X442Y121D01*
X441Y121D01*
X440Y122D01*
X439Y122D01*
X438Y123D01*
X437Y124D01*
X436Y124D01*
X435Y125D01*
X434Y125D01*
X433Y126D01*
X432Y127D01*
X431Y127D01*
X430Y128D01*
X429Y128D01*
X428Y129D01*
X427Y130D01*
X426Y130D01*
X425Y131D01*
X424Y131D01*
X423Y132D01*
X422Y133D01*
X421Y133D01*
X420Y134D01*
X419Y135D01*
X418Y135D01*
X417Y136D01*
X416Y136D01*
X415Y137D01*
X414Y138D01*
X413Y138D01*
X412Y139D01*
X411Y140D01*
X410Y140D01*
X409Y141D01*
X408Y141D01*
X407Y142D01*
X406Y143D01*
X405Y143D01*
X404Y144D01*
X403Y145D01*
X402Y145D01*
X401Y146D01*
X400Y147D01*
X399Y147D01*
X398Y148D01*
X397Y149D01*
X396Y149D01*
X395Y150D01*
X394Y151D01*
X393Y151D01*
X392Y152D01*
X391Y153D01*
X390Y153D01*
X389Y154D01*
X388Y155D01*
X387Y155D01*
X386Y156D01*
X385Y157D01*
X384Y157D01*
X383Y158D01*
X382Y159D01*
X381Y159D01*
X380Y160D01*
X379Y161D01*
X378Y162D01*
X377Y162D01*
X376Y163D01*
X375Y164D01*
X374Y164D01*
X373Y165D01*
X372Y166D01*
X371Y166D01*
X370Y167D01*
X369Y168D01*
X368Y169D01*
X367Y169D01*
X366Y170D01*
X365Y171D01*
X364Y172D01*
X363Y172D01*
X362Y173D01*
X361Y174D01*
X360Y174D01*
X359Y175D01*
X358Y176D01*
X357Y177D01*
X356Y177D01*
X355Y178D01*
X354Y179D01*
X353Y180D01*
X352Y180D01*
X351Y181D01*
X350Y182D01*
X349Y183D01*
X348Y183D01*
X347Y184D01*
X346Y185D01*
X345Y186D01*
X344Y187D01*
X343Y187D01*
X342Y188D01*
X341Y189D01*
X340Y190D01*
X339Y190D01*
X338Y191D01*
X337Y192D01*
X336Y193D01*
X335Y194D01*
X334Y194D01*
X333Y195D01*
X332Y196D01*
X331Y197D01*
X330Y198D01*
X329Y198D01*
X328Y199D01*
X327Y200D01*
X326Y201D01*
X325Y202D01*
X324Y202D01*
X323Y203D01*
X322Y204D01*
X321Y205D01*
X320Y206D01*
X319Y207D01*
X318Y207D01*
X317Y208D01*
X316Y209D01*
X315Y210D01*
X314Y211D01*
X313Y212D01*
X312Y212D01*
X311Y213D01*
X310Y214D01*
X309Y215D01*
X308Y216D01*
X307Y217D01*
X306Y218D01*
X305Y218D01*
X304Y219D01*
X303Y220D01*
X302Y221D01*
X301Y222D01*
X300Y223D01*
X299Y224D01*
X298Y225D01*
X297Y225D01*
X296Y226D01*
X295Y227D01*
X294Y228D01*
X293Y229D01*
X292Y230D01*
X291Y231D01*
X290Y232D01*
X289Y233D01*
X288Y234D01*
X287Y234D01*
X286Y235D01*
X285Y236D01*
X284Y237D01*
X283Y238D01*
X282Y239D01*
X281Y240D01*
X280Y241D01*
X279Y242D01*
X278Y243D01*
X277Y244D01*
X276Y245D01*
X275Y246D01*
X274Y247D01*
X273Y248D01*
X272Y249D01*
X271Y250D01*
X270Y250D01*
X269Y251D01*
X268Y252D01*
X267Y253D01*
X266Y254D01*
X265Y255D01*
X264Y256D01*
X263Y257D01*
X262Y258D01*
X261Y259D01*
X260Y260D01*
X259Y261D01*
X258Y262D01*
X257Y263D01*
X256Y264D01*
X255Y265D01*
X254Y266D01*
X253Y267D01*
X252Y268D01*
X251Y269D01*
X250Y270D01*
X249Y271D01*
X248Y272D01*
X247Y273D01*
X247Y274D01*
X246Y275D01*
X245Y276D01*
X244Y277D01*
X243Y278D01*
X242Y279D01*
X241Y280D01*
X240Y281D01*
X239Y282D01*
X238Y283D01*
X237Y284D01*
X236Y285D01*
X235Y286D01*
X234Y287D01*
X233Y288D01*
X232Y289D01*
X232Y290D01*
X231Y291D01*
X230Y292D01*
X229Y293D01*
X228Y294D01*
X227Y295D01*
X226Y296D01*
X225Y297D01*
X224Y298D01*
X223Y299D01*
X223Y300D01*
X222Y301D01*
X221Y302D01*
X220Y303D01*
X219Y304D01*
X218Y305D01*
X217Y306D01*
X216Y307D01*
X216Y308D01*
X215Y309D01*
X214Y310D01*
X213Y311D01*
X212Y312D01*
X211Y313D01*
X210Y314D01*
X210Y315D01*
X209Y316D01*
X208Y317D01*
X207Y318D01*
X206Y319D01*
X205Y320D01*
X205Y321D01*
X204Y322D01*
X203Y323D01*
X202Y324D01*
X201Y325D01*
X200Y326D01*
X200Y327D01*
X199Y328D01*
X198Y329D01*
X197Y330D01*
X196Y331D01*
X196Y332D01*
X195Y333D01*
X194Y334D01*
X193Y335D01*
X192Y336D01*
X192Y337D01*
X191Y338D01*
X190Y339D01*
X189Y340D01*
X188Y341D01*
X188Y342D01*
X187Y343D01*
X186Y344D01*
X185Y345D01*
X185Y346D01*
X184Y347D01*
X183Y348D01*
X182Y349D01*
X181Y350D01*
X181Y351D01*
X180Y352D01*
X179Y353D01*
X178Y354D01*
X178Y355D01*
X177Y356D01*
X176Y357D01*
X175Y358D01*
X175Y359D01*
X174Y360D01*
X173Y361D01*
X172Y362D01*
X172Y363D01*
X171Y364D01*
X170Y365D01*
X170Y366D01*
X169Y367D01*
X168Y368D01*
X167Y369D01*
X167Y370D01*
X166Y371D01*
X165Y372D01*
X164Y373D01*
X164Y374D01*
X163Y375D01*
X162Y376D01*
X162Y377D01*
X161Y378D01*
X160Y379D01*
X160Y380D01*
X159Y381D01*
X158Y382D01*
X157Y383D01*
X157Y384D01*
X156Y385D01*
X155Y386D01*
X155Y387D01*
X154Y388D01*
X153Y389D01*
X153Y390D01*
X152Y391D01*
X151Y392D01*
X151Y393D01*
X150Y394D01*
X149Y395D01*
X149Y396D01*
X148Y397D01*
X147Y398D01*
X147Y399D01*
X146Y400D01*
X145Y401D01*
X145Y402D01*
X144Y403D01*
X143Y404D01*
X143Y405D01*
X142Y406D01*
X141Y407D01*
X141Y408D01*
X140Y409D01*
X139Y410D01*
X139Y411D01*
X138Y412D01*
X138Y413D01*
X137Y414D01*
X136Y415D01*
X136Y416D01*
X135Y417D01*
X134Y418D01*
X134Y419D01*
X133Y420D01*
X133Y421D01*
X132Y422D01*
X131Y423D01*
X131Y424D01*
X130Y425D01*
X129Y426D01*
X129Y427D01*
X128Y428D01*
X128Y429D01*
X127Y430D01*
X126Y431D01*
X126Y432D01*
X125Y433D01*
X125Y434D01*
X124Y435D01*
X123Y436D01*
X123Y437D01*
X122Y438D01*
X122Y439D01*
X121Y440D01*
X120Y441D01*
X120Y442D01*
X119Y443D01*
X119Y444D01*
X118Y445D01*
X118Y446D01*
X117Y447D01*
X116Y448D01*
X116Y449D01*
X115Y450D01*
X115Y451D01*
X114Y452D01*
X114Y453D01*
X113Y454D01*
X112Y455D01*
X112Y456D01*
X111Y457D01*
X111Y458D01*
X110Y459D01*
X110Y460D01*
X109Y461D01*
X109Y462D01*
X108Y463D01*
X107Y464D01*
X107Y465D01*
X106Y466D01*
X106Y467D01*
X105Y468D01*
X105Y469D01*
X104Y470D01*
X104Y471D01*
X103Y472D01*
X103Y473D01*
X102Y474D01*
X102Y475D01*
X101Y476D01*
X101Y477D01*
X100Y478D01*
X100Y479D01*
X99Y480D01*
X98Y481D01*
X98Y482D01*
X97Y483D01*
X97Y484D01*
X96Y485D01*
X96Y486D01*
X95Y487D01*
X95Y488D01*
X94Y489D01*
X94Y490D01*
X93Y491D01*
X93Y492D01*
X92Y493D01*
X92Y494D01*
X91Y495D01*
X91Y496D01*
X90Y497D01*
X90Y498D01*
X89Y499D01*
X89Y500D01*
X88Y501D01*
X88Y502D01*
X87Y503D01*
X87Y505D01*
X86Y506D01*
X86Y507D01*
X85Y508D01*
X85Y509D01*
X84Y510D01*
X84Y511D01*
X83Y512D01*
X83Y513D01*
X82Y514D01*
X82Y515D01*
X81Y516D01*
X81Y517D01*
X80Y518D01*
X80Y520D01*
X79Y521D01*
X79Y522D01*
X78Y523D01*
X78Y524D01*
X77Y525D01*
X77Y526D01*
X76Y527D01*
X76Y528D01*
X75Y529D01*
X75Y531D01*
X74Y532D01*
X74Y533D01*
X73Y534D01*
X73Y535D01*
X72Y536D01*
X72Y538D01*
X71Y539D01*
X71Y540D01*
X70Y541D01*
X70Y542D01*
X69Y543D01*
X69Y545D01*
X68Y546D01*
X68Y547D01*
X67Y548D01*
X67Y550D01*
X66Y551D01*
X66Y552D01*
X65Y553D01*
X65Y554D01*
X64Y555D01*
X64Y557D01*
X63Y558D01*
X63Y559D01*
X62Y560D01*
X62Y562D01*
X61Y563D01*
X61Y564D01*
X60Y565D01*
X60Y567D01*
X59Y568D01*
X59Y570D01*
X58Y571D01*
X58Y572D01*
X57Y573D01*
X57Y575D01*
X56Y576D01*
X56Y578D01*
X55Y579D01*
X55Y580D01*
X54Y581D01*
X54Y583D01*
X53Y584D01*
X53Y586D01*
X52Y587D01*
X52Y589D01*
X51Y590D01*
X51Y591D01*
X50Y592D01*
X50Y594D01*
X49Y595D01*
X49Y597D01*
X48Y598D01*
X48Y600D01*
X47Y601D01*
X47Y603D01*
X46Y604D01*
X46Y606D01*
X45Y607D01*
X45Y609D01*
X44Y610D01*
X44Y612D01*
X43Y613D01*
X43Y615D01*
X42Y616D01*
X42Y618D01*
X41Y619D01*
X41Y621D01*
X40Y622D01*
X40Y624D01*
X39Y625D01*
X39Y628D01*
X38Y629D01*
X38Y631D01*
X37Y632D01*
X37Y635D01*
X36Y636D01*
X36Y638D01*
X35Y639D01*
X35Y641D01*
X34Y642D01*
X34Y645D01*
X33Y646D01*
X33Y648D01*
X32Y649D01*
X32Y652D01*
X31Y653D01*
X31Y656D01*
X30Y657D01*
X30Y659D01*
X29Y660D01*
X29Y663D01*
X28Y664D01*
X28Y667D01*
X27Y668D01*
X27Y671D01*
X26Y672D01*
X26Y675D01*
X25Y676D01*
X25Y679D01*
X24Y680D01*
X24Y683D01*
X23Y684D01*
X23Y688D01*
X22Y689D01*
X22Y692D01*
X21Y693D01*
X21Y697D01*
X20Y698D01*
X20Y701D01*
X19Y702D01*
X19Y706D01*
X18Y707D01*
X18Y711D01*
X17Y712D01*
X17Y716D01*
X16Y717D01*
X16Y721D01*
X15Y722D01*
X15Y726D01*
X14Y727D01*
X14Y732D01*
X13Y733D01*
X13Y738D01*
X12Y739D01*
X12Y744D01*
X11Y745D01*
X11Y750D01*
X10Y751D01*
X10Y757D01*
X9Y758D01*
X9Y764D01*
X8Y765D01*
X8Y771D01*
X7Y772D01*
X7Y779D01*
X6Y780D01*
X6Y788D01*
X5Y789D01*
X5Y797D01*
X4Y798D01*
X4Y808D01*
X3Y809D01*
X3Y820D01*
X2Y821D01*
X2Y836D01*
X1Y837D01*
X1Y858D01*
X0Y859D01*
X0Y915D01*
X1Y916D01*
X1Y937D01*
X2Y938D01*
X2Y953D01*
X3Y954D01*
X3Y965D01*
X4Y966D01*
X4Y976D01*
X5Y977D01*
X5Y985D01*
X6Y986D01*
X6Y994D01*
X7Y995D01*
X7Y1002D01*
X8Y1003D01*
X8Y1009D01*
X9Y1010D01*
X9Y1016D01*
X10Y1017D01*
X10Y1023D01*
X11Y1024D01*
X11Y1029D01*
X12Y1030D01*
X12Y1035D01*
X13Y1036D01*
X13Y1041D01*
X14Y1042D01*
X14Y1047D01*
X15Y1048D01*
X15Y1052D01*
X16Y1053D01*
X16Y1057D01*
X17Y1058D01*
X17Y1062D01*
X18Y1063D01*
X18Y1067D01*
X19Y1068D01*
X19Y1072D01*
X20Y1073D01*
X20Y1076D01*
X21Y1077D01*
X21Y1081D01*
X22Y1082D01*
X22Y1085D01*
X23Y1086D01*
X23Y1090D01*
X24Y1091D01*
X24Y1094D01*
X25Y1095D01*
X25Y1098D01*
X26Y1099D01*
X26Y1102D01*
X27Y1103D01*
X27Y1106D01*
X28Y1107D01*
X28Y1110D01*
X29Y1111D01*
X29Y1114D01*
X30Y1115D01*
X30Y1117D01*
X31Y1118D01*
X31Y1121D01*
X32Y1122D01*
X32Y1125D01*
X33Y1126D01*
X33Y1128D01*
X34Y1129D01*
X34Y1132D01*
X35Y1133D01*
X35Y1135D01*
X36Y1136D01*
X36Y1138D01*
X37Y1139D01*
X37Y1142D01*
X38Y1143D01*
X38Y1145D01*
X39Y1146D01*
X39Y1149D01*
X40Y1150D01*
X40Y1152D01*
X41Y1153D01*
X41Y1155D01*
X42Y1156D01*
X42Y1158D01*
X43Y1159D01*
X43Y1161D01*
X44Y1162D01*
X44Y1164D01*
X45Y1165D01*
X45Y1167D01*
X46Y1168D01*
X46Y1170D01*
X47Y1171D01*
X47Y1173D01*
X48Y1174D01*
X48Y1176D01*
X49Y1177D01*
X49Y1179D01*
X50Y1180D01*
X50Y1182D01*
X51Y1183D01*
X51Y1184D01*
X52Y1185D01*
X52Y1187D01*
X53Y1188D01*
X53Y1190D01*
X54Y1191D01*
X54Y1193D01*
X55Y1194D01*
X55Y1195D01*
X56Y1196D01*
X56Y1198D01*
X57Y1199D01*
X57Y1201D01*
X58Y1202D01*
X58Y1203D01*
X59Y1204D01*
X59Y1206D01*
X60Y1207D01*
X60Y1209D01*
X61Y1210D01*
X61Y1211D01*
X62Y1212D01*
X62Y1214D01*
X63Y1215D01*
X63Y1216D01*
X64Y1217D01*
X64Y1219D01*
X65Y1220D01*
X65Y1221D01*
X66Y1222D01*
X66Y1223D01*
X67Y1224D01*
X67Y1226D01*
X68Y1227D01*
X68Y1228D01*
X69Y1229D01*
X69Y1231D01*
X70Y1232D01*
X70Y1233D01*
X71Y1234D01*
X71Y1235D01*
X72Y1236D01*
X72Y1238D01*
X73Y1239D01*
X73Y1240D01*
X74Y1241D01*
X74Y1242D01*
X75Y1243D01*
X75Y1245D01*
X76Y1246D01*
X76Y1247D01*
X77Y1248D01*
X77Y1249D01*
X78Y1250D01*
X78Y1251D01*
X79Y1252D01*
X79Y1253D01*
X80Y1254D01*
X80Y1256D01*
X81Y1257D01*
X81Y1258D01*
X82Y1259D01*
X82Y1260D01*
X83Y1261D01*
X83Y1262D01*
X84Y1263D01*
X84Y1264D01*
X85Y1265D01*
X85Y1266D01*
X86Y1267D01*
X86Y1268D01*
X87Y1269D01*
X87Y1271D01*
X88Y1272D01*
X88Y1273D01*
X89Y1274D01*
X89Y1275D01*
X90Y1276D01*
X90Y1277D01*
X91Y1278D01*
X91Y1279D01*
X92Y1280D01*
X92Y1281D01*
X93Y1282D01*
X93Y1283D01*
X94Y1284D01*
X94Y1285D01*
X95Y1286D01*
X95Y1287D01*
X96Y1288D01*
X96Y1289D01*
X97Y1290D01*
X97Y1291D01*
X98Y1292D01*
X98Y1293D01*
X99Y1294D01*
X100Y1295D01*
X100Y1296D01*
X101Y1297D01*
X101Y1298D01*
X102Y1299D01*
X102Y1300D01*
X103Y1301D01*
X103Y1302D01*
X104Y1303D01*
X104Y1304D01*
X105Y1305D01*
X105Y1306D01*
X106Y1307D01*
X106Y1308D01*
X107Y1309D01*
X107Y1310D01*
X108Y1311D01*
X109Y1312D01*
X109Y1313D01*
X110Y1314D01*
X110Y1315D01*
X111Y1316D01*
X111Y1317D01*
X112Y1318D01*
X112Y1319D01*
X113Y1320D01*
X114Y1321D01*
X114Y1322D01*
X115Y1323D01*
X115Y1324D01*
X116Y1325D01*
X116Y1326D01*
X117Y1327D01*
X118Y1328D01*
X118Y1329D01*
X119Y1330D01*
X119Y1331D01*
X120Y1332D01*
X120Y1333D01*
X121Y1334D01*
X122Y1335D01*
X122Y1336D01*
X123Y1337D01*
X123Y1338D01*
X124Y1339D01*
X125Y1340D01*
X125Y1341D01*
X126Y1342D01*
X126Y1343D01*
X127Y1344D01*
X128Y1345D01*
X128Y1346D01*
X129Y1347D01*
X129Y1348D01*
X130Y1349D01*
X131Y1350D01*
X131Y1351D01*
X132Y1352D01*
X133Y1353D01*
X133Y1354D01*
X134Y1355D01*
X134Y1356D01*
X135Y1357D01*
X136Y1358D01*
X136Y1359D01*
X137Y1360D01*
X138Y1361D01*
X138Y1362D01*
X139Y1363D01*
X139Y1364D01*
X140Y1365D01*
X141Y1366D01*
X141Y1367D01*
X142Y1368D01*
X143Y1369D01*
X143Y1370D01*
X144Y1371D01*
X145Y1372D01*
X145Y1373D01*
X146Y1374D01*
X147Y1375D01*
X147Y1376D01*
X148Y1377D01*
X149Y1378D01*
X149Y1379D01*
X150Y1380D01*
X151Y1381D01*
X151Y1382D01*
X152Y1383D01*
X153Y1384D01*
X153Y1385D01*
X154Y1386D01*
X155Y1387D01*
X155Y1388D01*
X156Y1389D01*
X157Y1390D01*
X157Y1391D01*
X158Y1392D01*
X159Y1393D01*
X160Y1394D01*
X160Y1395D01*
X161Y1396D01*
X162Y1397D01*
X162Y1398D01*
X163Y1399D01*
X164Y1400D01*
X164Y1401D01*
X165Y1402D01*
X166Y1403D01*
X167Y1404D01*
X167Y1405D01*
X168Y1406D01*
X169Y1407D01*
X170Y1408D01*
X170Y1409D01*
X171Y1410D01*
X172Y1411D01*
X172Y1412D01*
X173Y1413D01*
X174Y1414D01*
X175Y1415D01*
X175Y1416D01*
X176Y1417D01*
X177Y1418D01*
X178Y1419D01*
X178Y1420D01*
X179Y1421D01*
X180Y1422D01*
X181Y1423D01*
X181Y1424D01*
X182Y1425D01*
X183Y1426D01*
X184Y1427D01*
X185Y1428D01*
X185Y1429D01*
X186Y1430D01*
X187Y1431D01*
X188Y1432D01*
X188Y1433D01*
X189Y1434D01*
X190Y1435D01*
X191Y1436D01*
X192Y1437D01*
X192Y1438D01*
X193Y1439D01*
X194Y1440D01*
X195Y1441D01*
X196Y1442D01*
X196Y1443D01*
X197Y1444D01*
X198Y1445D01*
X199Y1446D01*
X200Y1447D01*
X200Y1448D01*
X201Y1449D01*
X202Y1450D01*
X203Y1451D01*
X204Y1452D01*
X205Y1453D01*
X205Y1454D01*
X206Y1455D01*
X207Y1456D01*
X208Y1457D01*
X209Y1458D01*
X210Y1459D01*
X210Y1460D01*
X211Y1461D01*
X212Y1462D01*
X213Y1463D01*
X214Y1464D01*
X215Y1465D01*
X216Y1466D01*
X216Y1467D01*
X217Y1468D01*
X218Y1469D01*
X219Y1470D01*
X220Y1471D01*
X221Y1472D01*
X222Y1473D01*
X223Y1474D01*
X223Y1475D01*
X224Y1476D01*
X225Y1477D01*
X226Y1478D01*
X227Y1479D01*
X228Y1480D01*
X229Y1481D01*
X230Y1482D01*
X231Y1483D01*
X232Y1484D01*
X232Y1485D01*
X233Y1486D01*
X234Y1487D01*
X235Y1488D01*
X236Y1489D01*
X237Y1490D01*
X238Y1491D01*
X239Y1492D01*
X240Y1493D01*
X241Y1494D01*
X242Y1495D01*
X243Y1496D01*
X244Y1497D01*
X245Y1498D01*
X246Y1499D01*
X247Y1500D01*
X248Y1501D01*
X248Y1502D01*
X249Y1503D01*
X250Y1504D01*
X251Y1505D01*
X252Y1506D01*
X253Y1507D01*
X254Y1508D01*
X255Y1509D01*
X256Y1510D01*
X257Y1511D01*
X258Y1512D01*
X259Y1513D01*
X260Y1514D01*
X261Y1515D01*
X262Y1516D01*
X263Y1517D01*
X264Y1518D01*
X265Y1519D01*
X266Y1520D01*
X267Y1521D01*
X268Y1522D01*
X269Y1523D01*
X270Y1524D01*
X271Y1525D01*
X272Y1525D01*
X273Y1526D01*
X274Y1527D01*
X275Y1528D01*
X276Y1529D01*
X277Y1530D01*
X278Y1531D01*
X279Y1532D01*
X280Y1533D01*
X281Y1534D01*
X282Y1535D01*
X283Y1536D01*
X284Y1537D01*
X285Y1538D01*
X286Y1539D01*
X287Y1540D01*
X288Y1540D01*
X289Y1541D01*
X290Y1542D01*
X291Y1543D01*
X292Y1544D01*
X293Y1545D01*
X294Y1546D01*
X295Y1547D01*
X296Y1548D01*
X297Y1549D01*
X298Y1549D01*
X299Y1550D01*
X300Y1551D01*
X301Y1552D01*
X302Y1553D01*
X303Y1554D01*
X304Y1555D01*
X305Y1556D01*
X306Y1556D01*
X307Y1557D01*
X308Y1558D01*
X309Y1559D01*
X310Y1560D01*
X311Y1561D01*
X312Y1562D01*
X313Y1562D01*
X314Y1563D01*
X315Y1564D01*
X316Y1565D01*
X317Y1566D01*
X318Y1567D01*
X319Y1567D01*
X320Y1568D01*
X321Y1569D01*
X322Y1570D01*
X323Y1571D01*
X324Y1572D01*
X325Y1572D01*
X326Y1573D01*
X327Y1574D01*
X328Y1575D01*
X329Y1576D01*
X330Y1576D01*
X331Y1577D01*
X332Y1578D01*
X333Y1579D01*
X334Y1580D01*
X335Y1580D01*
X336Y1581D01*
X337Y1582D01*
X338Y1583D01*
X339Y1584D01*
X340Y1584D01*
X341Y1585D01*
X342Y1586D01*
X343Y1587D01*
X344Y1587D01*
X345Y1588D01*
X346Y1589D01*
X347Y1590D01*
X348Y1591D01*
X349Y1591D01*
X350Y1592D01*
X351Y1593D01*
X352Y1594D01*
X353Y1594D01*
X354Y1595D01*
X355Y1596D01*
X356Y1597D01*
X357Y1597D01*
X358Y1598D01*
X359Y1599D01*
X360Y1600D01*
X361Y1600D01*
X362Y1601D01*
X363Y1602D01*
X364Y1602D01*
X365Y1603D01*
X366Y1604D01*
X367Y1605D01*
X368Y1605D01*
X369Y1606D01*
X370Y1607D01*
X371Y1608D01*
X372Y1608D01*
X373Y1609D01*
X374Y1610D01*
X375Y1610D01*
X376Y1611D01*
X377Y1612D01*
X378Y1612D01*
X379Y1613D01*
X380Y1614D01*
X381Y1615D01*
X382Y1615D01*
X383Y1616D01*
X384Y1617D01*
X385Y1617D01*
X386Y1618D01*
X387Y1619D01*
X388Y1619D01*
X389Y1620D01*
X390Y1621D01*
X391Y1621D01*
X392Y1622D01*
X393Y1623D01*
X394Y1623D01*
X395Y1624D01*
X396Y1625D01*
X397Y1625D01*
X398Y1626D01*
X399Y1627D01*
X400Y1627D01*
X401Y1628D01*
X402Y1629D01*
X403Y1629D01*
X404Y1630D01*
X405Y1631D01*
X406Y1631D01*
X407Y1632D01*
X408Y1633D01*
X409Y1633D01*
X410Y1634D01*
X411Y1634D01*
X412Y1635D01*
X413Y1636D01*
X414Y1636D01*
X415Y1637D01*
X416Y1638D01*
X417Y1638D01*
X418Y1639D01*
X419Y1639D01*
X420Y1640D01*
X421Y1641D01*
X422Y1641D01*
X423Y1642D01*
X424Y1643D01*
X425Y1643D01*
X426Y1644D01*
X427Y1644D01*
X428Y1645D01*
X429Y1646D01*
X430Y1646D01*
X431Y1647D01*
X432Y1647D01*
X433Y1648D01*
X434Y1649D01*
X435Y1649D01*
X436Y1650D01*
X437Y1650D01*
X438Y1651D01*
X439Y1652D01*
X440Y1652D01*
X441Y1653D01*
X442Y1653D01*
X443Y1654D01*
X444Y1654D01*
X445Y1655D01*
X446Y1656D01*
X447Y1656D01*
X448Y1657D01*
X449Y1657D01*
X450Y1658D01*
X451Y1658D01*
X452Y1659D01*
X453Y1660D01*
X454Y1660D01*
X455Y1661D01*
X456Y1661D01*
X457Y1662D01*
X458Y1662D01*
X459Y1663D01*
X460Y1663D01*
X461Y1664D01*
X462Y1665D01*
X463Y1665D01*
X464Y1666D01*
X465Y1666D01*
X466Y1667D01*
X467Y1667D01*
X468Y1668D01*
X469Y1668D01*
X470Y1669D01*
X471Y1669D01*
X472Y1670D01*
X473Y1670D01*
X474Y1671D01*
X475Y1671D01*
X476Y1672D01*
X477Y1672D01*
X478Y1673D01*
X479Y1674D01*
X480Y1674D01*
X481Y1675D01*
X482Y1675D01*
X483Y1676D01*
X484Y1676D01*
X485Y1677D01*
X486Y1677D01*
X487Y1678D01*
X488Y1678D01*
X489Y1679D01*
X490Y1679D01*
X491Y1680D01*
X492Y1680D01*
X493Y1681D01*
X494Y1681D01*
X495Y1682D01*
X496Y1682D01*
X497Y1683D01*
X498Y1683D01*
X499Y1684D01*
X500Y1684D01*
X501Y1685D01*
X502Y1685D01*
X503Y1685D01*
X504Y1686D01*
X505Y1686D01*
X506Y1687D01*
X507Y1687D01*
X508Y1688D01*
X509Y1688D01*
X510Y1689D01*
X511Y1689D01*
X512Y1690D01*
X513Y1690D01*
X514Y1691D01*
X515Y1691D01*
X516Y1692D01*
X517Y1692D01*
X518Y1692D01*
X519Y1693D01*
X520Y1693D01*
X521Y1694D01*
X522Y1694D01*
X523Y1695D01*
X524Y1695D01*
X525Y1696D01*
X526Y1696D01*
X527Y1697D01*
X528Y1697D01*
X529Y1697D01*
X530Y1698D01*
X531Y1698D01*
X532Y1699D01*
X533Y1699D01*
X534Y1700D01*
X535Y1700D01*
X536Y1700D01*
X537Y1701D01*
X538Y1701D01*
X539Y1702D01*
X540Y1702D01*
X541Y1703D01*
X542Y1703D01*
X543Y1703D01*
X544Y1704D01*
X545Y1704D01*
X546Y1705D01*
X547Y1705D01*
X548Y1705D01*
X549Y1706D01*
X550Y1706D01*
X551Y1707D01*
X552Y1707D01*
X553Y1708D01*
X554Y1708D01*
X555Y1708D01*
X556Y1709D01*
X557Y1709D01*
X558Y1710D01*
X559Y1710D01*
X560Y1710D01*
X561Y1711D01*
X562Y1711D01*
X563Y1712D01*
X564Y1712D01*
X565Y1712D01*
X566Y1713D01*
X567Y1713D01*
X568Y1713D01*
X569Y1714D01*
X570Y1714D01*
X571Y1715D01*
X572Y1715D01*
X573Y1715D01*
X574Y1716D01*
X575Y1716D01*
X576Y1716D01*
X577Y1717D01*
X578Y1717D01*
X579Y1718D01*
X580Y1718D01*
X581Y1718D01*
X582Y1719D01*
X583Y1719D01*
X584Y1719D01*
X585Y1720D01*
X586Y1720D01*
X587Y1720D01*
X588Y1721D01*
X589Y1721D01*
X590Y1722D01*
X591Y1722D01*
X592Y1722D01*
X593Y1723D01*
X594Y1723D01*
X595Y1723D01*
X596Y1724D01*
X597Y1724D01*
X598Y1724D01*
X599Y1725D01*
X600Y1725D01*
X601Y1725D01*
X602Y1726D01*
X603Y1726D01*
X604Y1726D01*
X605Y1727D01*
X606Y1727D01*
X607Y1727D01*
X608Y1728D01*
X609Y1728D01*
X610Y1728D01*
X611Y1729D01*
X612Y1729D01*
X613Y1729D01*
X614Y1730D01*
X615Y1730D01*
X616Y1730D01*
X617Y1731D01*
X618Y1731D01*
X619Y1731D01*
X620Y1732D01*
X621Y1732D01*
X622Y1732D01*
X623Y1733D01*
X624Y1733D01*
X625Y1733D01*
X626Y1733D01*
X627Y1734D01*
X628Y1734D01*
X629Y1734D01*
X630Y1735D01*
X631Y1735D01*
X632Y1735D01*
X633Y1735D01*
X634Y1736D01*
X635Y1736D01*
X636Y1736D01*
X637Y1737D01*
X638Y1737D01*
X639Y1737D01*
X640Y1738D01*
X641Y1738D01*
X642Y1738D01*
X643Y1738D01*
X644Y1739D01*
X645Y1739D01*
X646Y1739D01*
X647Y1740D01*
X648Y1740D01*
X649Y1740D01*
X650Y1740D01*
X651Y1741D01*
X652Y1741D01*
X653Y1741D01*
X654Y1741D01*
X655Y1742D01*
X656Y1742D01*
X657Y1742D01*
X658Y1743D01*
X659Y1743D01*
X660Y1743D01*
X661Y1743D01*
X662Y1744D01*
X663Y1744D01*
X664Y1744D01*
X665Y1744D01*
X666Y1745D01*
X667Y1745D01*
X668Y1745D01*
X669Y1745D01*
X670Y1746D01*
X671Y1746D01*
X672Y1746D01*
X673Y1746D01*
X674Y1747D01*
X675Y1747D01*
X676Y1747D01*
X677Y1747D01*
X678Y1748D01*
X679Y1748D01*
X680Y1748D01*
X681Y1748D01*
X682Y1749D01*
X683Y1749D01*
X684Y1749D01*
X685Y1749D01*
X686Y1749D01*
X687Y1750D01*
X688Y1750D01*
X689Y1750D01*
X690Y1750D01*
X691Y1751D01*
X692Y1751D01*
X693Y1751D01*
X694Y1751D01*
X695Y1751D01*
X696Y1752D01*
X697Y1752D01*
X698Y1752D01*
X699Y1752D01*
X700Y1753D01*
X701Y1753D01*
X702Y1753D01*
X703Y1753D01*
X704Y1753D01*
X705Y1754D01*
X706Y1754D01*
X707Y1754D01*
X708Y1754D01*
X709Y1754D01*
X710Y1755D01*
X711Y1755D01*
X712Y1755D01*
X713Y1755D01*
X714Y1755D01*
X715Y1756D01*
X716Y1756D01*
X717Y1756D01*
X718Y1756D01*
X719Y1756D01*
X720Y1757D01*
X721Y1757D01*
X722Y1757D01*
X723Y1757D01*
X724Y1757D01*
X725Y1758D01*
X726Y1758D01*
X727Y1758D01*
X728Y1758D01*
X729Y1758D01*
X730Y1758D01*
X731Y1759D01*
X732Y1759D01*
X733Y1759D01*
X734Y1759D01*
X735Y1759D01*
X736Y1759D01*
X737Y1760D01*
X738Y1760D01*
X739Y1760D01*
X740Y1760D01*
X741Y1760D01*
X742Y1760D01*
X743Y1761D01*
X744Y1761D01*
X745Y1761D01*
X746Y1761D01*
X747Y1761D01*
X748Y1761D01*
X749Y1762D01*
X750Y1762D01*
X751Y1762D01*
X752Y1762D01*
X753Y1762D01*
X754Y1762D01*
X755Y1762D01*
X756Y1763D01*
X757Y1763D01*
X758Y1763D01*
X759Y1763D01*
X760Y1763D01*
X761Y1763D01*
X762Y1763D01*
X763Y1764D01*
X764Y1764D01*
X765Y1764D01*
X766Y1764D01*
X767Y1764D01*
X768Y1764D01*
X769Y1764D01*
X770Y1765D01*
X771Y1765D01*
X772Y1765D01*
X773Y1765D01*
X774Y1765D01*
X775Y1765D01*
X776Y1765D01*
X777Y1765D01*
X778Y1766D01*
X779Y1766D01*
X780Y1766D01*
X781Y1766D01*
X782Y1766D01*
X783Y1766D01*
X784Y1766D01*
X785Y1766D01*
X786Y1766D01*
X787Y1767D01*
X788Y1767D01*
X789Y1767D01*
X790Y1767D01*
X791Y1767D01*
X792Y1767D01*
X793Y1767D01*
X794Y1767D01*
X795Y1767D01*
X796Y1768D01*
X797Y1768D01*
X798Y1768D01*
X799Y1768D01*
X800Y1768D01*
X801Y1768D01*
X802Y1768D01*
X803Y1768D01*
X804Y1768D01*
X805Y1768D01*
X806Y1768D01*
X807Y1769D01*
X808Y1769D01*
X809Y1769D01*
X810Y1769D01*
X811Y1769D01*
X812Y1769D01*
X813Y1769D01*
X814Y1769D01*
X815Y1769D01*
X816Y1769D01*
X817Y1769D01*
X818Y1769D01*
X819Y1770D01*
X820Y1770D01*
X821Y1770D01*
X822Y1770D01*
X823Y1770D01*
X824Y1770D01*
X825Y1770D01*
X826Y1770D01*
X827Y1770D01*
X828Y1770D01*
X829Y1770D01*
X830Y1770D01*
X831Y1770D01*
X832Y1770D01*
X833Y1770D01*
X834Y1770D01*
X835Y1771D01*
X836Y1771D01*
X837Y1771D01*
X838Y1771D01*
X839Y1771D01*
X840Y1771D01*
X841Y1771D01*
X842Y1771D01*
X843Y1771D01*
X844Y1771D01*
X845Y1771D01*
X846Y1771D01*
X847Y1771D01*
X848Y1771D01*
X849Y1771D01*
X850Y1771D01*
X851Y1771D01*
X852Y1771D01*
X853Y1771D01*
X854Y1771D01*
X855Y1771D01*
X856Y1771D01*
X857Y1772D01*
D02*
G04 End of contour*
M02*