G04 MADE WITH FRITZING*
G04 WWW.FRITZING.ORG*
G04 DOUBLE SIDED*
G04 HOLES PLATED*
G04 CONTOUR ON CENTER OF CONTOUR VECTOR*
%ASAXBY*%
%FSLAX23Y23*%
%MOIN*%
%OFA0B0*%
%SFA1.0B1.0*%
%ADD10C,0.140470X0.13047*%
%ADD11C,0.005000*%
%ADD12C,0.008000*%
%ADD13C,0.010000*%
%ADD14R,0.001000X0.001000*%
%LNSILK1*%
G90*
G70*
G54D10*
X707Y1609D03*
X443Y1490D03*
X243Y1267D03*
X165Y713D03*
X287Y450D03*
X504Y247D03*
X1063Y159D03*
X1330Y286D03*
X1529Y504D03*
X1613Y1068D03*
X1490Y1329D03*
X1267Y1528D03*
G54D11*
X826Y1537D02*
X635Y1489D01*
D02*
X635Y1489D02*
X596Y1646D01*
D02*
X596Y1646D02*
X588Y1680D01*
D02*
X588Y1680D02*
X622Y1689D01*
D02*
X622Y1689D02*
X779Y1728D01*
D02*
X779Y1728D02*
X826Y1537D01*
D02*
X596Y1646D02*
X622Y1689D01*
D02*
X622Y1689D02*
X632Y1705D01*
D02*
X632Y1705D02*
X610Y1718D01*
D02*
X610Y1718D02*
X588Y1680D01*
D02*
X580Y1470D02*
X422Y1352D01*
D02*
X422Y1352D02*
X326Y1482D01*
D02*
X326Y1482D02*
X305Y1511D01*
D02*
X305Y1511D02*
X333Y1532D01*
D02*
X333Y1532D02*
X463Y1628D01*
D02*
X463Y1628D02*
X580Y1470D01*
D02*
X326Y1482D02*
X333Y1532D01*
D02*
X333Y1532D02*
X336Y1551D01*
D02*
X336Y1551D02*
X311Y1555D01*
D02*
X311Y1555D02*
X305Y1511D01*
D02*
X378Y1301D02*
X276Y1132D01*
D02*
X276Y1132D02*
X138Y1215D01*
D02*
X138Y1215D02*
X107Y1233D01*
D02*
X107Y1233D02*
X126Y1264D01*
D02*
X126Y1264D02*
X209Y1402D01*
D02*
X209Y1402D02*
X378Y1301D01*
D02*
X138Y1215D02*
X126Y1264D01*
D02*
X126Y1264D02*
X121Y1283D01*
D02*
X121Y1283D02*
X97Y1277D01*
D02*
X97Y1277D02*
X107Y1233D01*
D02*
X237Y832D02*
X284Y641D01*
D02*
X284Y641D02*
X128Y602D01*
D02*
X128Y602D02*
X93Y593D01*
D02*
X93Y593D02*
X85Y628D01*
D02*
X85Y628D02*
X46Y784D01*
D02*
X46Y784D02*
X237Y832D01*
D02*
X128Y602D02*
X85Y628D01*
D02*
X85Y628D02*
X68Y638D01*
D02*
X68Y638D02*
X55Y616D01*
D02*
X55Y616D02*
X93Y593D01*
D02*
X307Y587D02*
X424Y429D01*
D02*
X424Y429D02*
X295Y333D01*
D02*
X295Y333D02*
X266Y312D01*
D02*
X266Y312D02*
X245Y341D01*
D02*
X245Y341D02*
X149Y470D01*
D02*
X149Y470D02*
X307Y587D01*
D02*
X295Y333D02*
X245Y341D01*
D02*
X245Y341D02*
X226Y343D01*
D02*
X226Y343D02*
X222Y319D01*
D02*
X222Y319D02*
X266Y312D01*
D02*
X470Y382D02*
X639Y280D01*
D02*
X639Y280D02*
X556Y142D01*
D02*
X556Y142D02*
X538Y112D01*
D02*
X538Y112D02*
X507Y130D01*
D02*
X507Y130D02*
X369Y213D01*
D02*
X369Y213D02*
X470Y382D01*
D02*
X556Y142D02*
X507Y130D01*
D02*
X507Y130D02*
X488Y125D01*
D02*
X488Y125D02*
X495Y101D01*
D02*
X495Y101D02*
X538Y112D01*
D02*
X944Y231D02*
X1135Y279D01*
D02*
X1135Y279D02*
X1174Y122D01*
D02*
X1174Y122D02*
X1183Y88D01*
D02*
X1183Y88D02*
X1148Y79D01*
D02*
X1148Y79D02*
X992Y40D01*
D02*
X992Y40D02*
X944Y231D01*
D02*
X1174Y122D02*
X1148Y79D01*
D02*
X1148Y79D02*
X1138Y62D01*
D02*
X1138Y62D02*
X1160Y49D01*
D02*
X1160Y49D02*
X1183Y88D01*
D02*
X1192Y307D02*
X1350Y424D01*
D02*
X1350Y424D02*
X1446Y294D01*
D02*
X1446Y294D02*
X1468Y266D01*
D02*
X1468Y266D02*
X1439Y245D01*
D02*
X1439Y245D02*
X1309Y149D01*
D02*
X1309Y149D02*
X1192Y307D01*
D02*
X1446Y294D02*
X1439Y245D01*
D02*
X1439Y245D02*
X1436Y225D01*
D02*
X1436Y225D02*
X1461Y222D01*
D02*
X1461Y222D02*
X1468Y266D01*
D02*
X1394Y471D02*
X1495Y639D01*
D02*
X1495Y639D02*
X1634Y556D01*
D02*
X1634Y556D02*
X1664Y538D01*
D02*
X1664Y538D02*
X1646Y508D01*
D02*
X1646Y508D02*
X1563Y369D01*
D02*
X1563Y369D02*
X1394Y471D01*
D02*
X1634Y556D02*
X1646Y508D01*
D02*
X1646Y508D02*
X1651Y489D01*
D02*
X1651Y489D02*
X1675Y495D01*
D02*
X1675Y495D02*
X1664Y538D01*
D02*
X1542Y949D02*
X1494Y1140D01*
D02*
X1494Y1140D02*
X1650Y1179D01*
D02*
X1650Y1179D02*
X1685Y1187D01*
D02*
X1685Y1187D02*
X1693Y1153D01*
D02*
X1693Y1153D02*
X1733Y996D01*
D02*
X1733Y996D02*
X1542Y949D01*
D02*
X1650Y1179D02*
X1693Y1153D01*
D02*
X1693Y1153D02*
X1710Y1143D01*
D02*
X1710Y1143D02*
X1723Y1165D01*
D02*
X1723Y1165D02*
X1685Y1187D01*
D02*
X1470Y1191D02*
X1353Y1350D01*
D02*
X1353Y1350D02*
X1482Y1446D01*
D02*
X1482Y1446D02*
X1511Y1467D01*
D02*
X1511Y1467D02*
X1532Y1438D01*
D02*
X1532Y1438D02*
X1628Y1309D01*
D02*
X1628Y1309D02*
X1470Y1191D01*
D02*
X1482Y1446D02*
X1532Y1438D01*
D02*
X1532Y1438D02*
X1551Y1435D01*
D02*
X1551Y1435D02*
X1555Y1460D01*
D02*
X1555Y1460D02*
X1511Y1467D01*
D02*
X1301Y1393D02*
X1132Y1494D01*
D02*
X1132Y1494D02*
X1215Y1633D01*
D02*
X1215Y1633D02*
X1233Y1663D01*
D02*
X1233Y1663D02*
X1264Y1645D01*
D02*
X1264Y1645D02*
X1402Y1562D01*
D02*
X1402Y1562D02*
X1301Y1393D01*
D02*
X1215Y1633D02*
X1264Y1645D01*
D02*
X1264Y1645D02*
X1283Y1650D01*
D02*
X1283Y1650D02*
X1277Y1674D01*
D02*
X1277Y1674D02*
X1233Y1663D01*
G54D12*
D02*
X652Y37D02*
X847Y8D01*
D02*
X652Y37D02*
X653Y38D01*
D02*
X847Y8D02*
X847Y9D01*
D02*
X1733Y652D02*
X1734Y652D01*
D02*
X1762Y847D02*
X1763Y847D01*
D02*
X1734Y652D02*
X1763Y847D01*
G54D13*
D02*
X686Y499D02*
X1086Y499D01*
D02*
X1086Y499D02*
X1086Y599D01*
D02*
X1086Y599D02*
X686Y599D01*
D02*
X686Y599D02*
X686Y499D01*
D02*
X863Y782D02*
X1063Y782D01*
D02*
X1063Y782D02*
X1063Y716D01*
D02*
X1063Y716D02*
X863Y716D01*
D02*
X863Y716D02*
X863Y782D01*
G54D14*
X857Y1772D02*
X913Y1772D01*
X835Y1771D02*
X935Y1771D01*
X819Y1770D02*
X951Y1770D01*
X807Y1769D02*
X963Y1769D01*
X796Y1768D02*
X974Y1768D01*
X787Y1767D02*
X983Y1767D01*
X778Y1766D02*
X992Y1766D01*
X770Y1765D02*
X1000Y1765D01*
X763Y1764D02*
X1007Y1764D01*
X756Y1763D02*
X1014Y1763D01*
X749Y1762D02*
X1021Y1762D01*
X743Y1761D02*
X1027Y1761D01*
X737Y1760D02*
X1033Y1760D01*
X731Y1759D02*
X1039Y1759D01*
X725Y1758D02*
X855Y1758D01*
X911Y1758D02*
X1045Y1758D01*
X720Y1757D02*
X833Y1757D01*
X933Y1757D02*
X1050Y1757D01*
X715Y1756D02*
X818Y1756D01*
X948Y1756D02*
X1055Y1756D01*
X710Y1755D02*
X806Y1755D01*
X961Y1755D02*
X1060Y1755D01*
X705Y1754D02*
X796Y1754D01*
X971Y1754D02*
X1065Y1754D01*
X700Y1753D02*
X786Y1753D01*
X981Y1753D02*
X1070Y1753D01*
X696Y1752D02*
X778Y1752D01*
X989Y1752D02*
X1074Y1752D01*
X691Y1751D02*
X770Y1751D01*
X997Y1751D02*
X1079Y1751D01*
X687Y1750D02*
X762Y1750D01*
X1004Y1750D02*
X1083Y1750D01*
X682Y1749D02*
X756Y1749D01*
X1011Y1749D02*
X1088Y1749D01*
X678Y1748D02*
X749Y1748D01*
X1018Y1748D02*
X1092Y1748D01*
X674Y1747D02*
X743Y1747D01*
X1024Y1747D02*
X1096Y1747D01*
X670Y1746D02*
X737Y1746D01*
X1030Y1746D02*
X1100Y1746D01*
X666Y1745D02*
X731Y1745D01*
X1036Y1745D02*
X1104Y1745D01*
X662Y1744D02*
X726Y1744D01*
X1041Y1744D02*
X1108Y1744D01*
X658Y1743D02*
X721Y1743D01*
X1046Y1743D02*
X1112Y1743D01*
X655Y1742D02*
X716Y1742D01*
X1052Y1742D02*
X1115Y1742D01*
X651Y1741D02*
X711Y1741D01*
X1057Y1741D02*
X1119Y1741D01*
X647Y1740D02*
X705Y1740D01*
X1061Y1740D02*
X1123Y1740D01*
X644Y1739D02*
X701Y1739D01*
X1066Y1739D02*
X1126Y1739D01*
X640Y1738D02*
X696Y1738D01*
X1071Y1738D02*
X1130Y1738D01*
X637Y1737D02*
X692Y1737D01*
X1075Y1737D02*
X1133Y1737D01*
X634Y1736D02*
X688Y1736D01*
X1080Y1736D02*
X1136Y1736D01*
X630Y1735D02*
X683Y1735D01*
X1084Y1735D02*
X1140Y1735D01*
X627Y1734D02*
X679Y1734D01*
X1088Y1734D02*
X1143Y1734D01*
X623Y1733D02*
X675Y1733D01*
X1092Y1733D02*
X1147Y1733D01*
X620Y1732D02*
X671Y1732D01*
X1096Y1732D02*
X1150Y1732D01*
X617Y1731D02*
X667Y1731D01*
X1100Y1731D02*
X1153Y1731D01*
X614Y1730D02*
X663Y1730D01*
X1104Y1730D02*
X1156Y1730D01*
X611Y1729D02*
X660Y1729D01*
X1108Y1729D02*
X1159Y1729D01*
X608Y1728D02*
X656Y1728D01*
X1111Y1728D02*
X1162Y1728D01*
X605Y1727D02*
X652Y1727D01*
X1115Y1727D02*
X1165Y1727D01*
X602Y1726D02*
X648Y1726D01*
X1119Y1726D02*
X1168Y1726D01*
X599Y1725D02*
X645Y1725D01*
X1122Y1725D02*
X1171Y1725D01*
X596Y1724D02*
X641Y1724D01*
X1126Y1724D02*
X1174Y1724D01*
X593Y1723D02*
X638Y1723D01*
X1129Y1723D02*
X1177Y1723D01*
X590Y1722D02*
X635Y1722D01*
X1132Y1722D02*
X1180Y1722D01*
X588Y1721D02*
X631Y1721D01*
X1136Y1721D02*
X1182Y1721D01*
X585Y1720D02*
X628Y1720D01*
X1139Y1720D02*
X1185Y1720D01*
X582Y1719D02*
X625Y1719D01*
X1142Y1719D02*
X1188Y1719D01*
X579Y1718D02*
X622Y1718D01*
X1145Y1718D02*
X1191Y1718D01*
X577Y1717D02*
X618Y1717D01*
X1148Y1717D02*
X1193Y1717D01*
X574Y1716D02*
X615Y1716D01*
X1152Y1716D02*
X1196Y1716D01*
X571Y1715D02*
X612Y1715D01*
X1155Y1715D02*
X1199Y1715D01*
X569Y1714D02*
X609Y1714D01*
X1158Y1714D02*
X1201Y1714D01*
X566Y1713D02*
X606Y1713D01*
X1161Y1713D02*
X1204Y1713D01*
X563Y1712D02*
X604Y1712D01*
X1164Y1712D02*
X1207Y1712D01*
X561Y1711D02*
X601Y1711D01*
X1166Y1711D02*
X1209Y1711D01*
X558Y1710D02*
X598Y1710D01*
X1169Y1710D02*
X1212Y1710D01*
X556Y1709D02*
X595Y1709D01*
X1172Y1709D02*
X1214Y1709D01*
X553Y1708D02*
X592Y1708D01*
X1175Y1708D02*
X1217Y1708D01*
X551Y1707D02*
X589Y1707D01*
X1178Y1707D02*
X1219Y1707D01*
X549Y1706D02*
X586Y1706D01*
X1181Y1706D02*
X1221Y1706D01*
X546Y1705D02*
X584Y1705D01*
X1183Y1705D02*
X1224Y1705D01*
X544Y1704D02*
X581Y1704D01*
X1186Y1704D02*
X1226Y1704D01*
X541Y1703D02*
X578Y1703D01*
X1189Y1703D02*
X1229Y1703D01*
X539Y1702D02*
X576Y1702D01*
X1191Y1702D02*
X1231Y1702D01*
X537Y1701D02*
X573Y1701D01*
X1194Y1701D02*
X1233Y1701D01*
X534Y1700D02*
X570Y1700D01*
X1196Y1700D02*
X1236Y1700D01*
X532Y1699D02*
X568Y1699D01*
X1199Y1699D02*
X1238Y1699D01*
X530Y1698D02*
X565Y1698D01*
X1202Y1698D02*
X1240Y1698D01*
X527Y1697D02*
X563Y1697D01*
X1204Y1697D02*
X1243Y1697D01*
X525Y1696D02*
X560Y1696D01*
X1207Y1696D02*
X1245Y1696D01*
X523Y1695D02*
X558Y1695D01*
X1209Y1695D02*
X1247Y1695D01*
X521Y1694D02*
X555Y1694D01*
X1212Y1694D02*
X1249Y1694D01*
X519Y1693D02*
X553Y1693D01*
X1214Y1693D02*
X1251Y1693D01*
X516Y1692D02*
X551Y1692D01*
X1216Y1692D02*
X1254Y1692D01*
X514Y1691D02*
X548Y1691D01*
X1219Y1691D02*
X1256Y1691D01*
X512Y1690D02*
X546Y1690D01*
X1221Y1690D02*
X1258Y1690D01*
X510Y1689D02*
X543Y1689D01*
X1224Y1689D02*
X1260Y1689D01*
X508Y1688D02*
X541Y1688D01*
X1226Y1688D02*
X1262Y1688D01*
X506Y1687D02*
X538Y1687D01*
X1228Y1687D02*
X1264Y1687D01*
X504Y1686D02*
X536Y1686D01*
X1230Y1686D02*
X1266Y1686D01*
X501Y1685D02*
X534Y1685D01*
X1233Y1685D02*
X1269Y1685D01*
X499Y1684D02*
X532Y1684D01*
X1235Y1684D02*
X1271Y1684D01*
X497Y1683D02*
X530Y1683D01*
X1237Y1683D02*
X1273Y1683D01*
X495Y1682D02*
X527Y1682D01*
X1240Y1682D02*
X1275Y1682D01*
X493Y1681D02*
X525Y1681D01*
X1242Y1681D02*
X1277Y1681D01*
X491Y1680D02*
X523Y1680D01*
X1244Y1680D02*
X1279Y1680D01*
X489Y1679D02*
X521Y1679D01*
X1246Y1679D02*
X1281Y1679D01*
X487Y1678D02*
X518Y1678D01*
X1248Y1678D02*
X1283Y1678D01*
X485Y1677D02*
X516Y1677D01*
X1250Y1677D02*
X1285Y1677D01*
X483Y1676D02*
X513Y1676D01*
X1253Y1676D02*
X1287Y1676D01*
X481Y1675D02*
X511Y1675D01*
X1255Y1675D02*
X1289Y1675D01*
X479Y1674D02*
X510Y1674D01*
X1257Y1674D02*
X1291Y1674D01*
X478Y1673D02*
X508Y1673D01*
X1259Y1673D02*
X1292Y1673D01*
X476Y1672D02*
X506Y1672D01*
X1261Y1672D02*
X1294Y1672D01*
X474Y1671D02*
X504Y1671D01*
X1263Y1671D02*
X1296Y1671D01*
X472Y1670D02*
X502Y1670D01*
X1265Y1670D02*
X1298Y1670D01*
X470Y1669D02*
X500Y1669D01*
X1267Y1669D02*
X1300Y1669D01*
X468Y1668D02*
X498Y1668D01*
X1269Y1668D02*
X1302Y1668D01*
X466Y1667D02*
X496Y1667D01*
X1271Y1667D02*
X1304Y1667D01*
X464Y1666D02*
X494Y1666D01*
X1273Y1666D02*
X1306Y1666D01*
X462Y1665D02*
X492Y1665D01*
X1275Y1665D02*
X1308Y1665D01*
X461Y1664D02*
X490Y1664D01*
X1277Y1664D02*
X1309Y1664D01*
X459Y1663D02*
X488Y1663D01*
X1279Y1663D02*
X1311Y1663D01*
X457Y1662D02*
X486Y1662D01*
X1281Y1662D02*
X1313Y1662D01*
X455Y1661D02*
X484Y1661D01*
X1283Y1661D02*
X1315Y1661D01*
X453Y1660D02*
X482Y1660D01*
X1285Y1660D02*
X1317Y1660D01*
X452Y1659D02*
X480Y1659D01*
X1286Y1659D02*
X1318Y1659D01*
X450Y1658D02*
X478Y1658D01*
X1288Y1658D02*
X1320Y1658D01*
X448Y1657D02*
X476Y1657D01*
X1290Y1657D02*
X1322Y1657D01*
X446Y1656D02*
X474Y1656D01*
X1292Y1656D02*
X1324Y1656D01*
X445Y1655D02*
X472Y1655D01*
X1294Y1655D02*
X1325Y1655D01*
X443Y1654D02*
X471Y1654D01*
X1296Y1654D02*
X1327Y1654D01*
X441Y1653D02*
X469Y1653D01*
X1298Y1653D02*
X1329Y1653D01*
X439Y1652D02*
X467Y1652D01*
X1300Y1652D02*
X1331Y1652D01*
X438Y1651D02*
X465Y1651D01*
X1301Y1651D02*
X1332Y1651D01*
X436Y1650D02*
X463Y1650D01*
X1303Y1650D02*
X1334Y1650D01*
X434Y1649D02*
X461Y1649D01*
X1305Y1649D02*
X1336Y1649D01*
X433Y1648D02*
X459Y1648D01*
X1307Y1648D02*
X1337Y1648D01*
X431Y1647D02*
X458Y1647D01*
X1309Y1647D02*
X1339Y1647D01*
X429Y1646D02*
X456Y1646D01*
X1310Y1646D02*
X1341Y1646D01*
X428Y1645D02*
X454Y1645D01*
X1312Y1645D02*
X1342Y1645D01*
X426Y1644D02*
X453Y1644D01*
X1314Y1644D02*
X1344Y1644D01*
X424Y1643D02*
X451Y1643D01*
X1316Y1643D02*
X1346Y1643D01*
X423Y1642D02*
X449Y1642D01*
X1317Y1642D02*
X1347Y1642D01*
X421Y1641D02*
X447Y1641D01*
X1319Y1641D02*
X1349Y1641D01*
X420Y1640D02*
X446Y1640D01*
X1321Y1640D02*
X1350Y1640D01*
X418Y1639D02*
X444Y1639D01*
X1322Y1639D02*
X1352Y1639D01*
X416Y1638D02*
X442Y1638D01*
X1324Y1638D02*
X1354Y1638D01*
X415Y1637D02*
X441Y1637D01*
X1326Y1637D02*
X1355Y1637D01*
X413Y1636D02*
X439Y1636D01*
X1328Y1636D02*
X1357Y1636D01*
X412Y1635D02*
X437Y1635D01*
X1329Y1635D02*
X1343Y1635D01*
X1345Y1635D02*
X1358Y1635D01*
X410Y1634D02*
X435Y1634D01*
X1331Y1634D02*
X1360Y1634D01*
X408Y1633D02*
X434Y1633D01*
X1333Y1633D02*
X1362Y1633D01*
X407Y1632D02*
X432Y1632D01*
X1334Y1632D02*
X1363Y1632D01*
X405Y1631D02*
X431Y1631D01*
X1336Y1631D02*
X1365Y1631D01*
X404Y1630D02*
X429Y1630D01*
X1337Y1630D02*
X1351Y1630D01*
X1353Y1630D02*
X1366Y1630D01*
X402Y1629D02*
X427Y1629D01*
X1339Y1629D02*
X1368Y1629D01*
X401Y1628D02*
X426Y1628D01*
X1341Y1628D02*
X1369Y1628D01*
X399Y1627D02*
X424Y1627D01*
X1342Y1627D02*
X1371Y1627D01*
X398Y1626D02*
X423Y1626D01*
X1344Y1626D02*
X1372Y1626D01*
X396Y1625D02*
X421Y1625D01*
X1345Y1625D02*
X1374Y1625D01*
X395Y1624D02*
X419Y1624D01*
X1347Y1624D02*
X1375Y1624D01*
X393Y1623D02*
X418Y1623D01*
X1349Y1623D02*
X1377Y1623D01*
X392Y1622D02*
X416Y1622D01*
X1350Y1622D02*
X1378Y1622D01*
X390Y1621D02*
X415Y1621D01*
X1352Y1621D02*
X1365Y1621D01*
X1367Y1621D02*
X1380Y1621D01*
X389Y1620D02*
X413Y1620D01*
X1353Y1620D02*
X1381Y1620D01*
X387Y1619D02*
X411Y1619D01*
X1355Y1619D02*
X1368Y1619D01*
X1370Y1619D02*
X1383Y1619D01*
X386Y1618D02*
X410Y1618D01*
X1356Y1618D02*
X1384Y1618D01*
X384Y1617D02*
X408Y1617D01*
X1358Y1617D02*
X1371Y1617D01*
X1373Y1617D02*
X1386Y1617D01*
X383Y1616D02*
X407Y1616D01*
X1359Y1616D02*
X1387Y1616D01*
X381Y1615D02*
X405Y1615D01*
X1361Y1615D02*
X1374Y1615D01*
X1376Y1615D02*
X1389Y1615D01*
X380Y1614D02*
X404Y1614D01*
X1362Y1614D02*
X1390Y1614D01*
X379Y1613D02*
X402Y1613D01*
X1364Y1613D02*
X1377Y1613D01*
X1379Y1613D02*
X1391Y1613D01*
X377Y1612D02*
X401Y1612D01*
X1365Y1612D02*
X1393Y1612D01*
X376Y1611D02*
X399Y1611D01*
X1367Y1611D02*
X1394Y1611D01*
X374Y1610D02*
X398Y1610D01*
X1368Y1610D02*
X1396Y1610D01*
X373Y1609D02*
X396Y1609D01*
X1370Y1609D02*
X1397Y1609D01*
X371Y1608D02*
X395Y1608D01*
X1371Y1608D02*
X1384Y1608D01*
X1386Y1608D02*
X1399Y1608D01*
X370Y1607D02*
X393Y1607D01*
X1373Y1607D02*
X1400Y1607D01*
X369Y1606D02*
X392Y1606D01*
X1374Y1606D02*
X1387Y1606D01*
X1389Y1606D02*
X1401Y1606D01*
X367Y1605D02*
X390Y1605D01*
X1376Y1605D02*
X1403Y1605D01*
X366Y1604D02*
X389Y1604D01*
X1377Y1604D02*
X1390Y1604D01*
X1392Y1604D02*
X1404Y1604D01*
X365Y1603D02*
X388Y1603D01*
X1379Y1603D02*
X1391Y1603D01*
X1393Y1603D02*
X1405Y1603D01*
X363Y1602D02*
X386Y1602D01*
X1380Y1602D02*
X1407Y1602D01*
X362Y1601D02*
X385Y1601D01*
X1382Y1601D02*
X1394Y1601D01*
X1396Y1601D02*
X1408Y1601D01*
X360Y1600D02*
X383Y1600D01*
X1383Y1600D02*
X1410Y1600D01*
X359Y1599D02*
X382Y1599D01*
X1384Y1599D02*
X1411Y1599D01*
X358Y1598D02*
X381Y1598D01*
X1386Y1598D02*
X1398Y1598D01*
X1400Y1598D02*
X1412Y1598D01*
X356Y1597D02*
X379Y1597D01*
X1387Y1597D02*
X1414Y1597D01*
X355Y1596D02*
X378Y1596D01*
X1389Y1596D02*
X1401Y1596D01*
X1403Y1596D02*
X1415Y1596D01*
X354Y1595D02*
X376Y1595D01*
X1390Y1595D02*
X1416Y1595D01*
X352Y1594D02*
X375Y1594D01*
X1391Y1594D02*
X1418Y1594D01*
X351Y1593D02*
X374Y1593D01*
X1393Y1593D02*
X1405Y1593D01*
X1407Y1593D02*
X1419Y1593D01*
X350Y1592D02*
X372Y1592D01*
X1394Y1592D02*
X1420Y1592D01*
X348Y1591D02*
X371Y1591D01*
X1395Y1591D02*
X1422Y1591D01*
X347Y1590D02*
X369Y1590D01*
X1397Y1590D02*
X1409Y1590D01*
X1411Y1590D02*
X1423Y1590D01*
X346Y1589D02*
X368Y1589D01*
X1398Y1589D02*
X1424Y1589D01*
X345Y1588D02*
X367Y1588D01*
X1400Y1588D02*
X1425Y1588D01*
X343Y1587D02*
X365Y1587D01*
X1401Y1587D02*
X1413Y1587D01*
X1415Y1587D02*
X1427Y1587D01*
X342Y1586D02*
X364Y1586D01*
X1402Y1586D02*
X1414Y1586D01*
X1416Y1586D02*
X1428Y1586D01*
X341Y1585D02*
X363Y1585D01*
X1404Y1585D02*
X1429Y1585D01*
X339Y1584D02*
X361Y1584D01*
X1405Y1584D02*
X1417Y1584D01*
X1419Y1584D02*
X1431Y1584D01*
X338Y1583D02*
X360Y1583D01*
X1406Y1583D02*
X1418Y1583D01*
X1420Y1583D02*
X1432Y1583D01*
X337Y1582D02*
X359Y1582D01*
X1408Y1582D02*
X1433Y1582D01*
X336Y1581D02*
X357Y1581D01*
X1409Y1581D02*
X1421Y1581D01*
X1423Y1581D02*
X1434Y1581D01*
X334Y1580D02*
X356Y1580D01*
X1410Y1580D02*
X1422Y1580D01*
X1424Y1580D02*
X1436Y1580D01*
X333Y1579D02*
X355Y1579D01*
X1411Y1579D02*
X1437Y1579D01*
X332Y1578D02*
X354Y1578D01*
X1413Y1578D02*
X1438Y1578D01*
X331Y1577D02*
X352Y1577D01*
X1414Y1577D02*
X1426Y1577D01*
X1428Y1577D02*
X1439Y1577D01*
X329Y1576D02*
X351Y1576D01*
X1415Y1576D02*
X1427Y1576D01*
X1429Y1576D02*
X1441Y1576D01*
X328Y1575D02*
X350Y1575D01*
X1417Y1575D02*
X1442Y1575D01*
X327Y1574D02*
X348Y1574D01*
X1418Y1574D02*
X1443Y1574D01*
X326Y1573D02*
X347Y1573D01*
X1419Y1573D02*
X1431Y1573D01*
X1433Y1573D02*
X1444Y1573D01*
X324Y1572D02*
X346Y1572D01*
X1421Y1572D02*
X1432Y1572D01*
X1434Y1572D02*
X1446Y1572D01*
X323Y1571D02*
X344Y1571D01*
X1422Y1571D02*
X1433Y1571D01*
X1435Y1571D02*
X1447Y1571D01*
X322Y1570D02*
X343Y1570D01*
X1423Y1570D02*
X1448Y1570D01*
X321Y1569D02*
X342Y1569D01*
X1424Y1569D02*
X1436Y1569D01*
X1438Y1569D02*
X1449Y1569D01*
X320Y1568D02*
X341Y1568D01*
X1426Y1568D02*
X1437Y1568D01*
X1439Y1568D02*
X1450Y1568D01*
X318Y1567D02*
X339Y1567D01*
X1427Y1567D02*
X1438Y1567D01*
X1440Y1567D02*
X1452Y1567D01*
X317Y1566D02*
X338Y1566D01*
X1428Y1566D02*
X1453Y1566D01*
X316Y1565D02*
X337Y1565D01*
X1429Y1565D02*
X1441Y1565D01*
X1443Y1565D02*
X1454Y1565D01*
X315Y1564D02*
X336Y1564D01*
X1430Y1564D02*
X1442Y1564D01*
X1444Y1564D02*
X1455Y1564D01*
X314Y1563D02*
X335Y1563D01*
X1432Y1563D02*
X1443Y1563D01*
X1445Y1563D02*
X1456Y1563D01*
X312Y1562D02*
X333Y1562D01*
X1433Y1562D02*
X1444Y1562D01*
X1446Y1562D02*
X1458Y1562D01*
X311Y1561D02*
X332Y1561D01*
X1434Y1561D02*
X1459Y1561D01*
X310Y1560D02*
X331Y1560D01*
X1435Y1560D02*
X1447Y1560D01*
X1449Y1560D02*
X1460Y1560D01*
X309Y1559D02*
X330Y1559D01*
X1436Y1559D02*
X1448Y1559D01*
X1450Y1559D02*
X1461Y1559D01*
X308Y1558D02*
X329Y1558D01*
X1438Y1558D02*
X1449Y1558D01*
X1451Y1558D02*
X1462Y1558D01*
X307Y1557D02*
X327Y1557D01*
X1439Y1557D02*
X1450Y1557D01*
X1452Y1557D02*
X1463Y1557D01*
X305Y1556D02*
X326Y1556D01*
X1440Y1556D02*
X1465Y1556D01*
X304Y1555D02*
X325Y1555D01*
X1441Y1555D02*
X1466Y1555D01*
X303Y1554D02*
X324Y1554D01*
X1443Y1554D02*
X1454Y1554D01*
X1456Y1554D02*
X1467Y1554D01*
X302Y1553D02*
X322Y1553D01*
X1444Y1553D02*
X1455Y1553D01*
X1457Y1553D02*
X1468Y1553D01*
X301Y1552D02*
X321Y1552D01*
X1445Y1552D02*
X1456Y1552D01*
X1458Y1552D02*
X1469Y1552D01*
X300Y1551D02*
X320Y1551D01*
X1446Y1551D02*
X1457Y1551D01*
X1459Y1551D02*
X1470Y1551D01*
X299Y1550D02*
X319Y1550D01*
X1447Y1550D02*
X1458Y1550D01*
X1460Y1550D02*
X1471Y1550D01*
X297Y1549D02*
X318Y1549D01*
X1448Y1549D02*
X1473Y1549D01*
X296Y1548D02*
X317Y1548D01*
X1450Y1548D02*
X1461Y1548D01*
X1463Y1548D02*
X1474Y1548D01*
X295Y1547D02*
X316Y1547D01*
X1451Y1547D02*
X1462Y1547D01*
X1464Y1547D02*
X1475Y1547D01*
X294Y1546D02*
X314Y1546D01*
X1452Y1546D02*
X1463Y1546D01*
X1465Y1546D02*
X1476Y1546D01*
X293Y1545D02*
X313Y1545D01*
X1453Y1545D02*
X1464Y1545D01*
X1466Y1545D02*
X1477Y1545D01*
X292Y1544D02*
X312Y1544D01*
X1454Y1544D02*
X1465Y1544D01*
X1467Y1544D02*
X1478Y1544D01*
X291Y1543D02*
X311Y1543D01*
X1455Y1543D02*
X1466Y1543D01*
X1468Y1543D02*
X1479Y1543D01*
X290Y1542D02*
X310Y1542D01*
X1456Y1542D02*
X1467Y1542D01*
X1469Y1542D02*
X1480Y1542D01*
X289Y1541D02*
X309Y1541D01*
X1458Y1541D02*
X1481Y1541D01*
X287Y1540D02*
X308Y1540D01*
X1459Y1540D02*
X1470Y1540D01*
X1472Y1540D02*
X1483Y1540D01*
X286Y1539D02*
X306Y1539D01*
X1460Y1539D02*
X1471Y1539D01*
X1473Y1539D02*
X1484Y1539D01*
X285Y1538D02*
X305Y1538D01*
X1461Y1538D02*
X1472Y1538D01*
X1474Y1538D02*
X1485Y1538D01*
X284Y1537D02*
X304Y1537D01*
X1462Y1537D02*
X1473Y1537D01*
X1475Y1537D02*
X1486Y1537D01*
X283Y1536D02*
X303Y1536D01*
X1463Y1536D02*
X1474Y1536D01*
X1476Y1536D02*
X1487Y1536D01*
X282Y1535D02*
X302Y1535D01*
X1464Y1535D02*
X1475Y1535D01*
X1477Y1535D02*
X1488Y1535D01*
X281Y1534D02*
X301Y1534D01*
X1465Y1534D02*
X1476Y1534D01*
X1478Y1534D02*
X1489Y1534D01*
X280Y1533D02*
X300Y1533D01*
X1467Y1533D02*
X1477Y1533D01*
X1479Y1533D02*
X1490Y1533D01*
X279Y1532D02*
X299Y1532D01*
X1468Y1532D02*
X1478Y1532D01*
X1480Y1532D02*
X1491Y1532D01*
X278Y1531D02*
X297Y1531D01*
X1469Y1531D02*
X1479Y1531D01*
X1481Y1531D02*
X1492Y1531D01*
X277Y1530D02*
X296Y1530D01*
X1470Y1530D02*
X1480Y1530D01*
X1483Y1530D02*
X1493Y1530D01*
X276Y1529D02*
X295Y1529D01*
X1471Y1529D02*
X1482Y1529D01*
X1484Y1529D02*
X1494Y1529D01*
X275Y1528D02*
X294Y1528D01*
X1472Y1528D02*
X1483Y1528D01*
X1485Y1528D02*
X1495Y1528D01*
X274Y1527D02*
X293Y1527D01*
X1473Y1527D02*
X1484Y1527D01*
X1486Y1527D02*
X1496Y1527D01*
X273Y1526D02*
X292Y1526D01*
X1474Y1526D02*
X1485Y1526D01*
X1487Y1526D02*
X1497Y1526D01*
X271Y1525D02*
X291Y1525D01*
X1475Y1525D02*
X1486Y1525D01*
X1488Y1525D02*
X1499Y1525D01*
X270Y1524D02*
X290Y1524D01*
X1476Y1524D02*
X1487Y1524D01*
X1489Y1524D02*
X1500Y1524D01*
X269Y1523D02*
X289Y1523D01*
X1477Y1523D02*
X1488Y1523D01*
X1490Y1523D02*
X1501Y1523D01*
X268Y1522D02*
X288Y1522D01*
X1478Y1522D02*
X1489Y1522D01*
X1491Y1522D02*
X1502Y1522D01*
X267Y1521D02*
X287Y1521D01*
X1479Y1521D02*
X1490Y1521D01*
X1492Y1521D02*
X1503Y1521D01*
X266Y1520D02*
X286Y1520D01*
X1480Y1520D02*
X1491Y1520D01*
X1493Y1520D02*
X1504Y1520D01*
X265Y1519D02*
X285Y1519D01*
X1482Y1519D02*
X1492Y1519D01*
X1494Y1519D02*
X1505Y1519D01*
X264Y1518D02*
X284Y1518D01*
X1483Y1518D02*
X1493Y1518D01*
X1495Y1518D02*
X1506Y1518D01*
X263Y1517D02*
X283Y1517D01*
X1484Y1517D02*
X1494Y1517D01*
X1496Y1517D02*
X1507Y1517D01*
X262Y1516D02*
X282Y1516D01*
X1485Y1516D02*
X1495Y1516D01*
X1497Y1516D02*
X1508Y1516D01*
X261Y1515D02*
X280Y1515D01*
X1486Y1515D02*
X1496Y1515D01*
X1498Y1515D02*
X1509Y1515D01*
X260Y1514D02*
X279Y1514D01*
X1487Y1514D02*
X1497Y1514D01*
X1499Y1514D02*
X1510Y1514D01*
X259Y1513D02*
X278Y1513D01*
X1488Y1513D02*
X1498Y1513D01*
X1500Y1513D02*
X1511Y1513D01*
X258Y1512D02*
X277Y1512D01*
X1489Y1512D02*
X1499Y1512D01*
X1501Y1512D02*
X1512Y1512D01*
X257Y1511D02*
X276Y1511D01*
X1490Y1511D02*
X1500Y1511D01*
X1502Y1511D02*
X1513Y1511D01*
X256Y1510D02*
X275Y1510D01*
X1491Y1510D02*
X1501Y1510D01*
X1503Y1510D02*
X1514Y1510D01*
X255Y1509D02*
X274Y1509D01*
X1492Y1509D02*
X1502Y1509D01*
X1504Y1509D02*
X1515Y1509D01*
X254Y1508D02*
X273Y1508D01*
X1493Y1508D02*
X1503Y1508D01*
X1505Y1508D02*
X1516Y1508D01*
X253Y1507D02*
X272Y1507D01*
X1494Y1507D02*
X1504Y1507D01*
X1506Y1507D02*
X1517Y1507D01*
X252Y1506D02*
X271Y1506D01*
X1495Y1506D02*
X1505Y1506D01*
X1507Y1506D02*
X1518Y1506D01*
X251Y1505D02*
X270Y1505D01*
X1496Y1505D02*
X1506Y1505D01*
X1508Y1505D02*
X1519Y1505D01*
X250Y1504D02*
X269Y1504D01*
X1497Y1504D02*
X1507Y1504D01*
X1509Y1504D02*
X1520Y1504D01*
X249Y1503D02*
X268Y1503D01*
X1498Y1503D02*
X1508Y1503D01*
X1510Y1503D02*
X1521Y1503D01*
X248Y1502D02*
X267Y1502D01*
X1499Y1502D02*
X1509Y1502D01*
X1511Y1502D02*
X1522Y1502D01*
X248Y1501D02*
X266Y1501D01*
X1500Y1501D02*
X1510Y1501D01*
X1512Y1501D02*
X1522Y1501D01*
X247Y1500D02*
X265Y1500D01*
X1501Y1500D02*
X1511Y1500D01*
X1513Y1500D02*
X1523Y1500D01*
X246Y1499D02*
X264Y1499D01*
X1502Y1499D02*
X1512Y1499D01*
X1514Y1499D02*
X1524Y1499D01*
X245Y1498D02*
X263Y1498D01*
X1503Y1498D02*
X1513Y1498D01*
X1515Y1498D02*
X1525Y1498D01*
X244Y1497D02*
X262Y1497D01*
X1504Y1497D02*
X1514Y1497D01*
X1516Y1497D02*
X1526Y1497D01*
X243Y1496D02*
X261Y1496D01*
X1505Y1496D02*
X1515Y1496D01*
X1517Y1496D02*
X1527Y1496D01*
X242Y1495D02*
X260Y1495D01*
X1506Y1495D02*
X1516Y1495D01*
X1518Y1495D02*
X1528Y1495D01*
X241Y1494D02*
X259Y1494D01*
X1507Y1494D02*
X1517Y1494D01*
X1519Y1494D02*
X1529Y1494D01*
X240Y1493D02*
X258Y1493D01*
X1508Y1493D02*
X1518Y1493D01*
X1520Y1493D02*
X1530Y1493D01*
X239Y1492D02*
X258Y1492D01*
X1509Y1492D02*
X1519Y1492D01*
X1521Y1492D02*
X1531Y1492D01*
X238Y1491D02*
X257Y1491D01*
X1510Y1491D02*
X1520Y1491D01*
X1522Y1491D02*
X1532Y1491D01*
X237Y1490D02*
X256Y1490D01*
X1511Y1490D02*
X1521Y1490D01*
X1523Y1490D02*
X1533Y1490D01*
X236Y1489D02*
X255Y1489D01*
X1512Y1489D02*
X1521Y1489D01*
X1524Y1489D02*
X1534Y1489D01*
X235Y1488D02*
X254Y1488D01*
X1513Y1488D02*
X1522Y1488D01*
X1525Y1488D02*
X1535Y1488D01*
X234Y1487D02*
X253Y1487D01*
X1513Y1487D02*
X1523Y1487D01*
X1526Y1487D02*
X1536Y1487D01*
X233Y1486D02*
X252Y1486D01*
X1514Y1486D02*
X1524Y1486D01*
X1527Y1486D02*
X1537Y1486D01*
X232Y1485D02*
X251Y1485D01*
X1515Y1485D02*
X1525Y1485D01*
X1528Y1485D02*
X1538Y1485D01*
X232Y1484D02*
X250Y1484D01*
X1516Y1484D02*
X1526Y1484D01*
X1529Y1484D02*
X1538Y1484D01*
X231Y1483D02*
X249Y1483D01*
X1517Y1483D02*
X1527Y1483D01*
X1529Y1483D02*
X1539Y1483D01*
X230Y1482D02*
X248Y1482D01*
X1518Y1482D02*
X1528Y1482D01*
X1530Y1482D02*
X1540Y1482D01*
X229Y1481D02*
X247Y1481D01*
X1519Y1481D02*
X1529Y1481D01*
X1531Y1481D02*
X1541Y1481D01*
X228Y1480D02*
X246Y1480D01*
X1520Y1480D02*
X1530Y1480D01*
X1532Y1480D02*
X1542Y1480D01*
X227Y1479D02*
X245Y1479D01*
X1521Y1479D02*
X1531Y1479D01*
X1533Y1479D02*
X1543Y1479D01*
X226Y1478D02*
X244Y1478D01*
X1522Y1478D02*
X1532Y1478D01*
X1534Y1478D02*
X1544Y1478D01*
X225Y1477D02*
X243Y1477D01*
X1523Y1477D02*
X1533Y1477D01*
X1535Y1477D02*
X1545Y1477D01*
X224Y1476D02*
X243Y1476D01*
X1524Y1476D02*
X1534Y1476D01*
X1536Y1476D02*
X1546Y1476D01*
X223Y1475D02*
X242Y1475D01*
X1525Y1475D02*
X1534Y1475D01*
X1537Y1475D02*
X1547Y1475D01*
X223Y1474D02*
X241Y1474D01*
X1526Y1474D02*
X1535Y1474D01*
X1538Y1474D02*
X1547Y1474D01*
X222Y1473D02*
X240Y1473D01*
X1526Y1473D02*
X1536Y1473D01*
X1539Y1473D02*
X1548Y1473D01*
X221Y1472D02*
X239Y1472D01*
X1527Y1472D02*
X1537Y1472D01*
X1539Y1472D02*
X1549Y1472D01*
X220Y1471D02*
X238Y1471D01*
X1528Y1471D02*
X1538Y1471D01*
X1540Y1471D02*
X1550Y1471D01*
X219Y1470D02*
X237Y1470D01*
X1529Y1470D02*
X1539Y1470D01*
X1541Y1470D02*
X1551Y1470D01*
X218Y1469D02*
X236Y1469D01*
X1530Y1469D02*
X1540Y1469D01*
X1542Y1469D02*
X1552Y1469D01*
X217Y1468D02*
X235Y1468D01*
X1531Y1468D02*
X1540Y1468D01*
X1543Y1468D02*
X1553Y1468D01*
X216Y1467D02*
X234Y1467D01*
X1532Y1467D02*
X1541Y1467D01*
X1544Y1467D02*
X1554Y1467D01*
X216Y1466D02*
X234Y1466D01*
X1533Y1466D02*
X1542Y1466D01*
X1545Y1466D02*
X1554Y1466D01*
X215Y1465D02*
X233Y1465D01*
X1534Y1465D02*
X1543Y1465D01*
X1546Y1465D02*
X1555Y1465D01*
X214Y1464D02*
X232Y1464D01*
X1534Y1464D02*
X1544Y1464D01*
X1547Y1464D02*
X1556Y1464D01*
X213Y1463D02*
X231Y1463D01*
X1535Y1463D02*
X1545Y1463D01*
X1547Y1463D02*
X1557Y1463D01*
X212Y1462D02*
X230Y1462D01*
X1536Y1462D02*
X1546Y1462D01*
X1548Y1462D02*
X1558Y1462D01*
X211Y1461D02*
X229Y1461D01*
X1537Y1461D02*
X1547Y1461D01*
X1549Y1461D02*
X1559Y1461D01*
X210Y1460D02*
X228Y1460D01*
X1538Y1460D02*
X1547Y1460D01*
X1550Y1460D02*
X1560Y1460D01*
X210Y1459D02*
X227Y1459D01*
X1539Y1459D02*
X1548Y1459D01*
X1551Y1459D02*
X1560Y1459D01*
X209Y1458D02*
X227Y1458D01*
X1540Y1458D02*
X1549Y1458D01*
X1552Y1458D02*
X1561Y1458D01*
X208Y1457D02*
X226Y1457D01*
X1541Y1457D02*
X1550Y1457D01*
X1553Y1457D02*
X1562Y1457D01*
X207Y1456D02*
X225Y1456D01*
X1541Y1456D02*
X1551Y1456D01*
X1553Y1456D02*
X1563Y1456D01*
X206Y1455D02*
X224Y1455D01*
X1542Y1455D02*
X1552Y1455D01*
X1554Y1455D02*
X1564Y1455D01*
X205Y1454D02*
X223Y1454D01*
X1543Y1454D02*
X1553Y1454D01*
X1555Y1454D02*
X1565Y1454D01*
X205Y1453D02*
X222Y1453D01*
X1544Y1453D02*
X1553Y1453D01*
X1556Y1453D02*
X1565Y1453D01*
X204Y1452D02*
X221Y1452D01*
X1545Y1452D02*
X1554Y1452D01*
X1557Y1452D02*
X1566Y1452D01*
X203Y1451D02*
X221Y1451D01*
X1546Y1451D02*
X1555Y1451D01*
X1558Y1451D02*
X1567Y1451D01*
X202Y1450D02*
X220Y1450D01*
X1547Y1450D02*
X1556Y1450D01*
X1559Y1450D02*
X1568Y1450D01*
X201Y1449D02*
X219Y1449D01*
X1547Y1449D02*
X1557Y1449D01*
X1559Y1449D02*
X1569Y1449D01*
X200Y1448D02*
X218Y1448D01*
X1548Y1448D02*
X1557Y1448D01*
X1560Y1448D02*
X1570Y1448D01*
X200Y1447D02*
X217Y1447D01*
X1549Y1447D02*
X1558Y1447D01*
X1561Y1447D02*
X1570Y1447D01*
X199Y1446D02*
X216Y1446D01*
X1550Y1446D02*
X1559Y1446D01*
X1562Y1446D02*
X1571Y1446D01*
X198Y1445D02*
X216Y1445D01*
X1551Y1445D02*
X1560Y1445D01*
X1563Y1445D02*
X1572Y1445D01*
X197Y1444D02*
X215Y1444D01*
X1552Y1444D02*
X1561Y1444D01*
X1564Y1444D02*
X1573Y1444D01*
X196Y1443D02*
X214Y1443D01*
X1552Y1443D02*
X1562Y1443D01*
X1564Y1443D02*
X1574Y1443D01*
X196Y1442D02*
X213Y1442D01*
X1553Y1442D02*
X1562Y1442D01*
X1565Y1442D02*
X1574Y1442D01*
X195Y1441D02*
X212Y1441D01*
X1554Y1441D02*
X1563Y1441D01*
X1566Y1441D02*
X1575Y1441D01*
X194Y1440D02*
X212Y1440D01*
X1555Y1440D02*
X1564Y1440D01*
X1567Y1440D02*
X1576Y1440D01*
X193Y1439D02*
X211Y1439D01*
X1556Y1439D02*
X1565Y1439D01*
X1568Y1439D02*
X1577Y1439D01*
X192Y1438D02*
X210Y1438D01*
X1556Y1438D02*
X1566Y1438D01*
X1568Y1438D02*
X1578Y1438D01*
X192Y1437D02*
X209Y1437D01*
X1557Y1437D02*
X1566Y1437D01*
X1569Y1437D02*
X1578Y1437D01*
X191Y1436D02*
X208Y1436D01*
X1558Y1436D02*
X1567Y1436D01*
X1570Y1436D02*
X1579Y1436D01*
X190Y1435D02*
X207Y1435D01*
X1559Y1435D02*
X1568Y1435D01*
X1571Y1435D02*
X1580Y1435D01*
X189Y1434D02*
X207Y1434D01*
X1560Y1434D02*
X1569Y1434D01*
X1572Y1434D02*
X1581Y1434D01*
X188Y1433D02*
X206Y1433D01*
X1561Y1433D02*
X1570Y1433D01*
X1572Y1433D02*
X1582Y1433D01*
X188Y1432D02*
X205Y1432D01*
X1561Y1432D02*
X1570Y1432D01*
X1573Y1432D02*
X1582Y1432D01*
X187Y1431D02*
X204Y1431D01*
X1562Y1431D02*
X1571Y1431D01*
X1574Y1431D02*
X1583Y1431D01*
X186Y1430D02*
X203Y1430D01*
X1563Y1430D02*
X1572Y1430D01*
X1575Y1430D02*
X1584Y1430D01*
X185Y1429D02*
X203Y1429D01*
X1564Y1429D02*
X1573Y1429D01*
X1576Y1429D02*
X1585Y1429D01*
X185Y1428D02*
X202Y1428D01*
X1565Y1428D02*
X1573Y1428D01*
X1576Y1428D02*
X1585Y1428D01*
X184Y1427D02*
X201Y1427D01*
X1565Y1427D02*
X1574Y1427D01*
X1577Y1427D02*
X1586Y1427D01*
X183Y1426D02*
X200Y1426D01*
X1566Y1426D02*
X1575Y1426D01*
X1578Y1426D02*
X1587Y1426D01*
X182Y1425D02*
X199Y1425D01*
X1567Y1425D02*
X1576Y1425D01*
X1579Y1425D02*
X1588Y1425D01*
X181Y1424D02*
X199Y1424D01*
X1568Y1424D02*
X1577Y1424D01*
X1580Y1424D02*
X1589Y1424D01*
X181Y1423D02*
X198Y1423D01*
X1568Y1423D02*
X1577Y1423D01*
X1580Y1423D02*
X1589Y1423D01*
X180Y1422D02*
X197Y1422D01*
X1569Y1422D02*
X1578Y1422D01*
X1581Y1422D02*
X1590Y1422D01*
X179Y1421D02*
X196Y1421D01*
X1570Y1421D02*
X1579Y1421D01*
X1582Y1421D02*
X1591Y1421D01*
X178Y1420D02*
X196Y1420D01*
X1571Y1420D02*
X1580Y1420D01*
X1583Y1420D02*
X1592Y1420D01*
X178Y1419D02*
X195Y1419D01*
X1571Y1419D02*
X1580Y1419D01*
X1583Y1419D02*
X1592Y1419D01*
X177Y1418D02*
X194Y1418D01*
X1572Y1418D02*
X1581Y1418D01*
X1584Y1418D02*
X1593Y1418D01*
X176Y1417D02*
X193Y1417D01*
X1573Y1417D02*
X1582Y1417D01*
X1585Y1417D02*
X1594Y1417D01*
X175Y1416D02*
X193Y1416D01*
X1574Y1416D02*
X1583Y1416D01*
X1586Y1416D02*
X1595Y1416D01*
X175Y1415D02*
X192Y1415D01*
X1574Y1415D02*
X1583Y1415D01*
X1586Y1415D02*
X1595Y1415D01*
X174Y1414D02*
X191Y1414D01*
X1575Y1414D02*
X1584Y1414D01*
X1587Y1414D02*
X1596Y1414D01*
X173Y1413D02*
X190Y1413D01*
X1576Y1413D02*
X1585Y1413D01*
X1588Y1413D02*
X1597Y1413D01*
X172Y1412D02*
X190Y1412D01*
X1577Y1412D02*
X1586Y1412D01*
X1589Y1412D02*
X1598Y1412D01*
X172Y1411D02*
X189Y1411D01*
X1578Y1411D02*
X1586Y1411D01*
X1589Y1411D02*
X1598Y1411D01*
X171Y1410D02*
X188Y1410D01*
X1578Y1410D02*
X1587Y1410D01*
X1590Y1410D02*
X1599Y1410D01*
X170Y1409D02*
X187Y1409D01*
X1579Y1409D02*
X1588Y1409D01*
X1591Y1409D02*
X1600Y1409D01*
X170Y1408D02*
X186Y1408D01*
X1580Y1408D02*
X1589Y1408D01*
X1592Y1408D02*
X1600Y1408D01*
X169Y1407D02*
X186Y1407D01*
X1581Y1407D02*
X1589Y1407D01*
X1592Y1407D02*
X1601Y1407D01*
X168Y1406D02*
X185Y1406D01*
X1581Y1406D02*
X1590Y1406D01*
X1593Y1406D02*
X1602Y1406D01*
X167Y1405D02*
X184Y1405D01*
X1582Y1405D02*
X1591Y1405D01*
X1594Y1405D02*
X1603Y1405D01*
X167Y1404D02*
X184Y1404D01*
X1583Y1404D02*
X1591Y1404D01*
X1595Y1404D02*
X1603Y1404D01*
X166Y1403D02*
X183Y1403D01*
X1584Y1403D02*
X1592Y1403D01*
X1595Y1403D02*
X1604Y1403D01*
X165Y1402D02*
X182Y1402D01*
X1584Y1402D02*
X1593Y1402D01*
X1596Y1402D02*
X1605Y1402D01*
X164Y1401D02*
X181Y1401D01*
X1585Y1401D02*
X1594Y1401D01*
X1597Y1401D02*
X1606Y1401D01*
X164Y1400D02*
X181Y1400D01*
X1586Y1400D02*
X1594Y1400D01*
X1597Y1400D02*
X1606Y1400D01*
X163Y1399D02*
X180Y1399D01*
X1586Y1399D02*
X1595Y1399D01*
X1598Y1399D02*
X1607Y1399D01*
X162Y1398D02*
X179Y1398D01*
X1587Y1398D02*
X1596Y1398D01*
X1599Y1398D02*
X1608Y1398D01*
X162Y1397D02*
X179Y1397D01*
X1588Y1397D02*
X1596Y1397D01*
X1600Y1397D02*
X1608Y1397D01*
X161Y1396D02*
X178Y1396D01*
X1589Y1396D02*
X1597Y1396D01*
X1600Y1396D02*
X1609Y1396D01*
X160Y1395D02*
X177Y1395D01*
X1589Y1395D02*
X1598Y1395D01*
X1601Y1395D02*
X1610Y1395D01*
X160Y1394D02*
X176Y1394D01*
X1590Y1394D02*
X1599Y1394D01*
X1602Y1394D02*
X1610Y1394D01*
X159Y1393D02*
X176Y1393D01*
X1591Y1393D02*
X1599Y1393D01*
X1603Y1393D02*
X1611Y1393D01*
X158Y1392D02*
X175Y1392D01*
X1591Y1392D02*
X1600Y1392D01*
X1603Y1392D02*
X1612Y1392D01*
X157Y1391D02*
X174Y1391D01*
X1592Y1391D02*
X1601Y1391D01*
X1604Y1391D02*
X1613Y1391D01*
X157Y1390D02*
X174Y1390D01*
X1593Y1390D02*
X1601Y1390D01*
X1605Y1390D02*
X1613Y1390D01*
X156Y1389D02*
X173Y1389D01*
X1593Y1389D02*
X1602Y1389D01*
X1605Y1389D02*
X1614Y1389D01*
X155Y1388D02*
X172Y1388D01*
X1594Y1388D02*
X1603Y1388D01*
X1606Y1388D02*
X1615Y1388D01*
X155Y1387D02*
X171Y1387D01*
X1595Y1387D02*
X1604Y1387D01*
X1607Y1387D02*
X1615Y1387D01*
X154Y1386D02*
X171Y1386D01*
X1596Y1386D02*
X1604Y1386D01*
X1607Y1386D02*
X1616Y1386D01*
X153Y1385D02*
X170Y1385D01*
X1596Y1385D02*
X1605Y1385D01*
X1608Y1385D02*
X1617Y1385D01*
X153Y1384D02*
X169Y1384D01*
X1597Y1384D02*
X1606Y1384D01*
X1609Y1384D02*
X1617Y1384D01*
X152Y1383D02*
X169Y1383D01*
X1598Y1383D02*
X1606Y1383D01*
X1609Y1383D02*
X1618Y1383D01*
X151Y1382D02*
X168Y1382D01*
X1598Y1382D02*
X1607Y1382D01*
X1610Y1382D02*
X1619Y1382D01*
X151Y1381D02*
X167Y1381D01*
X1599Y1381D02*
X1607Y1381D01*
X1611Y1381D02*
X1619Y1381D01*
X150Y1380D02*
X167Y1380D01*
X1600Y1380D02*
X1608Y1380D01*
X1612Y1380D02*
X1620Y1380D01*
X149Y1379D02*
X166Y1379D01*
X1600Y1379D02*
X1609Y1379D01*
X1612Y1379D02*
X1621Y1379D01*
X149Y1378D02*
X165Y1378D01*
X1601Y1378D02*
X1609Y1378D01*
X1613Y1378D02*
X1621Y1378D01*
X148Y1377D02*
X165Y1377D01*
X1602Y1377D02*
X1610Y1377D01*
X1614Y1377D02*
X1622Y1377D01*
X147Y1376D02*
X164Y1376D01*
X1602Y1376D02*
X1611Y1376D01*
X1614Y1376D02*
X1623Y1376D01*
X147Y1375D02*
X163Y1375D01*
X1603Y1375D02*
X1611Y1375D01*
X1615Y1375D02*
X1623Y1375D01*
X146Y1374D02*
X163Y1374D01*
X1604Y1374D02*
X1612Y1374D01*
X1616Y1374D02*
X1624Y1374D01*
X145Y1373D02*
X162Y1373D01*
X1604Y1373D02*
X1613Y1373D01*
X1616Y1373D02*
X1625Y1373D01*
X145Y1372D02*
X161Y1372D01*
X1605Y1372D02*
X1613Y1372D01*
X1617Y1372D02*
X1625Y1372D01*
X144Y1371D02*
X161Y1371D01*
X1606Y1371D02*
X1614Y1371D01*
X1618Y1371D02*
X1626Y1371D01*
X143Y1370D02*
X160Y1370D01*
X1606Y1370D02*
X1615Y1370D01*
X1618Y1370D02*
X1627Y1370D01*
X143Y1369D02*
X159Y1369D01*
X1607Y1369D02*
X1615Y1369D01*
X1619Y1369D02*
X1627Y1369D01*
X142Y1368D02*
X159Y1368D01*
X1608Y1368D02*
X1616Y1368D01*
X1620Y1368D02*
X1628Y1368D01*
X141Y1367D02*
X158Y1367D01*
X1608Y1367D02*
X1617Y1367D01*
X1620Y1367D02*
X1629Y1367D01*
X141Y1366D02*
X157Y1366D01*
X1609Y1366D02*
X1617Y1366D01*
X1621Y1366D02*
X1629Y1366D01*
X140Y1365D02*
X157Y1365D01*
X1610Y1365D02*
X1618Y1365D01*
X1622Y1365D02*
X1630Y1365D01*
X139Y1364D02*
X156Y1364D01*
X1610Y1364D02*
X1619Y1364D01*
X1622Y1364D02*
X1631Y1364D01*
X139Y1363D02*
X155Y1363D01*
X1611Y1363D02*
X1619Y1363D01*
X1623Y1363D02*
X1631Y1363D01*
X138Y1362D02*
X155Y1362D01*
X1612Y1362D02*
X1620Y1362D01*
X1623Y1362D02*
X1632Y1362D01*
X138Y1361D02*
X154Y1361D01*
X1612Y1361D02*
X1621Y1361D01*
X1624Y1361D02*
X1632Y1361D01*
X137Y1360D02*
X153Y1360D01*
X1613Y1360D02*
X1621Y1360D01*
X1625Y1360D02*
X1633Y1360D01*
X136Y1359D02*
X153Y1359D01*
X1614Y1359D02*
X1622Y1359D01*
X1625Y1359D02*
X1634Y1359D01*
X136Y1358D02*
X152Y1358D01*
X1614Y1358D02*
X1622Y1358D01*
X1626Y1358D02*
X1634Y1358D01*
X135Y1357D02*
X151Y1357D01*
X1615Y1357D02*
X1623Y1357D01*
X1627Y1357D02*
X1635Y1357D01*
X134Y1356D02*
X151Y1356D01*
X1616Y1356D02*
X1624Y1356D01*
X1627Y1356D02*
X1636Y1356D01*
X134Y1355D02*
X150Y1355D01*
X1616Y1355D02*
X1624Y1355D01*
X1628Y1355D02*
X1636Y1355D01*
X133Y1354D02*
X150Y1354D01*
X1617Y1354D02*
X1625Y1354D01*
X1629Y1354D02*
X1637Y1354D01*
X133Y1353D02*
X149Y1353D01*
X1617Y1353D02*
X1626Y1353D01*
X1629Y1353D02*
X1637Y1353D01*
X132Y1352D02*
X148Y1352D01*
X1618Y1352D02*
X1626Y1352D01*
X1630Y1352D02*
X1638Y1352D01*
X131Y1351D02*
X148Y1351D01*
X1619Y1351D02*
X1627Y1351D01*
X1630Y1351D02*
X1639Y1351D01*
X131Y1350D02*
X147Y1350D01*
X1619Y1350D02*
X1627Y1350D01*
X1631Y1350D02*
X1639Y1350D01*
X130Y1349D02*
X147Y1349D01*
X1620Y1349D02*
X1628Y1349D01*
X1632Y1349D02*
X1640Y1349D01*
X129Y1348D02*
X146Y1348D01*
X1621Y1348D02*
X1629Y1348D01*
X1632Y1348D02*
X1641Y1348D01*
X129Y1347D02*
X145Y1347D01*
X1621Y1347D02*
X1629Y1347D01*
X1633Y1347D02*
X1641Y1347D01*
X128Y1346D02*
X145Y1346D01*
X1622Y1346D02*
X1630Y1346D01*
X1634Y1346D02*
X1642Y1346D01*
X128Y1345D02*
X144Y1345D01*
X1622Y1345D02*
X1631Y1345D01*
X1634Y1345D02*
X1642Y1345D01*
X127Y1344D02*
X143Y1344D01*
X1623Y1344D02*
X1631Y1344D01*
X1635Y1344D02*
X1643Y1344D01*
X126Y1343D02*
X143Y1343D01*
X1624Y1343D02*
X1632Y1343D01*
X1635Y1343D02*
X1644Y1343D01*
X126Y1342D02*
X142Y1342D01*
X1624Y1342D02*
X1632Y1342D01*
X1636Y1342D02*
X1644Y1342D01*
X125Y1341D02*
X142Y1341D01*
X1625Y1341D02*
X1633Y1341D01*
X1637Y1341D02*
X1645Y1341D01*
X125Y1340D02*
X141Y1340D01*
X1625Y1340D02*
X1634Y1340D01*
X1637Y1340D02*
X1645Y1340D01*
X124Y1339D02*
X140Y1339D01*
X1626Y1339D02*
X1634Y1339D01*
X1638Y1339D02*
X1646Y1339D01*
X123Y1338D02*
X140Y1338D01*
X1627Y1338D02*
X1635Y1338D01*
X1638Y1338D02*
X1647Y1338D01*
X123Y1337D02*
X139Y1337D01*
X1627Y1337D02*
X1635Y1337D01*
X1639Y1337D02*
X1647Y1337D01*
X122Y1336D02*
X138Y1336D01*
X1628Y1336D02*
X1636Y1336D01*
X1640Y1336D02*
X1648Y1336D01*
X122Y1335D02*
X138Y1335D01*
X1629Y1335D02*
X1637Y1335D01*
X1640Y1335D02*
X1648Y1335D01*
X121Y1334D02*
X137Y1334D01*
X1629Y1334D02*
X1637Y1334D01*
X1641Y1334D02*
X1649Y1334D01*
X120Y1333D02*
X137Y1333D01*
X1630Y1333D02*
X1638Y1333D01*
X1641Y1333D02*
X1650Y1333D01*
X120Y1332D02*
X136Y1332D01*
X1630Y1332D02*
X1638Y1332D01*
X1642Y1332D02*
X1650Y1332D01*
X119Y1331D02*
X136Y1331D01*
X1631Y1331D02*
X1639Y1331D01*
X1643Y1331D02*
X1651Y1331D01*
X119Y1330D02*
X135Y1330D01*
X1631Y1330D02*
X1639Y1330D01*
X1643Y1330D02*
X1651Y1330D01*
X118Y1329D02*
X134Y1329D01*
X1632Y1329D02*
X1640Y1329D01*
X1644Y1329D02*
X1652Y1329D01*
X118Y1328D02*
X134Y1328D01*
X1633Y1328D02*
X1641Y1328D01*
X1644Y1328D02*
X1652Y1328D01*
X117Y1327D02*
X133Y1327D01*
X1633Y1327D02*
X1641Y1327D01*
X1645Y1327D02*
X1653Y1327D01*
X116Y1326D02*
X133Y1326D01*
X1634Y1326D02*
X1642Y1326D01*
X1646Y1326D02*
X1654Y1326D01*
X116Y1325D02*
X132Y1325D01*
X1634Y1325D02*
X1642Y1325D01*
X1646Y1325D02*
X1654Y1325D01*
X115Y1324D02*
X132Y1324D01*
X1635Y1324D02*
X1643Y1324D01*
X1647Y1324D02*
X1655Y1324D01*
X115Y1323D02*
X131Y1323D01*
X1635Y1323D02*
X1643Y1323D01*
X1647Y1323D02*
X1655Y1323D01*
X114Y1322D02*
X130Y1322D01*
X1636Y1322D02*
X1644Y1322D01*
X1648Y1322D02*
X1656Y1322D01*
X114Y1321D02*
X130Y1321D01*
X1637Y1321D02*
X1645Y1321D01*
X1648Y1321D02*
X1656Y1321D01*
X113Y1320D02*
X129Y1320D01*
X1637Y1320D02*
X1645Y1320D01*
X1649Y1320D02*
X1657Y1320D01*
X112Y1319D02*
X129Y1319D01*
X1638Y1319D02*
X1646Y1319D01*
X1649Y1319D02*
X1658Y1319D01*
X112Y1318D02*
X128Y1318D01*
X1638Y1318D02*
X1646Y1318D01*
X1650Y1318D02*
X1658Y1318D01*
X111Y1317D02*
X128Y1317D01*
X1639Y1317D02*
X1647Y1317D01*
X1651Y1317D02*
X1659Y1317D01*
X111Y1316D02*
X127Y1316D01*
X1639Y1316D02*
X1647Y1316D01*
X1651Y1316D02*
X1659Y1316D01*
X110Y1315D02*
X126Y1315D01*
X1640Y1315D02*
X1648Y1315D01*
X1652Y1315D02*
X1660Y1315D01*
X110Y1314D02*
X126Y1314D01*
X1641Y1314D02*
X1649Y1314D01*
X1652Y1314D02*
X1660Y1314D01*
X109Y1313D02*
X125Y1313D01*
X1641Y1313D02*
X1649Y1313D01*
X1653Y1313D02*
X1661Y1313D01*
X109Y1312D02*
X125Y1312D01*
X1642Y1312D02*
X1650Y1312D01*
X1653Y1312D02*
X1661Y1312D01*
X108Y1311D02*
X124Y1311D01*
X1642Y1311D02*
X1650Y1311D01*
X1654Y1311D02*
X1662Y1311D01*
X107Y1310D02*
X124Y1310D01*
X1643Y1310D02*
X1651Y1310D01*
X1655Y1310D02*
X1663Y1310D01*
X107Y1309D02*
X123Y1309D01*
X1643Y1309D02*
X1651Y1309D01*
X1655Y1309D02*
X1663Y1309D01*
X106Y1308D02*
X123Y1308D01*
X1644Y1308D02*
X1652Y1308D01*
X1656Y1308D02*
X1664Y1308D01*
X106Y1307D02*
X122Y1307D01*
X1644Y1307D02*
X1652Y1307D01*
X1656Y1307D02*
X1664Y1307D01*
X105Y1306D02*
X121Y1306D01*
X1645Y1306D02*
X1653Y1306D01*
X1657Y1306D02*
X1665Y1306D01*
X105Y1305D02*
X121Y1305D01*
X1646Y1305D02*
X1653Y1305D01*
X1657Y1305D02*
X1665Y1305D01*
X104Y1304D02*
X120Y1304D01*
X1646Y1304D02*
X1654Y1304D01*
X1658Y1304D02*
X1666Y1304D01*
X104Y1303D02*
X120Y1303D01*
X1647Y1303D02*
X1654Y1303D01*
X1658Y1303D02*
X1666Y1303D01*
X103Y1302D02*
X119Y1302D01*
X1647Y1302D02*
X1655Y1302D01*
X1659Y1302D02*
X1667Y1302D01*
X103Y1301D02*
X119Y1301D01*
X1648Y1301D02*
X1655Y1301D01*
X1659Y1301D02*
X1667Y1301D01*
X102Y1300D02*
X118Y1300D01*
X1648Y1300D02*
X1656Y1300D01*
X1660Y1300D02*
X1668Y1300D01*
X102Y1299D02*
X118Y1299D01*
X1649Y1299D02*
X1656Y1299D01*
X1660Y1299D02*
X1668Y1299D01*
X101Y1298D02*
X117Y1298D01*
X1649Y1298D02*
X1657Y1298D01*
X1661Y1298D02*
X1669Y1298D01*
X101Y1297D02*
X117Y1297D01*
X1650Y1297D02*
X1658Y1297D01*
X1662Y1297D02*
X1669Y1297D01*
X100Y1296D02*
X116Y1296D01*
X1650Y1296D02*
X1658Y1296D01*
X1662Y1296D02*
X1670Y1296D01*
X100Y1295D02*
X116Y1295D01*
X1651Y1295D02*
X1659Y1295D01*
X1663Y1295D02*
X1670Y1295D01*
X99Y1294D02*
X115Y1294D01*
X1651Y1294D02*
X1659Y1294D01*
X1663Y1294D02*
X1671Y1294D01*
X98Y1293D02*
X115Y1293D01*
X1652Y1293D02*
X1660Y1293D01*
X1664Y1293D02*
X1672Y1293D01*
X98Y1292D02*
X114Y1292D01*
X1652Y1292D02*
X1660Y1292D01*
X1664Y1292D02*
X1672Y1292D01*
X97Y1291D02*
X113Y1291D01*
X1653Y1291D02*
X1661Y1291D01*
X1665Y1291D02*
X1673Y1291D01*
X97Y1290D02*
X113Y1290D01*
X1653Y1290D02*
X1661Y1290D01*
X1665Y1290D02*
X1673Y1290D01*
X96Y1289D02*
X112Y1289D01*
X1654Y1289D02*
X1662Y1289D01*
X1666Y1289D02*
X1674Y1289D01*
X96Y1288D02*
X112Y1288D01*
X1655Y1288D02*
X1662Y1288D01*
X1666Y1288D02*
X1674Y1288D01*
X95Y1287D02*
X111Y1287D01*
X1655Y1287D02*
X1663Y1287D01*
X1667Y1287D02*
X1675Y1287D01*
X95Y1286D02*
X111Y1286D01*
X1656Y1286D02*
X1663Y1286D01*
X1667Y1286D02*
X1675Y1286D01*
X94Y1285D02*
X110Y1285D01*
X1656Y1285D02*
X1664Y1285D01*
X1668Y1285D02*
X1676Y1285D01*
X94Y1284D02*
X110Y1284D01*
X1657Y1284D02*
X1664Y1284D01*
X1668Y1284D02*
X1676Y1284D01*
X93Y1283D02*
X109Y1283D01*
X1657Y1283D02*
X1665Y1283D01*
X1669Y1283D02*
X1677Y1283D01*
X93Y1282D02*
X109Y1282D01*
X1658Y1282D02*
X1665Y1282D01*
X1669Y1282D02*
X1677Y1282D01*
X92Y1281D02*
X108Y1281D01*
X1658Y1281D02*
X1666Y1281D01*
X1670Y1281D02*
X1678Y1281D01*
X92Y1280D02*
X108Y1280D01*
X1659Y1280D02*
X1666Y1280D01*
X1670Y1280D02*
X1678Y1280D01*
X91Y1279D02*
X107Y1279D01*
X1659Y1279D02*
X1667Y1279D01*
X1671Y1279D02*
X1679Y1279D01*
X91Y1278D02*
X107Y1278D01*
X1660Y1278D02*
X1667Y1278D01*
X1671Y1278D02*
X1679Y1278D01*
X90Y1277D02*
X106Y1277D01*
X1660Y1277D02*
X1668Y1277D01*
X1672Y1277D02*
X1680Y1277D01*
X90Y1276D02*
X106Y1276D01*
X1661Y1276D02*
X1668Y1276D01*
X1672Y1276D02*
X1680Y1276D01*
X89Y1275D02*
X105Y1275D01*
X1661Y1275D02*
X1669Y1275D01*
X1673Y1275D02*
X1681Y1275D01*
X89Y1274D02*
X105Y1274D01*
X1661Y1274D02*
X1669Y1274D01*
X1673Y1274D02*
X1681Y1274D01*
X88Y1273D02*
X104Y1273D01*
X1662Y1273D02*
X1670Y1273D01*
X1674Y1273D02*
X1682Y1273D01*
X88Y1272D02*
X104Y1272D01*
X1662Y1272D02*
X1670Y1272D01*
X1674Y1272D02*
X1682Y1272D01*
X87Y1271D02*
X103Y1271D01*
X1663Y1271D02*
X1671Y1271D01*
X1675Y1271D02*
X1683Y1271D01*
X87Y1270D02*
X103Y1270D01*
X1663Y1270D02*
X1671Y1270D01*
X1675Y1270D02*
X1683Y1270D01*
X87Y1269D02*
X102Y1269D01*
X1664Y1269D02*
X1672Y1269D01*
X1676Y1269D02*
X1683Y1269D01*
X86Y1268D02*
X102Y1268D01*
X1664Y1268D02*
X1672Y1268D01*
X1676Y1268D02*
X1684Y1268D01*
X86Y1267D02*
X101Y1267D01*
X1665Y1267D02*
X1673Y1267D01*
X1677Y1267D02*
X1684Y1267D01*
X85Y1266D02*
X101Y1266D01*
X1665Y1266D02*
X1673Y1266D01*
X1677Y1266D02*
X1685Y1266D01*
X85Y1265D02*
X100Y1265D01*
X1666Y1265D02*
X1674Y1265D01*
X1678Y1265D02*
X1685Y1265D01*
X84Y1264D02*
X100Y1264D01*
X1666Y1264D02*
X1674Y1264D01*
X1678Y1264D02*
X1686Y1264D01*
X84Y1263D02*
X100Y1263D01*
X1667Y1263D02*
X1674Y1263D01*
X1679Y1263D02*
X1686Y1263D01*
X83Y1262D02*
X99Y1262D01*
X1667Y1262D02*
X1675Y1262D01*
X1679Y1262D02*
X1687Y1262D01*
X83Y1261D02*
X99Y1261D01*
X1668Y1261D02*
X1675Y1261D01*
X1680Y1261D02*
X1687Y1261D01*
X82Y1260D02*
X98Y1260D01*
X1668Y1260D02*
X1676Y1260D01*
X1680Y1260D02*
X1688Y1260D01*
X82Y1259D02*
X98Y1259D01*
X1669Y1259D02*
X1676Y1259D01*
X1680Y1259D02*
X1688Y1259D01*
X81Y1258D02*
X97Y1258D01*
X1669Y1258D02*
X1677Y1258D01*
X1681Y1258D02*
X1689Y1258D01*
X81Y1257D02*
X97Y1257D01*
X1670Y1257D02*
X1677Y1257D01*
X1681Y1257D02*
X1689Y1257D01*
X80Y1256D02*
X96Y1256D01*
X1670Y1256D02*
X1678Y1256D01*
X1682Y1256D02*
X1690Y1256D01*
X80Y1255D02*
X96Y1255D01*
X1671Y1255D02*
X1678Y1255D01*
X1682Y1255D02*
X1690Y1255D01*
X80Y1254D02*
X95Y1254D01*
X1671Y1254D02*
X1679Y1254D01*
X1683Y1254D02*
X1690Y1254D01*
X79Y1253D02*
X95Y1253D01*
X1671Y1253D02*
X1679Y1253D01*
X1683Y1253D02*
X1691Y1253D01*
X79Y1252D02*
X95Y1252D01*
X1672Y1252D02*
X1679Y1252D01*
X1684Y1252D02*
X1691Y1252D01*
X78Y1251D02*
X94Y1251D01*
X1672Y1251D02*
X1680Y1251D01*
X1684Y1251D02*
X1692Y1251D01*
X78Y1250D02*
X94Y1250D01*
X1673Y1250D02*
X1680Y1250D01*
X1685Y1250D02*
X1692Y1250D01*
X77Y1249D02*
X93Y1249D01*
X1673Y1249D02*
X1681Y1249D01*
X1685Y1249D02*
X1693Y1249D01*
X77Y1248D02*
X93Y1248D01*
X1674Y1248D02*
X1681Y1248D01*
X1686Y1248D02*
X1693Y1248D01*
X76Y1247D02*
X92Y1247D01*
X1674Y1247D02*
X1682Y1247D01*
X1686Y1247D02*
X1694Y1247D01*
X76Y1246D02*
X92Y1246D01*
X1675Y1246D02*
X1682Y1246D01*
X1687Y1246D02*
X1694Y1246D01*
X75Y1245D02*
X91Y1245D01*
X1675Y1245D02*
X1683Y1245D01*
X1687Y1245D02*
X1695Y1245D01*
X75Y1244D02*
X91Y1244D01*
X1676Y1244D02*
X1683Y1244D01*
X1687Y1244D02*
X1695Y1244D01*
X75Y1243D02*
X90Y1243D01*
X1676Y1243D02*
X1683Y1243D01*
X1688Y1243D02*
X1695Y1243D01*
X74Y1242D02*
X90Y1242D01*
X1676Y1242D02*
X1684Y1242D01*
X1688Y1242D02*
X1696Y1242D01*
X74Y1241D02*
X90Y1241D01*
X1677Y1241D02*
X1684Y1241D01*
X1689Y1241D02*
X1696Y1241D01*
X73Y1240D02*
X89Y1240D01*
X1677Y1240D02*
X1685Y1240D01*
X1689Y1240D02*
X1697Y1240D01*
X73Y1239D02*
X89Y1239D01*
X1678Y1239D02*
X1685Y1239D01*
X1690Y1239D02*
X1697Y1239D01*
X72Y1238D02*
X88Y1238D01*
X1678Y1238D02*
X1686Y1238D01*
X1690Y1238D02*
X1698Y1238D01*
X72Y1237D02*
X88Y1237D01*
X1679Y1237D02*
X1686Y1237D01*
X1690Y1237D02*
X1698Y1237D01*
X72Y1236D02*
X87Y1236D01*
X1679Y1236D02*
X1687Y1236D01*
X1691Y1236D02*
X1698Y1236D01*
X71Y1235D02*
X87Y1235D01*
X1680Y1235D02*
X1687Y1235D01*
X1691Y1235D02*
X1699Y1235D01*
X71Y1234D02*
X86Y1234D01*
X1680Y1234D02*
X1687Y1234D01*
X1692Y1234D02*
X1699Y1234D01*
X70Y1233D02*
X86Y1233D01*
X1680Y1233D02*
X1688Y1233D01*
X1692Y1233D02*
X1700Y1233D01*
X70Y1232D02*
X86Y1232D01*
X1681Y1232D02*
X1688Y1232D01*
X1693Y1232D02*
X1700Y1232D01*
X69Y1231D02*
X85Y1231D01*
X1681Y1231D02*
X1689Y1231D01*
X1693Y1231D02*
X1701Y1231D01*
X69Y1230D02*
X85Y1230D01*
X1682Y1230D02*
X1689Y1230D01*
X1693Y1230D02*
X1701Y1230D01*
X69Y1229D02*
X84Y1229D01*
X1682Y1229D02*
X1689Y1229D01*
X1694Y1229D02*
X1701Y1229D01*
X68Y1228D02*
X84Y1228D01*
X1683Y1228D02*
X1690Y1228D01*
X1694Y1228D02*
X1702Y1228D01*
X68Y1227D02*
X83Y1227D01*
X1683Y1227D02*
X1690Y1227D01*
X1695Y1227D02*
X1702Y1227D01*
X67Y1226D02*
X83Y1226D01*
X1683Y1226D02*
X1691Y1226D01*
X1695Y1226D02*
X1703Y1226D01*
X67Y1225D02*
X83Y1225D01*
X1684Y1225D02*
X1691Y1225D01*
X1696Y1225D02*
X1703Y1225D01*
X67Y1224D02*
X82Y1224D01*
X1684Y1224D02*
X1692Y1224D01*
X1696Y1224D02*
X1703Y1224D01*
X66Y1223D02*
X82Y1223D01*
X1685Y1223D02*
X1692Y1223D01*
X1696Y1223D02*
X1704Y1223D01*
X66Y1222D02*
X81Y1222D01*
X1685Y1222D02*
X1692Y1222D01*
X1697Y1222D02*
X1704Y1222D01*
X65Y1221D02*
X81Y1221D01*
X1685Y1221D02*
X1693Y1221D01*
X1697Y1221D02*
X1705Y1221D01*
X65Y1220D02*
X81Y1220D01*
X1686Y1220D02*
X1693Y1220D01*
X1698Y1220D02*
X1705Y1220D01*
X64Y1219D02*
X80Y1219D01*
X1686Y1219D02*
X1694Y1219D01*
X1698Y1219D02*
X1706Y1219D01*
X64Y1218D02*
X80Y1218D01*
X1687Y1218D02*
X1694Y1218D01*
X1698Y1218D02*
X1706Y1218D01*
X64Y1217D02*
X79Y1217D01*
X1687Y1217D02*
X1694Y1217D01*
X1699Y1217D02*
X1706Y1217D01*
X63Y1216D02*
X79Y1216D01*
X1687Y1216D02*
X1695Y1216D01*
X1699Y1216D02*
X1707Y1216D01*
X63Y1215D02*
X79Y1215D01*
X1688Y1215D02*
X1695Y1215D01*
X1700Y1215D02*
X1707Y1215D01*
X62Y1214D02*
X78Y1214D01*
X1688Y1214D02*
X1696Y1214D01*
X1700Y1214D02*
X1708Y1214D01*
X62Y1213D02*
X78Y1213D01*
X1689Y1213D02*
X1696Y1213D01*
X1700Y1213D02*
X1708Y1213D01*
X62Y1212D02*
X77Y1212D01*
X1689Y1212D02*
X1696Y1212D01*
X1701Y1212D02*
X1708Y1212D01*
X61Y1211D02*
X77Y1211D01*
X1689Y1211D02*
X1697Y1211D01*
X1701Y1211D02*
X1709Y1211D01*
X61Y1210D02*
X77Y1210D01*
X1690Y1210D02*
X1697Y1210D01*
X1702Y1210D02*
X1709Y1210D01*
X60Y1209D02*
X76Y1209D01*
X1690Y1209D02*
X1698Y1209D01*
X1702Y1209D02*
X1710Y1209D01*
X60Y1208D02*
X76Y1208D01*
X1691Y1208D02*
X1698Y1208D01*
X1703Y1208D02*
X1710Y1208D01*
X60Y1207D02*
X75Y1207D01*
X1691Y1207D02*
X1698Y1207D01*
X1703Y1207D02*
X1710Y1207D01*
X59Y1206D02*
X75Y1206D01*
X1691Y1206D02*
X1699Y1206D01*
X1703Y1206D02*
X1711Y1206D01*
X59Y1205D02*
X75Y1205D01*
X1692Y1205D02*
X1699Y1205D01*
X1704Y1205D02*
X1711Y1205D01*
X59Y1204D02*
X74Y1204D01*
X1692Y1204D02*
X1699Y1204D01*
X1704Y1204D02*
X1711Y1204D01*
X58Y1203D02*
X74Y1203D01*
X1693Y1203D02*
X1700Y1203D01*
X1704Y1203D02*
X1712Y1203D01*
X58Y1202D02*
X73Y1202D01*
X1693Y1202D02*
X1700Y1202D01*
X1705Y1202D02*
X1712Y1202D01*
X57Y1201D02*
X73Y1201D01*
X1693Y1201D02*
X1701Y1201D01*
X1705Y1201D02*
X1713Y1201D01*
X57Y1200D02*
X73Y1200D01*
X1694Y1200D02*
X1701Y1200D01*
X1706Y1200D02*
X1713Y1200D01*
X57Y1199D02*
X72Y1199D01*
X1694Y1199D02*
X1701Y1199D01*
X1706Y1199D02*
X1713Y1199D01*
X56Y1198D02*
X72Y1198D01*
X1694Y1198D02*
X1702Y1198D01*
X1706Y1198D02*
X1714Y1198D01*
X56Y1197D02*
X72Y1197D01*
X1695Y1197D02*
X1702Y1197D01*
X1707Y1197D02*
X1714Y1197D01*
X56Y1196D02*
X71Y1196D01*
X1695Y1196D02*
X1702Y1196D01*
X1707Y1196D02*
X1714Y1196D01*
X55Y1195D02*
X71Y1195D01*
X1696Y1195D02*
X1703Y1195D01*
X1707Y1195D02*
X1715Y1195D01*
X55Y1194D02*
X70Y1194D01*
X1696Y1194D02*
X1703Y1194D01*
X1708Y1194D02*
X1715Y1194D01*
X54Y1193D02*
X70Y1193D01*
X1696Y1193D02*
X1704Y1193D01*
X1708Y1193D02*
X1716Y1193D01*
X54Y1192D02*
X70Y1192D01*
X1697Y1192D02*
X1704Y1192D01*
X1709Y1192D02*
X1716Y1192D01*
X54Y1191D02*
X69Y1191D01*
X1697Y1191D02*
X1704Y1191D01*
X1709Y1191D02*
X1716Y1191D01*
X53Y1190D02*
X69Y1190D01*
X1697Y1190D02*
X1705Y1190D01*
X1709Y1190D02*
X1717Y1190D01*
X53Y1189D02*
X69Y1189D01*
X1698Y1189D02*
X1705Y1189D01*
X1710Y1189D02*
X1717Y1189D01*
X53Y1188D02*
X68Y1188D01*
X1698Y1188D02*
X1705Y1188D01*
X1710Y1188D02*
X1717Y1188D01*
X52Y1187D02*
X68Y1187D01*
X1699Y1187D02*
X1706Y1187D01*
X1710Y1187D02*
X1718Y1187D01*
X52Y1186D02*
X67Y1186D01*
X1699Y1186D02*
X1706Y1186D01*
X1711Y1186D02*
X1718Y1186D01*
X52Y1185D02*
X67Y1185D01*
X1699Y1185D02*
X1707Y1185D01*
X1711Y1185D02*
X1718Y1185D01*
X51Y1184D02*
X67Y1184D01*
X1700Y1184D02*
X1707Y1184D01*
X1711Y1184D02*
X1719Y1184D01*
X51Y1183D02*
X66Y1183D01*
X1700Y1183D02*
X1707Y1183D01*
X1712Y1183D02*
X1719Y1183D01*
X50Y1182D02*
X66Y1182D01*
X1700Y1182D02*
X1708Y1182D01*
X1712Y1182D02*
X1720Y1182D01*
X50Y1181D02*
X66Y1181D01*
X1701Y1181D02*
X1708Y1181D01*
X1713Y1181D02*
X1720Y1181D01*
X50Y1180D02*
X65Y1180D01*
X1701Y1180D02*
X1708Y1180D01*
X1713Y1180D02*
X1720Y1180D01*
X49Y1179D02*
X65Y1179D01*
X1701Y1179D02*
X1709Y1179D01*
X1713Y1179D02*
X1721Y1179D01*
X49Y1178D02*
X65Y1178D01*
X1702Y1178D02*
X1709Y1178D01*
X1714Y1178D02*
X1721Y1178D01*
X49Y1177D02*
X64Y1177D01*
X1702Y1177D02*
X1709Y1177D01*
X1714Y1177D02*
X1721Y1177D01*
X48Y1176D02*
X64Y1176D01*
X1702Y1176D02*
X1710Y1176D01*
X1714Y1176D02*
X1722Y1176D01*
X48Y1175D02*
X64Y1175D01*
X1703Y1175D02*
X1710Y1175D01*
X1715Y1175D02*
X1722Y1175D01*
X48Y1174D02*
X63Y1174D01*
X1703Y1174D02*
X1710Y1174D01*
X1715Y1174D02*
X1722Y1174D01*
X47Y1173D02*
X63Y1173D01*
X1703Y1173D02*
X1711Y1173D01*
X1715Y1173D02*
X1723Y1173D01*
X47Y1172D02*
X63Y1172D01*
X1704Y1172D02*
X1711Y1172D01*
X1716Y1172D02*
X1723Y1172D01*
X47Y1171D02*
X62Y1171D01*
X1704Y1171D02*
X1711Y1171D01*
X1716Y1171D02*
X1723Y1171D01*
X46Y1170D02*
X62Y1170D01*
X1704Y1170D02*
X1712Y1170D01*
X1716Y1170D02*
X1724Y1170D01*
X46Y1169D02*
X62Y1169D01*
X1705Y1169D02*
X1712Y1169D01*
X1717Y1169D02*
X1724Y1169D01*
X46Y1168D02*
X61Y1168D01*
X1705Y1168D02*
X1712Y1168D01*
X1717Y1168D02*
X1724Y1168D01*
X45Y1167D02*
X61Y1167D01*
X1705Y1167D02*
X1713Y1167D01*
X1717Y1167D02*
X1725Y1167D01*
X45Y1166D02*
X61Y1166D01*
X1706Y1166D02*
X1713Y1166D01*
X1718Y1166D02*
X1725Y1166D01*
X45Y1165D02*
X60Y1165D01*
X1706Y1165D02*
X1713Y1165D01*
X1718Y1165D02*
X1725Y1165D01*
X44Y1164D02*
X60Y1164D01*
X1707Y1164D02*
X1714Y1164D01*
X1718Y1164D02*
X1726Y1164D01*
X44Y1163D02*
X60Y1163D01*
X1707Y1163D02*
X1714Y1163D01*
X1719Y1163D02*
X1726Y1163D01*
X44Y1162D02*
X59Y1162D01*
X1707Y1162D02*
X1714Y1162D01*
X1719Y1162D02*
X1726Y1162D01*
X43Y1161D02*
X59Y1161D01*
X1708Y1161D02*
X1715Y1161D01*
X1719Y1161D02*
X1727Y1161D01*
X43Y1160D02*
X59Y1160D01*
X1708Y1160D02*
X1715Y1160D01*
X1720Y1160D02*
X1727Y1160D01*
X43Y1159D02*
X58Y1159D01*
X1708Y1159D02*
X1715Y1159D01*
X1720Y1159D02*
X1727Y1159D01*
X42Y1158D02*
X58Y1158D01*
X1709Y1158D02*
X1716Y1158D01*
X1720Y1158D02*
X1728Y1158D01*
X42Y1157D02*
X58Y1157D01*
X1709Y1157D02*
X1716Y1157D01*
X1721Y1157D02*
X1728Y1157D01*
X42Y1156D02*
X57Y1156D01*
X1709Y1156D02*
X1716Y1156D01*
X1721Y1156D02*
X1728Y1156D01*
X41Y1155D02*
X57Y1155D01*
X1710Y1155D02*
X1717Y1155D01*
X1721Y1155D02*
X1729Y1155D01*
X41Y1154D02*
X57Y1154D01*
X1710Y1154D02*
X1717Y1154D01*
X1722Y1154D02*
X1729Y1154D01*
X41Y1153D02*
X56Y1153D01*
X1710Y1153D02*
X1717Y1153D01*
X1722Y1153D02*
X1729Y1153D01*
X40Y1152D02*
X56Y1152D01*
X1710Y1152D02*
X1718Y1152D01*
X1722Y1152D02*
X1730Y1152D01*
X40Y1151D02*
X56Y1151D01*
X1711Y1151D02*
X1718Y1151D01*
X1723Y1151D02*
X1730Y1151D01*
X40Y1150D02*
X55Y1150D01*
X1711Y1150D02*
X1718Y1150D01*
X1723Y1150D02*
X1730Y1150D01*
X39Y1149D02*
X55Y1149D01*
X1711Y1149D02*
X1718Y1149D01*
X1723Y1149D02*
X1731Y1149D01*
X39Y1148D02*
X55Y1148D01*
X1712Y1148D02*
X1719Y1148D01*
X1724Y1148D02*
X1731Y1148D01*
X39Y1147D02*
X54Y1147D01*
X1712Y1147D02*
X1719Y1147D01*
X1724Y1147D02*
X1731Y1147D01*
X39Y1146D02*
X54Y1146D01*
X1712Y1146D02*
X1719Y1146D01*
X1724Y1146D02*
X1731Y1146D01*
X38Y1145D02*
X45Y1145D01*
X47Y1145D02*
X54Y1145D01*
X1713Y1145D02*
X1720Y1145D01*
X1724Y1145D02*
X1732Y1145D01*
X38Y1144D02*
X54Y1144D01*
X1713Y1144D02*
X1720Y1144D01*
X1725Y1144D02*
X1732Y1144D01*
X38Y1143D02*
X53Y1143D01*
X1713Y1143D02*
X1720Y1143D01*
X1725Y1143D02*
X1732Y1143D01*
X37Y1142D02*
X53Y1142D01*
X1713Y1142D02*
X1721Y1142D01*
X1725Y1142D02*
X1733Y1142D01*
X37Y1141D02*
X53Y1141D01*
X1714Y1141D02*
X1721Y1141D01*
X1726Y1141D02*
X1733Y1141D01*
X37Y1140D02*
X52Y1140D01*
X1714Y1140D02*
X1721Y1140D01*
X1726Y1140D02*
X1733Y1140D01*
X37Y1139D02*
X52Y1139D01*
X1714Y1139D02*
X1721Y1139D01*
X1726Y1139D02*
X1733Y1139D01*
X36Y1138D02*
X52Y1138D01*
X1715Y1138D02*
X1722Y1138D01*
X1727Y1138D02*
X1734Y1138D01*
X36Y1137D02*
X51Y1137D01*
X1715Y1137D02*
X1722Y1137D01*
X1727Y1137D02*
X1734Y1137D01*
X36Y1136D02*
X51Y1136D01*
X1715Y1136D02*
X1722Y1136D01*
X1727Y1136D02*
X1734Y1136D01*
X35Y1135D02*
X51Y1135D01*
X1716Y1135D02*
X1723Y1135D01*
X1727Y1135D02*
X1735Y1135D01*
X35Y1134D02*
X51Y1134D01*
X1716Y1134D02*
X1723Y1134D01*
X1728Y1134D02*
X1735Y1134D01*
X35Y1133D02*
X50Y1133D01*
X1716Y1133D02*
X1723Y1133D01*
X1728Y1133D02*
X1735Y1133D01*
X34Y1132D02*
X50Y1132D01*
X1716Y1132D02*
X1724Y1132D01*
X1728Y1132D02*
X1736Y1132D01*
X34Y1131D02*
X50Y1131D01*
X1717Y1131D02*
X1724Y1131D01*
X1729Y1131D02*
X1736Y1131D01*
X34Y1130D02*
X49Y1130D01*
X1717Y1130D02*
X1724Y1130D01*
X1729Y1130D02*
X1736Y1130D01*
X34Y1129D02*
X49Y1129D01*
X1717Y1129D02*
X1724Y1129D01*
X1729Y1129D02*
X1736Y1129D01*
X33Y1128D02*
X40Y1128D01*
X42Y1128D02*
X49Y1128D01*
X1718Y1128D02*
X1725Y1128D01*
X1730Y1128D02*
X1737Y1128D01*
X33Y1127D02*
X49Y1127D01*
X1718Y1127D02*
X1725Y1127D01*
X1730Y1127D02*
X1737Y1127D01*
X33Y1126D02*
X48Y1126D01*
X1718Y1126D02*
X1725Y1126D01*
X1730Y1126D02*
X1737Y1126D01*
X32Y1125D02*
X48Y1125D01*
X1718Y1125D02*
X1725Y1125D01*
X1730Y1125D02*
X1738Y1125D01*
X32Y1124D02*
X48Y1124D01*
X1719Y1124D02*
X1726Y1124D01*
X1731Y1124D02*
X1738Y1124D01*
X32Y1123D02*
X47Y1123D01*
X1719Y1123D02*
X1726Y1123D01*
X1731Y1123D02*
X1738Y1123D01*
X32Y1122D02*
X47Y1122D01*
X1719Y1122D02*
X1726Y1122D01*
X1731Y1122D02*
X1738Y1122D01*
X31Y1121D02*
X47Y1121D01*
X1720Y1121D02*
X1727Y1121D01*
X1731Y1121D02*
X1739Y1121D01*
X31Y1120D02*
X47Y1120D01*
X1720Y1120D02*
X1727Y1120D01*
X1732Y1120D02*
X1739Y1120D01*
X31Y1119D02*
X46Y1119D01*
X1720Y1119D02*
X1727Y1119D01*
X1732Y1119D02*
X1739Y1119D01*
X31Y1118D02*
X46Y1118D01*
X1720Y1118D02*
X1727Y1118D01*
X1732Y1118D02*
X1739Y1118D01*
X30Y1117D02*
X37Y1117D01*
X39Y1117D02*
X46Y1117D01*
X1721Y1117D02*
X1728Y1117D01*
X1733Y1117D02*
X1740Y1117D01*
X30Y1116D02*
X46Y1116D01*
X1721Y1116D02*
X1728Y1116D01*
X1733Y1116D02*
X1740Y1116D01*
X30Y1115D02*
X45Y1115D01*
X1721Y1115D02*
X1728Y1115D01*
X1733Y1115D02*
X1740Y1115D01*
X29Y1114D02*
X45Y1114D01*
X1721Y1114D02*
X1728Y1114D01*
X1733Y1114D02*
X1741Y1114D01*
X29Y1113D02*
X36Y1113D01*
X38Y1113D02*
X45Y1113D01*
X1722Y1113D02*
X1729Y1113D01*
X1734Y1113D02*
X1741Y1113D01*
X29Y1112D02*
X45Y1112D01*
X1722Y1112D02*
X1729Y1112D01*
X1734Y1112D02*
X1741Y1112D01*
X29Y1111D02*
X44Y1111D01*
X1722Y1111D02*
X1729Y1111D01*
X1734Y1111D02*
X1741Y1111D01*
X28Y1110D02*
X44Y1110D01*
X1722Y1110D02*
X1729Y1110D01*
X1734Y1110D02*
X1742Y1110D01*
X28Y1109D02*
X44Y1109D01*
X1723Y1109D02*
X1730Y1109D01*
X1735Y1109D02*
X1742Y1109D01*
X28Y1108D02*
X43Y1108D01*
X1723Y1108D02*
X1730Y1108D01*
X1735Y1108D02*
X1742Y1108D01*
X28Y1107D02*
X43Y1107D01*
X1723Y1107D02*
X1730Y1107D01*
X1735Y1107D02*
X1742Y1107D01*
X27Y1106D02*
X34Y1106D01*
X36Y1106D02*
X43Y1106D01*
X1724Y1106D02*
X1731Y1106D01*
X1736Y1106D02*
X1743Y1106D01*
X27Y1105D02*
X43Y1105D01*
X1724Y1105D02*
X1731Y1105D01*
X1736Y1105D02*
X1743Y1105D01*
X27Y1104D02*
X42Y1104D01*
X1724Y1104D02*
X1731Y1104D01*
X1736Y1104D02*
X1743Y1104D01*
X27Y1103D02*
X42Y1103D01*
X1724Y1103D02*
X1731Y1103D01*
X1736Y1103D02*
X1743Y1103D01*
X26Y1102D02*
X42Y1102D01*
X1725Y1102D02*
X1732Y1102D01*
X1736Y1102D02*
X1744Y1102D01*
X26Y1101D02*
X42Y1101D01*
X1725Y1101D02*
X1732Y1101D01*
X1737Y1101D02*
X1744Y1101D01*
X26Y1100D02*
X41Y1100D01*
X1725Y1100D02*
X1732Y1100D01*
X1737Y1100D02*
X1744Y1100D01*
X26Y1099D02*
X41Y1099D01*
X1725Y1099D02*
X1732Y1099D01*
X1737Y1099D02*
X1744Y1099D01*
X25Y1098D02*
X41Y1098D01*
X1726Y1098D02*
X1733Y1098D01*
X1737Y1098D02*
X1745Y1098D01*
X25Y1097D02*
X32Y1097D01*
X34Y1097D02*
X41Y1097D01*
X1726Y1097D02*
X1733Y1097D01*
X1738Y1097D02*
X1745Y1097D01*
X25Y1096D02*
X40Y1096D01*
X1726Y1096D02*
X1733Y1096D01*
X1738Y1096D02*
X1745Y1096D01*
X25Y1095D02*
X40Y1095D01*
X1726Y1095D02*
X1733Y1095D01*
X1738Y1095D02*
X1745Y1095D01*
X24Y1094D02*
X40Y1094D01*
X1726Y1094D02*
X1733Y1094D01*
X1738Y1094D02*
X1746Y1094D01*
X24Y1093D02*
X31Y1093D01*
X33Y1093D02*
X40Y1093D01*
X1727Y1093D02*
X1734Y1093D01*
X1739Y1093D02*
X1746Y1093D01*
X24Y1092D02*
X39Y1092D01*
X1727Y1092D02*
X1734Y1092D01*
X1739Y1092D02*
X1746Y1092D01*
X24Y1091D02*
X39Y1091D01*
X1727Y1091D02*
X1734Y1091D01*
X1739Y1091D02*
X1746Y1091D01*
X23Y1090D02*
X39Y1090D01*
X1727Y1090D02*
X1734Y1090D01*
X1739Y1090D02*
X1747Y1090D01*
X23Y1089D02*
X30Y1089D01*
X32Y1089D02*
X39Y1089D01*
X1728Y1089D02*
X1735Y1089D01*
X1740Y1089D02*
X1747Y1089D01*
X23Y1088D02*
X39Y1088D01*
X1728Y1088D02*
X1735Y1088D01*
X1740Y1088D02*
X1747Y1088D01*
X23Y1087D02*
X38Y1087D01*
X1728Y1087D02*
X1735Y1087D01*
X1740Y1087D02*
X1747Y1087D01*
X23Y1086D02*
X38Y1086D01*
X1728Y1086D02*
X1735Y1086D01*
X1740Y1086D02*
X1747Y1086D01*
X22Y1085D02*
X29Y1085D01*
X31Y1085D02*
X38Y1085D01*
X1729Y1085D02*
X1736Y1085D01*
X1741Y1085D02*
X1748Y1085D01*
X22Y1084D02*
X38Y1084D01*
X1729Y1084D02*
X1736Y1084D01*
X1741Y1084D02*
X1748Y1084D01*
X22Y1083D02*
X37Y1083D01*
X1729Y1083D02*
X1736Y1083D01*
X1741Y1083D02*
X1748Y1083D01*
X22Y1082D02*
X37Y1082D01*
X1729Y1082D02*
X1736Y1082D01*
X1741Y1082D02*
X1748Y1082D01*
X21Y1081D02*
X37Y1081D01*
X1729Y1081D02*
X1736Y1081D01*
X1741Y1081D02*
X1749Y1081D01*
X21Y1080D02*
X28Y1080D01*
X30Y1080D02*
X37Y1080D01*
X1730Y1080D02*
X1737Y1080D01*
X1742Y1080D02*
X1749Y1080D01*
X21Y1079D02*
X37Y1079D01*
X1730Y1079D02*
X1737Y1079D01*
X1742Y1079D02*
X1749Y1079D01*
X21Y1078D02*
X36Y1078D01*
X1730Y1078D02*
X1737Y1078D01*
X1742Y1078D02*
X1749Y1078D01*
X21Y1077D02*
X36Y1077D01*
X1730Y1077D02*
X1737Y1077D01*
X1742Y1077D02*
X1749Y1077D01*
X20Y1076D02*
X27Y1076D01*
X29Y1076D02*
X36Y1076D01*
X1731Y1076D02*
X1738Y1076D01*
X1743Y1076D02*
X1750Y1076D01*
X20Y1075D02*
X36Y1075D01*
X1731Y1075D02*
X1738Y1075D01*
X1743Y1075D02*
X1750Y1075D01*
X20Y1074D02*
X35Y1074D01*
X1731Y1074D02*
X1738Y1074D01*
X1743Y1074D02*
X1750Y1074D01*
X20Y1073D02*
X35Y1073D01*
X1731Y1073D02*
X1738Y1073D01*
X1743Y1073D02*
X1750Y1073D01*
X19Y1072D02*
X35Y1072D01*
X1731Y1072D02*
X1738Y1072D01*
X1743Y1072D02*
X1751Y1072D01*
X19Y1071D02*
X26Y1071D01*
X28Y1071D02*
X35Y1071D01*
X1732Y1071D02*
X1739Y1071D01*
X1744Y1071D02*
X1751Y1071D01*
X19Y1070D02*
X35Y1070D01*
X1732Y1070D02*
X1739Y1070D01*
X1744Y1070D02*
X1751Y1070D01*
X19Y1069D02*
X34Y1069D01*
X1732Y1069D02*
X1739Y1069D01*
X1744Y1069D02*
X1751Y1069D01*
X19Y1068D02*
X34Y1068D01*
X1732Y1068D02*
X1739Y1068D01*
X1744Y1068D02*
X1751Y1068D01*
X18Y1067D02*
X25Y1067D01*
X27Y1067D02*
X34Y1067D01*
X1732Y1067D02*
X1739Y1067D01*
X1745Y1067D02*
X1752Y1067D01*
X18Y1066D02*
X25Y1066D01*
X27Y1066D02*
X34Y1066D01*
X1733Y1066D02*
X1740Y1066D01*
X1745Y1066D02*
X1752Y1066D01*
X18Y1065D02*
X34Y1065D01*
X1733Y1065D02*
X1740Y1065D01*
X1745Y1065D02*
X1752Y1065D01*
X18Y1064D02*
X33Y1064D01*
X1733Y1064D02*
X1740Y1064D01*
X1745Y1064D02*
X1752Y1064D01*
X18Y1063D02*
X33Y1063D01*
X1733Y1063D02*
X1740Y1063D01*
X1745Y1063D02*
X1752Y1063D01*
X17Y1062D02*
X24Y1062D01*
X26Y1062D02*
X33Y1062D01*
X1733Y1062D02*
X1740Y1062D01*
X1746Y1062D02*
X1753Y1062D01*
X17Y1061D02*
X24Y1061D01*
X26Y1061D02*
X33Y1061D01*
X1734Y1061D02*
X1741Y1061D01*
X1746Y1061D02*
X1753Y1061D01*
X17Y1060D02*
X33Y1060D01*
X1734Y1060D02*
X1741Y1060D01*
X1746Y1060D02*
X1753Y1060D01*
X17Y1059D02*
X32Y1059D01*
X1734Y1059D02*
X1741Y1059D01*
X1746Y1059D02*
X1753Y1059D01*
X17Y1058D02*
X32Y1058D01*
X1734Y1058D02*
X1741Y1058D01*
X1746Y1058D02*
X1753Y1058D01*
X16Y1057D02*
X23Y1057D01*
X25Y1057D02*
X32Y1057D01*
X1734Y1057D02*
X1741Y1057D01*
X1747Y1057D02*
X1754Y1057D01*
X16Y1056D02*
X23Y1056D01*
X25Y1056D02*
X32Y1056D01*
X1735Y1056D02*
X1742Y1056D01*
X1747Y1056D02*
X1754Y1056D01*
X16Y1055D02*
X32Y1055D01*
X1735Y1055D02*
X1742Y1055D01*
X1747Y1055D02*
X1754Y1055D01*
X16Y1054D02*
X31Y1054D01*
X1735Y1054D02*
X1742Y1054D01*
X1747Y1054D02*
X1754Y1054D01*
X16Y1053D02*
X31Y1053D01*
X1735Y1053D02*
X1742Y1053D01*
X1747Y1053D02*
X1754Y1053D01*
X15Y1052D02*
X31Y1052D01*
X1735Y1052D02*
X1742Y1052D01*
X1747Y1052D02*
X1755Y1052D01*
X15Y1051D02*
X22Y1051D01*
X24Y1051D02*
X31Y1051D01*
X1736Y1051D02*
X1743Y1051D01*
X1748Y1051D02*
X1755Y1051D01*
X15Y1050D02*
X31Y1050D01*
X1736Y1050D02*
X1743Y1050D01*
X1748Y1050D02*
X1755Y1050D01*
X15Y1049D02*
X30Y1049D01*
X1736Y1049D02*
X1743Y1049D01*
X1748Y1049D02*
X1755Y1049D01*
X15Y1048D02*
X30Y1048D01*
X1736Y1048D02*
X1743Y1048D01*
X1748Y1048D02*
X1755Y1048D01*
X14Y1047D02*
X30Y1047D01*
X1736Y1047D02*
X1743Y1047D01*
X1748Y1047D02*
X1756Y1047D01*
X14Y1046D02*
X21Y1046D01*
X23Y1046D02*
X30Y1046D01*
X1737Y1046D02*
X1744Y1046D01*
X1749Y1046D02*
X1756Y1046D01*
X14Y1045D02*
X21Y1045D01*
X23Y1045D02*
X30Y1045D01*
X1737Y1045D02*
X1744Y1045D01*
X1749Y1045D02*
X1756Y1045D01*
X14Y1044D02*
X30Y1044D01*
X1737Y1044D02*
X1744Y1044D01*
X1749Y1044D02*
X1756Y1044D01*
X14Y1043D02*
X29Y1043D01*
X1737Y1043D02*
X1744Y1043D01*
X1749Y1043D02*
X1756Y1043D01*
X14Y1042D02*
X29Y1042D01*
X1737Y1042D02*
X1744Y1042D01*
X1749Y1042D02*
X1756Y1042D01*
X13Y1041D02*
X20Y1041D01*
X22Y1041D02*
X29Y1041D01*
X1737Y1041D02*
X1744Y1041D01*
X1750Y1041D02*
X1757Y1041D01*
X13Y1040D02*
X20Y1040D01*
X22Y1040D02*
X29Y1040D01*
X1738Y1040D02*
X1745Y1040D01*
X1750Y1040D02*
X1757Y1040D01*
X13Y1039D02*
X20Y1039D01*
X22Y1039D02*
X29Y1039D01*
X1738Y1039D02*
X1745Y1039D01*
X1750Y1039D02*
X1757Y1039D01*
X13Y1038D02*
X28Y1038D01*
X1738Y1038D02*
X1745Y1038D01*
X1750Y1038D02*
X1757Y1038D01*
X13Y1037D02*
X28Y1037D01*
X1738Y1037D02*
X1745Y1037D01*
X1750Y1037D02*
X1757Y1037D01*
X13Y1036D02*
X28Y1036D01*
X1738Y1036D02*
X1745Y1036D01*
X1750Y1036D02*
X1757Y1036D01*
X12Y1035D02*
X19Y1035D01*
X21Y1035D02*
X28Y1035D01*
X1738Y1035D02*
X1745Y1035D01*
X1751Y1035D02*
X1758Y1035D01*
X12Y1034D02*
X19Y1034D01*
X21Y1034D02*
X28Y1034D01*
X1739Y1034D02*
X1746Y1034D01*
X1751Y1034D02*
X1758Y1034D01*
X12Y1033D02*
X19Y1033D01*
X21Y1033D02*
X28Y1033D01*
X1739Y1033D02*
X1746Y1033D01*
X1751Y1033D02*
X1758Y1033D01*
X12Y1032D02*
X27Y1032D01*
X1739Y1032D02*
X1746Y1032D01*
X1751Y1032D02*
X1758Y1032D01*
X12Y1031D02*
X27Y1031D01*
X1739Y1031D02*
X1746Y1031D01*
X1751Y1031D02*
X1758Y1031D01*
X12Y1030D02*
X27Y1030D01*
X1739Y1030D02*
X1746Y1030D01*
X1751Y1030D02*
X1758Y1030D01*
X11Y1029D02*
X18Y1029D01*
X20Y1029D02*
X27Y1029D01*
X1739Y1029D02*
X1746Y1029D01*
X1752Y1029D02*
X1759Y1029D01*
X11Y1028D02*
X18Y1028D01*
X20Y1028D02*
X27Y1028D01*
X1740Y1028D02*
X1747Y1028D01*
X1752Y1028D02*
X1759Y1028D01*
X11Y1027D02*
X18Y1027D01*
X20Y1027D02*
X27Y1027D01*
X1740Y1027D02*
X1747Y1027D01*
X1752Y1027D02*
X1759Y1027D01*
X11Y1026D02*
X27Y1026D01*
X1740Y1026D02*
X1747Y1026D01*
X1752Y1026D02*
X1759Y1026D01*
X11Y1025D02*
X26Y1025D01*
X1740Y1025D02*
X1747Y1025D01*
X1752Y1025D02*
X1759Y1025D01*
X11Y1024D02*
X26Y1024D01*
X1740Y1024D02*
X1747Y1024D01*
X1752Y1024D02*
X1759Y1024D01*
X10Y1023D02*
X17Y1023D01*
X19Y1023D02*
X26Y1023D01*
X1740Y1023D02*
X1747Y1023D01*
X1753Y1023D02*
X1760Y1023D01*
X10Y1022D02*
X17Y1022D01*
X19Y1022D02*
X26Y1022D01*
X1741Y1022D02*
X1748Y1022D01*
X1753Y1022D02*
X1760Y1022D01*
X10Y1021D02*
X17Y1021D01*
X19Y1021D02*
X26Y1021D01*
X1741Y1021D02*
X1748Y1021D01*
X1753Y1021D02*
X1760Y1021D01*
X10Y1020D02*
X17Y1020D01*
X19Y1020D02*
X26Y1020D01*
X1741Y1020D02*
X1748Y1020D01*
X1753Y1020D02*
X1760Y1020D01*
X10Y1019D02*
X25Y1019D01*
X1741Y1019D02*
X1748Y1019D01*
X1753Y1019D02*
X1760Y1019D01*
X10Y1018D02*
X25Y1018D01*
X1741Y1018D02*
X1748Y1018D01*
X1753Y1018D02*
X1760Y1018D01*
X10Y1017D02*
X25Y1017D01*
X1741Y1017D02*
X1748Y1017D01*
X1753Y1017D02*
X1760Y1017D01*
X9Y1016D02*
X16Y1016D01*
X18Y1016D02*
X25Y1016D01*
X1741Y1016D02*
X1748Y1016D01*
X1754Y1016D02*
X1761Y1016D01*
X9Y1015D02*
X16Y1015D01*
X18Y1015D02*
X25Y1015D01*
X1742Y1015D02*
X1749Y1015D01*
X1754Y1015D02*
X1761Y1015D01*
X9Y1014D02*
X16Y1014D01*
X18Y1014D02*
X25Y1014D01*
X1742Y1014D02*
X1749Y1014D01*
X1754Y1014D02*
X1761Y1014D01*
X9Y1013D02*
X25Y1013D01*
X1742Y1013D02*
X1749Y1013D01*
X1754Y1013D02*
X1761Y1013D01*
X9Y1012D02*
X24Y1012D01*
X1742Y1012D02*
X1749Y1012D01*
X1754Y1012D02*
X1761Y1012D01*
X9Y1011D02*
X24Y1011D01*
X1742Y1011D02*
X1749Y1011D01*
X1754Y1011D02*
X1761Y1011D01*
X9Y1010D02*
X24Y1010D01*
X1742Y1010D02*
X1749Y1010D01*
X1754Y1010D02*
X1761Y1010D01*
X8Y1009D02*
X15Y1009D01*
X17Y1009D02*
X24Y1009D01*
X1742Y1009D02*
X1749Y1009D01*
X1755Y1009D02*
X1762Y1009D01*
X8Y1008D02*
X15Y1008D01*
X17Y1008D02*
X24Y1008D01*
X1743Y1008D02*
X1750Y1008D01*
X1755Y1008D02*
X1762Y1008D01*
X8Y1007D02*
X15Y1007D01*
X17Y1007D02*
X24Y1007D01*
X1743Y1007D02*
X1750Y1007D01*
X1755Y1007D02*
X1762Y1007D01*
X8Y1006D02*
X24Y1006D01*
X1743Y1006D02*
X1750Y1006D01*
X1755Y1006D02*
X1762Y1006D01*
X8Y1005D02*
X23Y1005D01*
X1743Y1005D02*
X1750Y1005D01*
X1755Y1005D02*
X1762Y1005D01*
X8Y1004D02*
X23Y1004D01*
X1743Y1004D02*
X1750Y1004D01*
X1755Y1004D02*
X1762Y1004D01*
X8Y1003D02*
X23Y1003D01*
X1743Y1003D02*
X1750Y1003D01*
X1755Y1003D02*
X1762Y1003D01*
X7Y1002D02*
X14Y1002D01*
X16Y1002D02*
X23Y1002D01*
X1743Y1002D02*
X1750Y1002D01*
X1756Y1002D02*
X1763Y1002D01*
X7Y1001D02*
X14Y1001D01*
X16Y1001D02*
X23Y1001D01*
X1743Y1001D02*
X1750Y1001D01*
X1756Y1001D02*
X1763Y1001D01*
X7Y1000D02*
X14Y1000D01*
X16Y1000D02*
X23Y1000D01*
X1744Y1000D02*
X1751Y1000D01*
X1756Y1000D02*
X1763Y1000D01*
X7Y999D02*
X14Y999D01*
X16Y999D02*
X23Y999D01*
X1744Y999D02*
X1751Y999D01*
X1756Y999D02*
X1763Y999D01*
X7Y998D02*
X23Y998D01*
X1744Y998D02*
X1751Y998D01*
X1756Y998D02*
X1763Y998D01*
X7Y997D02*
X22Y997D01*
X1744Y997D02*
X1751Y997D01*
X1756Y997D02*
X1763Y997D01*
X7Y996D02*
X22Y996D01*
X1744Y996D02*
X1751Y996D01*
X1756Y996D02*
X1763Y996D01*
X7Y995D02*
X22Y995D01*
X1744Y995D02*
X1751Y995D01*
X1756Y995D02*
X1763Y995D01*
X6Y994D02*
X13Y994D01*
X15Y994D02*
X22Y994D01*
X1744Y994D02*
X1751Y994D01*
X1757Y994D02*
X1764Y994D01*
X6Y993D02*
X13Y993D01*
X15Y993D02*
X22Y993D01*
X1744Y993D02*
X1751Y993D01*
X1757Y993D02*
X1764Y993D01*
X6Y992D02*
X13Y992D01*
X15Y992D02*
X22Y992D01*
X1745Y992D02*
X1752Y992D01*
X1757Y992D02*
X1764Y992D01*
X6Y991D02*
X13Y991D01*
X15Y991D02*
X22Y991D01*
X1745Y991D02*
X1752Y991D01*
X1757Y991D02*
X1764Y991D01*
X6Y990D02*
X22Y990D01*
X1745Y990D02*
X1752Y990D01*
X1757Y990D02*
X1764Y990D01*
X6Y989D02*
X21Y989D01*
X1745Y989D02*
X1752Y989D01*
X1757Y989D02*
X1764Y989D01*
X6Y988D02*
X21Y988D01*
X1745Y988D02*
X1752Y988D01*
X1757Y988D02*
X1764Y988D01*
X6Y987D02*
X21Y987D01*
X1745Y987D02*
X1752Y987D01*
X1757Y987D02*
X1764Y987D01*
X6Y986D02*
X21Y986D01*
X1745Y986D02*
X1752Y986D01*
X1757Y986D02*
X1764Y986D01*
X5Y985D02*
X12Y985D01*
X14Y985D02*
X21Y985D01*
X1745Y985D02*
X1752Y985D01*
X1758Y985D02*
X1765Y985D01*
X5Y984D02*
X12Y984D01*
X14Y984D02*
X21Y984D01*
X1746Y984D02*
X1752Y984D01*
X1758Y984D02*
X1765Y984D01*
X5Y983D02*
X12Y983D01*
X14Y983D02*
X21Y983D01*
X1746Y983D02*
X1753Y983D01*
X1758Y983D02*
X1765Y983D01*
X5Y982D02*
X12Y982D01*
X14Y982D02*
X21Y982D01*
X1746Y982D02*
X1753Y982D01*
X1758Y982D02*
X1765Y982D01*
X5Y981D02*
X21Y981D01*
X1746Y981D02*
X1753Y981D01*
X1758Y981D02*
X1765Y981D01*
X5Y980D02*
X20Y980D01*
X1746Y980D02*
X1753Y980D01*
X1758Y980D02*
X1765Y980D01*
X5Y979D02*
X20Y979D01*
X1746Y979D02*
X1753Y979D01*
X1758Y979D02*
X1765Y979D01*
X5Y978D02*
X20Y978D01*
X1746Y978D02*
X1753Y978D01*
X1758Y978D02*
X1765Y978D01*
X5Y977D02*
X20Y977D01*
X1746Y977D02*
X1753Y977D01*
X1758Y977D02*
X1765Y977D01*
X4Y976D02*
X11Y976D01*
X13Y976D02*
X20Y976D01*
X1746Y976D02*
X1753Y976D01*
X1759Y976D02*
X1766Y976D01*
X4Y975D02*
X11Y975D01*
X13Y975D02*
X20Y975D01*
X1746Y975D02*
X1753Y975D01*
X1759Y975D02*
X1766Y975D01*
X4Y974D02*
X11Y974D01*
X13Y974D02*
X20Y974D01*
X1747Y974D02*
X1753Y974D01*
X1759Y974D02*
X1766Y974D01*
X4Y973D02*
X11Y973D01*
X13Y973D02*
X20Y973D01*
X1747Y973D02*
X1754Y973D01*
X1759Y973D02*
X1766Y973D01*
X4Y972D02*
X11Y972D01*
X13Y972D02*
X20Y972D01*
X1747Y972D02*
X1754Y972D01*
X1759Y972D02*
X1766Y972D01*
X4Y971D02*
X19Y971D01*
X1747Y971D02*
X1754Y971D01*
X1759Y971D02*
X1766Y971D01*
X4Y970D02*
X19Y970D01*
X1747Y970D02*
X1754Y970D01*
X1759Y970D02*
X1766Y970D01*
X4Y969D02*
X19Y969D01*
X1747Y969D02*
X1754Y969D01*
X1759Y969D02*
X1766Y969D01*
X4Y968D02*
X19Y968D01*
X1747Y968D02*
X1754Y968D01*
X1759Y968D02*
X1766Y968D01*
X4Y967D02*
X19Y967D01*
X1747Y967D02*
X1754Y967D01*
X1759Y967D02*
X1766Y967D01*
X4Y966D02*
X19Y966D01*
X1747Y966D02*
X1754Y966D01*
X1759Y966D02*
X1766Y966D01*
X3Y965D02*
X10Y965D01*
X12Y965D02*
X19Y965D01*
X1747Y965D02*
X1754Y965D01*
X1760Y965D02*
X1767Y965D01*
X3Y964D02*
X10Y964D01*
X12Y964D02*
X19Y964D01*
X1747Y964D02*
X1754Y964D01*
X1760Y964D02*
X1767Y964D01*
X3Y963D02*
X10Y963D01*
X12Y963D02*
X19Y963D01*
X1748Y963D02*
X1754Y963D01*
X1760Y963D02*
X1767Y963D01*
X3Y962D02*
X10Y962D01*
X12Y962D02*
X19Y962D01*
X1748Y962D02*
X1755Y962D01*
X1760Y962D02*
X1767Y962D01*
X3Y961D02*
X10Y961D01*
X12Y961D02*
X19Y961D01*
X1748Y961D02*
X1755Y961D01*
X1760Y961D02*
X1767Y961D01*
X3Y960D02*
X18Y960D01*
X1748Y960D02*
X1755Y960D01*
X1760Y960D02*
X1767Y960D01*
X3Y959D02*
X18Y959D01*
X1748Y959D02*
X1755Y959D01*
X1760Y959D02*
X1767Y959D01*
X3Y958D02*
X18Y958D01*
X1748Y958D02*
X1755Y958D01*
X1760Y958D02*
X1767Y958D01*
X3Y957D02*
X18Y957D01*
X1748Y957D02*
X1755Y957D01*
X1760Y957D02*
X1767Y957D01*
X3Y956D02*
X18Y956D01*
X1748Y956D02*
X1755Y956D01*
X1760Y956D02*
X1767Y956D01*
X3Y955D02*
X18Y955D01*
X1748Y955D02*
X1755Y955D01*
X1760Y955D02*
X1767Y955D01*
X3Y954D02*
X18Y954D01*
X1748Y954D02*
X1755Y954D01*
X1760Y954D02*
X1767Y954D01*
X2Y953D02*
X9Y953D01*
X11Y953D02*
X18Y953D01*
X1748Y953D02*
X1755Y953D01*
X1761Y953D02*
X1768Y953D01*
X2Y952D02*
X9Y952D01*
X11Y952D02*
X18Y952D01*
X1748Y952D02*
X1755Y952D01*
X1761Y952D02*
X1768Y952D01*
X2Y951D02*
X9Y951D01*
X11Y951D02*
X18Y951D01*
X1748Y951D02*
X1755Y951D01*
X1761Y951D02*
X1768Y951D01*
X2Y950D02*
X9Y950D01*
X11Y950D02*
X18Y950D01*
X1748Y950D02*
X1755Y950D01*
X1761Y950D02*
X1768Y950D01*
X2Y949D02*
X9Y949D01*
X11Y949D02*
X18Y949D01*
X1749Y949D02*
X1755Y949D01*
X1761Y949D02*
X1768Y949D01*
X2Y948D02*
X9Y948D01*
X11Y948D02*
X18Y948D01*
X1749Y948D02*
X1756Y948D01*
X1761Y948D02*
X1768Y948D01*
X2Y947D02*
X17Y947D01*
X1749Y947D02*
X1756Y947D01*
X1761Y947D02*
X1768Y947D01*
X2Y946D02*
X17Y946D01*
X1749Y946D02*
X1756Y946D01*
X1761Y946D02*
X1768Y946D01*
X2Y945D02*
X17Y945D01*
X1749Y945D02*
X1756Y945D01*
X1761Y945D02*
X1768Y945D01*
X2Y944D02*
X17Y944D01*
X1749Y944D02*
X1756Y944D01*
X1761Y944D02*
X1768Y944D01*
X2Y943D02*
X17Y943D01*
X1749Y943D02*
X1756Y943D01*
X1761Y943D02*
X1768Y943D01*
X2Y942D02*
X17Y942D01*
X1749Y942D02*
X1756Y942D01*
X1761Y942D02*
X1768Y942D01*
X2Y941D02*
X17Y941D01*
X1749Y941D02*
X1756Y941D01*
X1761Y941D02*
X1768Y941D01*
X2Y940D02*
X17Y940D01*
X1749Y940D02*
X1756Y940D01*
X1761Y940D02*
X1768Y940D01*
X2Y939D02*
X17Y939D01*
X1749Y939D02*
X1756Y939D01*
X1761Y939D02*
X1768Y939D01*
X2Y938D02*
X17Y938D01*
X1749Y938D02*
X1756Y938D01*
X1762Y938D02*
X1768Y938D01*
X1Y937D02*
X8Y937D01*
X10Y937D02*
X17Y937D01*
X1749Y937D02*
X1756Y937D01*
X1762Y937D02*
X1769Y937D01*
X1Y936D02*
X8Y936D01*
X10Y936D02*
X17Y936D01*
X1749Y936D02*
X1756Y936D01*
X1762Y936D02*
X1769Y936D01*
X1Y935D02*
X8Y935D01*
X10Y935D02*
X17Y935D01*
X1749Y935D02*
X1756Y935D01*
X1762Y935D02*
X1769Y935D01*
X1Y934D02*
X8Y934D01*
X10Y934D02*
X17Y934D01*
X1749Y934D02*
X1756Y934D01*
X1762Y934D02*
X1769Y934D01*
X1Y933D02*
X8Y933D01*
X10Y933D02*
X17Y933D01*
X1749Y933D02*
X1756Y933D01*
X1762Y933D02*
X1769Y933D01*
X1Y932D02*
X8Y932D01*
X10Y932D02*
X17Y932D01*
X1749Y932D02*
X1756Y932D01*
X1762Y932D02*
X1769Y932D01*
X1Y931D02*
X8Y931D01*
X10Y931D02*
X17Y931D01*
X1750Y931D02*
X1756Y931D01*
X1762Y931D02*
X1769Y931D01*
X1Y930D02*
X16Y930D01*
X1750Y930D02*
X1756Y930D01*
X1762Y930D02*
X1769Y930D01*
X1Y929D02*
X16Y929D01*
X1750Y929D02*
X1757Y929D01*
X1762Y929D02*
X1769Y929D01*
X1Y928D02*
X16Y928D01*
X1750Y928D02*
X1757Y928D01*
X1762Y928D02*
X1769Y928D01*
X1Y927D02*
X16Y927D01*
X1750Y927D02*
X1757Y927D01*
X1762Y927D02*
X1769Y927D01*
X1Y926D02*
X16Y926D01*
X1750Y926D02*
X1757Y926D01*
X1762Y926D02*
X1769Y926D01*
X1Y925D02*
X16Y925D01*
X1750Y925D02*
X1757Y925D01*
X1762Y925D02*
X1769Y925D01*
X1Y924D02*
X16Y924D01*
X1750Y924D02*
X1757Y924D01*
X1762Y924D02*
X1769Y924D01*
X1Y923D02*
X16Y923D01*
X1750Y923D02*
X1757Y923D01*
X1762Y923D02*
X1769Y923D01*
X1Y922D02*
X16Y922D01*
X1750Y922D02*
X1757Y922D01*
X1762Y922D02*
X1769Y922D01*
X1Y921D02*
X16Y921D01*
X1750Y921D02*
X1757Y921D01*
X1762Y921D02*
X1769Y921D01*
X1Y920D02*
X16Y920D01*
X1750Y920D02*
X1757Y920D01*
X1762Y920D02*
X1769Y920D01*
X1Y919D02*
X16Y919D01*
X1750Y919D02*
X1757Y919D01*
X1762Y919D02*
X1769Y919D01*
X1Y918D02*
X16Y918D01*
X1750Y918D02*
X1757Y918D01*
X1762Y918D02*
X1769Y918D01*
X1Y917D02*
X16Y917D01*
X1750Y917D02*
X1757Y917D01*
X1762Y917D02*
X1769Y917D01*
X1Y916D02*
X16Y916D01*
X1750Y916D02*
X1757Y916D01*
X1762Y916D02*
X1769Y916D01*
X0Y915D02*
X7Y915D01*
X9Y915D02*
X16Y915D01*
X1750Y915D02*
X1757Y915D01*
X1763Y915D02*
X1770Y915D01*
X0Y914D02*
X7Y914D01*
X9Y914D02*
X16Y914D01*
X1750Y914D02*
X1757Y914D01*
X1763Y914D02*
X1770Y914D01*
X0Y913D02*
X7Y913D01*
X9Y913D02*
X16Y913D01*
X1750Y913D02*
X1757Y913D01*
X1763Y913D02*
X1770Y913D01*
X0Y912D02*
X7Y912D01*
X9Y912D02*
X16Y912D01*
X1750Y912D02*
X1757Y912D01*
X1763Y912D02*
X1770Y912D01*
X0Y911D02*
X7Y911D01*
X9Y911D02*
X16Y911D01*
X1750Y911D02*
X1757Y911D01*
X1763Y911D02*
X1770Y911D01*
X0Y910D02*
X7Y910D01*
X9Y910D02*
X16Y910D01*
X1750Y910D02*
X1757Y910D01*
X1763Y910D02*
X1770Y910D01*
X0Y909D02*
X7Y909D01*
X9Y909D02*
X16Y909D01*
X1750Y909D02*
X1757Y909D01*
X1763Y909D02*
X1770Y909D01*
X0Y908D02*
X7Y908D01*
X9Y908D02*
X16Y908D01*
X1750Y908D02*
X1757Y908D01*
X1763Y908D02*
X1770Y908D01*
X0Y907D02*
X7Y907D01*
X9Y907D02*
X16Y907D01*
X1750Y907D02*
X1757Y907D01*
X1763Y907D02*
X1770Y907D01*
X0Y906D02*
X7Y906D01*
X9Y906D02*
X16Y906D01*
X1750Y906D02*
X1757Y906D01*
X1763Y906D02*
X1770Y906D01*
X0Y905D02*
X7Y905D01*
X9Y905D02*
X16Y905D01*
X1750Y905D02*
X1757Y905D01*
X1763Y905D02*
X1770Y905D01*
X0Y904D02*
X7Y904D01*
X9Y904D02*
X16Y904D01*
X1750Y904D02*
X1757Y904D01*
X1763Y904D02*
X1770Y904D01*
X0Y903D02*
X7Y903D01*
X9Y903D02*
X16Y903D01*
X1750Y903D02*
X1757Y903D01*
X1763Y903D02*
X1770Y903D01*
X0Y902D02*
X7Y902D01*
X9Y902D02*
X16Y902D01*
X1750Y902D02*
X1757Y902D01*
X1763Y902D02*
X1770Y902D01*
X0Y901D02*
X7Y901D01*
X9Y901D02*
X16Y901D01*
X1750Y901D02*
X1757Y901D01*
X1763Y901D02*
X1770Y901D01*
X0Y900D02*
X7Y900D01*
X9Y900D02*
X16Y900D01*
X1750Y900D02*
X1757Y900D01*
X1763Y900D02*
X1770Y900D01*
X0Y899D02*
X7Y899D01*
X9Y899D02*
X16Y899D01*
X1750Y899D02*
X1757Y899D01*
X1763Y899D02*
X1770Y899D01*
X0Y898D02*
X7Y898D01*
X9Y898D02*
X16Y898D01*
X1750Y898D02*
X1757Y898D01*
X1763Y898D02*
X1770Y898D01*
X0Y897D02*
X7Y897D01*
X9Y897D02*
X16Y897D01*
X1750Y897D02*
X1757Y897D01*
X1763Y897D02*
X1770Y897D01*
X0Y896D02*
X7Y896D01*
X9Y896D02*
X15Y896D01*
X1750Y896D02*
X1757Y896D01*
X1763Y896D02*
X1770Y896D01*
X0Y895D02*
X7Y895D01*
X9Y895D02*
X15Y895D01*
X1750Y895D02*
X1757Y895D01*
X1763Y895D02*
X1770Y895D01*
X0Y894D02*
X7Y894D01*
X9Y894D02*
X15Y894D01*
X1750Y894D02*
X1757Y894D01*
X1763Y894D02*
X1770Y894D01*
X0Y893D02*
X7Y893D01*
X9Y893D02*
X15Y893D01*
X1750Y893D02*
X1757Y893D01*
X1763Y893D02*
X1770Y893D01*
X0Y892D02*
X7Y892D01*
X9Y892D02*
X15Y892D01*
X1750Y892D02*
X1757Y892D01*
X1763Y892D02*
X1770Y892D01*
X0Y891D02*
X7Y891D01*
X9Y891D02*
X15Y891D01*
X1750Y891D02*
X1757Y891D01*
X1763Y891D02*
X1770Y891D01*
X0Y890D02*
X15Y890D01*
X1750Y890D02*
X1757Y890D01*
X1763Y890D02*
X1770Y890D01*
X0Y889D02*
X15Y889D01*
X1750Y889D02*
X1757Y889D01*
X1763Y889D02*
X1770Y889D01*
X0Y888D02*
X15Y888D01*
X1750Y888D02*
X1757Y888D01*
X1763Y888D02*
X1770Y888D01*
X0Y887D02*
X15Y887D01*
X1750Y887D02*
X1757Y887D01*
X1763Y887D02*
X1770Y887D01*
X0Y886D02*
X7Y886D01*
X9Y886D02*
X15Y886D01*
X1750Y886D02*
X1757Y886D01*
X1763Y886D02*
X1770Y886D01*
X0Y885D02*
X7Y885D01*
X9Y885D02*
X15Y885D01*
X1750Y885D02*
X1757Y885D01*
X1763Y885D02*
X1770Y885D01*
X0Y884D02*
X7Y884D01*
X9Y884D02*
X15Y884D01*
X1750Y884D02*
X1757Y884D01*
X1763Y884D02*
X1770Y884D01*
X0Y883D02*
X7Y883D01*
X9Y883D02*
X15Y883D01*
X1750Y883D02*
X1757Y883D01*
X1763Y883D02*
X1770Y883D01*
X0Y882D02*
X7Y882D01*
X9Y882D02*
X15Y882D01*
X1750Y882D02*
X1757Y882D01*
X1763Y882D02*
X1770Y882D01*
X0Y881D02*
X7Y881D01*
X9Y881D02*
X15Y881D01*
X1750Y881D02*
X1757Y881D01*
X1763Y881D02*
X1770Y881D01*
X0Y880D02*
X7Y880D01*
X9Y880D02*
X15Y880D01*
X1750Y880D02*
X1757Y880D01*
X1763Y880D02*
X1770Y880D01*
X0Y879D02*
X7Y879D01*
X9Y879D02*
X15Y879D01*
X1750Y879D02*
X1757Y879D01*
X1763Y879D02*
X1770Y879D01*
X0Y878D02*
X7Y878D01*
X9Y878D02*
X16Y878D01*
X1750Y878D02*
X1757Y878D01*
X1763Y878D02*
X1770Y878D01*
X0Y877D02*
X7Y877D01*
X9Y877D02*
X16Y877D01*
X1750Y877D02*
X1757Y877D01*
X1763Y877D02*
X1770Y877D01*
X0Y876D02*
X7Y876D01*
X9Y876D02*
X16Y876D01*
X1750Y876D02*
X1757Y876D01*
X1763Y876D02*
X1770Y876D01*
X0Y875D02*
X7Y875D01*
X9Y875D02*
X16Y875D01*
X1750Y875D02*
X1757Y875D01*
X1763Y875D02*
X1770Y875D01*
X0Y874D02*
X7Y874D01*
X9Y874D02*
X16Y874D01*
X1750Y874D02*
X1757Y874D01*
X1763Y874D02*
X1770Y874D01*
X0Y873D02*
X7Y873D01*
X9Y873D02*
X16Y873D01*
X1198Y873D02*
X1225Y873D01*
X1250Y873D02*
X1268Y873D01*
X1750Y873D02*
X1757Y873D01*
X1763Y873D02*
X1770Y873D01*
X0Y872D02*
X7Y872D01*
X9Y872D02*
X16Y872D01*
X1198Y872D02*
X1227Y872D01*
X1249Y872D02*
X1268Y872D01*
X1750Y872D02*
X1757Y872D01*
X1763Y872D02*
X1770Y872D01*
X0Y871D02*
X7Y871D01*
X9Y871D02*
X16Y871D01*
X1198Y871D02*
X1228Y871D01*
X1248Y871D02*
X1268Y871D01*
X1750Y871D02*
X1757Y871D01*
X1763Y871D02*
X1770Y871D01*
X0Y870D02*
X7Y870D01*
X9Y870D02*
X16Y870D01*
X1198Y870D02*
X1229Y870D01*
X1248Y870D02*
X1268Y870D01*
X1750Y870D02*
X1757Y870D01*
X1763Y870D02*
X1770Y870D01*
X0Y869D02*
X7Y869D01*
X9Y869D02*
X16Y869D01*
X1198Y869D02*
X1230Y869D01*
X1248Y869D02*
X1268Y869D01*
X1750Y869D02*
X1757Y869D01*
X1763Y869D02*
X1770Y869D01*
X0Y868D02*
X7Y868D01*
X9Y868D02*
X16Y868D01*
X1198Y868D02*
X1231Y868D01*
X1249Y868D02*
X1268Y868D01*
X1750Y868D02*
X1757Y868D01*
X1763Y868D02*
X1770Y868D01*
X0Y867D02*
X7Y867D01*
X9Y867D02*
X16Y867D01*
X1198Y867D02*
X1231Y867D01*
X1250Y867D02*
X1268Y867D01*
X1750Y867D02*
X1757Y867D01*
X1763Y867D02*
X1770Y867D01*
X0Y866D02*
X7Y866D01*
X9Y866D02*
X16Y866D01*
X1198Y866D02*
X1204Y866D01*
X1224Y866D02*
X1231Y866D01*
X1262Y866D02*
X1268Y866D01*
X1750Y866D02*
X1757Y866D01*
X1763Y866D02*
X1770Y866D01*
X0Y865D02*
X7Y865D01*
X9Y865D02*
X16Y865D01*
X1198Y865D02*
X1204Y865D01*
X1225Y865D02*
X1232Y865D01*
X1262Y865D02*
X1268Y865D01*
X1750Y865D02*
X1757Y865D01*
X1763Y865D02*
X1770Y865D01*
X0Y864D02*
X7Y864D01*
X9Y864D02*
X16Y864D01*
X1198Y864D02*
X1204Y864D01*
X1226Y864D02*
X1232Y864D01*
X1262Y864D02*
X1268Y864D01*
X1750Y864D02*
X1757Y864D01*
X1763Y864D02*
X1770Y864D01*
X0Y863D02*
X7Y863D01*
X9Y863D02*
X16Y863D01*
X1198Y863D02*
X1204Y863D01*
X1226Y863D02*
X1232Y863D01*
X1262Y863D02*
X1268Y863D01*
X1750Y863D02*
X1757Y863D01*
X1763Y863D02*
X1770Y863D01*
X0Y862D02*
X7Y862D01*
X9Y862D02*
X16Y862D01*
X1198Y862D02*
X1204Y862D01*
X1226Y862D02*
X1232Y862D01*
X1262Y862D02*
X1268Y862D01*
X1750Y862D02*
X1757Y862D01*
X1763Y862D02*
X1770Y862D01*
X0Y861D02*
X7Y861D01*
X9Y861D02*
X16Y861D01*
X1198Y861D02*
X1204Y861D01*
X1226Y861D02*
X1232Y861D01*
X1262Y861D02*
X1268Y861D01*
X1750Y861D02*
X1757Y861D01*
X1763Y861D02*
X1770Y861D01*
X0Y860D02*
X7Y860D01*
X9Y860D02*
X16Y860D01*
X1198Y860D02*
X1204Y860D01*
X1226Y860D02*
X1232Y860D01*
X1262Y860D02*
X1268Y860D01*
X1750Y860D02*
X1757Y860D01*
X1763Y860D02*
X1770Y860D01*
X0Y859D02*
X7Y859D01*
X9Y859D02*
X16Y859D01*
X1198Y859D02*
X1204Y859D01*
X1226Y859D02*
X1232Y859D01*
X1262Y859D02*
X1268Y859D01*
X1750Y859D02*
X1757Y859D01*
X1763Y859D02*
X1770Y859D01*
X1Y858D02*
X16Y858D01*
X1198Y858D02*
X1204Y858D01*
X1225Y858D02*
X1232Y858D01*
X1262Y858D02*
X1268Y858D01*
X1750Y858D02*
X1757Y858D01*
X1762Y858D02*
X1769Y858D01*
X1Y857D02*
X16Y857D01*
X1198Y857D02*
X1204Y857D01*
X1225Y857D02*
X1232Y857D01*
X1262Y857D02*
X1268Y857D01*
X1750Y857D02*
X1757Y857D01*
X1762Y857D02*
X1769Y857D01*
X1Y856D02*
X16Y856D01*
X1198Y856D02*
X1205Y856D01*
X1223Y856D02*
X1231Y856D01*
X1262Y856D02*
X1268Y856D01*
X1750Y856D02*
X1757Y856D01*
X1762Y856D02*
X1769Y856D01*
X1Y855D02*
X16Y855D01*
X1198Y855D02*
X1231Y855D01*
X1262Y855D02*
X1268Y855D01*
X1750Y855D02*
X1757Y855D01*
X1762Y855D02*
X1769Y855D01*
X1Y854D02*
X16Y854D01*
X1198Y854D02*
X1230Y854D01*
X1262Y854D02*
X1268Y854D01*
X1750Y854D02*
X1757Y854D01*
X1762Y854D02*
X1769Y854D01*
X1Y853D02*
X16Y853D01*
X1198Y853D02*
X1230Y853D01*
X1262Y853D02*
X1268Y853D01*
X1750Y853D02*
X1757Y853D01*
X1762Y853D02*
X1769Y853D01*
X1Y852D02*
X16Y852D01*
X1198Y852D02*
X1229Y852D01*
X1262Y852D02*
X1268Y852D01*
X1749Y852D02*
X1756Y852D01*
X1762Y852D02*
X1769Y852D01*
X1Y851D02*
X16Y851D01*
X1198Y851D02*
X1228Y851D01*
X1262Y851D02*
X1268Y851D01*
X1749Y851D02*
X1756Y851D01*
X1762Y851D02*
X1769Y851D01*
X1Y850D02*
X16Y850D01*
X1198Y850D02*
X1226Y850D01*
X1262Y850D02*
X1268Y850D01*
X1749Y850D02*
X1756Y850D01*
X1762Y850D02*
X1769Y850D01*
X1Y849D02*
X16Y849D01*
X1198Y849D02*
X1223Y849D01*
X1262Y849D02*
X1268Y849D01*
X1749Y849D02*
X1756Y849D01*
X1762Y849D02*
X1769Y849D01*
X1Y848D02*
X16Y848D01*
X1198Y848D02*
X1204Y848D01*
X1211Y848D02*
X1218Y848D01*
X1262Y848D02*
X1268Y848D01*
X1749Y848D02*
X1756Y848D01*
X1762Y848D02*
X1769Y848D01*
X1Y847D02*
X16Y847D01*
X1198Y847D02*
X1204Y847D01*
X1211Y847D02*
X1218Y847D01*
X1262Y847D02*
X1268Y847D01*
X1749Y847D02*
X1756Y847D01*
X1762Y847D02*
X1769Y847D01*
X1Y846D02*
X8Y846D01*
X10Y846D02*
X16Y846D01*
X1198Y846D02*
X1204Y846D01*
X1212Y846D02*
X1219Y846D01*
X1262Y846D02*
X1268Y846D01*
X1749Y846D02*
X1756Y846D01*
X1762Y846D02*
X1769Y846D01*
X1Y845D02*
X8Y845D01*
X10Y845D02*
X16Y845D01*
X1198Y845D02*
X1204Y845D01*
X1212Y845D02*
X1220Y845D01*
X1262Y845D02*
X1268Y845D01*
X1749Y845D02*
X1756Y845D01*
X1762Y845D02*
X1769Y845D01*
X1Y844D02*
X8Y844D01*
X10Y844D02*
X17Y844D01*
X1198Y844D02*
X1204Y844D01*
X1213Y844D02*
X1220Y844D01*
X1262Y844D02*
X1268Y844D01*
X1279Y844D02*
X1279Y844D01*
X1749Y844D02*
X1756Y844D01*
X1762Y844D02*
X1769Y844D01*
X1Y843D02*
X8Y843D01*
X10Y843D02*
X17Y843D01*
X1198Y843D02*
X1204Y843D01*
X1213Y843D02*
X1221Y843D01*
X1262Y843D02*
X1268Y843D01*
X1277Y843D02*
X1281Y843D01*
X1749Y843D02*
X1756Y843D01*
X1762Y843D02*
X1769Y843D01*
X1Y842D02*
X8Y842D01*
X10Y842D02*
X17Y842D01*
X1198Y842D02*
X1204Y842D01*
X1214Y842D02*
X1221Y842D01*
X1262Y842D02*
X1268Y842D01*
X1276Y842D02*
X1281Y842D01*
X1749Y842D02*
X1756Y842D01*
X1762Y842D02*
X1769Y842D01*
X1Y841D02*
X8Y841D01*
X10Y841D02*
X17Y841D01*
X1198Y841D02*
X1204Y841D01*
X1215Y841D02*
X1222Y841D01*
X1262Y841D02*
X1268Y841D01*
X1276Y841D02*
X1282Y841D01*
X1749Y841D02*
X1756Y841D01*
X1762Y841D02*
X1769Y841D01*
X1Y840D02*
X8Y840D01*
X10Y840D02*
X17Y840D01*
X1198Y840D02*
X1204Y840D01*
X1215Y840D02*
X1222Y840D01*
X1262Y840D02*
X1268Y840D01*
X1276Y840D02*
X1282Y840D01*
X1749Y840D02*
X1756Y840D01*
X1762Y840D02*
X1769Y840D01*
X1Y839D02*
X8Y839D01*
X10Y839D02*
X17Y839D01*
X1198Y839D02*
X1204Y839D01*
X1216Y839D02*
X1223Y839D01*
X1262Y839D02*
X1268Y839D01*
X1276Y839D02*
X1282Y839D01*
X1749Y839D02*
X1756Y839D01*
X1762Y839D02*
X1769Y839D01*
X1Y838D02*
X8Y838D01*
X10Y838D02*
X17Y838D01*
X1198Y838D02*
X1204Y838D01*
X1216Y838D02*
X1224Y838D01*
X1262Y838D02*
X1268Y838D01*
X1276Y838D02*
X1282Y838D01*
X1749Y838D02*
X1756Y838D01*
X1762Y838D02*
X1769Y838D01*
X1Y837D02*
X8Y837D01*
X10Y837D02*
X17Y837D01*
X1198Y837D02*
X1204Y837D01*
X1217Y837D02*
X1224Y837D01*
X1262Y837D02*
X1268Y837D01*
X1276Y837D02*
X1282Y837D01*
X1749Y837D02*
X1756Y837D01*
X1762Y837D02*
X1769Y837D01*
X2Y836D02*
X17Y836D01*
X1198Y836D02*
X1204Y836D01*
X1218Y836D02*
X1225Y836D01*
X1262Y836D02*
X1268Y836D01*
X1276Y836D02*
X1282Y836D01*
X1749Y836D02*
X1756Y836D01*
X1762Y836D02*
X1768Y836D01*
X2Y835D02*
X17Y835D01*
X1198Y835D02*
X1204Y835D01*
X1218Y835D02*
X1225Y835D01*
X1262Y835D02*
X1268Y835D01*
X1276Y835D02*
X1282Y835D01*
X1749Y835D02*
X1756Y835D01*
X1761Y835D02*
X1768Y835D01*
X2Y834D02*
X17Y834D01*
X1198Y834D02*
X1204Y834D01*
X1219Y834D02*
X1226Y834D01*
X1262Y834D02*
X1268Y834D01*
X1276Y834D02*
X1282Y834D01*
X1748Y834D02*
X1755Y834D01*
X1761Y834D02*
X1768Y834D01*
X2Y833D02*
X17Y833D01*
X1198Y833D02*
X1204Y833D01*
X1219Y833D02*
X1227Y833D01*
X1262Y833D02*
X1268Y833D01*
X1276Y833D02*
X1282Y833D01*
X1748Y833D02*
X1755Y833D01*
X1761Y833D02*
X1768Y833D01*
X2Y832D02*
X17Y832D01*
X1198Y832D02*
X1204Y832D01*
X1220Y832D02*
X1227Y832D01*
X1262Y832D02*
X1268Y832D01*
X1276Y832D02*
X1282Y832D01*
X1748Y832D02*
X1755Y832D01*
X1761Y832D02*
X1768Y832D01*
X2Y831D02*
X17Y831D01*
X1198Y831D02*
X1204Y831D01*
X1220Y831D02*
X1228Y831D01*
X1262Y831D02*
X1268Y831D01*
X1276Y831D02*
X1282Y831D01*
X1748Y831D02*
X1755Y831D01*
X1761Y831D02*
X1768Y831D01*
X2Y830D02*
X17Y830D01*
X1198Y830D02*
X1204Y830D01*
X1221Y830D02*
X1228Y830D01*
X1262Y830D02*
X1268Y830D01*
X1276Y830D02*
X1282Y830D01*
X1748Y830D02*
X1755Y830D01*
X1761Y830D02*
X1768Y830D01*
X2Y829D02*
X9Y829D01*
X11Y829D02*
X17Y829D01*
X1198Y829D02*
X1204Y829D01*
X1222Y829D02*
X1229Y829D01*
X1262Y829D02*
X1268Y829D01*
X1276Y829D02*
X1282Y829D01*
X1748Y829D02*
X1755Y829D01*
X1761Y829D02*
X1768Y829D01*
X2Y828D02*
X9Y828D01*
X11Y828D02*
X17Y828D01*
X1198Y828D02*
X1204Y828D01*
X1222Y828D02*
X1229Y828D01*
X1262Y828D02*
X1268Y828D01*
X1276Y828D02*
X1282Y828D01*
X1748Y828D02*
X1755Y828D01*
X1761Y828D02*
X1768Y828D01*
X2Y827D02*
X9Y827D01*
X11Y827D02*
X18Y827D01*
X1198Y827D02*
X1204Y827D01*
X1223Y827D02*
X1230Y827D01*
X1262Y827D02*
X1268Y827D01*
X1276Y827D02*
X1282Y827D01*
X1748Y827D02*
X1755Y827D01*
X1761Y827D02*
X1768Y827D01*
X2Y826D02*
X9Y826D01*
X11Y826D02*
X18Y826D01*
X1198Y826D02*
X1204Y826D01*
X1223Y826D02*
X1231Y826D01*
X1250Y826D02*
X1282Y826D01*
X1748Y826D02*
X1755Y826D01*
X1761Y826D02*
X1768Y826D01*
X2Y825D02*
X9Y825D01*
X11Y825D02*
X18Y825D01*
X1198Y825D02*
X1204Y825D01*
X1224Y825D02*
X1231Y825D01*
X1249Y825D02*
X1282Y825D01*
X1748Y825D02*
X1755Y825D01*
X1761Y825D02*
X1768Y825D01*
X2Y824D02*
X9Y824D01*
X11Y824D02*
X18Y824D01*
X1198Y824D02*
X1204Y824D01*
X1225Y824D02*
X1232Y824D01*
X1248Y824D02*
X1282Y824D01*
X1748Y824D02*
X1755Y824D01*
X1761Y824D02*
X1768Y824D01*
X2Y823D02*
X9Y823D01*
X11Y823D02*
X18Y823D01*
X1198Y823D02*
X1204Y823D01*
X1225Y823D02*
X1232Y823D01*
X1248Y823D02*
X1282Y823D01*
X1748Y823D02*
X1755Y823D01*
X1761Y823D02*
X1768Y823D01*
X2Y822D02*
X9Y822D01*
X11Y822D02*
X18Y822D01*
X1198Y822D02*
X1204Y822D01*
X1226Y822D02*
X1232Y822D01*
X1248Y822D02*
X1282Y822D01*
X1748Y822D02*
X1755Y822D01*
X1761Y822D02*
X1768Y822D01*
X2Y821D02*
X9Y821D01*
X11Y821D02*
X18Y821D01*
X1199Y821D02*
X1204Y821D01*
X1226Y821D02*
X1231Y821D01*
X1249Y821D02*
X1281Y821D01*
X1748Y821D02*
X1755Y821D01*
X1761Y821D02*
X1768Y821D01*
X3Y820D02*
X18Y820D01*
X1200Y820D02*
X1203Y820D01*
X1227Y820D02*
X1230Y820D01*
X1250Y820D02*
X1280Y820D01*
X1747Y820D02*
X1754Y820D01*
X1760Y820D02*
X1767Y820D01*
X3Y819D02*
X18Y819D01*
X1747Y819D02*
X1754Y819D01*
X1760Y819D02*
X1767Y819D01*
X3Y818D02*
X18Y818D01*
X1747Y818D02*
X1754Y818D01*
X1760Y818D02*
X1767Y818D01*
X3Y817D02*
X18Y817D01*
X1747Y817D02*
X1754Y817D01*
X1760Y817D02*
X1767Y817D01*
X3Y816D02*
X18Y816D01*
X1747Y816D02*
X1754Y816D01*
X1760Y816D02*
X1767Y816D01*
X3Y815D02*
X10Y815D01*
X12Y815D02*
X18Y815D01*
X1747Y815D02*
X1754Y815D01*
X1760Y815D02*
X1767Y815D01*
X3Y814D02*
X10Y814D01*
X12Y814D02*
X19Y814D01*
X1747Y814D02*
X1754Y814D01*
X1760Y814D02*
X1767Y814D01*
X3Y813D02*
X10Y813D01*
X12Y813D02*
X19Y813D01*
X1747Y813D02*
X1754Y813D01*
X1760Y813D02*
X1767Y813D01*
X3Y812D02*
X10Y812D01*
X12Y812D02*
X19Y812D01*
X1747Y812D02*
X1754Y812D01*
X1760Y812D02*
X1767Y812D01*
X3Y811D02*
X10Y811D01*
X12Y811D02*
X19Y811D01*
X1747Y811D02*
X1754Y811D01*
X1760Y811D02*
X1767Y811D01*
X3Y810D02*
X10Y810D01*
X12Y810D02*
X19Y810D01*
X1747Y810D02*
X1754Y810D01*
X1760Y810D02*
X1767Y810D01*
X3Y809D02*
X10Y809D01*
X12Y809D02*
X19Y809D01*
X1746Y809D02*
X1753Y809D01*
X1760Y809D02*
X1767Y809D01*
X4Y808D02*
X19Y808D01*
X1746Y808D02*
X1753Y808D01*
X1759Y808D02*
X1766Y808D01*
X4Y807D02*
X19Y807D01*
X1746Y807D02*
X1753Y807D01*
X1759Y807D02*
X1766Y807D01*
X4Y806D02*
X19Y806D01*
X1746Y806D02*
X1753Y806D01*
X1759Y806D02*
X1766Y806D01*
X4Y805D02*
X19Y805D01*
X1746Y805D02*
X1753Y805D01*
X1759Y805D02*
X1766Y805D01*
X4Y804D02*
X11Y804D01*
X13Y804D02*
X19Y804D01*
X1746Y804D02*
X1753Y804D01*
X1759Y804D02*
X1766Y804D01*
X4Y803D02*
X11Y803D01*
X13Y803D02*
X20Y803D01*
X1746Y803D02*
X1753Y803D01*
X1759Y803D02*
X1766Y803D01*
X4Y802D02*
X11Y802D01*
X13Y802D02*
X20Y802D01*
X1746Y802D02*
X1753Y802D01*
X1759Y802D02*
X1766Y802D01*
X4Y801D02*
X11Y801D01*
X13Y801D02*
X20Y801D01*
X1746Y801D02*
X1753Y801D01*
X1759Y801D02*
X1766Y801D01*
X4Y800D02*
X11Y800D01*
X13Y800D02*
X20Y800D01*
X1745Y800D02*
X1753Y800D01*
X1759Y800D02*
X1766Y800D01*
X4Y799D02*
X11Y799D01*
X13Y799D02*
X20Y799D01*
X1745Y799D02*
X1752Y799D01*
X1759Y799D02*
X1766Y799D01*
X4Y798D02*
X11Y798D01*
X13Y798D02*
X20Y798D01*
X1745Y798D02*
X1752Y798D01*
X1759Y798D02*
X1766Y798D01*
X5Y797D02*
X20Y797D01*
X1745Y797D02*
X1752Y797D01*
X1758Y797D02*
X1765Y797D01*
X5Y796D02*
X20Y796D01*
X1745Y796D02*
X1752Y796D01*
X1758Y796D02*
X1765Y796D01*
X5Y795D02*
X12Y795D01*
X14Y795D02*
X20Y795D01*
X1745Y795D02*
X1752Y795D01*
X1758Y795D02*
X1765Y795D01*
X5Y794D02*
X12Y794D01*
X14Y794D02*
X21Y794D01*
X1745Y794D02*
X1752Y794D01*
X1758Y794D02*
X1765Y794D01*
X5Y793D02*
X12Y793D01*
X14Y793D02*
X21Y793D01*
X1745Y793D02*
X1752Y793D01*
X1758Y793D02*
X1765Y793D01*
X5Y792D02*
X12Y792D01*
X14Y792D02*
X21Y792D01*
X1745Y792D02*
X1752Y792D01*
X1758Y792D02*
X1765Y792D01*
X5Y791D02*
X12Y791D01*
X14Y791D02*
X21Y791D01*
X1745Y791D02*
X1752Y791D01*
X1758Y791D02*
X1765Y791D01*
X5Y790D02*
X12Y790D01*
X14Y790D02*
X21Y790D01*
X1744Y790D02*
X1751Y790D01*
X1758Y790D02*
X1765Y790D01*
X5Y789D02*
X12Y789D01*
X14Y789D02*
X21Y789D01*
X1744Y789D02*
X1751Y789D01*
X1758Y789D02*
X1765Y789D01*
X6Y788D02*
X21Y788D01*
X1744Y788D02*
X1751Y788D01*
X1757Y788D02*
X1764Y788D01*
X6Y787D02*
X21Y787D01*
X1744Y787D02*
X1751Y787D01*
X1757Y787D02*
X1764Y787D01*
X6Y786D02*
X13Y786D01*
X15Y786D02*
X21Y786D01*
X1744Y786D02*
X1751Y786D01*
X1757Y786D02*
X1764Y786D01*
X6Y785D02*
X13Y785D01*
X15Y785D02*
X22Y785D01*
X1744Y785D02*
X1751Y785D01*
X1757Y785D02*
X1764Y785D01*
X6Y784D02*
X13Y784D01*
X15Y784D02*
X22Y784D01*
X1744Y784D02*
X1751Y784D01*
X1757Y784D02*
X1764Y784D01*
X6Y783D02*
X13Y783D01*
X15Y783D02*
X22Y783D01*
X1744Y783D02*
X1751Y783D01*
X1757Y783D02*
X1764Y783D01*
X6Y782D02*
X13Y782D01*
X15Y782D02*
X22Y782D01*
X1743Y782D02*
X1750Y782D01*
X1757Y782D02*
X1764Y782D01*
X6Y781D02*
X13Y781D01*
X15Y781D02*
X22Y781D01*
X1743Y781D02*
X1750Y781D01*
X1757Y781D02*
X1764Y781D01*
X6Y780D02*
X13Y780D01*
X15Y780D02*
X22Y780D01*
X1743Y780D02*
X1750Y780D01*
X1757Y780D02*
X1764Y780D01*
X7Y779D02*
X22Y779D01*
X1743Y779D02*
X1750Y779D01*
X1756Y779D02*
X1763Y779D01*
X7Y778D02*
X22Y778D01*
X1743Y778D02*
X1750Y778D01*
X1756Y778D02*
X1763Y778D01*
X7Y777D02*
X14Y777D01*
X16Y777D02*
X23Y777D01*
X1743Y777D02*
X1750Y777D01*
X1756Y777D02*
X1763Y777D01*
X7Y776D02*
X14Y776D01*
X16Y776D02*
X23Y776D01*
X1743Y776D02*
X1750Y776D01*
X1756Y776D02*
X1763Y776D01*
X7Y775D02*
X14Y775D01*
X16Y775D02*
X23Y775D01*
X1742Y775D02*
X1750Y775D01*
X1756Y775D02*
X1763Y775D01*
X7Y774D02*
X14Y774D01*
X16Y774D02*
X23Y774D01*
X1742Y774D02*
X1749Y774D01*
X1756Y774D02*
X1763Y774D01*
X7Y773D02*
X14Y773D01*
X16Y773D02*
X23Y773D01*
X1742Y773D02*
X1749Y773D01*
X1756Y773D02*
X1763Y773D01*
X7Y772D02*
X14Y772D01*
X16Y772D02*
X23Y772D01*
X1742Y772D02*
X1749Y772D01*
X1756Y772D02*
X1763Y772D01*
X8Y771D02*
X23Y771D01*
X1742Y771D02*
X1749Y771D01*
X1755Y771D02*
X1762Y771D01*
X8Y770D02*
X15Y770D01*
X17Y770D02*
X24Y770D01*
X1742Y770D02*
X1749Y770D01*
X1755Y770D02*
X1762Y770D01*
X8Y769D02*
X15Y769D01*
X17Y769D02*
X24Y769D01*
X1742Y769D02*
X1749Y769D01*
X1755Y769D02*
X1762Y769D01*
X8Y768D02*
X15Y768D01*
X17Y768D02*
X24Y768D01*
X1741Y768D02*
X1749Y768D01*
X1755Y768D02*
X1762Y768D01*
X8Y767D02*
X15Y767D01*
X17Y767D02*
X24Y767D01*
X1741Y767D02*
X1748Y767D01*
X1755Y767D02*
X1762Y767D01*
X8Y766D02*
X15Y766D01*
X17Y766D02*
X24Y766D01*
X1741Y766D02*
X1748Y766D01*
X1755Y766D02*
X1762Y766D01*
X8Y765D02*
X15Y765D01*
X17Y765D02*
X24Y765D01*
X1741Y765D02*
X1748Y765D01*
X1755Y765D02*
X1762Y765D01*
X9Y764D02*
X24Y764D01*
X1741Y764D02*
X1748Y764D01*
X1754Y764D02*
X1761Y764D01*
X9Y763D02*
X16Y763D01*
X18Y763D02*
X24Y763D01*
X1741Y763D02*
X1748Y763D01*
X1754Y763D02*
X1761Y763D01*
X9Y762D02*
X16Y762D01*
X18Y762D02*
X25Y762D01*
X1741Y762D02*
X1748Y762D01*
X1754Y762D02*
X1761Y762D01*
X9Y761D02*
X16Y761D01*
X18Y761D02*
X25Y761D01*
X1740Y761D02*
X1748Y761D01*
X1754Y761D02*
X1761Y761D01*
X9Y760D02*
X16Y760D01*
X18Y760D02*
X25Y760D01*
X1740Y760D02*
X1747Y760D01*
X1754Y760D02*
X1761Y760D01*
X9Y759D02*
X16Y759D01*
X18Y759D02*
X25Y759D01*
X1740Y759D02*
X1747Y759D01*
X1754Y759D02*
X1761Y759D01*
X9Y758D02*
X16Y758D01*
X18Y758D02*
X25Y758D01*
X1740Y758D02*
X1747Y758D01*
X1754Y758D02*
X1761Y758D01*
X10Y757D02*
X25Y757D01*
X1740Y757D02*
X1747Y757D01*
X1753Y757D02*
X1760Y757D01*
X10Y756D02*
X17Y756D01*
X19Y756D02*
X26Y756D01*
X1740Y756D02*
X1747Y756D01*
X1753Y756D02*
X1760Y756D01*
X10Y755D02*
X17Y755D01*
X19Y755D02*
X26Y755D01*
X795Y755D02*
X862Y755D01*
X1062Y755D02*
X1110Y755D01*
X1740Y755D02*
X1747Y755D01*
X1753Y755D02*
X1760Y755D01*
X10Y754D02*
X17Y754D01*
X19Y754D02*
X26Y754D01*
X795Y754D02*
X862Y754D01*
X1062Y754D02*
X1110Y754D01*
X1739Y754D02*
X1746Y754D01*
X1753Y754D02*
X1760Y754D01*
X10Y753D02*
X17Y753D01*
X19Y753D02*
X26Y753D01*
X795Y753D02*
X862Y753D01*
X1062Y753D02*
X1110Y753D01*
X1739Y753D02*
X1746Y753D01*
X1753Y753D02*
X1760Y753D01*
X10Y752D02*
X17Y752D01*
X19Y752D02*
X26Y752D01*
X796Y752D02*
X862Y752D01*
X1062Y752D02*
X1110Y752D01*
X1739Y752D02*
X1746Y752D01*
X1753Y752D02*
X1760Y752D01*
X10Y751D02*
X17Y751D01*
X19Y751D02*
X26Y751D01*
X796Y751D02*
X862Y751D01*
X1062Y751D02*
X1109Y751D01*
X1739Y751D02*
X1746Y751D01*
X1753Y751D02*
X1760Y751D01*
X11Y750D02*
X18Y750D01*
X20Y750D02*
X27Y750D01*
X796Y750D02*
X862Y750D01*
X1062Y750D02*
X1110Y750D01*
X1739Y750D02*
X1746Y750D01*
X1752Y750D02*
X1759Y750D01*
X11Y749D02*
X18Y749D01*
X20Y749D02*
X27Y749D01*
X795Y749D02*
X862Y749D01*
X1062Y749D02*
X1110Y749D01*
X1739Y749D02*
X1746Y749D01*
X1752Y749D02*
X1759Y749D01*
X11Y748D02*
X18Y748D01*
X20Y748D02*
X27Y748D01*
X795Y748D02*
X862Y748D01*
X1062Y748D02*
X1110Y748D01*
X1738Y748D02*
X1746Y748D01*
X1752Y748D02*
X1759Y748D01*
X11Y747D02*
X18Y747D01*
X20Y747D02*
X27Y747D01*
X795Y747D02*
X862Y747D01*
X1062Y747D02*
X1110Y747D01*
X1738Y747D02*
X1745Y747D01*
X1752Y747D02*
X1759Y747D01*
X11Y746D02*
X18Y746D01*
X20Y746D02*
X27Y746D01*
X795Y746D02*
X861Y746D01*
X1063Y746D02*
X1110Y746D01*
X1738Y746D02*
X1745Y746D01*
X1752Y746D02*
X1759Y746D01*
X11Y745D02*
X18Y745D01*
X20Y745D02*
X27Y745D01*
X1738Y745D02*
X1745Y745D01*
X1752Y745D02*
X1759Y745D01*
X12Y744D02*
X19Y744D01*
X21Y744D02*
X28Y744D01*
X1738Y744D02*
X1745Y744D01*
X1751Y744D02*
X1758Y744D01*
X12Y743D02*
X19Y743D01*
X21Y743D02*
X28Y743D01*
X1738Y743D02*
X1745Y743D01*
X1751Y743D02*
X1758Y743D01*
X12Y742D02*
X19Y742D01*
X21Y742D02*
X28Y742D01*
X1737Y742D02*
X1745Y742D01*
X1751Y742D02*
X1758Y742D01*
X12Y741D02*
X19Y741D01*
X21Y741D02*
X28Y741D01*
X1737Y741D02*
X1744Y741D01*
X1751Y741D02*
X1758Y741D01*
X12Y740D02*
X19Y740D01*
X21Y740D02*
X28Y740D01*
X1737Y740D02*
X1744Y740D01*
X1751Y740D02*
X1758Y740D01*
X12Y739D02*
X19Y739D01*
X21Y739D02*
X28Y739D01*
X1737Y739D02*
X1744Y739D01*
X1751Y739D02*
X1758Y739D01*
X13Y738D02*
X20Y738D01*
X22Y738D02*
X28Y738D01*
X1737Y738D02*
X1744Y738D01*
X1750Y738D02*
X1757Y738D01*
X13Y737D02*
X20Y737D01*
X22Y737D02*
X29Y737D01*
X1737Y737D02*
X1744Y737D01*
X1750Y737D02*
X1757Y737D01*
X13Y736D02*
X20Y736D01*
X22Y736D02*
X29Y736D01*
X1736Y736D02*
X1744Y736D01*
X1750Y736D02*
X1757Y736D01*
X13Y735D02*
X20Y735D01*
X22Y735D02*
X29Y735D01*
X1736Y735D02*
X1743Y735D01*
X1750Y735D02*
X1757Y735D01*
X13Y734D02*
X20Y734D01*
X22Y734D02*
X29Y734D01*
X1736Y734D02*
X1743Y734D01*
X1750Y734D02*
X1757Y734D01*
X13Y733D02*
X20Y733D01*
X22Y733D02*
X29Y733D01*
X1736Y733D02*
X1743Y733D01*
X1750Y733D02*
X1757Y733D01*
X14Y732D02*
X21Y732D01*
X23Y732D02*
X30Y732D01*
X1736Y732D02*
X1743Y732D01*
X1749Y732D02*
X1756Y732D01*
X14Y731D02*
X21Y731D01*
X23Y731D02*
X30Y731D01*
X1735Y731D02*
X1743Y731D01*
X1749Y731D02*
X1756Y731D01*
X14Y730D02*
X21Y730D01*
X23Y730D02*
X30Y730D01*
X1735Y730D02*
X1742Y730D01*
X1749Y730D02*
X1756Y730D01*
X14Y729D02*
X21Y729D01*
X23Y729D02*
X30Y729D01*
X1735Y729D02*
X1742Y729D01*
X1749Y729D02*
X1756Y729D01*
X14Y728D02*
X21Y728D01*
X23Y728D02*
X30Y728D01*
X1735Y728D02*
X1742Y728D01*
X1749Y728D02*
X1756Y728D01*
X14Y727D02*
X22Y727D01*
X24Y727D02*
X31Y727D01*
X1735Y727D02*
X1742Y727D01*
X1748Y727D02*
X1756Y727D01*
X15Y726D02*
X22Y726D01*
X24Y726D02*
X31Y726D01*
X1735Y726D02*
X1742Y726D01*
X1748Y726D02*
X1755Y726D01*
X15Y725D02*
X22Y725D01*
X24Y725D02*
X31Y725D01*
X1734Y725D02*
X1741Y725D01*
X1748Y725D02*
X1755Y725D01*
X15Y724D02*
X22Y724D01*
X24Y724D02*
X31Y724D01*
X1734Y724D02*
X1741Y724D01*
X1748Y724D02*
X1755Y724D01*
X15Y723D02*
X22Y723D01*
X24Y723D02*
X31Y723D01*
X1734Y723D02*
X1741Y723D01*
X1748Y723D02*
X1755Y723D01*
X15Y722D02*
X23Y722D01*
X25Y722D02*
X32Y722D01*
X1734Y722D02*
X1741Y722D01*
X1747Y722D02*
X1755Y722D01*
X16Y721D02*
X23Y721D01*
X25Y721D02*
X32Y721D01*
X1734Y721D02*
X1741Y721D01*
X1747Y721D02*
X1754Y721D01*
X16Y720D02*
X23Y720D01*
X25Y720D02*
X32Y720D01*
X1733Y720D02*
X1741Y720D01*
X1747Y720D02*
X1754Y720D01*
X16Y719D02*
X23Y719D01*
X25Y719D02*
X32Y719D01*
X1733Y719D02*
X1740Y719D01*
X1747Y719D02*
X1754Y719D01*
X16Y718D02*
X23Y718D01*
X25Y718D02*
X32Y718D01*
X1733Y718D02*
X1740Y718D01*
X1747Y718D02*
X1754Y718D01*
X16Y717D02*
X23Y717D01*
X26Y717D02*
X32Y717D01*
X1733Y717D02*
X1740Y717D01*
X1747Y717D02*
X1754Y717D01*
X17Y716D02*
X24Y716D01*
X26Y716D02*
X33Y716D01*
X1733Y716D02*
X1740Y716D01*
X1746Y716D02*
X1753Y716D01*
X17Y715D02*
X24Y715D01*
X26Y715D02*
X33Y715D01*
X1732Y715D02*
X1740Y715D01*
X1746Y715D02*
X1753Y715D01*
X17Y714D02*
X24Y714D01*
X26Y714D02*
X33Y714D01*
X1732Y714D02*
X1739Y714D01*
X1746Y714D02*
X1753Y714D01*
X17Y713D02*
X24Y713D01*
X26Y713D02*
X33Y713D01*
X618Y713D02*
X636Y713D01*
X1732Y713D02*
X1739Y713D01*
X1746Y713D02*
X1753Y713D01*
X17Y712D02*
X24Y712D01*
X27Y712D02*
X33Y712D01*
X616Y712D02*
X638Y712D01*
X1732Y712D02*
X1739Y712D01*
X1746Y712D02*
X1753Y712D01*
X18Y711D02*
X25Y711D01*
X27Y711D02*
X34Y711D01*
X616Y711D02*
X639Y711D01*
X1732Y711D02*
X1739Y711D01*
X1745Y711D02*
X1752Y711D01*
X18Y710D02*
X25Y710D01*
X27Y710D02*
X34Y710D01*
X615Y710D02*
X639Y710D01*
X1731Y710D02*
X1739Y710D01*
X1745Y710D02*
X1752Y710D01*
X18Y709D02*
X25Y709D01*
X27Y709D02*
X34Y709D01*
X615Y709D02*
X639Y709D01*
X1731Y709D02*
X1738Y709D01*
X1745Y709D02*
X1752Y709D01*
X18Y708D02*
X25Y708D01*
X27Y708D02*
X34Y708D01*
X616Y708D02*
X639Y708D01*
X1731Y708D02*
X1738Y708D01*
X1745Y708D02*
X1752Y708D01*
X18Y707D02*
X25Y707D01*
X28Y707D02*
X34Y707D01*
X617Y707D02*
X639Y707D01*
X1731Y707D02*
X1738Y707D01*
X1745Y707D02*
X1752Y707D01*
X19Y706D02*
X26Y706D01*
X28Y706D02*
X35Y706D01*
X633Y706D02*
X639Y706D01*
X1731Y706D02*
X1738Y706D01*
X1744Y706D02*
X1751Y706D01*
X19Y705D02*
X26Y705D01*
X28Y705D02*
X35Y705D01*
X633Y705D02*
X639Y705D01*
X1730Y705D02*
X1737Y705D01*
X1744Y705D02*
X1751Y705D01*
X19Y704D02*
X26Y704D01*
X28Y704D02*
X35Y704D01*
X633Y704D02*
X639Y704D01*
X1730Y704D02*
X1737Y704D01*
X1744Y704D02*
X1751Y704D01*
X19Y703D02*
X26Y703D01*
X28Y703D02*
X35Y703D01*
X633Y703D02*
X639Y703D01*
X1730Y703D02*
X1737Y703D01*
X1744Y703D02*
X1751Y703D01*
X19Y702D02*
X27Y702D01*
X29Y702D02*
X36Y702D01*
X633Y702D02*
X639Y702D01*
X1730Y702D02*
X1737Y702D01*
X1743Y702D02*
X1751Y702D01*
X20Y701D02*
X27Y701D01*
X29Y701D02*
X36Y701D01*
X633Y701D02*
X639Y701D01*
X1729Y701D02*
X1737Y701D01*
X1743Y701D02*
X1750Y701D01*
X20Y700D02*
X27Y700D01*
X29Y700D02*
X36Y700D01*
X633Y700D02*
X639Y700D01*
X1729Y700D02*
X1736Y700D01*
X1743Y700D02*
X1750Y700D01*
X20Y699D02*
X27Y699D01*
X29Y699D02*
X36Y699D01*
X586Y699D02*
X639Y699D01*
X1729Y699D02*
X1736Y699D01*
X1743Y699D02*
X1750Y699D01*
X20Y698D02*
X27Y698D01*
X30Y698D02*
X37Y698D01*
X586Y698D02*
X639Y698D01*
X1729Y698D02*
X1736Y698D01*
X1743Y698D02*
X1750Y698D01*
X21Y697D02*
X28Y697D01*
X30Y697D02*
X37Y697D01*
X586Y697D02*
X639Y697D01*
X1729Y697D02*
X1736Y697D01*
X1742Y697D02*
X1749Y697D01*
X21Y696D02*
X28Y696D01*
X30Y696D02*
X37Y696D01*
X586Y696D02*
X639Y696D01*
X1728Y696D02*
X1735Y696D01*
X1742Y696D02*
X1749Y696D01*
X21Y695D02*
X28Y695D01*
X30Y695D02*
X37Y695D01*
X586Y695D02*
X639Y695D01*
X1728Y695D02*
X1735Y695D01*
X1742Y695D02*
X1749Y695D01*
X21Y694D02*
X28Y694D01*
X30Y694D02*
X37Y694D01*
X586Y694D02*
X639Y694D01*
X1728Y694D02*
X1735Y694D01*
X1742Y694D02*
X1749Y694D01*
X21Y693D02*
X29Y693D01*
X31Y693D02*
X38Y693D01*
X586Y693D02*
X639Y693D01*
X1728Y693D02*
X1735Y693D01*
X1741Y693D02*
X1749Y693D01*
X22Y692D02*
X29Y692D01*
X31Y692D02*
X38Y692D01*
X586Y692D02*
X592Y692D01*
X633Y692D02*
X639Y692D01*
X1727Y692D02*
X1735Y692D01*
X1741Y692D02*
X1748Y692D01*
X22Y691D02*
X29Y691D01*
X31Y691D02*
X38Y691D01*
X586Y691D02*
X592Y691D01*
X633Y691D02*
X639Y691D01*
X1727Y691D02*
X1734Y691D01*
X1741Y691D02*
X1748Y691D01*
X22Y690D02*
X29Y690D01*
X31Y690D02*
X38Y690D01*
X586Y690D02*
X592Y690D01*
X633Y690D02*
X639Y690D01*
X1727Y690D02*
X1734Y690D01*
X1741Y690D02*
X1748Y690D01*
X22Y689D02*
X29Y689D01*
X32Y689D02*
X39Y689D01*
X586Y689D02*
X592Y689D01*
X633Y689D02*
X639Y689D01*
X1727Y689D02*
X1734Y689D01*
X1741Y689D02*
X1748Y689D01*
X23Y688D02*
X30Y688D01*
X32Y688D02*
X39Y688D01*
X586Y688D02*
X592Y688D01*
X633Y688D02*
X639Y688D01*
X1726Y688D02*
X1734Y688D01*
X1740Y688D02*
X1747Y688D01*
X23Y687D02*
X30Y687D01*
X32Y687D02*
X39Y687D01*
X586Y687D02*
X592Y687D01*
X633Y687D02*
X639Y687D01*
X1726Y687D02*
X1733Y687D01*
X1740Y687D02*
X1747Y687D01*
X23Y686D02*
X30Y686D01*
X32Y686D02*
X39Y686D01*
X586Y686D02*
X592Y686D01*
X633Y686D02*
X639Y686D01*
X1726Y686D02*
X1733Y686D01*
X1740Y686D02*
X1747Y686D01*
X23Y685D02*
X30Y685D01*
X33Y685D02*
X40Y685D01*
X586Y685D02*
X592Y685D01*
X633Y685D02*
X639Y685D01*
X1726Y685D02*
X1733Y685D01*
X1740Y685D02*
X1747Y685D01*
X23Y684D02*
X31Y684D01*
X33Y684D02*
X40Y684D01*
X586Y684D02*
X592Y684D01*
X633Y684D02*
X639Y684D01*
X1725Y684D02*
X1733Y684D01*
X1739Y684D02*
X1747Y684D01*
X24Y683D02*
X31Y683D01*
X33Y683D02*
X40Y683D01*
X586Y683D02*
X592Y683D01*
X633Y683D02*
X639Y683D01*
X1725Y683D02*
X1732Y683D01*
X1739Y683D02*
X1746Y683D01*
X24Y682D02*
X31Y682D01*
X33Y682D02*
X40Y682D01*
X586Y682D02*
X592Y682D01*
X633Y682D02*
X639Y682D01*
X1725Y682D02*
X1732Y682D01*
X1739Y682D02*
X1746Y682D01*
X24Y681D02*
X31Y681D01*
X33Y681D02*
X40Y681D01*
X586Y681D02*
X592Y681D01*
X633Y681D02*
X639Y681D01*
X1725Y681D02*
X1732Y681D01*
X1739Y681D02*
X1746Y681D01*
X24Y680D02*
X32Y680D01*
X34Y680D02*
X41Y680D01*
X587Y680D02*
X591Y680D01*
X634Y680D02*
X638Y680D01*
X1725Y680D02*
X1732Y680D01*
X1738Y680D02*
X1746Y680D01*
X25Y679D02*
X32Y679D01*
X34Y679D02*
X41Y679D01*
X588Y679D02*
X590Y679D01*
X635Y679D02*
X637Y679D01*
X1724Y679D02*
X1731Y679D01*
X1738Y679D02*
X1745Y679D01*
X25Y678D02*
X32Y678D01*
X34Y678D02*
X41Y678D01*
X1724Y678D02*
X1731Y678D01*
X1738Y678D02*
X1745Y678D01*
X25Y677D02*
X32Y677D01*
X34Y677D02*
X41Y677D01*
X1724Y677D02*
X1731Y677D01*
X1738Y677D02*
X1745Y677D01*
X25Y676D02*
X33Y676D01*
X35Y676D02*
X42Y676D01*
X1724Y676D02*
X1731Y676D01*
X1737Y676D02*
X1745Y676D01*
X26Y675D02*
X33Y675D01*
X35Y675D02*
X42Y675D01*
X1723Y675D02*
X1731Y675D01*
X1737Y675D02*
X1744Y675D01*
X26Y674D02*
X33Y674D01*
X35Y674D02*
X42Y674D01*
X1723Y674D02*
X1730Y674D01*
X1737Y674D02*
X1744Y674D01*
X26Y673D02*
X33Y673D01*
X35Y673D02*
X42Y673D01*
X1723Y673D02*
X1730Y673D01*
X1737Y673D02*
X1744Y673D01*
X26Y672D02*
X34Y672D01*
X36Y672D02*
X43Y672D01*
X1723Y672D02*
X1730Y672D01*
X1736Y672D02*
X1744Y672D01*
X27Y671D02*
X34Y671D01*
X36Y671D02*
X43Y671D01*
X1722Y671D02*
X1729Y671D01*
X1736Y671D02*
X1743Y671D01*
X27Y670D02*
X34Y670D01*
X36Y670D02*
X43Y670D01*
X1722Y670D02*
X1729Y670D01*
X1736Y670D02*
X1743Y670D01*
X27Y669D02*
X34Y669D01*
X37Y669D02*
X44Y669D01*
X1722Y669D02*
X1729Y669D01*
X1736Y669D02*
X1743Y669D01*
X27Y668D02*
X34Y668D01*
X37Y668D02*
X44Y668D01*
X1721Y668D02*
X1729Y668D01*
X1736Y668D02*
X1743Y668D01*
X28Y667D02*
X35Y667D01*
X37Y667D02*
X44Y667D01*
X1721Y667D02*
X1728Y667D01*
X1735Y667D02*
X1742Y667D01*
X28Y666D02*
X35Y666D01*
X37Y666D02*
X44Y666D01*
X1721Y666D02*
X1728Y666D01*
X1735Y666D02*
X1742Y666D01*
X28Y665D02*
X35Y665D01*
X38Y665D02*
X45Y665D01*
X1721Y665D02*
X1728Y665D01*
X1735Y665D02*
X1742Y665D01*
X28Y664D02*
X36Y664D01*
X38Y664D02*
X45Y664D01*
X1720Y664D02*
X1728Y664D01*
X1734Y664D02*
X1742Y664D01*
X29Y663D02*
X36Y663D01*
X38Y663D02*
X45Y663D01*
X1720Y663D02*
X1727Y663D01*
X1734Y663D02*
X1741Y663D01*
X29Y662D02*
X36Y662D01*
X38Y662D02*
X45Y662D01*
X1720Y662D02*
X1727Y662D01*
X1734Y662D02*
X1741Y662D01*
X29Y661D02*
X36Y661D01*
X39Y661D02*
X46Y661D01*
X1720Y661D02*
X1727Y661D01*
X1734Y661D02*
X1741Y661D01*
X29Y660D02*
X37Y660D01*
X39Y660D02*
X46Y660D01*
X1719Y660D02*
X1727Y660D01*
X1733Y660D02*
X1741Y660D01*
X30Y659D02*
X37Y659D01*
X39Y659D02*
X46Y659D01*
X587Y659D02*
X632Y659D01*
X1719Y659D02*
X1726Y659D01*
X1733Y659D02*
X1740Y659D01*
X30Y658D02*
X37Y658D01*
X39Y658D02*
X46Y658D01*
X586Y658D02*
X634Y658D01*
X1719Y658D02*
X1726Y658D01*
X1733Y658D02*
X1740Y658D01*
X30Y657D02*
X37Y657D01*
X40Y657D02*
X47Y657D01*
X586Y657D02*
X635Y657D01*
X1719Y657D02*
X1726Y657D01*
X1733Y657D02*
X1740Y657D01*
X31Y656D02*
X38Y656D01*
X40Y656D02*
X47Y656D01*
X586Y656D02*
X636Y656D01*
X1718Y656D02*
X1725Y656D01*
X1732Y656D02*
X1739Y656D01*
X31Y655D02*
X38Y655D01*
X40Y655D02*
X47Y655D01*
X586Y655D02*
X637Y655D01*
X1718Y655D02*
X1725Y655D01*
X1732Y655D02*
X1739Y655D01*
X31Y654D02*
X38Y654D01*
X41Y654D02*
X48Y654D01*
X587Y654D02*
X638Y654D01*
X1718Y654D02*
X1725Y654D01*
X1732Y654D02*
X1739Y654D01*
X31Y653D02*
X39Y653D01*
X41Y653D02*
X48Y653D01*
X588Y653D02*
X638Y653D01*
X1717Y653D02*
X1725Y653D01*
X1731Y653D02*
X1739Y653D01*
X32Y652D02*
X39Y652D01*
X41Y652D02*
X48Y652D01*
X631Y652D02*
X638Y652D01*
X1717Y652D02*
X1724Y652D01*
X1731Y652D02*
X1738Y652D01*
X32Y651D02*
X39Y651D01*
X41Y651D02*
X48Y651D01*
X632Y651D02*
X639Y651D01*
X1717Y651D02*
X1724Y651D01*
X1731Y651D02*
X1738Y651D01*
X32Y650D02*
X39Y650D01*
X42Y650D02*
X49Y650D01*
X633Y650D02*
X639Y650D01*
X1717Y650D02*
X1724Y650D01*
X1731Y650D02*
X1738Y650D01*
X32Y649D02*
X40Y649D01*
X42Y649D02*
X49Y649D01*
X633Y649D02*
X639Y649D01*
X1716Y649D02*
X1724Y649D01*
X1730Y649D02*
X1738Y649D01*
X33Y648D02*
X40Y648D01*
X42Y648D02*
X49Y648D01*
X633Y648D02*
X639Y648D01*
X1716Y648D02*
X1723Y648D01*
X1730Y648D02*
X1737Y648D01*
X33Y647D02*
X40Y647D01*
X42Y647D02*
X50Y647D01*
X633Y647D02*
X639Y647D01*
X1716Y647D02*
X1723Y647D01*
X1730Y647D02*
X1737Y647D01*
X33Y646D02*
X40Y646D01*
X43Y646D02*
X50Y646D01*
X633Y646D02*
X639Y646D01*
X1715Y646D02*
X1723Y646D01*
X1730Y646D02*
X1737Y646D01*
X34Y645D02*
X41Y645D01*
X43Y645D02*
X50Y645D01*
X633Y645D02*
X639Y645D01*
X1715Y645D02*
X1722Y645D01*
X1729Y645D02*
X1736Y645D01*
X34Y644D02*
X41Y644D01*
X43Y644D02*
X50Y644D01*
X633Y644D02*
X639Y644D01*
X1715Y644D02*
X1722Y644D01*
X1729Y644D02*
X1736Y644D01*
X34Y643D02*
X41Y643D01*
X44Y643D02*
X51Y643D01*
X633Y643D02*
X639Y643D01*
X1715Y643D02*
X1722Y643D01*
X1729Y643D02*
X1736Y643D01*
X34Y642D02*
X42Y642D01*
X44Y642D02*
X51Y642D01*
X633Y642D02*
X639Y642D01*
X1714Y642D02*
X1722Y642D01*
X1728Y642D02*
X1736Y642D01*
X35Y641D02*
X42Y641D01*
X44Y641D02*
X51Y641D01*
X632Y641D02*
X639Y641D01*
X1714Y641D02*
X1721Y641D01*
X1728Y641D02*
X1735Y641D01*
X35Y640D02*
X42Y640D01*
X45Y640D02*
X52Y640D01*
X632Y640D02*
X639Y640D01*
X1714Y640D02*
X1721Y640D01*
X1728Y640D02*
X1735Y640D01*
X35Y639D02*
X43Y639D01*
X45Y639D02*
X52Y639D01*
X619Y639D02*
X638Y639D01*
X1713Y639D02*
X1721Y639D01*
X1727Y639D02*
X1735Y639D01*
X36Y638D02*
X43Y638D01*
X45Y638D02*
X52Y638D01*
X616Y638D02*
X638Y638D01*
X1713Y638D02*
X1720Y638D01*
X1727Y638D02*
X1734Y638D01*
X36Y637D02*
X43Y637D01*
X45Y637D02*
X53Y637D01*
X616Y637D02*
X637Y637D01*
X1713Y637D02*
X1720Y637D01*
X1727Y637D02*
X1734Y637D01*
X36Y636D02*
X43Y636D01*
X46Y636D02*
X53Y636D01*
X615Y636D02*
X637Y636D01*
X1712Y636D02*
X1720Y636D01*
X1727Y636D02*
X1734Y636D01*
X37Y635D02*
X44Y635D01*
X46Y635D02*
X53Y635D01*
X615Y635D02*
X636Y635D01*
X1712Y635D02*
X1719Y635D01*
X1726Y635D02*
X1733Y635D01*
X37Y634D02*
X44Y634D01*
X46Y634D02*
X53Y634D01*
X616Y634D02*
X634Y634D01*
X1712Y634D02*
X1719Y634D01*
X1726Y634D02*
X1733Y634D01*
X37Y633D02*
X44Y633D01*
X47Y633D02*
X54Y633D01*
X616Y633D02*
X633Y633D01*
X1712Y633D02*
X1719Y633D01*
X1726Y633D02*
X1733Y633D01*
X37Y632D02*
X45Y632D01*
X47Y632D02*
X54Y632D01*
X1711Y632D02*
X1719Y632D01*
X1725Y632D02*
X1733Y632D01*
X38Y631D02*
X45Y631D01*
X47Y631D02*
X54Y631D01*
X1711Y631D02*
X1718Y631D01*
X1725Y631D02*
X1732Y631D01*
X38Y630D02*
X45Y630D01*
X48Y630D02*
X55Y630D01*
X1711Y630D02*
X1718Y630D01*
X1725Y630D02*
X1732Y630D01*
X38Y629D02*
X45Y629D01*
X48Y629D02*
X55Y629D01*
X1710Y629D02*
X1718Y629D01*
X1724Y629D02*
X1732Y629D01*
X39Y628D02*
X46Y628D01*
X48Y628D02*
X55Y628D01*
X1710Y628D02*
X1717Y628D01*
X1724Y628D02*
X1731Y628D01*
X39Y627D02*
X46Y627D01*
X49Y627D02*
X56Y627D01*
X1710Y627D02*
X1717Y627D01*
X1724Y627D02*
X1731Y627D01*
X39Y626D02*
X46Y626D01*
X49Y626D02*
X56Y626D01*
X1709Y626D02*
X1717Y626D01*
X1724Y626D02*
X1731Y626D01*
X39Y625D02*
X47Y625D01*
X49Y625D02*
X56Y625D01*
X1709Y625D02*
X1716Y625D01*
X1723Y625D02*
X1731Y625D01*
X40Y624D02*
X47Y624D01*
X49Y624D02*
X57Y624D01*
X1709Y624D02*
X1716Y624D01*
X1723Y624D02*
X1730Y624D01*
X40Y623D02*
X47Y623D01*
X50Y623D02*
X57Y623D01*
X1708Y623D02*
X1716Y623D01*
X1723Y623D02*
X1730Y623D01*
X40Y622D02*
X48Y622D01*
X50Y622D02*
X57Y622D01*
X1708Y622D02*
X1715Y622D01*
X1722Y622D02*
X1730Y622D01*
X41Y621D02*
X48Y621D01*
X50Y621D02*
X58Y621D01*
X1708Y621D02*
X1715Y621D01*
X1722Y621D02*
X1729Y621D01*
X41Y620D02*
X48Y620D01*
X51Y620D02*
X58Y620D01*
X1707Y620D02*
X1715Y620D01*
X1722Y620D02*
X1729Y620D01*
X41Y619D02*
X49Y619D01*
X51Y619D02*
X58Y619D01*
X1707Y619D02*
X1714Y619D01*
X1721Y619D02*
X1729Y619D01*
X42Y618D02*
X49Y618D01*
X51Y618D02*
X59Y618D01*
X1707Y618D02*
X1714Y618D01*
X1721Y618D02*
X1728Y618D01*
X42Y617D02*
X49Y617D01*
X52Y617D02*
X59Y617D01*
X1706Y617D02*
X1714Y617D01*
X1721Y617D02*
X1728Y617D01*
X42Y616D02*
X50Y616D01*
X52Y616D02*
X59Y616D01*
X1706Y616D02*
X1713Y616D01*
X1720Y616D02*
X1728Y616D01*
X43Y615D02*
X50Y615D01*
X52Y615D02*
X60Y615D01*
X1706Y615D02*
X1713Y615D01*
X1720Y615D02*
X1727Y615D01*
X43Y614D02*
X50Y614D01*
X53Y614D02*
X60Y614D01*
X1705Y614D02*
X1713Y614D01*
X1720Y614D02*
X1727Y614D01*
X43Y613D02*
X51Y613D01*
X53Y613D02*
X60Y613D01*
X1705Y613D02*
X1712Y613D01*
X1719Y613D02*
X1727Y613D01*
X44Y612D02*
X51Y612D01*
X53Y612D02*
X61Y612D01*
X1705Y612D02*
X1712Y612D01*
X1719Y612D02*
X1726Y612D01*
X44Y611D02*
X51Y611D01*
X54Y611D02*
X61Y611D01*
X1704Y611D02*
X1712Y611D01*
X1719Y611D02*
X1726Y611D01*
X44Y610D02*
X52Y610D01*
X54Y610D02*
X61Y610D01*
X1704Y610D02*
X1711Y610D01*
X1718Y610D02*
X1726Y610D01*
X45Y609D02*
X52Y609D01*
X54Y609D02*
X62Y609D01*
X1704Y609D02*
X1711Y609D01*
X1718Y609D02*
X1725Y609D01*
X45Y608D02*
X52Y608D01*
X55Y608D02*
X62Y608D01*
X1703Y608D02*
X1711Y608D01*
X1718Y608D02*
X1725Y608D01*
X45Y607D02*
X53Y607D01*
X55Y607D02*
X62Y607D01*
X1703Y607D02*
X1710Y607D01*
X1717Y607D02*
X1725Y607D01*
X46Y606D02*
X53Y606D01*
X55Y606D02*
X63Y606D01*
X1703Y606D02*
X1710Y606D01*
X1717Y606D02*
X1724Y606D01*
X46Y605D02*
X53Y605D01*
X56Y605D02*
X63Y605D01*
X1702Y605D02*
X1710Y605D01*
X1717Y605D02*
X1724Y605D01*
X46Y604D02*
X54Y604D01*
X56Y604D02*
X63Y604D01*
X1702Y604D02*
X1709Y604D01*
X1716Y604D02*
X1724Y604D01*
X47Y603D02*
X54Y603D01*
X56Y603D02*
X64Y603D01*
X1702Y603D02*
X1709Y603D01*
X1716Y603D02*
X1723Y603D01*
X47Y602D02*
X54Y602D01*
X57Y602D02*
X64Y602D01*
X1701Y602D02*
X1709Y602D01*
X1716Y602D02*
X1723Y602D01*
X47Y601D02*
X55Y601D01*
X57Y601D02*
X64Y601D01*
X1701Y601D02*
X1708Y601D01*
X1715Y601D02*
X1723Y601D01*
X48Y600D02*
X55Y600D01*
X57Y600D02*
X65Y600D01*
X1701Y600D02*
X1708Y600D01*
X1715Y600D02*
X1722Y600D01*
X48Y599D02*
X55Y599D01*
X58Y599D02*
X65Y599D01*
X1700Y599D02*
X1708Y599D01*
X1715Y599D02*
X1722Y599D01*
X48Y598D02*
X56Y598D01*
X58Y598D02*
X65Y598D01*
X1700Y598D02*
X1707Y598D01*
X1714Y598D02*
X1722Y598D01*
X49Y597D02*
X56Y597D01*
X58Y597D02*
X66Y597D01*
X1700Y597D02*
X1707Y597D01*
X1714Y597D02*
X1721Y597D01*
X49Y596D02*
X56Y596D01*
X59Y596D02*
X66Y596D01*
X1699Y596D02*
X1707Y596D01*
X1714Y596D02*
X1721Y596D01*
X49Y595D02*
X57Y595D01*
X59Y595D02*
X66Y595D01*
X1699Y595D02*
X1706Y595D01*
X1713Y595D02*
X1721Y595D01*
X50Y594D02*
X57Y594D01*
X59Y594D02*
X67Y594D01*
X1699Y594D02*
X1706Y594D01*
X1713Y594D02*
X1720Y594D01*
X50Y593D02*
X57Y593D01*
X60Y593D02*
X67Y593D01*
X1698Y593D02*
X1706Y593D01*
X1713Y593D02*
X1720Y593D01*
X50Y592D02*
X58Y592D01*
X60Y592D02*
X67Y592D01*
X1698Y592D02*
X1705Y592D01*
X1712Y592D02*
X1720Y592D01*
X51Y591D02*
X58Y591D01*
X61Y591D02*
X68Y591D01*
X1697Y591D02*
X1705Y591D01*
X1712Y591D02*
X1719Y591D01*
X51Y590D02*
X59Y590D01*
X61Y590D02*
X68Y590D01*
X1697Y590D02*
X1704Y590D01*
X1711Y590D02*
X1719Y590D01*
X52Y589D02*
X59Y589D01*
X61Y589D02*
X69Y589D01*
X1697Y589D02*
X1704Y589D01*
X1711Y589D02*
X1718Y589D01*
X52Y588D02*
X59Y588D01*
X62Y588D02*
X69Y588D01*
X1696Y588D02*
X1704Y588D01*
X1711Y588D02*
X1718Y588D01*
X52Y587D02*
X60Y587D01*
X62Y587D02*
X69Y587D01*
X1696Y587D02*
X1703Y587D01*
X1710Y587D02*
X1718Y587D01*
X53Y586D02*
X60Y586D01*
X62Y586D02*
X70Y586D01*
X1696Y586D02*
X1703Y586D01*
X1710Y586D02*
X1717Y586D01*
X53Y585D02*
X60Y585D01*
X63Y585D02*
X70Y585D01*
X1695Y585D02*
X1703Y585D01*
X1710Y585D02*
X1717Y585D01*
X53Y584D02*
X61Y584D01*
X63Y584D02*
X70Y584D01*
X1695Y584D02*
X1702Y584D01*
X1709Y584D02*
X1717Y584D01*
X54Y583D02*
X61Y583D01*
X64Y583D02*
X71Y583D01*
X1694Y583D02*
X1702Y583D01*
X1709Y583D02*
X1716Y583D01*
X54Y582D02*
X61Y582D01*
X64Y582D02*
X71Y582D01*
X1694Y582D02*
X1702Y582D01*
X1709Y582D02*
X1716Y582D01*
X54Y581D02*
X62Y581D01*
X64Y581D02*
X72Y581D01*
X1694Y581D02*
X1701Y581D01*
X1708Y581D02*
X1716Y581D01*
X55Y580D02*
X62Y580D01*
X65Y580D02*
X72Y580D01*
X1693Y580D02*
X1701Y580D01*
X1708Y580D02*
X1715Y580D01*
X55Y579D02*
X63Y579D01*
X65Y579D02*
X72Y579D01*
X1693Y579D02*
X1700Y579D01*
X1707Y579D02*
X1715Y579D01*
X56Y578D02*
X63Y578D01*
X65Y578D02*
X73Y578D01*
X1693Y578D02*
X1700Y578D01*
X1707Y578D02*
X1714Y578D01*
X56Y577D02*
X63Y577D01*
X66Y577D02*
X73Y577D01*
X1692Y577D02*
X1700Y577D01*
X1707Y577D02*
X1714Y577D01*
X56Y576D02*
X64Y576D01*
X66Y576D02*
X73Y576D01*
X1692Y576D02*
X1699Y576D01*
X1706Y576D02*
X1714Y576D01*
X57Y575D02*
X64Y575D01*
X67Y575D02*
X74Y575D01*
X1691Y575D02*
X1699Y575D01*
X1706Y575D02*
X1713Y575D01*
X57Y574D02*
X64Y574D01*
X67Y574D02*
X74Y574D01*
X1691Y574D02*
X1698Y574D01*
X1706Y574D02*
X1713Y574D01*
X57Y573D02*
X65Y573D01*
X67Y573D02*
X75Y573D01*
X1691Y573D02*
X1698Y573D01*
X1705Y573D02*
X1713Y573D01*
X58Y572D02*
X65Y572D01*
X68Y572D02*
X75Y572D01*
X1690Y572D02*
X1698Y572D01*
X1705Y572D02*
X1712Y572D01*
X58Y571D02*
X66Y571D01*
X68Y571D02*
X75Y571D01*
X1690Y571D02*
X1697Y571D01*
X1704Y571D02*
X1712Y571D01*
X59Y570D02*
X66Y570D01*
X68Y570D02*
X76Y570D01*
X1689Y570D02*
X1697Y570D01*
X1704Y570D02*
X1711Y570D01*
X59Y569D02*
X66Y569D01*
X69Y569D02*
X76Y569D01*
X1689Y569D02*
X1697Y569D01*
X1704Y569D02*
X1711Y569D01*
X59Y568D02*
X67Y568D01*
X69Y568D02*
X77Y568D01*
X1689Y568D02*
X1696Y568D01*
X1703Y568D02*
X1711Y568D01*
X60Y567D02*
X67Y567D01*
X70Y567D02*
X77Y567D01*
X1688Y567D02*
X1696Y567D01*
X1703Y567D02*
X1710Y567D01*
X60Y566D02*
X67Y566D01*
X70Y566D02*
X77Y566D01*
X1688Y566D02*
X1695Y566D01*
X1703Y566D02*
X1710Y566D01*
X60Y565D02*
X68Y565D01*
X70Y565D02*
X78Y565D01*
X1687Y565D02*
X1695Y565D01*
X1702Y565D02*
X1710Y565D01*
X61Y564D02*
X68Y564D01*
X71Y564D02*
X78Y564D01*
X1687Y564D02*
X1695Y564D01*
X1702Y564D02*
X1709Y564D01*
X61Y563D02*
X69Y563D01*
X71Y563D02*
X79Y563D01*
X1687Y563D02*
X1694Y563D01*
X1701Y563D02*
X1709Y563D01*
X62Y562D02*
X69Y562D01*
X72Y562D02*
X79Y562D01*
X1686Y562D02*
X1694Y562D01*
X1701Y562D02*
X1708Y562D01*
X62Y561D02*
X70Y561D01*
X72Y561D02*
X79Y561D01*
X1686Y561D02*
X1693Y561D01*
X1700Y561D02*
X1708Y561D01*
X62Y560D02*
X70Y560D01*
X73Y560D02*
X80Y560D01*
X1685Y560D02*
X1693Y560D01*
X1700Y560D02*
X1708Y560D01*
X63Y559D02*
X70Y559D01*
X73Y559D02*
X80Y559D01*
X1685Y559D02*
X1693Y559D01*
X1700Y559D02*
X1707Y559D01*
X63Y558D02*
X71Y558D01*
X73Y558D02*
X81Y558D01*
X1685Y558D02*
X1692Y558D01*
X1699Y558D02*
X1707Y558D01*
X64Y557D02*
X71Y557D01*
X74Y557D02*
X81Y557D01*
X1684Y557D02*
X1692Y557D01*
X1699Y557D02*
X1706Y557D01*
X64Y556D02*
X72Y556D01*
X74Y556D02*
X82Y556D01*
X1684Y556D02*
X1691Y556D01*
X1698Y556D02*
X1706Y556D01*
X64Y555D02*
X72Y555D01*
X75Y555D02*
X82Y555D01*
X1683Y555D02*
X1691Y555D01*
X1698Y555D02*
X1706Y555D01*
X65Y554D02*
X72Y554D01*
X75Y554D02*
X82Y554D01*
X1683Y554D02*
X1691Y554D01*
X1698Y554D02*
X1705Y554D01*
X65Y553D02*
X73Y553D01*
X75Y553D02*
X83Y553D01*
X1683Y553D02*
X1690Y553D01*
X1697Y553D02*
X1705Y553D01*
X66Y552D02*
X73Y552D01*
X76Y552D02*
X83Y552D01*
X1682Y552D02*
X1690Y552D01*
X1697Y552D02*
X1704Y552D01*
X66Y551D02*
X74Y551D01*
X76Y551D02*
X84Y551D01*
X1682Y551D02*
X1689Y551D01*
X1696Y551D02*
X1704Y551D01*
X67Y550D02*
X74Y550D01*
X77Y550D02*
X84Y550D01*
X1681Y550D02*
X1689Y550D01*
X1696Y550D02*
X1703Y550D01*
X67Y549D02*
X74Y549D01*
X77Y549D02*
X84Y549D01*
X1681Y549D02*
X1688Y549D01*
X1696Y549D02*
X1703Y549D01*
X67Y548D02*
X75Y548D01*
X77Y548D02*
X85Y548D01*
X1680Y548D02*
X1688Y548D01*
X1695Y548D02*
X1703Y548D01*
X68Y547D02*
X75Y547D01*
X78Y547D02*
X85Y547D01*
X1680Y547D02*
X1688Y547D01*
X1695Y547D02*
X1702Y547D01*
X68Y546D02*
X76Y546D01*
X78Y546D02*
X86Y546D01*
X1680Y546D02*
X1687Y546D01*
X1694Y546D02*
X1702Y546D01*
X69Y545D02*
X76Y545D01*
X79Y545D02*
X86Y545D01*
X1679Y545D02*
X1687Y545D01*
X1694Y545D02*
X1701Y545D01*
X69Y544D02*
X76Y544D01*
X79Y544D02*
X87Y544D01*
X1679Y544D02*
X1686Y544D01*
X1693Y544D02*
X1701Y544D01*
X69Y543D02*
X77Y543D01*
X80Y543D02*
X87Y543D01*
X1678Y543D02*
X1686Y543D01*
X1693Y543D02*
X1701Y543D01*
X70Y542D02*
X77Y542D01*
X80Y542D02*
X87Y542D01*
X1678Y542D02*
X1685Y542D01*
X1693Y542D02*
X1700Y542D01*
X70Y541D02*
X78Y541D01*
X80Y541D02*
X88Y541D01*
X1677Y541D02*
X1685Y541D01*
X1692Y541D02*
X1700Y541D01*
X71Y540D02*
X78Y540D01*
X81Y540D02*
X88Y540D01*
X1677Y540D02*
X1685Y540D01*
X1692Y540D02*
X1699Y540D01*
X71Y539D02*
X79Y539D01*
X81Y539D02*
X89Y539D01*
X1677Y539D02*
X1684Y539D01*
X1691Y539D02*
X1699Y539D01*
X72Y538D02*
X79Y538D01*
X82Y538D02*
X89Y538D01*
X1676Y538D02*
X1684Y538D01*
X1691Y538D02*
X1698Y538D01*
X72Y537D02*
X80Y537D01*
X82Y537D02*
X90Y537D01*
X687Y537D02*
X687Y537D01*
X1676Y537D02*
X1683Y537D01*
X1690Y537D02*
X1698Y537D01*
X72Y536D02*
X80Y536D01*
X83Y536D02*
X90Y536D01*
X686Y536D02*
X688Y536D01*
X1675Y536D02*
X1683Y536D01*
X1690Y536D02*
X1698Y536D01*
X73Y535D02*
X80Y535D01*
X83Y535D02*
X91Y535D01*
X685Y535D02*
X689Y535D01*
X1675Y535D02*
X1682Y535D01*
X1690Y535D02*
X1697Y535D01*
X73Y534D02*
X81Y534D01*
X84Y534D02*
X91Y534D01*
X684Y534D02*
X690Y534D01*
X1674Y534D02*
X1682Y534D01*
X1689Y534D02*
X1697Y534D01*
X74Y533D02*
X81Y533D01*
X84Y533D02*
X91Y533D01*
X685Y533D02*
X691Y533D01*
X1674Y533D02*
X1681Y533D01*
X1689Y533D02*
X1696Y533D01*
X74Y532D02*
X82Y532D01*
X84Y532D02*
X92Y532D01*
X686Y532D02*
X692Y532D01*
X1673Y532D02*
X1681Y532D01*
X1688Y532D02*
X1696Y532D01*
X75Y531D02*
X82Y531D01*
X85Y531D02*
X92Y531D01*
X687Y531D02*
X693Y531D01*
X1673Y531D02*
X1681Y531D01*
X1688Y531D02*
X1695Y531D01*
X75Y530D02*
X83Y530D01*
X85Y530D02*
X93Y530D01*
X688Y530D02*
X694Y530D01*
X1672Y530D02*
X1680Y530D01*
X1687Y530D02*
X1695Y530D01*
X75Y529D02*
X83Y529D01*
X86Y529D02*
X93Y529D01*
X689Y529D02*
X695Y529D01*
X1672Y529D02*
X1680Y529D01*
X1687Y529D02*
X1695Y529D01*
X76Y528D02*
X84Y528D01*
X86Y528D02*
X94Y528D01*
X690Y528D02*
X696Y528D01*
X1672Y528D02*
X1679Y528D01*
X1687Y528D02*
X1694Y528D01*
X76Y527D02*
X84Y527D01*
X87Y527D02*
X94Y527D01*
X691Y527D02*
X697Y527D01*
X1671Y527D02*
X1679Y527D01*
X1686Y527D02*
X1694Y527D01*
X77Y526D02*
X84Y526D01*
X87Y526D02*
X94Y526D01*
X692Y526D02*
X698Y526D01*
X1671Y526D02*
X1678Y526D01*
X1686Y526D02*
X1693Y526D01*
X77Y525D02*
X85Y525D01*
X88Y525D02*
X94Y525D01*
X693Y525D02*
X699Y525D01*
X1670Y525D02*
X1678Y525D01*
X1685Y525D02*
X1693Y525D01*
X78Y524D02*
X85Y524D01*
X88Y524D02*
X95Y524D01*
X694Y524D02*
X700Y524D01*
X1670Y524D02*
X1677Y524D01*
X1685Y524D02*
X1692Y524D01*
X78Y523D02*
X86Y523D01*
X88Y523D02*
X95Y523D01*
X695Y523D02*
X701Y523D01*
X1669Y523D02*
X1677Y523D01*
X1684Y523D02*
X1692Y523D01*
X79Y522D02*
X86Y522D01*
X89Y522D02*
X96Y522D01*
X696Y522D02*
X701Y522D01*
X1669Y522D02*
X1677Y522D01*
X1684Y522D02*
X1691Y522D01*
X79Y521D02*
X87Y521D01*
X89Y521D02*
X96Y521D01*
X697Y521D02*
X702Y521D01*
X1668Y521D02*
X1676Y521D01*
X1683Y521D02*
X1691Y521D01*
X80Y520D02*
X87Y520D01*
X90Y520D02*
X97Y520D01*
X698Y520D02*
X703Y520D01*
X1668Y520D02*
X1676Y520D01*
X1683Y520D02*
X1690Y520D01*
X80Y519D02*
X88Y519D01*
X90Y519D02*
X97Y519D01*
X699Y519D02*
X704Y519D01*
X1667Y519D02*
X1675Y519D01*
X1682Y519D02*
X1690Y519D01*
X80Y518D02*
X88Y518D01*
X91Y518D02*
X98Y518D01*
X700Y518D02*
X705Y518D01*
X1667Y518D02*
X1675Y518D01*
X1682Y518D02*
X1690Y518D01*
X81Y517D02*
X89Y517D01*
X91Y517D02*
X98Y517D01*
X701Y517D02*
X706Y517D01*
X1667Y517D02*
X1674Y517D01*
X1681Y517D02*
X1689Y517D01*
X81Y516D02*
X89Y516D01*
X92Y516D02*
X99Y516D01*
X702Y516D02*
X708Y516D01*
X1666Y516D02*
X1674Y516D01*
X1681Y516D02*
X1689Y516D01*
X82Y515D02*
X90Y515D01*
X92Y515D02*
X100Y515D01*
X703Y515D02*
X709Y515D01*
X1666Y515D02*
X1673Y515D01*
X1680Y515D02*
X1688Y515D01*
X82Y514D02*
X90Y514D01*
X93Y514D02*
X100Y514D01*
X704Y514D02*
X710Y514D01*
X1665Y514D02*
X1673Y514D01*
X1680Y514D02*
X1688Y514D01*
X83Y513D02*
X90Y513D01*
X93Y513D02*
X101Y513D01*
X705Y513D02*
X711Y513D01*
X1665Y513D02*
X1672Y513D01*
X1680Y513D02*
X1687Y513D01*
X83Y512D02*
X91Y512D01*
X94Y512D02*
X101Y512D01*
X706Y512D02*
X712Y512D01*
X1664Y512D02*
X1672Y512D01*
X1679Y512D02*
X1687Y512D01*
X84Y511D02*
X91Y511D01*
X94Y511D02*
X102Y511D01*
X707Y511D02*
X713Y511D01*
X1664Y511D02*
X1671Y511D01*
X1679Y511D02*
X1686Y511D01*
X84Y510D02*
X92Y510D01*
X95Y510D02*
X102Y510D01*
X708Y510D02*
X714Y510D01*
X1663Y510D02*
X1671Y510D01*
X1678Y510D02*
X1686Y510D01*
X85Y509D02*
X92Y509D01*
X95Y509D02*
X103Y509D01*
X709Y509D02*
X715Y509D01*
X1663Y509D02*
X1670Y509D01*
X1678Y509D02*
X1685Y509D01*
X85Y508D02*
X93Y508D01*
X96Y508D02*
X103Y508D01*
X710Y508D02*
X716Y508D01*
X1662Y508D02*
X1670Y508D01*
X1677Y508D02*
X1685Y508D01*
X86Y507D02*
X93Y507D01*
X96Y507D02*
X104Y507D01*
X711Y507D02*
X717Y507D01*
X1662Y507D02*
X1669Y507D01*
X1677Y507D02*
X1684Y507D01*
X86Y506D02*
X94Y506D01*
X97Y506D02*
X104Y506D01*
X712Y506D02*
X718Y506D01*
X1661Y506D02*
X1669Y506D01*
X1676Y506D02*
X1684Y506D01*
X87Y505D02*
X94Y505D01*
X97Y505D02*
X105Y505D01*
X713Y505D02*
X719Y505D01*
X1661Y505D02*
X1668Y505D01*
X1676Y505D02*
X1683Y505D01*
X87Y504D02*
X95Y504D01*
X98Y504D02*
X105Y504D01*
X714Y504D02*
X720Y504D01*
X1660Y504D02*
X1668Y504D01*
X1675Y504D02*
X1683Y504D01*
X87Y503D02*
X95Y503D01*
X98Y503D02*
X106Y503D01*
X715Y503D02*
X721Y503D01*
X1660Y503D02*
X1667Y503D01*
X1675Y503D02*
X1683Y503D01*
X88Y502D02*
X96Y502D01*
X98Y502D02*
X106Y502D01*
X716Y502D02*
X721Y502D01*
X1659Y502D02*
X1667Y502D01*
X1674Y502D02*
X1682Y502D01*
X88Y501D02*
X96Y501D01*
X99Y501D02*
X107Y501D01*
X717Y501D02*
X720Y501D01*
X1659Y501D02*
X1666Y501D01*
X1674Y501D02*
X1682Y501D01*
X89Y500D02*
X97Y500D01*
X99Y500D02*
X107Y500D01*
X718Y500D02*
X719Y500D01*
X1658Y500D02*
X1666Y500D01*
X1673Y500D02*
X1681Y500D01*
X89Y499D02*
X97Y499D01*
X100Y499D02*
X108Y499D01*
X1658Y499D02*
X1665Y499D01*
X1673Y499D02*
X1681Y499D01*
X90Y498D02*
X98Y498D01*
X100Y498D02*
X108Y498D01*
X1657Y498D02*
X1665Y498D01*
X1672Y498D02*
X1680Y498D01*
X90Y497D02*
X98Y497D01*
X101Y497D02*
X109Y497D01*
X1657Y497D02*
X1664Y497D01*
X1672Y497D02*
X1680Y497D01*
X91Y496D02*
X99Y496D01*
X101Y496D02*
X109Y496D01*
X1656Y496D02*
X1664Y496D01*
X1671Y496D02*
X1679Y496D01*
X91Y495D02*
X99Y495D01*
X102Y495D02*
X110Y495D01*
X1656Y495D02*
X1663Y495D01*
X1671Y495D02*
X1679Y495D01*
X92Y494D02*
X100Y494D01*
X102Y494D02*
X110Y494D01*
X1655Y494D02*
X1663Y494D01*
X1670Y494D02*
X1678Y494D01*
X92Y493D02*
X100Y493D01*
X103Y493D02*
X111Y493D01*
X1655Y493D02*
X1662Y493D01*
X1670Y493D02*
X1678Y493D01*
X93Y492D02*
X101Y492D01*
X103Y492D02*
X111Y492D01*
X1654Y492D02*
X1662Y492D01*
X1669Y492D02*
X1677Y492D01*
X93Y491D02*
X101Y491D01*
X104Y491D02*
X112Y491D01*
X1654Y491D02*
X1661Y491D01*
X1669Y491D02*
X1677Y491D01*
X94Y490D02*
X102Y490D01*
X104Y490D02*
X112Y490D01*
X1653Y490D02*
X1661Y490D01*
X1668Y490D02*
X1676Y490D01*
X94Y489D02*
X102Y489D01*
X105Y489D02*
X113Y489D01*
X1653Y489D02*
X1660Y489D01*
X1668Y489D02*
X1676Y489D01*
X95Y488D02*
X103Y488D01*
X105Y488D02*
X113Y488D01*
X1652Y488D02*
X1660Y488D01*
X1667Y488D02*
X1675Y488D01*
X95Y487D02*
X103Y487D01*
X106Y487D02*
X114Y487D01*
X1652Y487D02*
X1659Y487D01*
X1667Y487D02*
X1675Y487D01*
X96Y486D02*
X104Y486D01*
X107Y486D02*
X114Y486D01*
X1651Y486D02*
X1659Y486D01*
X1666Y486D02*
X1674Y486D01*
X96Y485D02*
X104Y485D01*
X107Y485D02*
X115Y485D01*
X1650Y485D02*
X1658Y485D01*
X1666Y485D02*
X1674Y485D01*
X97Y484D02*
X105Y484D01*
X108Y484D02*
X115Y484D01*
X1650Y484D02*
X1658Y484D01*
X1665Y484D02*
X1673Y484D01*
X97Y483D02*
X105Y483D01*
X108Y483D02*
X116Y483D01*
X1649Y483D02*
X1657Y483D01*
X1665Y483D02*
X1673Y483D01*
X98Y482D02*
X106Y482D01*
X109Y482D02*
X116Y482D01*
X1649Y482D02*
X1657Y482D01*
X1664Y482D02*
X1672Y482D01*
X98Y481D02*
X106Y481D01*
X109Y481D02*
X117Y481D01*
X1648Y481D02*
X1656Y481D01*
X1664Y481D02*
X1672Y481D01*
X99Y480D02*
X107Y480D01*
X110Y480D02*
X117Y480D01*
X1648Y480D02*
X1656Y480D01*
X1663Y480D02*
X1671Y480D01*
X100Y479D02*
X107Y479D01*
X110Y479D02*
X118Y479D01*
X1647Y479D02*
X1655Y479D01*
X1663Y479D02*
X1670Y479D01*
X100Y478D02*
X108Y478D01*
X111Y478D02*
X119Y478D01*
X1647Y478D02*
X1655Y478D01*
X1662Y478D02*
X1670Y478D01*
X101Y477D02*
X108Y477D01*
X111Y477D02*
X119Y477D01*
X1646Y477D02*
X1654Y477D01*
X1662Y477D02*
X1669Y477D01*
X101Y476D02*
X109Y476D01*
X112Y476D02*
X120Y476D01*
X1646Y476D02*
X1654Y476D01*
X1661Y476D02*
X1669Y476D01*
X102Y475D02*
X110Y475D01*
X112Y475D02*
X120Y475D01*
X1645Y475D02*
X1653Y475D01*
X1660Y475D02*
X1668Y475D01*
X102Y474D02*
X110Y474D01*
X113Y474D02*
X121Y474D01*
X1645Y474D02*
X1652Y474D01*
X1660Y474D02*
X1668Y474D01*
X103Y473D02*
X111Y473D01*
X113Y473D02*
X121Y473D01*
X1644Y473D02*
X1652Y473D01*
X1659Y473D02*
X1667Y473D01*
X103Y472D02*
X111Y472D01*
X114Y472D02*
X122Y472D01*
X1644Y472D02*
X1651Y472D01*
X1659Y472D02*
X1667Y472D01*
X104Y471D02*
X112Y471D01*
X114Y471D02*
X122Y471D01*
X1643Y471D02*
X1651Y471D01*
X1658Y471D02*
X1666Y471D01*
X104Y470D02*
X112Y470D01*
X115Y470D02*
X123Y470D01*
X1642Y470D02*
X1650Y470D01*
X1658Y470D02*
X1666Y470D01*
X105Y469D02*
X113Y469D01*
X116Y469D02*
X123Y469D01*
X1642Y469D02*
X1650Y469D01*
X1657Y469D02*
X1665Y469D01*
X105Y468D02*
X113Y468D01*
X116Y468D02*
X124Y468D01*
X1641Y468D02*
X1649Y468D01*
X1657Y468D02*
X1665Y468D01*
X106Y467D02*
X114Y467D01*
X117Y467D02*
X124Y467D01*
X1641Y467D02*
X1649Y467D01*
X1656Y467D02*
X1664Y467D01*
X106Y466D02*
X114Y466D01*
X117Y466D02*
X125Y466D01*
X1640Y466D02*
X1648Y466D01*
X1656Y466D02*
X1664Y466D01*
X107Y465D02*
X115Y465D01*
X118Y465D02*
X126Y465D01*
X1640Y465D02*
X1648Y465D01*
X1655Y465D02*
X1663Y465D01*
X107Y464D02*
X115Y464D01*
X118Y464D02*
X126Y464D01*
X1639Y464D02*
X1647Y464D01*
X1655Y464D02*
X1663Y464D01*
X108Y463D02*
X116Y463D01*
X119Y463D02*
X127Y463D01*
X1639Y463D02*
X1647Y463D01*
X1654Y463D02*
X1662Y463D01*
X109Y462D02*
X117Y462D01*
X119Y462D02*
X127Y462D01*
X1638Y462D02*
X1646Y462D01*
X1653Y462D02*
X1661Y462D01*
X109Y461D02*
X117Y461D01*
X120Y461D02*
X128Y461D01*
X1637Y461D02*
X1645Y461D01*
X1653Y461D02*
X1661Y461D01*
X110Y460D02*
X118Y460D01*
X121Y460D02*
X128Y460D01*
X1637Y460D02*
X1645Y460D01*
X1652Y460D02*
X1660Y460D01*
X110Y459D02*
X118Y459D01*
X121Y459D02*
X129Y459D01*
X1636Y459D02*
X1644Y459D01*
X1652Y459D02*
X1660Y459D01*
X111Y458D02*
X119Y458D01*
X122Y458D02*
X130Y458D01*
X1636Y458D02*
X1644Y458D01*
X1651Y458D02*
X1659Y458D01*
X111Y457D02*
X119Y457D01*
X122Y457D02*
X130Y457D01*
X1635Y457D02*
X1643Y457D01*
X1651Y457D02*
X1659Y457D01*
X112Y456D02*
X120Y456D01*
X123Y456D02*
X131Y456D01*
X1635Y456D02*
X1643Y456D01*
X1650Y456D02*
X1658Y456D01*
X112Y455D02*
X121Y455D01*
X123Y455D02*
X131Y455D01*
X1634Y455D02*
X1642Y455D01*
X1649Y455D02*
X1658Y455D01*
X113Y454D02*
X121Y454D01*
X124Y454D02*
X132Y454D01*
X1633Y454D02*
X1641Y454D01*
X1649Y454D02*
X1657Y454D01*
X114Y453D02*
X122Y453D01*
X125Y453D02*
X132Y453D01*
X1633Y453D02*
X1641Y453D01*
X1648Y453D02*
X1656Y453D01*
X114Y452D02*
X122Y452D01*
X125Y452D02*
X133Y452D01*
X1632Y452D02*
X1640Y452D01*
X1648Y452D02*
X1656Y452D01*
X115Y451D02*
X123Y451D01*
X126Y451D02*
X134Y451D01*
X1632Y451D02*
X1640Y451D01*
X1647Y451D02*
X1655Y451D01*
X115Y450D02*
X123Y450D01*
X126Y450D02*
X134Y450D01*
X1631Y450D02*
X1639Y450D01*
X1647Y450D02*
X1655Y450D01*
X116Y449D02*
X124Y449D01*
X127Y449D02*
X135Y449D01*
X1630Y449D02*
X1638Y449D01*
X1646Y449D02*
X1654Y449D01*
X116Y448D02*
X125Y448D01*
X127Y448D02*
X135Y448D01*
X1630Y448D02*
X1638Y448D01*
X1646Y448D02*
X1654Y448D01*
X117Y447D02*
X125Y447D01*
X128Y447D02*
X136Y447D01*
X1629Y447D02*
X1637Y447D01*
X1645Y447D02*
X1653Y447D01*
X118Y446D02*
X126Y446D01*
X129Y446D02*
X137Y446D01*
X1629Y446D02*
X1637Y446D01*
X1644Y446D02*
X1652Y446D01*
X118Y445D02*
X126Y445D01*
X129Y445D02*
X137Y445D01*
X1628Y445D02*
X1636Y445D01*
X1644Y445D02*
X1652Y445D01*
X119Y444D02*
X127Y444D01*
X130Y444D02*
X138Y444D01*
X1628Y444D02*
X1636Y444D01*
X1643Y444D02*
X1651Y444D01*
X119Y443D02*
X127Y443D01*
X130Y443D02*
X138Y443D01*
X1627Y443D02*
X1635Y443D01*
X1643Y443D02*
X1651Y443D01*
X120Y442D02*
X128Y442D01*
X131Y442D02*
X139Y442D01*
X1626Y442D02*
X1634Y442D01*
X1642Y442D02*
X1650Y442D01*
X120Y441D02*
X129Y441D01*
X131Y441D02*
X140Y441D01*
X1626Y441D02*
X1634Y441D01*
X1641Y441D02*
X1650Y441D01*
X121Y440D02*
X129Y440D01*
X132Y440D02*
X140Y440D01*
X1625Y440D02*
X1633Y440D01*
X1641Y440D02*
X1649Y440D01*
X122Y439D02*
X130Y439D01*
X133Y439D02*
X141Y439D01*
X1625Y439D02*
X1633Y439D01*
X1640Y439D02*
X1648Y439D01*
X122Y438D02*
X130Y438D01*
X133Y438D02*
X141Y438D01*
X1624Y438D02*
X1632Y438D01*
X1640Y438D02*
X1648Y438D01*
X123Y437D02*
X131Y437D01*
X134Y437D02*
X142Y437D01*
X1623Y437D02*
X1631Y437D01*
X1639Y437D02*
X1647Y437D01*
X123Y436D02*
X132Y436D01*
X134Y436D02*
X143Y436D01*
X1623Y436D02*
X1631Y436D01*
X1638Y436D02*
X1647Y436D01*
X124Y435D02*
X132Y435D01*
X135Y435D02*
X143Y435D01*
X1622Y435D02*
X1630Y435D01*
X1638Y435D02*
X1646Y435D01*
X125Y434D02*
X133Y434D01*
X136Y434D02*
X144Y434D01*
X1621Y434D02*
X1630Y434D01*
X1637Y434D02*
X1645Y434D01*
X125Y433D02*
X133Y433D01*
X136Y433D02*
X144Y433D01*
X1621Y433D02*
X1629Y433D01*
X1637Y433D02*
X1645Y433D01*
X126Y432D02*
X134Y432D01*
X137Y432D02*
X145Y432D01*
X1620Y432D02*
X1628Y432D01*
X1636Y432D02*
X1644Y432D01*
X126Y431D02*
X135Y431D01*
X138Y431D02*
X146Y431D01*
X1620Y431D02*
X1628Y431D01*
X1635Y431D02*
X1644Y431D01*
X127Y430D02*
X135Y430D01*
X138Y430D02*
X146Y430D01*
X1619Y430D02*
X1627Y430D01*
X1635Y430D02*
X1643Y430D01*
X128Y429D02*
X136Y429D01*
X139Y429D02*
X147Y429D01*
X1618Y429D02*
X1626Y429D01*
X1634Y429D02*
X1642Y429D01*
X128Y428D02*
X136Y428D01*
X139Y428D02*
X148Y428D01*
X1618Y428D02*
X1626Y428D01*
X1634Y428D02*
X1642Y428D01*
X129Y427D02*
X137Y427D01*
X140Y427D02*
X148Y427D01*
X1617Y427D02*
X1625Y427D01*
X1633Y427D02*
X1641Y427D01*
X129Y426D02*
X138Y426D01*
X141Y426D02*
X149Y426D01*
X1616Y426D02*
X1625Y426D01*
X1632Y426D02*
X1641Y426D01*
X130Y425D02*
X138Y425D01*
X141Y425D02*
X149Y425D01*
X1616Y425D02*
X1624Y425D01*
X1632Y425D02*
X1640Y425D01*
X131Y424D02*
X139Y424D01*
X142Y424D02*
X150Y424D01*
X1615Y424D02*
X1623Y424D01*
X1631Y424D02*
X1639Y424D01*
X131Y423D02*
X140Y423D01*
X142Y423D02*
X151Y423D01*
X1615Y423D02*
X1623Y423D01*
X1630Y423D02*
X1639Y423D01*
X132Y422D02*
X140Y422D01*
X143Y422D02*
X151Y422D01*
X1614Y422D02*
X1622Y422D01*
X1630Y422D02*
X1638Y422D01*
X133Y421D02*
X141Y421D01*
X144Y421D02*
X152Y421D01*
X1613Y421D02*
X1622Y421D01*
X1629Y421D02*
X1637Y421D01*
X133Y420D02*
X141Y420D01*
X144Y420D02*
X153Y420D01*
X1613Y420D02*
X1621Y420D01*
X1629Y420D02*
X1637Y420D01*
X134Y419D02*
X142Y419D01*
X145Y419D02*
X153Y419D01*
X1612Y419D02*
X1620Y419D01*
X1628Y419D02*
X1636Y419D01*
X134Y418D02*
X143Y418D01*
X146Y418D02*
X154Y418D01*
X1612Y418D02*
X1620Y418D01*
X1627Y418D02*
X1636Y418D01*
X135Y417D02*
X143Y417D01*
X146Y417D02*
X155Y417D01*
X1611Y417D02*
X1619Y417D01*
X1627Y417D02*
X1635Y417D01*
X136Y416D02*
X144Y416D01*
X147Y416D02*
X155Y416D01*
X1610Y416D02*
X1618Y416D01*
X1626Y416D02*
X1634Y416D01*
X136Y415D02*
X145Y415D01*
X147Y415D02*
X156Y415D01*
X1610Y415D02*
X1618Y415D01*
X1625Y415D02*
X1634Y415D01*
X137Y414D02*
X145Y414D01*
X148Y414D02*
X157Y414D01*
X1609Y414D02*
X1617Y414D01*
X1625Y414D02*
X1633Y414D01*
X138Y413D02*
X146Y413D01*
X149Y413D02*
X157Y413D01*
X1608Y413D02*
X1616Y413D01*
X1624Y413D02*
X1632Y413D01*
X138Y412D02*
X147Y412D01*
X149Y412D02*
X158Y412D01*
X1608Y412D02*
X1616Y412D01*
X1623Y412D02*
X1632Y412D01*
X139Y411D02*
X147Y411D01*
X150Y411D02*
X159Y411D01*
X1607Y411D02*
X1615Y411D01*
X1623Y411D02*
X1631Y411D01*
X139Y410D02*
X148Y410D01*
X151Y410D02*
X159Y410D01*
X1606Y410D02*
X1614Y410D01*
X1622Y410D02*
X1631Y410D01*
X140Y409D02*
X149Y409D01*
X151Y409D02*
X160Y409D01*
X1605Y409D02*
X1614Y409D01*
X1622Y409D02*
X1630Y409D01*
X141Y408D02*
X149Y408D01*
X152Y408D02*
X161Y408D01*
X1605Y408D02*
X1613Y408D01*
X1621Y408D02*
X1629Y408D01*
X141Y407D02*
X150Y407D01*
X153Y407D02*
X161Y407D01*
X1604Y407D02*
X1612Y407D01*
X1620Y407D02*
X1629Y407D01*
X142Y406D02*
X150Y406D01*
X153Y406D02*
X162Y406D01*
X1603Y406D02*
X1612Y406D01*
X1620Y406D02*
X1628Y406D01*
X143Y405D02*
X151Y405D01*
X154Y405D02*
X162Y405D01*
X1603Y405D02*
X1611Y405D01*
X1619Y405D02*
X1627Y405D01*
X143Y404D02*
X152Y404D01*
X155Y404D02*
X163Y404D01*
X1602Y404D02*
X1610Y404D01*
X1618Y404D02*
X1627Y404D01*
X144Y403D02*
X152Y403D01*
X155Y403D02*
X164Y403D01*
X1601Y403D02*
X1610Y403D01*
X1618Y403D02*
X1626Y403D01*
X145Y402D02*
X153Y402D01*
X156Y402D02*
X164Y402D01*
X1601Y402D02*
X1609Y402D01*
X1617Y402D02*
X1625Y402D01*
X145Y401D02*
X154Y401D01*
X157Y401D02*
X165Y401D01*
X1600Y401D02*
X1608Y401D01*
X1616Y401D02*
X1625Y401D01*
X146Y400D02*
X154Y400D01*
X157Y400D02*
X166Y400D01*
X1599Y400D02*
X1608Y400D01*
X1616Y400D02*
X1624Y400D01*
X147Y399D02*
X155Y399D01*
X158Y399D02*
X166Y399D01*
X1599Y399D02*
X1607Y399D01*
X1615Y399D02*
X1623Y399D01*
X147Y398D02*
X156Y398D01*
X159Y398D02*
X167Y398D01*
X1598Y398D02*
X1606Y398D01*
X1614Y398D02*
X1623Y398D01*
X148Y397D02*
X156Y397D01*
X159Y397D02*
X168Y397D01*
X1597Y397D02*
X1606Y397D01*
X1614Y397D02*
X1622Y397D01*
X149Y396D02*
X157Y396D01*
X160Y396D02*
X169Y396D01*
X1597Y396D02*
X1605Y396D01*
X1613Y396D02*
X1621Y396D01*
X149Y395D02*
X158Y395D01*
X161Y395D02*
X169Y395D01*
X1596Y395D02*
X1604Y395D01*
X1612Y395D02*
X1621Y395D01*
X150Y394D02*
X158Y394D01*
X161Y394D02*
X170Y394D01*
X1595Y394D02*
X1604Y394D01*
X1612Y394D02*
X1620Y394D01*
X151Y393D02*
X159Y393D01*
X162Y393D02*
X171Y393D01*
X1595Y393D02*
X1603Y393D01*
X1611Y393D02*
X1619Y393D01*
X151Y392D02*
X160Y392D01*
X163Y392D02*
X171Y392D01*
X1594Y392D02*
X1602Y392D01*
X1610Y392D02*
X1619Y392D01*
X152Y391D02*
X161Y391D01*
X163Y391D02*
X172Y391D01*
X1593Y391D02*
X1602Y391D01*
X1609Y391D02*
X1618Y391D01*
X153Y390D02*
X161Y390D01*
X164Y390D02*
X173Y390D01*
X1593Y390D02*
X1601Y390D01*
X1609Y390D02*
X1617Y390D01*
X153Y389D02*
X162Y389D01*
X165Y389D02*
X174Y389D01*
X1592Y389D02*
X1600Y389D01*
X1608Y389D02*
X1617Y389D01*
X154Y388D02*
X163Y388D01*
X166Y388D02*
X174Y388D01*
X1591Y388D02*
X1600Y388D01*
X1607Y388D02*
X1616Y388D01*
X155Y387D02*
X163Y387D01*
X166Y387D02*
X175Y387D01*
X1590Y387D02*
X1599Y387D01*
X1607Y387D02*
X1615Y387D01*
X155Y386D02*
X164Y386D01*
X167Y386D02*
X176Y386D01*
X1590Y386D02*
X1598Y386D01*
X1606Y386D02*
X1615Y386D01*
X156Y385D02*
X165Y385D01*
X168Y385D02*
X176Y385D01*
X1589Y385D02*
X1598Y385D01*
X1605Y385D02*
X1614Y385D01*
X157Y384D02*
X165Y384D01*
X168Y384D02*
X177Y384D01*
X1588Y384D02*
X1597Y384D01*
X1605Y384D02*
X1613Y384D01*
X157Y383D02*
X166Y383D01*
X169Y383D02*
X178Y383D01*
X1588Y383D02*
X1596Y383D01*
X1604Y383D02*
X1613Y383D01*
X158Y382D02*
X167Y382D01*
X170Y382D02*
X178Y382D01*
X1587Y382D02*
X1595Y382D01*
X1603Y382D02*
X1612Y382D01*
X159Y381D02*
X167Y381D01*
X171Y381D02*
X179Y381D01*
X1586Y381D02*
X1595Y381D01*
X1603Y381D02*
X1611Y381D01*
X160Y380D02*
X168Y380D01*
X171Y380D02*
X180Y380D01*
X1585Y380D02*
X1594Y380D01*
X1602Y380D02*
X1610Y380D01*
X160Y379D02*
X169Y379D01*
X172Y379D02*
X181Y379D01*
X1585Y379D02*
X1593Y379D01*
X1601Y379D02*
X1610Y379D01*
X161Y378D02*
X170Y378D01*
X173Y378D02*
X181Y378D01*
X1584Y378D02*
X1593Y378D01*
X1600Y378D02*
X1609Y378D01*
X162Y377D02*
X170Y377D01*
X173Y377D02*
X182Y377D01*
X1583Y377D02*
X1592Y377D01*
X1600Y377D02*
X1608Y377D01*
X162Y376D02*
X171Y376D01*
X174Y376D02*
X183Y376D01*
X1583Y376D02*
X1591Y376D01*
X1599Y376D02*
X1608Y376D01*
X163Y375D02*
X172Y375D01*
X175Y375D02*
X183Y375D01*
X1582Y375D02*
X1590Y375D01*
X1598Y375D02*
X1607Y375D01*
X164Y374D02*
X173Y374D01*
X176Y374D02*
X184Y374D01*
X1581Y374D02*
X1590Y374D01*
X1597Y374D02*
X1606Y374D01*
X164Y373D02*
X173Y373D01*
X176Y373D02*
X185Y373D01*
X1580Y373D02*
X1589Y373D01*
X1597Y373D02*
X1606Y373D01*
X165Y372D02*
X174Y372D01*
X177Y372D02*
X186Y372D01*
X1580Y372D02*
X1588Y372D01*
X1596Y372D02*
X1605Y372D01*
X166Y371D02*
X175Y371D01*
X178Y371D02*
X186Y371D01*
X1579Y371D02*
X1587Y371D01*
X1595Y371D02*
X1604Y371D01*
X167Y370D02*
X175Y370D01*
X178Y370D02*
X187Y370D01*
X1578Y370D02*
X1587Y370D01*
X1595Y370D02*
X1603Y370D01*
X167Y369D02*
X176Y369D01*
X179Y369D02*
X188Y369D01*
X1577Y369D02*
X1586Y369D01*
X1594Y369D02*
X1603Y369D01*
X168Y368D02*
X177Y368D01*
X180Y368D02*
X189Y368D01*
X1577Y368D02*
X1585Y368D01*
X1593Y368D02*
X1602Y368D01*
X169Y367D02*
X178Y367D01*
X181Y367D02*
X190Y367D01*
X1576Y367D02*
X1585Y367D01*
X1592Y367D02*
X1601Y367D01*
X170Y366D02*
X178Y366D01*
X181Y366D02*
X190Y366D01*
X1575Y366D02*
X1584Y366D01*
X1592Y366D02*
X1600Y366D01*
X170Y365D02*
X179Y365D01*
X182Y365D02*
X191Y365D01*
X1574Y365D02*
X1583Y365D01*
X1591Y365D02*
X1600Y365D01*
X171Y364D02*
X180Y364D01*
X183Y364D02*
X192Y364D01*
X1574Y364D02*
X1582Y364D01*
X1590Y364D02*
X1599Y364D01*
X172Y363D02*
X181Y363D01*
X184Y363D02*
X193Y363D01*
X1573Y363D02*
X1582Y363D01*
X1589Y363D02*
X1598Y363D01*
X172Y362D02*
X181Y362D01*
X184Y362D02*
X193Y362D01*
X1572Y362D02*
X1581Y362D01*
X1589Y362D02*
X1598Y362D01*
X173Y361D02*
X182Y361D01*
X185Y361D02*
X194Y361D01*
X1571Y361D02*
X1580Y361D01*
X1588Y361D02*
X1597Y361D01*
X174Y360D02*
X183Y360D01*
X186Y360D02*
X195Y360D01*
X1571Y360D02*
X1579Y360D01*
X1587Y360D02*
X1596Y360D01*
X175Y359D02*
X184Y359D01*
X187Y359D02*
X196Y359D01*
X1570Y359D02*
X1578Y359D01*
X1586Y359D02*
X1595Y359D01*
X175Y358D02*
X184Y358D01*
X188Y358D02*
X196Y358D01*
X1569Y358D02*
X1578Y358D01*
X1586Y358D02*
X1595Y358D01*
X176Y357D02*
X185Y357D01*
X188Y357D02*
X197Y357D01*
X1568Y357D02*
X1577Y357D01*
X1585Y357D02*
X1594Y357D01*
X177Y356D02*
X186Y356D01*
X189Y356D02*
X198Y356D01*
X1567Y356D02*
X1576Y356D01*
X1584Y356D02*
X1593Y356D01*
X178Y355D02*
X187Y355D01*
X190Y355D02*
X199Y355D01*
X1567Y355D02*
X1575Y355D01*
X1583Y355D02*
X1592Y355D01*
X178Y354D02*
X187Y354D01*
X191Y354D02*
X199Y354D01*
X1566Y354D02*
X1575Y354D01*
X1583Y354D02*
X1592Y354D01*
X179Y353D02*
X188Y353D01*
X191Y353D02*
X200Y353D01*
X1565Y353D02*
X1574Y353D01*
X1582Y353D02*
X1591Y353D01*
X180Y352D02*
X189Y352D01*
X192Y352D02*
X201Y352D01*
X1564Y352D02*
X1573Y352D01*
X1581Y352D02*
X1590Y352D01*
X181Y351D02*
X190Y351D01*
X193Y351D02*
X202Y351D01*
X1564Y351D02*
X1572Y351D01*
X1580Y351D02*
X1589Y351D01*
X181Y350D02*
X190Y350D01*
X194Y350D02*
X203Y350D01*
X1563Y350D02*
X1572Y350D01*
X1580Y350D02*
X1589Y350D01*
X182Y349D02*
X191Y349D01*
X194Y349D02*
X203Y349D01*
X1562Y349D02*
X1571Y349D01*
X1579Y349D02*
X1588Y349D01*
X183Y348D02*
X192Y348D01*
X195Y348D02*
X204Y348D01*
X1561Y348D02*
X1570Y348D01*
X1578Y348D02*
X1587Y348D01*
X184Y347D02*
X193Y347D01*
X196Y347D02*
X205Y347D01*
X1560Y347D02*
X1569Y347D01*
X1577Y347D02*
X1586Y347D01*
X185Y346D02*
X194Y346D01*
X197Y346D02*
X206Y346D01*
X1560Y346D02*
X1569Y346D01*
X1576Y346D02*
X1585Y346D01*
X185Y345D02*
X194Y345D01*
X197Y345D02*
X207Y345D01*
X1559Y345D02*
X1568Y345D01*
X1576Y345D02*
X1585Y345D01*
X186Y344D02*
X195Y344D01*
X198Y344D02*
X207Y344D01*
X1558Y344D02*
X1567Y344D01*
X1575Y344D02*
X1584Y344D01*
X187Y343D02*
X196Y343D01*
X199Y343D02*
X208Y343D01*
X1557Y343D02*
X1566Y343D01*
X1574Y343D02*
X1583Y343D01*
X188Y342D02*
X197Y342D01*
X200Y342D02*
X209Y342D01*
X1556Y342D02*
X1565Y342D01*
X1573Y342D02*
X1582Y342D01*
X188Y341D02*
X198Y341D01*
X201Y341D02*
X210Y341D01*
X1555Y341D02*
X1564Y341D01*
X1572Y341D02*
X1582Y341D01*
X189Y340D02*
X198Y340D01*
X202Y340D02*
X211Y340D01*
X1555Y340D02*
X1564Y340D01*
X1572Y340D02*
X1581Y340D01*
X190Y339D02*
X199Y339D01*
X202Y339D02*
X212Y339D01*
X1554Y339D02*
X1563Y339D01*
X1571Y339D02*
X1580Y339D01*
X191Y338D02*
X200Y338D01*
X203Y338D02*
X212Y338D01*
X1553Y338D02*
X1562Y338D01*
X1570Y338D02*
X1579Y338D01*
X192Y337D02*
X201Y337D01*
X204Y337D02*
X213Y337D01*
X1552Y337D02*
X1561Y337D01*
X1569Y337D02*
X1578Y337D01*
X192Y336D02*
X202Y336D01*
X205Y336D02*
X214Y336D01*
X1551Y336D02*
X1560Y336D01*
X1568Y336D02*
X1578Y336D01*
X193Y335D02*
X202Y335D01*
X206Y335D02*
X215Y335D01*
X1551Y335D02*
X1560Y335D01*
X1568Y335D02*
X1577Y335D01*
X194Y334D02*
X203Y334D01*
X206Y334D02*
X216Y334D01*
X1550Y334D02*
X1559Y334D01*
X1567Y334D02*
X1576Y334D01*
X195Y333D02*
X204Y333D01*
X207Y333D02*
X216Y333D01*
X1549Y333D02*
X1558Y333D01*
X1566Y333D02*
X1575Y333D01*
X196Y332D02*
X205Y332D01*
X208Y332D02*
X217Y332D01*
X1548Y332D02*
X1557Y332D01*
X1565Y332D02*
X1574Y332D01*
X196Y331D02*
X206Y331D01*
X209Y331D02*
X218Y331D01*
X1547Y331D02*
X1556Y331D01*
X1564Y331D02*
X1574Y331D01*
X197Y330D02*
X206Y330D01*
X210Y330D02*
X219Y330D01*
X1546Y330D02*
X1555Y330D01*
X1564Y330D02*
X1573Y330D01*
X198Y329D02*
X207Y329D01*
X211Y329D02*
X220Y329D01*
X1546Y329D02*
X1555Y329D01*
X1563Y329D02*
X1572Y329D01*
X199Y328D02*
X208Y328D01*
X211Y328D02*
X221Y328D01*
X1545Y328D02*
X1554Y328D01*
X1562Y328D02*
X1571Y328D01*
X200Y327D02*
X209Y327D01*
X212Y327D02*
X221Y327D01*
X1544Y327D02*
X1553Y327D01*
X1561Y327D02*
X1570Y327D01*
X200Y326D02*
X210Y326D01*
X213Y326D02*
X222Y326D01*
X1543Y326D02*
X1552Y326D01*
X1560Y326D02*
X1570Y326D01*
X201Y325D02*
X211Y325D01*
X214Y325D02*
X223Y325D01*
X1542Y325D02*
X1551Y325D01*
X1559Y325D02*
X1569Y325D01*
X202Y324D02*
X211Y324D01*
X215Y324D02*
X224Y324D01*
X1541Y324D02*
X1551Y324D01*
X1559Y324D02*
X1568Y324D01*
X203Y323D02*
X212Y323D01*
X215Y323D02*
X225Y323D01*
X1540Y323D02*
X1550Y323D01*
X1558Y323D02*
X1567Y323D01*
X204Y322D02*
X213Y322D01*
X216Y322D02*
X226Y322D01*
X1540Y322D02*
X1549Y322D01*
X1557Y322D02*
X1566Y322D01*
X205Y321D02*
X214Y321D01*
X217Y321D02*
X227Y321D01*
X1539Y321D02*
X1548Y321D01*
X1556Y321D02*
X1565Y321D01*
X205Y320D02*
X215Y320D01*
X218Y320D02*
X228Y320D01*
X1538Y320D02*
X1547Y320D01*
X1555Y320D02*
X1565Y320D01*
X206Y319D02*
X216Y319D01*
X219Y319D02*
X228Y319D01*
X1537Y319D02*
X1546Y319D01*
X1554Y319D02*
X1564Y319D01*
X207Y318D02*
X217Y318D01*
X220Y318D02*
X229Y318D01*
X1536Y318D02*
X1545Y318D01*
X1553Y318D02*
X1563Y318D01*
X208Y317D02*
X217Y317D01*
X221Y317D02*
X230Y317D01*
X1535Y317D02*
X1544Y317D01*
X1553Y317D02*
X1562Y317D01*
X209Y316D02*
X218Y316D01*
X222Y316D02*
X231Y316D01*
X1534Y316D02*
X1544Y316D01*
X1552Y316D02*
X1561Y316D01*
X210Y315D02*
X219Y315D01*
X222Y315D02*
X232Y315D01*
X1533Y315D02*
X1543Y315D01*
X1551Y315D02*
X1560Y315D01*
X210Y314D02*
X220Y314D01*
X223Y314D02*
X233Y314D01*
X1533Y314D02*
X1542Y314D01*
X1550Y314D02*
X1560Y314D01*
X211Y313D02*
X221Y313D01*
X224Y313D02*
X234Y313D01*
X1532Y313D02*
X1541Y313D01*
X1549Y313D02*
X1559Y313D01*
X212Y312D02*
X222Y312D01*
X225Y312D02*
X235Y312D01*
X1531Y312D02*
X1540Y312D01*
X1548Y312D02*
X1558Y312D01*
X213Y311D02*
X223Y311D01*
X226Y311D02*
X235Y311D01*
X1530Y311D02*
X1539Y311D01*
X1547Y311D02*
X1557Y311D01*
X214Y310D02*
X223Y310D01*
X227Y310D02*
X236Y310D01*
X1530Y310D02*
X1538Y310D01*
X1547Y310D02*
X1556Y310D01*
X215Y309D02*
X224Y309D01*
X228Y309D02*
X237Y309D01*
X1529Y309D02*
X1538Y309D01*
X1546Y309D02*
X1555Y309D01*
X216Y308D02*
X225Y308D01*
X229Y308D02*
X238Y308D01*
X1528Y308D02*
X1537Y308D01*
X1545Y308D02*
X1554Y308D01*
X216Y307D02*
X226Y307D01*
X229Y307D02*
X239Y307D01*
X1527Y307D02*
X1536Y307D01*
X1544Y307D02*
X1554Y307D01*
X217Y306D02*
X227Y306D01*
X230Y306D02*
X240Y306D01*
X1526Y306D02*
X1535Y306D01*
X1543Y306D02*
X1553Y306D01*
X218Y305D02*
X228Y305D01*
X231Y305D02*
X241Y305D01*
X1525Y305D02*
X1534Y305D01*
X1542Y305D02*
X1552Y305D01*
X219Y304D02*
X229Y304D01*
X232Y304D02*
X242Y304D01*
X1524Y304D02*
X1533Y304D01*
X1541Y304D02*
X1551Y304D01*
X220Y303D02*
X230Y303D01*
X233Y303D02*
X243Y303D01*
X1523Y303D02*
X1532Y303D01*
X1540Y303D02*
X1550Y303D01*
X221Y302D02*
X231Y302D01*
X234Y302D02*
X244Y302D01*
X1522Y302D02*
X1531Y302D01*
X1539Y302D02*
X1549Y302D01*
X222Y301D02*
X231Y301D01*
X235Y301D02*
X245Y301D01*
X1521Y301D02*
X1530Y301D01*
X1539Y301D02*
X1548Y301D01*
X223Y300D02*
X232Y300D01*
X236Y300D02*
X245Y300D01*
X1520Y300D02*
X1530Y300D01*
X1538Y300D02*
X1547Y300D01*
X223Y299D02*
X233Y299D01*
X237Y299D02*
X246Y299D01*
X1519Y299D02*
X1529Y299D01*
X1537Y299D02*
X1547Y299D01*
X224Y298D02*
X234Y298D01*
X238Y298D02*
X247Y298D01*
X1518Y298D02*
X1528Y298D01*
X1536Y298D02*
X1546Y298D01*
X225Y297D02*
X235Y297D01*
X238Y297D02*
X248Y297D01*
X1517Y297D02*
X1527Y297D01*
X1535Y297D02*
X1545Y297D01*
X226Y296D02*
X236Y296D01*
X239Y296D02*
X249Y296D01*
X1516Y296D02*
X1526Y296D01*
X1534Y296D02*
X1544Y296D01*
X227Y295D02*
X237Y295D01*
X240Y295D02*
X250Y295D01*
X1515Y295D02*
X1525Y295D01*
X1533Y295D02*
X1543Y295D01*
X228Y294D02*
X238Y294D01*
X241Y294D02*
X251Y294D01*
X1514Y294D02*
X1524Y294D01*
X1532Y294D02*
X1542Y294D01*
X229Y293D02*
X239Y293D01*
X242Y293D02*
X252Y293D01*
X1513Y293D02*
X1523Y293D01*
X1531Y293D02*
X1541Y293D01*
X230Y292D02*
X240Y292D01*
X243Y292D02*
X253Y292D01*
X1512Y292D02*
X1522Y292D01*
X1530Y292D02*
X1540Y292D01*
X231Y291D02*
X241Y291D01*
X244Y291D02*
X254Y291D01*
X1512Y291D02*
X1521Y291D01*
X1529Y291D02*
X1539Y291D01*
X232Y290D02*
X241Y290D01*
X245Y290D02*
X255Y290D01*
X1511Y290D02*
X1520Y290D01*
X1529Y290D02*
X1538Y290D01*
X232Y289D02*
X242Y289D01*
X246Y289D02*
X256Y289D01*
X1510Y289D02*
X1519Y289D01*
X1528Y289D02*
X1538Y289D01*
X233Y288D02*
X243Y288D01*
X247Y288D02*
X257Y288D01*
X1509Y288D02*
X1518Y288D01*
X1527Y288D02*
X1537Y288D01*
X234Y287D02*
X244Y287D01*
X248Y287D02*
X258Y287D01*
X1508Y287D02*
X1517Y287D01*
X1526Y287D02*
X1536Y287D01*
X235Y286D02*
X245Y286D01*
X249Y286D02*
X259Y286D01*
X1507Y286D02*
X1516Y286D01*
X1525Y286D02*
X1535Y286D01*
X236Y285D02*
X246Y285D01*
X250Y285D02*
X260Y285D01*
X1506Y285D02*
X1516Y285D01*
X1524Y285D02*
X1534Y285D01*
X237Y284D02*
X247Y284D01*
X251Y284D02*
X261Y284D01*
X1505Y284D02*
X1515Y284D01*
X1523Y284D02*
X1533Y284D01*
X238Y283D02*
X248Y283D01*
X251Y283D02*
X262Y283D01*
X1504Y283D02*
X1514Y283D01*
X1522Y283D02*
X1532Y283D01*
X239Y282D02*
X249Y282D01*
X252Y282D02*
X263Y282D01*
X1503Y282D02*
X1513Y282D01*
X1521Y282D02*
X1531Y282D01*
X240Y281D02*
X250Y281D01*
X253Y281D02*
X264Y281D01*
X1502Y281D02*
X1512Y281D01*
X1520Y281D02*
X1530Y281D01*
X241Y280D02*
X251Y280D01*
X254Y280D02*
X265Y280D01*
X1501Y280D02*
X1511Y280D01*
X1519Y280D02*
X1529Y280D01*
X242Y279D02*
X252Y279D01*
X255Y279D02*
X266Y279D01*
X1500Y279D02*
X1510Y279D01*
X1518Y279D02*
X1528Y279D01*
X243Y278D02*
X253Y278D01*
X256Y278D02*
X267Y278D01*
X1499Y278D02*
X1509Y278D01*
X1517Y278D02*
X1527Y278D01*
X244Y277D02*
X254Y277D01*
X257Y277D02*
X268Y277D01*
X1498Y277D02*
X1508Y277D01*
X1516Y277D02*
X1526Y277D01*
X245Y276D02*
X255Y276D01*
X258Y276D02*
X269Y276D01*
X1497Y276D02*
X1507Y276D01*
X1515Y276D02*
X1525Y276D01*
X246Y275D02*
X256Y275D01*
X259Y275D02*
X270Y275D01*
X1496Y275D02*
X1506Y275D01*
X1514Y275D02*
X1524Y275D01*
X247Y274D02*
X257Y274D01*
X260Y274D02*
X271Y274D01*
X1495Y274D02*
X1505Y274D01*
X1513Y274D02*
X1523Y274D01*
X247Y273D02*
X258Y273D01*
X261Y273D02*
X272Y273D01*
X1494Y273D02*
X1504Y273D01*
X1512Y273D02*
X1523Y273D01*
X248Y272D02*
X259Y272D01*
X262Y272D02*
X273Y272D01*
X1493Y272D02*
X1503Y272D01*
X1511Y272D02*
X1522Y272D01*
X249Y271D02*
X260Y271D01*
X263Y271D02*
X274Y271D01*
X1492Y271D02*
X1502Y271D01*
X1510Y271D02*
X1521Y271D01*
X250Y270D02*
X261Y270D01*
X264Y270D02*
X275Y270D01*
X1491Y270D02*
X1501Y270D01*
X1509Y270D02*
X1520Y270D01*
X251Y269D02*
X262Y269D01*
X265Y269D02*
X276Y269D01*
X1490Y269D02*
X1500Y269D01*
X1508Y269D02*
X1519Y269D01*
X252Y268D02*
X263Y268D01*
X266Y268D02*
X277Y268D01*
X1489Y268D02*
X1499Y268D01*
X1507Y268D02*
X1518Y268D01*
X253Y267D02*
X264Y267D01*
X267Y267D02*
X278Y267D01*
X1488Y267D02*
X1498Y267D01*
X1506Y267D02*
X1517Y267D01*
X254Y266D02*
X265Y266D01*
X268Y266D02*
X279Y266D01*
X1487Y266D02*
X1497Y266D01*
X1505Y266D02*
X1516Y266D01*
X255Y265D02*
X266Y265D01*
X269Y265D02*
X280Y265D01*
X1486Y265D02*
X1496Y265D01*
X1504Y265D02*
X1515Y265D01*
X256Y264D02*
X267Y264D01*
X270Y264D02*
X281Y264D01*
X1485Y264D02*
X1495Y264D01*
X1503Y264D02*
X1514Y264D01*
X257Y263D02*
X268Y263D01*
X271Y263D02*
X282Y263D01*
X1484Y263D02*
X1494Y263D01*
X1502Y263D02*
X1513Y263D01*
X258Y262D02*
X269Y262D01*
X272Y262D02*
X283Y262D01*
X1483Y262D02*
X1493Y262D01*
X1501Y262D02*
X1512Y262D01*
X259Y261D02*
X270Y261D01*
X273Y261D02*
X284Y261D01*
X1482Y261D02*
X1492Y261D01*
X1500Y261D02*
X1511Y261D01*
X260Y260D02*
X271Y260D01*
X274Y260D02*
X285Y260D01*
X1481Y260D02*
X1491Y260D01*
X1499Y260D02*
X1510Y260D01*
X261Y259D02*
X272Y259D01*
X275Y259D02*
X286Y259D01*
X1479Y259D02*
X1490Y259D01*
X1498Y259D02*
X1509Y259D01*
X262Y258D02*
X273Y258D01*
X276Y258D02*
X287Y258D01*
X1478Y258D02*
X1489Y258D01*
X1497Y258D02*
X1508Y258D01*
X263Y257D02*
X274Y257D01*
X277Y257D02*
X288Y257D01*
X1477Y257D02*
X1488Y257D01*
X1496Y257D02*
X1507Y257D01*
X264Y256D02*
X275Y256D01*
X279Y256D02*
X289Y256D01*
X1476Y256D02*
X1487Y256D01*
X1495Y256D02*
X1506Y256D01*
X265Y255D02*
X276Y255D01*
X280Y255D02*
X290Y255D01*
X1475Y255D02*
X1486Y255D01*
X1494Y255D02*
X1505Y255D01*
X266Y254D02*
X277Y254D01*
X281Y254D02*
X291Y254D01*
X1474Y254D02*
X1484Y254D01*
X1493Y254D02*
X1504Y254D01*
X267Y253D02*
X278Y253D01*
X282Y253D02*
X292Y253D01*
X1473Y253D02*
X1483Y253D01*
X1492Y253D02*
X1503Y253D01*
X268Y252D02*
X279Y252D01*
X283Y252D02*
X293Y252D01*
X1472Y252D02*
X1482Y252D01*
X1491Y252D02*
X1502Y252D01*
X269Y251D02*
X280Y251D01*
X284Y251D02*
X295Y251D01*
X1471Y251D02*
X1481Y251D01*
X1490Y251D02*
X1501Y251D01*
X270Y250D02*
X281Y250D01*
X285Y250D02*
X296Y250D01*
X1470Y250D02*
X1480Y250D01*
X1489Y250D02*
X1500Y250D01*
X272Y249D02*
X282Y249D01*
X286Y249D02*
X297Y249D01*
X1469Y249D02*
X1479Y249D01*
X1488Y249D02*
X1499Y249D01*
X273Y248D02*
X283Y248D01*
X287Y248D02*
X298Y248D01*
X1468Y248D02*
X1478Y248D01*
X1487Y248D02*
X1497Y248D01*
X274Y247D02*
X284Y247D01*
X288Y247D02*
X299Y247D01*
X1467Y247D02*
X1477Y247D01*
X1486Y247D02*
X1496Y247D01*
X275Y246D02*
X285Y246D01*
X289Y246D02*
X300Y246D01*
X1466Y246D02*
X1476Y246D01*
X1485Y246D02*
X1495Y246D01*
X276Y245D02*
X286Y245D01*
X290Y245D02*
X301Y245D01*
X1464Y245D02*
X1475Y245D01*
X1484Y245D02*
X1494Y245D01*
X277Y244D02*
X287Y244D01*
X291Y244D02*
X302Y244D01*
X1463Y244D02*
X1474Y244D01*
X1483Y244D02*
X1493Y244D01*
X278Y243D02*
X289Y243D01*
X292Y243D02*
X303Y243D01*
X1462Y243D02*
X1473Y243D01*
X1481Y243D02*
X1492Y243D01*
X279Y242D02*
X290Y242D01*
X293Y242D02*
X304Y242D01*
X1461Y242D02*
X1472Y242D01*
X1480Y242D02*
X1491Y242D01*
X280Y241D02*
X291Y241D01*
X294Y241D02*
X306Y241D01*
X1460Y241D02*
X1471Y241D01*
X1479Y241D02*
X1490Y241D01*
X281Y240D02*
X292Y240D01*
X296Y240D02*
X307Y240D01*
X1459Y240D02*
X1470Y240D01*
X1478Y240D02*
X1489Y240D01*
X282Y239D02*
X293Y239D01*
X297Y239D02*
X308Y239D01*
X1458Y239D02*
X1468Y239D01*
X1477Y239D02*
X1488Y239D01*
X283Y238D02*
X294Y238D01*
X298Y238D02*
X309Y238D01*
X1456Y238D02*
X1467Y238D01*
X1476Y238D02*
X1487Y238D01*
X284Y237D02*
X295Y237D01*
X299Y237D02*
X310Y237D01*
X1455Y237D02*
X1466Y237D01*
X1475Y237D02*
X1486Y237D01*
X285Y236D02*
X296Y236D01*
X300Y236D02*
X311Y236D01*
X1454Y236D02*
X1465Y236D01*
X1474Y236D02*
X1485Y236D01*
X286Y235D02*
X297Y235D01*
X301Y235D02*
X312Y235D01*
X1453Y235D02*
X1464Y235D01*
X1473Y235D02*
X1484Y235D01*
X287Y234D02*
X298Y234D01*
X302Y234D02*
X314Y234D01*
X1452Y234D02*
X1463Y234D01*
X1472Y234D02*
X1483Y234D01*
X289Y233D02*
X299Y233D01*
X304Y233D02*
X315Y233D01*
X1451Y233D02*
X1462Y233D01*
X1470Y233D02*
X1481Y233D01*
X290Y232D02*
X301Y232D01*
X305Y232D02*
X316Y232D01*
X1450Y232D02*
X1460Y232D01*
X1469Y232D02*
X1480Y232D01*
X291Y231D02*
X302Y231D01*
X306Y231D02*
X317Y231D01*
X1449Y231D02*
X1459Y231D01*
X1468Y231D02*
X1479Y231D01*
X292Y230D02*
X303Y230D01*
X307Y230D02*
X318Y230D01*
X1447Y230D02*
X1458Y230D01*
X1467Y230D02*
X1478Y230D01*
X293Y229D02*
X304Y229D01*
X308Y229D02*
X319Y229D01*
X1446Y229D02*
X1457Y229D01*
X1466Y229D02*
X1477Y229D01*
X294Y228D02*
X305Y228D01*
X309Y228D02*
X320Y228D01*
X1445Y228D02*
X1456Y228D01*
X1465Y228D02*
X1476Y228D01*
X295Y227D02*
X306Y227D01*
X310Y227D02*
X322Y227D01*
X1444Y227D02*
X1455Y227D01*
X1464Y227D02*
X1475Y227D01*
X296Y226D02*
X307Y226D01*
X312Y226D02*
X323Y226D01*
X1443Y226D02*
X1454Y226D01*
X1463Y226D02*
X1474Y226D01*
X297Y225D02*
X309Y225D01*
X313Y225D02*
X324Y225D01*
X1441Y225D02*
X1453Y225D01*
X1461Y225D02*
X1473Y225D01*
X299Y224D02*
X310Y224D01*
X314Y224D02*
X325Y224D01*
X1440Y224D02*
X1451Y224D01*
X1460Y224D02*
X1471Y224D01*
X300Y223D02*
X311Y223D01*
X315Y223D02*
X326Y223D01*
X1439Y223D02*
X1450Y223D01*
X1459Y223D02*
X1470Y223D01*
X301Y222D02*
X312Y222D01*
X316Y222D02*
X328Y222D01*
X1438Y222D02*
X1449Y222D01*
X1458Y222D02*
X1469Y222D01*
X302Y221D02*
X313Y221D01*
X317Y221D02*
X329Y221D01*
X1437Y221D02*
X1448Y221D01*
X1457Y221D02*
X1468Y221D01*
X303Y220D02*
X314Y220D01*
X318Y220D02*
X330Y220D01*
X1435Y220D02*
X1447Y220D01*
X1456Y220D02*
X1467Y220D01*
X304Y219D02*
X316Y219D01*
X320Y219D02*
X331Y219D01*
X1434Y219D02*
X1445Y219D01*
X1454Y219D02*
X1466Y219D01*
X305Y218D02*
X317Y218D01*
X321Y218D02*
X333Y218D01*
X1433Y218D02*
X1444Y218D01*
X1453Y218D02*
X1465Y218D01*
X307Y217D02*
X318Y217D01*
X322Y217D02*
X334Y217D01*
X1432Y217D02*
X1443Y217D01*
X1452Y217D02*
X1463Y217D01*
X308Y216D02*
X319Y216D01*
X323Y216D02*
X335Y216D01*
X1431Y216D02*
X1442Y216D01*
X1451Y216D02*
X1462Y216D01*
X309Y215D02*
X320Y215D01*
X325Y215D02*
X336Y215D01*
X1429Y215D02*
X1441Y215D01*
X1450Y215D02*
X1461Y215D01*
X310Y214D02*
X321Y214D01*
X326Y214D02*
X337Y214D01*
X1428Y214D02*
X1439Y214D01*
X1449Y214D02*
X1460Y214D01*
X311Y213D02*
X323Y213D01*
X327Y213D02*
X339Y213D01*
X1427Y213D02*
X1438Y213D01*
X1447Y213D02*
X1459Y213D01*
X312Y212D02*
X324Y212D01*
X328Y212D02*
X340Y212D01*
X1426Y212D02*
X1437Y212D01*
X1446Y212D02*
X1458Y212D01*
X314Y211D02*
X325Y211D01*
X329Y211D02*
X341Y211D01*
X1424Y211D02*
X1436Y211D01*
X1445Y211D02*
X1456Y211D01*
X315Y210D02*
X326Y210D01*
X331Y210D02*
X342Y210D01*
X1423Y210D02*
X1435Y210D01*
X1444Y210D02*
X1455Y210D01*
X316Y209D02*
X327Y209D01*
X332Y209D02*
X344Y209D01*
X1422Y209D02*
X1433Y209D01*
X1443Y209D02*
X1454Y209D01*
X317Y208D02*
X329Y208D01*
X333Y208D02*
X345Y208D01*
X1421Y208D02*
X1432Y208D01*
X1441Y208D02*
X1453Y208D01*
X318Y207D02*
X330Y207D01*
X334Y207D02*
X346Y207D01*
X1419Y207D02*
X1431Y207D01*
X1440Y207D02*
X1452Y207D01*
X320Y206D02*
X331Y206D01*
X336Y206D02*
X347Y206D01*
X1418Y206D02*
X1430Y206D01*
X1439Y206D02*
X1450Y206D01*
X321Y205D02*
X332Y205D01*
X337Y205D02*
X349Y205D01*
X1417Y205D02*
X1428Y205D01*
X1438Y205D02*
X1449Y205D01*
X322Y204D02*
X334Y204D01*
X338Y204D02*
X350Y204D01*
X1415Y204D02*
X1427Y204D01*
X1436Y204D02*
X1448Y204D01*
X323Y203D02*
X335Y203D01*
X339Y203D02*
X351Y203D01*
X1414Y203D02*
X1426Y203D01*
X1435Y203D02*
X1447Y203D01*
X324Y202D02*
X336Y202D01*
X341Y202D02*
X353Y202D01*
X1413Y202D02*
X1425Y202D01*
X1434Y202D02*
X1446Y202D01*
X326Y201D02*
X337Y201D01*
X342Y201D02*
X354Y201D01*
X1412Y201D02*
X1423Y201D01*
X1433Y201D02*
X1444Y201D01*
X327Y200D02*
X339Y200D01*
X343Y200D02*
X355Y200D01*
X1410Y200D02*
X1422Y200D01*
X1431Y200D02*
X1443Y200D01*
X328Y199D02*
X340Y199D01*
X344Y199D02*
X357Y199D01*
X1409Y199D02*
X1421Y199D01*
X1430Y199D02*
X1442Y199D01*
X329Y198D02*
X341Y198D01*
X346Y198D02*
X358Y198D01*
X1408Y198D02*
X1419Y198D01*
X1429Y198D02*
X1441Y198D01*
X331Y197D02*
X342Y197D01*
X347Y197D02*
X359Y197D01*
X1406Y197D02*
X1418Y197D01*
X1428Y197D02*
X1439Y197D01*
X332Y196D02*
X344Y196D01*
X348Y196D02*
X360Y196D01*
X1405Y196D02*
X1417Y196D01*
X1426Y196D02*
X1438Y196D01*
X333Y195D02*
X345Y195D01*
X350Y195D02*
X362Y195D01*
X1404Y195D02*
X1416Y195D01*
X1425Y195D02*
X1437Y195D01*
X334Y194D02*
X346Y194D01*
X351Y194D02*
X363Y194D01*
X1402Y194D02*
X1414Y194D01*
X1424Y194D02*
X1436Y194D01*
X336Y193D02*
X347Y193D01*
X352Y193D02*
X364Y193D01*
X1401Y193D02*
X1413Y193D01*
X1423Y193D02*
X1434Y193D01*
X337Y192D02*
X349Y192D01*
X353Y192D02*
X366Y192D01*
X1400Y192D02*
X1412Y192D01*
X1421Y192D02*
X1433Y192D01*
X338Y191D02*
X350Y191D01*
X355Y191D02*
X367Y191D01*
X1398Y191D02*
X1410Y191D01*
X1420Y191D02*
X1432Y191D01*
X339Y190D02*
X351Y190D01*
X356Y190D02*
X368Y190D01*
X1397Y190D02*
X1409Y190D01*
X1419Y190D02*
X1431Y190D01*
X341Y189D02*
X353Y189D01*
X357Y189D02*
X370Y189D01*
X1396Y189D02*
X1408Y189D01*
X1417Y189D02*
X1429Y189D01*
X342Y188D02*
X354Y188D01*
X359Y188D02*
X371Y188D01*
X1394Y188D02*
X1407Y188D01*
X1416Y188D02*
X1428Y188D01*
X343Y187D02*
X355Y187D01*
X360Y187D02*
X373Y187D01*
X1393Y187D02*
X1405Y187D01*
X1415Y187D02*
X1427Y187D01*
X345Y186D02*
X357Y186D01*
X361Y186D02*
X374Y186D01*
X1391Y186D02*
X1404Y186D01*
X1413Y186D02*
X1425Y186D01*
X346Y185D02*
X358Y185D01*
X363Y185D02*
X375Y185D01*
X1390Y185D02*
X1403Y185D01*
X1412Y185D02*
X1424Y185D01*
X347Y184D02*
X359Y184D01*
X364Y184D02*
X377Y184D01*
X1389Y184D02*
X1401Y184D01*
X1411Y184D02*
X1423Y184D01*
X348Y183D02*
X361Y183D01*
X365Y183D02*
X378Y183D01*
X1387Y183D02*
X1400Y183D01*
X1409Y183D02*
X1422Y183D01*
X350Y182D02*
X362Y182D01*
X367Y182D02*
X380Y182D01*
X1386Y182D02*
X1398Y182D01*
X1408Y182D02*
X1420Y182D01*
X351Y181D02*
X363Y181D01*
X368Y181D02*
X381Y181D01*
X1385Y181D02*
X1397Y181D01*
X1407Y181D02*
X1419Y181D01*
X352Y180D02*
X365Y180D01*
X370Y180D02*
X382Y180D01*
X1383Y180D02*
X1396Y180D01*
X1405Y180D02*
X1418Y180D01*
X354Y179D02*
X366Y179D01*
X371Y179D02*
X384Y179D01*
X1382Y179D02*
X1394Y179D01*
X1404Y179D02*
X1416Y179D01*
X355Y178D02*
X367Y178D01*
X372Y178D02*
X385Y178D01*
X1380Y178D02*
X1393Y178D01*
X1403Y178D02*
X1415Y178D01*
X356Y177D02*
X369Y177D01*
X374Y177D02*
X387Y177D01*
X1379Y177D02*
X1391Y177D01*
X1401Y177D02*
X1414Y177D01*
X358Y176D02*
X370Y176D01*
X375Y176D02*
X388Y176D01*
X1378Y176D02*
X1390Y176D01*
X1400Y176D02*
X1412Y176D01*
X359Y175D02*
X372Y175D01*
X377Y175D02*
X389Y175D01*
X1376Y175D02*
X1389Y175D01*
X1398Y175D02*
X1411Y175D01*
X360Y174D02*
X373Y174D01*
X378Y174D02*
X391Y174D01*
X1375Y174D02*
X1387Y174D01*
X1397Y174D02*
X1410Y174D01*
X362Y173D02*
X374Y173D01*
X379Y173D02*
X392Y173D01*
X1373Y173D02*
X1386Y173D01*
X1396Y173D02*
X1408Y173D01*
X363Y172D02*
X376Y172D01*
X381Y172D02*
X394Y172D01*
X1372Y172D02*
X1384Y172D01*
X1394Y172D02*
X1407Y172D01*
X365Y171D02*
X377Y171D01*
X382Y171D02*
X395Y171D01*
X1370Y171D02*
X1383Y171D01*
X1393Y171D02*
X1405Y171D01*
X366Y170D02*
X378Y170D01*
X384Y170D02*
X397Y170D01*
X1369Y170D02*
X1382Y170D01*
X1392Y170D02*
X1404Y170D01*
X367Y169D02*
X380Y169D01*
X385Y169D02*
X398Y169D01*
X1367Y169D02*
X1380Y169D01*
X1390Y169D02*
X1403Y169D01*
X369Y168D02*
X381Y168D01*
X386Y168D02*
X400Y168D01*
X1366Y168D02*
X1379Y168D01*
X1389Y168D02*
X1401Y168D01*
X370Y167D02*
X383Y167D01*
X388Y167D02*
X401Y167D01*
X1364Y167D02*
X1377Y167D01*
X1387Y167D02*
X1400Y167D01*
X371Y166D02*
X384Y166D01*
X389Y166D02*
X403Y166D01*
X1363Y166D02*
X1376Y166D01*
X1386Y166D02*
X1399Y166D01*
X373Y165D02*
X386Y165D01*
X391Y165D02*
X404Y165D01*
X1361Y165D02*
X1374Y165D01*
X1384Y165D02*
X1397Y165D01*
X374Y164D02*
X387Y164D01*
X392Y164D02*
X406Y164D01*
X1360Y164D02*
X1373Y164D01*
X1383Y164D02*
X1396Y164D01*
X376Y163D02*
X389Y163D01*
X394Y163D02*
X407Y163D01*
X1358Y163D02*
X1371Y163D01*
X1381Y163D02*
X1394Y163D01*
X377Y162D02*
X390Y162D01*
X395Y162D02*
X409Y162D01*
X1357Y162D02*
X1370Y162D01*
X1380Y162D02*
X1393Y162D01*
X379Y161D02*
X391Y161D01*
X397Y161D02*
X410Y161D01*
X1355Y161D02*
X1368Y161D01*
X1379Y161D02*
X1391Y161D01*
X380Y160D02*
X393Y160D01*
X398Y160D02*
X412Y160D01*
X1354Y160D02*
X1367Y160D01*
X1377Y160D02*
X1390Y160D01*
X381Y159D02*
X394Y159D01*
X400Y159D02*
X413Y159D01*
X1352Y159D02*
X1365Y159D01*
X1376Y159D02*
X1389Y159D01*
X383Y158D02*
X396Y158D01*
X401Y158D02*
X415Y158D01*
X1350Y158D02*
X1364Y158D01*
X1374Y158D02*
X1387Y158D01*
X384Y157D02*
X397Y157D01*
X403Y157D02*
X417Y157D01*
X1349Y157D02*
X1362Y157D01*
X1373Y157D02*
X1386Y157D01*
X386Y156D02*
X399Y156D01*
X404Y156D02*
X418Y156D01*
X1347Y156D02*
X1361Y156D01*
X1371Y156D02*
X1384Y156D01*
X387Y155D02*
X400Y155D01*
X406Y155D02*
X420Y155D01*
X1346Y155D02*
X1359Y155D01*
X1370Y155D02*
X1383Y155D01*
X389Y154D02*
X402Y154D01*
X407Y154D02*
X421Y154D01*
X1344Y154D02*
X1358Y154D01*
X1368Y154D02*
X1381Y154D01*
X390Y153D02*
X403Y153D01*
X409Y153D02*
X423Y153D01*
X1342Y153D02*
X1356Y153D01*
X1367Y153D02*
X1380Y153D01*
X392Y152D02*
X405Y152D01*
X410Y152D02*
X425Y152D01*
X1341Y152D02*
X1355Y152D01*
X1365Y152D02*
X1378Y152D01*
X393Y151D02*
X406Y151D01*
X412Y151D02*
X426Y151D01*
X1339Y151D02*
X1353Y151D01*
X1364Y151D02*
X1377Y151D01*
X395Y150D02*
X408Y150D01*
X414Y150D02*
X428Y150D01*
X1338Y150D02*
X1352Y150D01*
X1362Y150D02*
X1375Y150D01*
X396Y149D02*
X410Y149D01*
X415Y149D02*
X429Y149D01*
X1336Y149D02*
X1350Y149D01*
X1360Y149D02*
X1374Y149D01*
X398Y148D02*
X411Y148D01*
X417Y148D02*
X431Y148D01*
X1334Y148D02*
X1348Y148D01*
X1359Y148D02*
X1372Y148D01*
X399Y147D02*
X413Y147D01*
X419Y147D02*
X433Y147D01*
X1333Y147D02*
X1347Y147D01*
X1357Y147D02*
X1371Y147D01*
X401Y146D02*
X414Y146D01*
X420Y146D02*
X434Y146D01*
X1331Y146D02*
X1345Y146D01*
X1356Y146D02*
X1369Y146D01*
X402Y145D02*
X416Y145D01*
X422Y145D02*
X436Y145D01*
X1329Y145D02*
X1344Y145D01*
X1354Y145D02*
X1368Y145D01*
X404Y144D02*
X417Y144D01*
X423Y144D02*
X437Y144D01*
X1328Y144D02*
X1342Y144D01*
X1353Y144D02*
X1366Y144D01*
X405Y143D02*
X419Y143D01*
X425Y143D02*
X439Y143D01*
X1326Y143D02*
X1340Y143D01*
X1351Y143D02*
X1365Y143D01*
X407Y142D02*
X421Y142D01*
X427Y142D02*
X441Y142D01*
X1324Y142D02*
X1339Y142D01*
X1349Y142D02*
X1363Y142D01*
X408Y141D02*
X422Y141D01*
X428Y141D02*
X443Y141D01*
X1323Y141D02*
X1337Y141D01*
X1348Y141D02*
X1362Y141D01*
X410Y140D02*
X424Y140D01*
X430Y140D02*
X444Y140D01*
X1321Y140D02*
X1336Y140D01*
X1346Y140D02*
X1360Y140D01*
X412Y139D02*
X425Y139D01*
X431Y139D02*
X446Y139D01*
X1319Y139D02*
X1334Y139D01*
X1345Y139D02*
X1358Y139D01*
X413Y138D02*
X427Y138D01*
X433Y138D02*
X448Y138D01*
X1317Y138D02*
X1332Y138D01*
X1343Y138D02*
X1357Y138D01*
X415Y137D02*
X429Y137D01*
X435Y137D02*
X450Y137D01*
X1316Y137D02*
X1331Y137D01*
X1341Y137D02*
X1355Y137D01*
X416Y136D02*
X430Y136D01*
X436Y136D02*
X451Y136D01*
X1314Y136D02*
X1329Y136D01*
X1340Y136D02*
X1354Y136D01*
X418Y135D02*
X432Y135D01*
X438Y135D02*
X453Y135D01*
X1312Y135D02*
X1327Y135D01*
X1338Y135D02*
X1352Y135D01*
X420Y134D02*
X434Y134D01*
X440Y134D02*
X455Y134D01*
X1311Y134D02*
X1325Y134D01*
X1336Y134D02*
X1350Y134D01*
X421Y133D02*
X435Y133D01*
X442Y133D02*
X457Y133D01*
X1309Y133D02*
X1324Y133D01*
X1335Y133D02*
X1349Y133D01*
X423Y132D02*
X437Y132D01*
X443Y132D02*
X458Y132D01*
X1307Y132D02*
X1322Y132D01*
X1333Y132D02*
X1347Y132D01*
X424Y131D02*
X439Y131D01*
X445Y131D02*
X460Y131D01*
X1305Y131D02*
X1320Y131D01*
X1331Y131D02*
X1346Y131D01*
X426Y130D02*
X440Y130D01*
X447Y130D02*
X462Y130D01*
X1303Y130D02*
X1318Y130D01*
X1330Y130D02*
X1344Y130D01*
X428Y129D02*
X442Y129D01*
X449Y129D02*
X464Y129D01*
X1302Y129D02*
X1317Y129D01*
X1328Y129D02*
X1342Y129D01*
X429Y128D02*
X444Y128D01*
X450Y128D02*
X465Y128D01*
X1300Y128D02*
X1315Y128D01*
X1326Y128D02*
X1341Y128D01*
X431Y127D02*
X445Y127D01*
X452Y127D02*
X467Y127D01*
X1298Y127D02*
X1313Y127D01*
X1325Y127D02*
X1339Y127D01*
X433Y126D02*
X447Y126D01*
X454Y126D02*
X469Y126D01*
X1296Y126D02*
X1312Y126D01*
X1323Y126D02*
X1337Y126D01*
X434Y125D02*
X449Y125D01*
X456Y125D02*
X471Y125D01*
X1294Y125D02*
X1310Y125D01*
X1321Y125D02*
X1336Y125D01*
X436Y124D02*
X451Y124D01*
X457Y124D02*
X473Y124D01*
X1292Y124D02*
X1308Y124D01*
X1319Y124D02*
X1334Y124D01*
X438Y123D02*
X453Y123D01*
X459Y123D02*
X475Y123D01*
X1290Y123D02*
X1306Y123D01*
X1317Y123D02*
X1332Y123D01*
X439Y122D02*
X454Y122D01*
X461Y122D02*
X477Y122D01*
X1289Y122D02*
X1304Y122D01*
X1316Y122D02*
X1331Y122D01*
X441Y121D02*
X456Y121D01*
X463Y121D02*
X479Y121D01*
X1287Y121D02*
X1302Y121D01*
X1314Y121D02*
X1329Y121D01*
X443Y120D02*
X458Y120D01*
X465Y120D02*
X480Y120D01*
X1285Y120D02*
X1301Y120D01*
X1312Y120D02*
X1327Y120D01*
X445Y119D02*
X460Y119D01*
X467Y119D02*
X482Y119D01*
X1283Y119D02*
X1299Y119D01*
X1310Y119D02*
X1325Y119D01*
X446Y118D02*
X461Y118D01*
X468Y118D02*
X484Y118D01*
X1281Y118D02*
X1297Y118D01*
X1309Y118D02*
X1324Y118D01*
X448Y117D02*
X463Y117D01*
X470Y117D02*
X486Y117D01*
X1279Y117D02*
X1295Y117D01*
X1307Y117D02*
X1322Y117D01*
X450Y116D02*
X465Y116D01*
X472Y116D02*
X488Y116D01*
X1277Y116D02*
X1293Y116D01*
X1305Y116D02*
X1320Y116D01*
X452Y115D02*
X467Y115D01*
X474Y115D02*
X490Y115D01*
X1275Y115D02*
X1291Y115D01*
X1303Y115D02*
X1318Y115D01*
X453Y114D02*
X469Y114D01*
X476Y114D02*
X492Y114D01*
X1273Y114D02*
X1289Y114D01*
X1301Y114D02*
X1317Y114D01*
X455Y113D02*
X471Y113D01*
X478Y113D02*
X494Y113D01*
X1271Y113D02*
X1288Y113D01*
X1299Y113D02*
X1315Y113D01*
X457Y112D02*
X473Y112D01*
X480Y112D02*
X496Y112D01*
X1269Y112D02*
X1286Y112D01*
X1297Y112D02*
X1313Y112D01*
X459Y111D02*
X474Y111D01*
X482Y111D02*
X498Y111D01*
X1267Y111D02*
X1284Y111D01*
X1296Y111D02*
X1311Y111D01*
X461Y110D02*
X476Y110D01*
X483Y110D02*
X500Y110D01*
X1265Y110D02*
X1282Y110D01*
X1294Y110D02*
X1309Y110D01*
X462Y109D02*
X478Y109D01*
X485Y109D02*
X502Y109D01*
X1263Y109D02*
X1280Y109D01*
X1292Y109D02*
X1308Y109D01*
X464Y108D02*
X480Y108D01*
X487Y108D02*
X504Y108D01*
X1261Y108D02*
X1278Y108D01*
X1290Y108D02*
X1306Y108D01*
X466Y107D02*
X482Y107D01*
X489Y107D02*
X506Y107D01*
X1259Y107D02*
X1276Y107D01*
X1288Y107D02*
X1304Y107D01*
X468Y106D02*
X484Y106D01*
X491Y106D02*
X508Y106D01*
X1258Y106D02*
X1274Y106D01*
X1286Y106D02*
X1302Y106D01*
X470Y105D02*
X486Y105D01*
X494Y105D02*
X510Y105D01*
X1256Y105D02*
X1272Y105D01*
X1284Y105D02*
X1300Y105D01*
X472Y104D02*
X488Y104D01*
X496Y104D02*
X512Y104D01*
X1254Y104D02*
X1270Y104D01*
X1282Y104D02*
X1298Y104D01*
X474Y103D02*
X490Y103D01*
X498Y103D02*
X515Y103D01*
X1252Y103D02*
X1268Y103D01*
X1280Y103D02*
X1296Y103D01*
X476Y102D02*
X492Y102D01*
X500Y102D02*
X517Y102D01*
X1249Y102D02*
X1266Y102D01*
X1278Y102D02*
X1294Y102D01*
X478Y101D02*
X494Y101D01*
X502Y101D02*
X519Y101D01*
X1246Y101D02*
X1264Y101D01*
X1276Y101D02*
X1292Y101D01*
X479Y100D02*
X496Y100D01*
X504Y100D02*
X521Y100D01*
X1244Y100D02*
X1262Y100D01*
X1274Y100D02*
X1291Y100D01*
X481Y99D02*
X498Y99D01*
X506Y99D02*
X523Y99D01*
X1242Y99D02*
X1260Y99D01*
X1272Y99D02*
X1289Y99D01*
X483Y98D02*
X500Y98D01*
X508Y98D02*
X525Y98D01*
X1239Y98D02*
X1258Y98D01*
X1270Y98D02*
X1287Y98D01*
X485Y97D02*
X502Y97D01*
X510Y97D02*
X528Y97D01*
X1237Y97D02*
X1256Y97D01*
X1268Y97D02*
X1285Y97D01*
X487Y96D02*
X504Y96D01*
X512Y96D02*
X530Y96D01*
X1235Y96D02*
X1253Y96D01*
X1266Y96D02*
X1283Y96D01*
X489Y95D02*
X506Y95D01*
X514Y95D02*
X532Y95D01*
X1233Y95D02*
X1251Y95D01*
X1264Y95D02*
X1281Y95D01*
X491Y94D02*
X508Y94D01*
X516Y94D02*
X534Y94D01*
X1231Y94D02*
X1249Y94D01*
X1262Y94D02*
X1279Y94D01*
X493Y93D02*
X510Y93D01*
X518Y93D02*
X537Y93D01*
X1228Y93D02*
X1247Y93D01*
X1260Y93D02*
X1277Y93D01*
X495Y92D02*
X513Y92D01*
X521Y92D02*
X539Y92D01*
X1226Y92D02*
X1245Y92D01*
X1257Y92D02*
X1275Y92D01*
X497Y91D02*
X515Y91D01*
X523Y91D02*
X541Y91D01*
X1224Y91D02*
X1242Y91D01*
X1255Y91D02*
X1273Y91D01*
X499Y90D02*
X517Y90D01*
X525Y90D02*
X544Y90D01*
X1221Y90D02*
X1240Y90D01*
X1253Y90D02*
X1271Y90D01*
X501Y89D02*
X519Y89D01*
X527Y89D02*
X546Y89D01*
X1219Y89D02*
X1238Y89D01*
X1251Y89D02*
X1269Y89D01*
X504Y88D02*
X521Y88D01*
X530Y88D02*
X548Y88D01*
X1216Y88D02*
X1236Y88D01*
X1249Y88D02*
X1266Y88D01*
X506Y87D02*
X523Y87D01*
X532Y87D02*
X551Y87D01*
X1214Y87D02*
X1234Y87D01*
X1247Y87D02*
X1264Y87D01*
X508Y86D02*
X525Y86D01*
X534Y86D02*
X553Y86D01*
X1212Y86D02*
X1231Y86D01*
X1245Y86D02*
X1262Y86D01*
X510Y85D02*
X528Y85D01*
X536Y85D02*
X556Y85D01*
X1209Y85D02*
X1229Y85D01*
X1242Y85D02*
X1260Y85D01*
X512Y84D02*
X530Y84D01*
X539Y84D02*
X558Y84D01*
X1207Y84D02*
X1227Y84D01*
X1240Y84D02*
X1258Y84D01*
X514Y83D02*
X532Y83D01*
X541Y83D02*
X561Y83D01*
X1204Y83D02*
X1224Y83D01*
X1238Y83D02*
X1256Y83D01*
X516Y82D02*
X535Y82D01*
X544Y82D02*
X563Y82D01*
X1202Y82D02*
X1222Y82D01*
X1235Y82D02*
X1254Y82D01*
X519Y81D02*
X537Y81D01*
X546Y81D02*
X566Y81D01*
X1199Y81D02*
X1219Y81D01*
X1233Y81D02*
X1251Y81D01*
X521Y80D02*
X539Y80D01*
X548Y80D02*
X568Y80D01*
X1197Y80D02*
X1217Y80D01*
X1231Y80D02*
X1249Y80D01*
X523Y79D02*
X541Y79D01*
X551Y79D02*
X571Y79D01*
X1194Y79D02*
X1215Y79D01*
X1228Y79D02*
X1247Y79D01*
X525Y78D02*
X544Y78D01*
X553Y78D02*
X574Y78D01*
X1191Y78D02*
X1212Y78D01*
X1226Y78D02*
X1245Y78D01*
X527Y77D02*
X546Y77D01*
X556Y77D02*
X576Y77D01*
X1189Y77D02*
X1210Y77D01*
X1224Y77D02*
X1243Y77D01*
X530Y76D02*
X549Y76D01*
X558Y76D02*
X579Y76D01*
X1186Y76D02*
X1207Y76D01*
X1221Y76D02*
X1240Y76D01*
X532Y75D02*
X551Y75D01*
X561Y75D02*
X581Y75D01*
X1183Y75D02*
X1205Y75D01*
X1219Y75D02*
X1238Y75D01*
X534Y74D02*
X554Y74D01*
X563Y74D02*
X584Y74D01*
X1181Y74D02*
X1202Y74D01*
X1216Y74D02*
X1236Y74D01*
X537Y73D02*
X556Y73D01*
X566Y73D02*
X587Y73D01*
X1178Y73D02*
X1200Y73D01*
X1214Y73D02*
X1233Y73D01*
X539Y72D02*
X559Y72D01*
X568Y72D02*
X590Y72D01*
X1175Y72D02*
X1197Y72D01*
X1211Y72D02*
X1231Y72D01*
X541Y71D02*
X561Y71D01*
X571Y71D02*
X592Y71D01*
X1172Y71D02*
X1194Y71D01*
X1209Y71D02*
X1229Y71D01*
X544Y70D02*
X563Y70D01*
X574Y70D02*
X595Y70D01*
X1169Y70D02*
X1192Y70D01*
X1207Y70D02*
X1226Y70D01*
X546Y69D02*
X566Y69D01*
X576Y69D02*
X598Y69D01*
X1167Y69D02*
X1189Y69D01*
X1204Y69D02*
X1224Y69D01*
X549Y68D02*
X569Y68D01*
X579Y68D02*
X601Y68D01*
X1164Y68D02*
X1186Y68D01*
X1201Y68D02*
X1221Y68D01*
X551Y67D02*
X571Y67D01*
X582Y67D02*
X604Y67D01*
X1161Y67D02*
X1184Y67D01*
X1199Y67D02*
X1219Y67D01*
X553Y66D02*
X574Y66D01*
X584Y66D02*
X607Y66D01*
X1158Y66D02*
X1181Y66D01*
X1196Y66D02*
X1217Y66D01*
X556Y65D02*
X577Y65D01*
X587Y65D02*
X610Y65D01*
X1155Y65D02*
X1178Y65D01*
X1193Y65D02*
X1214Y65D01*
X558Y64D02*
X579Y64D01*
X590Y64D02*
X613Y64D01*
X1152Y64D02*
X1176Y64D01*
X1191Y64D02*
X1212Y64D01*
X561Y63D02*
X582Y63D01*
X593Y63D02*
X616Y63D01*
X1149Y63D02*
X1173Y63D01*
X1188Y63D02*
X1209Y63D01*
X563Y62D02*
X585Y62D01*
X596Y62D02*
X619Y62D01*
X1146Y62D02*
X1170Y62D01*
X1185Y62D02*
X1207Y62D01*
X566Y61D02*
X588Y61D01*
X599Y61D02*
X622Y61D01*
X1142Y61D02*
X1167Y61D01*
X1182Y61D02*
X1204Y61D01*
X569Y60D02*
X590Y60D01*
X601Y60D02*
X626Y60D01*
X1139Y60D02*
X1164Y60D01*
X1180Y60D02*
X1201Y60D01*
X571Y59D02*
X593Y59D01*
X604Y59D02*
X629Y59D01*
X1136Y59D02*
X1161Y59D01*
X1177Y59D02*
X1199Y59D01*
X574Y58D02*
X596Y58D01*
X607Y58D02*
X632Y58D01*
X1132Y58D02*
X1158Y58D01*
X1174Y58D02*
X1196Y58D01*
X577Y57D02*
X599Y57D01*
X610Y57D02*
X636Y57D01*
X1129Y57D02*
X1155Y57D01*
X1171Y57D02*
X1193Y57D01*
X579Y56D02*
X602Y56D01*
X613Y56D02*
X639Y56D01*
X1126Y56D02*
X1152Y56D01*
X1168Y56D02*
X1191Y56D01*
X582Y55D02*
X605Y55D01*
X616Y55D02*
X642Y55D01*
X1123Y55D02*
X1149Y55D01*
X1165Y55D02*
X1188Y55D01*
X585Y54D02*
X608Y54D01*
X620Y54D02*
X646Y54D01*
X1119Y54D02*
X1146Y54D01*
X1162Y54D02*
X1185Y54D01*
X588Y53D02*
X611Y53D01*
X623Y53D02*
X649Y53D01*
X1115Y53D02*
X1143Y53D01*
X1159Y53D02*
X1182Y53D01*
X590Y52D02*
X614Y52D01*
X626Y52D02*
X653Y52D01*
X1112Y52D02*
X1139Y52D01*
X1156Y52D02*
X1180Y52D01*
X593Y51D02*
X617Y51D01*
X629Y51D02*
X657Y51D01*
X1108Y51D02*
X1136Y51D01*
X1153Y51D02*
X1177Y51D01*
X596Y50D02*
X620Y50D01*
X633Y50D02*
X660Y50D01*
X1104Y50D02*
X1133Y50D01*
X1150Y50D02*
X1174Y50D01*
X599Y49D02*
X623Y49D01*
X636Y49D02*
X664Y49D01*
X1100Y49D02*
X1129Y49D01*
X1147Y49D02*
X1171Y49D01*
X602Y48D02*
X627Y48D01*
X640Y48D02*
X668Y48D01*
X1097Y48D02*
X1126Y48D01*
X1143Y48D02*
X1168Y48D01*
X605Y47D02*
X630Y47D01*
X643Y47D02*
X672Y47D01*
X1093Y47D02*
X1123Y47D01*
X1140Y47D02*
X1165Y47D01*
X608Y46D02*
X633Y46D01*
X647Y46D02*
X676Y46D01*
X1089Y46D02*
X1119Y46D01*
X1137Y46D02*
X1162Y46D01*
X611Y45D02*
X637Y45D01*
X650Y45D02*
X680Y45D01*
X1084Y45D02*
X1115Y45D01*
X1133Y45D02*
X1159Y45D01*
X614Y44D02*
X640Y44D01*
X654Y44D02*
X684Y44D01*
X1080Y44D02*
X1112Y44D01*
X1130Y44D02*
X1156Y44D01*
X617Y43D02*
X643Y43D01*
X657Y43D02*
X689Y43D01*
X1076Y43D02*
X1108Y43D01*
X1127Y43D02*
X1153Y43D01*
X620Y42D02*
X647Y42D01*
X661Y42D02*
X693Y42D01*
X1071Y42D02*
X1104Y42D01*
X1123Y42D02*
X1150Y42D01*
X623Y41D02*
X651Y41D01*
X665Y41D02*
X698Y41D01*
X1067Y41D02*
X1100Y41D01*
X1119Y41D02*
X1147Y41D01*
X627Y40D02*
X654Y40D01*
X669Y40D02*
X702Y40D01*
X1063Y40D02*
X1096Y40D01*
X1116Y40D02*
X1143Y40D01*
X630Y39D02*
X658Y39D01*
X673Y39D02*
X707Y39D01*
X1057Y39D02*
X1093Y39D01*
X1112Y39D02*
X1140Y39D01*
X634Y38D02*
X662Y38D01*
X677Y38D02*
X712Y38D01*
X1052Y38D02*
X1088Y38D01*
X1108Y38D02*
X1136Y38D01*
X637Y37D02*
X665Y37D01*
X681Y37D02*
X717Y37D01*
X1047Y37D02*
X1084Y37D01*
X1105Y37D02*
X1133Y37D01*
X640Y36D02*
X670Y36D01*
X686Y36D02*
X722Y36D01*
X1042Y36D02*
X1080Y36D01*
X1100Y36D02*
X1130Y36D01*
X644Y35D02*
X674Y35D01*
X690Y35D02*
X728Y35D01*
X1037Y35D02*
X1075Y35D01*
X1096Y35D02*
X1126Y35D01*
X647Y34D02*
X678Y34D01*
X695Y34D02*
X734Y34D01*
X1031Y34D02*
X1071Y34D01*
X1092Y34D02*
X1123Y34D01*
X651Y33D02*
X682Y33D01*
X699Y33D02*
X739Y33D01*
X1025Y33D02*
X1067Y33D01*
X1088Y33D02*
X1119Y33D01*
X655Y32D02*
X686Y32D01*
X704Y32D02*
X745Y32D01*
X1019Y32D02*
X1062Y32D01*
X1084Y32D02*
X1115Y32D01*
X658Y31D02*
X691Y31D01*
X709Y31D02*
X752Y31D01*
X1013Y31D02*
X1057Y31D01*
X1079Y31D02*
X1112Y31D01*
X662Y30D02*
X695Y30D01*
X714Y30D02*
X759Y30D01*
X1006Y30D02*
X1052Y30D01*
X1075Y30D02*
X1108Y30D01*
X666Y29D02*
X700Y29D01*
X719Y29D02*
X766Y29D01*
X999Y29D02*
X1047Y29D01*
X1070Y29D02*
X1104Y29D01*
X670Y28D02*
X704Y28D01*
X724Y28D02*
X773Y28D01*
X992Y28D02*
X1041Y28D01*
X1066Y28D02*
X1100Y28D01*
X674Y27D02*
X709Y27D01*
X730Y27D02*
X782Y27D01*
X983Y27D02*
X1036Y27D01*
X1061Y27D02*
X1096Y27D01*
X678Y26D02*
X714Y26D01*
X735Y26D02*
X791Y26D01*
X974Y26D02*
X1030Y26D01*
X1056Y26D02*
X1092Y26D01*
X682Y25D02*
X720Y25D01*
X741Y25D02*
X801Y25D01*
X964Y25D02*
X1024Y25D01*
X1050Y25D02*
X1088Y25D01*
X687Y24D02*
X725Y24D01*
X748Y24D02*
X812Y24D01*
X953Y24D02*
X1018Y24D01*
X1045Y24D02*
X1083Y24D01*
X691Y23D02*
X730Y23D01*
X754Y23D02*
X825Y23D01*
X939Y23D02*
X1012Y23D01*
X1040Y23D02*
X1079Y23D01*
X696Y22D02*
X736Y22D01*
X761Y22D02*
X844Y22D01*
X921Y22D02*
X1005Y22D01*
X1034Y22D02*
X1074Y22D01*
X700Y21D02*
X742Y21D01*
X768Y21D02*
X998Y21D01*
X1028Y21D02*
X1070Y21D01*
X705Y20D02*
X748Y20D01*
X776Y20D02*
X990Y20D01*
X1022Y20D02*
X1065Y20D01*
X710Y19D02*
X755Y19D01*
X784Y19D02*
X982Y19D01*
X1015Y19D02*
X1060Y19D01*
X715Y18D02*
X762Y18D01*
X794Y18D02*
X972Y18D01*
X1008Y18D02*
X1055Y18D01*
X720Y17D02*
X769Y17D01*
X804Y17D02*
X962Y17D01*
X1001Y17D02*
X1050Y17D01*
X725Y16D02*
X777Y16D01*
X816Y16D02*
X950Y16D01*
X993Y16D02*
X1045Y16D01*
X731Y15D02*
X786Y15D01*
X831Y15D02*
X936Y15D01*
X984Y15D02*
X1039Y15D01*
X737Y14D02*
X795Y14D01*
X851Y14D02*
X915Y14D01*
X975Y14D02*
X1033Y14D01*
X743Y13D02*
X806Y13D01*
X964Y13D02*
X1027Y13D01*
X749Y12D02*
X818Y12D01*
X952Y12D02*
X1021Y12D01*
X756Y11D02*
X833Y11D01*
X937Y11D02*
X1014Y11D01*
X763Y10D02*
X856Y10D01*
X914Y10D02*
X1007Y10D01*
X770Y9D02*
X1000Y9D01*
X778Y8D02*
X992Y8D01*
X787Y7D02*
X983Y7D01*
X796Y6D02*
X974Y6D01*
X807Y5D02*
X963Y5D01*
X819Y4D02*
X951Y4D01*
X835Y3D02*
X935Y3D01*
X857Y2D02*
X913Y2D01*
D02*
G04 End of Silk1*
M02*