G04 MADE WITH FRITZING*
G04 WWW.FRITZING.ORG*
G04 DOUBLE SIDED*
G04 HOLES PLATED*
G04 CONTOUR ON CENTER OF CONTOUR VECTOR*
%ASAXBY*%
%FSLAX23Y23*%
%MOIN*%
%OFA0B0*%
%SFA1.0B1.0*%
%ADD10C,0.070000*%
%ADD11C,0.077778*%
%ADD12C,0.078000*%
%ADD13C,0.075000*%
%ADD14C,0.024000*%
%LNCOPPER1*%
G90*
G70*
G54D10*
X533Y1640D03*
X1164Y1669D03*
X133Y537D03*
X1237Y138D03*
X56Y853D03*
X1499Y333D03*
G54D11*
X1336Y1273D03*
X1336Y1173D03*
X1336Y1073D03*
X1336Y973D03*
X1336Y873D03*
X1336Y773D03*
X1336Y673D03*
X1336Y573D03*
X436Y573D03*
X436Y673D03*
X436Y773D03*
X436Y873D03*
X436Y973D03*
X436Y1073D03*
X436Y1173D03*
X436Y1273D03*
X1336Y1273D03*
X1336Y1173D03*
X1336Y1073D03*
X1336Y973D03*
X1336Y873D03*
X1336Y773D03*
X1336Y673D03*
X1336Y573D03*
X436Y573D03*
X436Y673D03*
X436Y773D03*
X436Y873D03*
X436Y973D03*
X436Y1073D03*
X436Y1173D03*
X436Y1273D03*
G54D12*
X736Y549D03*
X836Y549D03*
X936Y549D03*
X1036Y549D03*
G54D13*
X753Y749D03*
X1153Y749D03*
G54D14*
X1153Y571D02*
X1307Y573D01*
D02*
X1153Y721D02*
X1153Y571D01*
D02*
X1102Y450D02*
X1225Y167D01*
D02*
X1036Y450D02*
X1102Y450D01*
D02*
X1036Y519D02*
X1036Y450D01*
D02*
X548Y1612D02*
X854Y1073D01*
D02*
X854Y1073D02*
X1307Y1073D01*
D02*
X628Y450D02*
X628Y673D01*
D02*
X628Y673D02*
X465Y673D01*
D02*
X1036Y450D02*
X628Y450D01*
D02*
X1036Y519D02*
X1036Y450D01*
D02*
X160Y552D02*
X356Y653D01*
D02*
X356Y653D02*
X415Y594D01*
D02*
X737Y749D02*
X736Y580D01*
D02*
X725Y749D02*
X737Y749D01*
D02*
X837Y971D02*
X836Y580D01*
D02*
X1307Y973D02*
X837Y971D01*
G04 End of Copper1*
M02*